<svg width="161" height="140" viewBox="0 0 161 140" fill="none" xmlns="http://www.w3.org/2000/svg">
<g id="fruit_2" filter="url(#filter0_d_340_468)">
<path id="Vector 26 (Stroke)" fill-rule="evenodd" clip-rule="evenodd" d="M114.831 29.287C97.3654 52.818 75.858 60.2259 66.8044 60.9223C65.3997 61.0304 64.1733 59.9792 64.0653 58.5745C63.9572 57.1697 65.0084 55.9434 66.4131 55.8353C73.9411 55.2562 94.1174 48.6335 110.734 26.2462L114.831 29.287Z" fill="url(#paint0_linear_340_468)"/>
<path id="Vector 27 (Stroke)" fill-rule="evenodd" clip-rule="evenodd" d="M115.93 27.8618C119.156 44.4045 117.883 62.6683 116.84 69.7897L112.549 69.1618C113.548 62.3377 114.775 44.598 111.674 28.6917L115.93 27.8618Z" fill="url(#paint1_linear_340_468)"/>
<g id="Mask group">
<mask id="mask0_340_468" style="mask-type:alpha" maskUnits="userSpaceOnUse" x="23" y="50" width="57" height="55">
<path id="Ellipse 18" d="M76.4297 90.1394C69.8756 103.351 53.4276 108.537 39.6922 101.723C25.9568 94.9087 20.1352 78.6749 26.6894 65.4635C33.2435 52.2521 49.6914 47.066 63.4268 53.88C77.1622 60.6941 82.9838 76.928 76.4297 90.1394Z" fill="white"/>
</mask>
<g mask="url(#mask0_340_468)">
<path id="Ellipse 5" d="M76.4297 90.1394C69.8756 103.351 53.4276 108.537 39.6922 101.723C25.9568 94.9087 20.1352 78.6749 26.6894 65.4635C33.2435 52.2521 49.6914 47.066 63.4268 53.88C77.1622 60.6941 82.9838 76.928 76.4297 90.1394Z" fill="#DD364A"/>
<path id="Ellipse 16" d="M80.7989 88.3905C72.8553 107.304 48.4132 115.075 26.206 105.748C3.99878 96.4204 -7.56414 73.5271 0.379484 54.6139C8.32311 35.7008 32.7652 27.9298 54.9724 37.2569C77.1796 46.5841 88.7425 69.4774 80.7989 88.3905Z" fill="url(#paint2_radial_340_468)" fill-opacity="0.4"/>
</g>
</g>
<g id="Mask group_2">
<mask id="mask1_340_468" style="mask-type:alpha" maskUnits="userSpaceOnUse" x="88" y="68" width="44" height="48">
<path id="Ellipse 18_2" d="M117.751 109.311C106.454 117.767 93.8219 116.772 89.5363 107.089C85.2507 97.4063 90.9346 82.7027 102.232 74.2474C113.529 65.7922 126.161 66.7872 130.446 76.4698C134.732 86.1524 129.048 100.856 117.751 109.311Z" fill="white"/>
</mask>
<g mask="url(#mask1_340_468)">
<path id="Ellipse 5_2" d="M117.751 109.311C106.454 117.767 93.8219 116.772 89.5363 107.089C85.2507 97.4063 90.9346 82.7027 102.232 74.2474C113.529 65.7922 126.161 66.7872 130.446 76.4698C134.732 86.1524 129.048 100.856 117.751 109.311Z" fill="#DD364A"/>
<path id="Ellipse 16_2" d="M128.526 97.0089C115.938 114.969 97.1777 121.563 86.6227 111.736C76.0677 101.91 77.7152 79.3837 90.3025 61.4233C102.89 43.4629 121.65 36.8692 132.205 46.6959C142.76 56.5226 141.113 79.0485 128.526 97.0089Z" fill="url(#paint3_radial_340_468)" fill-opacity="0.4"/>
</g>
</g>
<path id="Ellipse 7" d="M45.5154 70.5802C43.5259 74.5907 38.5329 76.165 34.3633 74.0965C30.1937 72.028 28.4265 67.1 30.4161 63.0895C32.4057 59.0789 37.3987 57.5046 41.5682 59.5732C45.7378 61.6417 47.505 66.5697 45.5154 70.5802Z" fill="url(#paint4_radial_340_468)" fill-opacity="0.2"/>
<path id="Intersect" fill-rule="evenodd" clip-rule="evenodd" d="M96.0365 111.585C96.9993 109.831 99.6579 109.277 102.133 110.363C104.361 111.342 105.712 113.331 105.491 115.102C104.273 115.909 102.292 116.099 100.278 115.466C97.9672 114.741 96.3111 113.153 96.0365 111.585Z" fill="#8B654B"/>
<path id="Intersect_2" fill-rule="evenodd" clip-rule="evenodd" d="M97.6447 113.772C98.1264 112.894 99.4566 112.617 100.695 113.16C101.81 113.65 102.485 114.645 102.375 115.531C101.765 115.935 100.774 116.03 99.7666 115.713C98.6107 115.351 97.7821 114.556 97.6447 113.772Z" fill="#514640"/>
<path id="Vector 25" d="M58.4447 51.8737C59.7712 51.9757 64.1845 54.2971 66.2253 55.4451C68.5722 56.9756 70.2644 58.5488 70.8171 59.1441C71.5825 59.9945 72.9345 61.7717 72.2202 62.0778C71.5059 62.3839 69.4566 59.6543 68.5212 58.2513L68.1386 60.1645C67.6284 59.5268 66.7355 58.1492 67.2457 57.7411C67.7559 57.3329 67.0331 56.9758 66.608 56.8482C66.71 57.1543 64.6097 56.9758 63.5467 56.8482C63.3767 56.6781 63.4702 56.2869 65.2049 56.0828C67.3733 55.8277 56.7865 51.7461 58.4447 51.8737Z" fill="#514640"/>
<path id="Vector 25 (Stroke)" fill-rule="evenodd" clip-rule="evenodd" d="M58.3077 51.7474C58.3497 51.7416 58.4001 51.7422 58.4554 51.7465C58.8085 51.7736 59.3495 51.945 59.9809 52.1947C60.6172 52.4462 61.3601 52.7833 62.1236 53.1523C63.6508 53.8903 65.2668 54.759 66.2888 55.3339L66.2924 55.3359L66.2959 55.3382C68.6513 56.8743 70.3515 58.4541 70.9116 59.0573L70.9129 59.0588C71.2984 59.4871 71.8341 60.1512 72.1846 60.7506C72.3587 61.0483 72.4944 61.342 72.5366 61.5883C72.5579 61.712 72.5576 61.835 72.5168 61.9436C72.4741 62.057 72.3914 62.1436 72.2714 62.195C72.1389 62.2518 71.9912 62.2317 71.8501 62.178C71.7077 62.1237 71.5543 62.0287 71.396 61.9077C71.0788 61.6652 70.7199 61.3015 70.3587 60.8896C69.7178 60.1586 69.0564 59.2606 68.5874 58.5755L68.2109 60.4579L68.04 60.2442C67.7813 59.9208 67.424 59.4083 67.195 58.9209C67.081 58.6781 66.9944 58.4325 66.9723 58.2151C66.9503 57.9978 66.9912 57.7821 67.167 57.6414C67.2776 57.553 67.2957 57.4885 67.2946 57.4509C67.2934 57.4081 67.2665 57.3515 67.1923 57.2833C67.0686 57.1697 66.8644 57.0713 66.6801 57.0057C66.6566 57.0285 66.6298 57.0445 66.606 57.056C66.5364 57.0899 66.4409 57.1094 66.3386 57.1219C66.1291 57.1475 65.8346 57.1495 65.5108 57.1383C64.8605 57.1158 64.0658 57.0388 63.5325 56.9748L63.4887 56.9696L63.4575 56.9384C63.394 56.8748 63.344 56.778 63.3657 56.662C63.3867 56.5504 63.4683 56.4536 63.5922 56.3718C63.8379 56.2096 64.3211 56.0585 65.191 55.9561C65.3032 55.9429 65.3525 55.9211 65.3702 55.9093C65.3684 55.9044 65.3652 55.8972 65.3596 55.8875C65.3323 55.8404 65.2703 55.7734 65.1648 55.6878C65.0617 55.6042 64.9264 55.5102 64.7632 55.4075C64.1089 54.9956 63.0474 54.4686 61.9621 53.9498C61.6046 53.779 61.2446 53.6091 60.8966 53.4448C60.192 53.1122 59.5363 52.8027 59.0495 52.5554C58.6893 52.3723 58.4083 52.2167 58.27 52.1075C58.2355 52.0803 58.2012 52.0494 58.1774 52.0158C58.1584 51.9889 58.1135 51.9119 58.1634 51.8304C58.185 51.7952 58.2159 51.7762 58.2391 51.7659C58.2626 51.7556 58.2867 51.7504 58.3077 51.7474ZM65.5612 56.0803C65.4857 56.1592 65.359 56.1932 65.2208 56.2095C64.3559 56.3113 63.925 56.4578 63.7328 56.5847C63.6377 56.6475 63.6195 56.6931 63.6165 56.709C63.6155 56.7144 63.6154 56.7207 63.6177 56.7281C64.1458 56.7902 64.9012 56.8619 65.5196 56.8833C65.841 56.8945 66.1189 56.8917 66.3077 56.8687C66.3833 56.8594 66.4366 56.8478 66.4705 56.8362L66.4102 56.6554L66.6456 56.726C66.8638 56.7915 67.1733 56.9194 67.3649 57.0955C67.4608 57.1836 67.5455 57.3007 67.5496 57.4436C67.5538 57.5918 67.4709 57.725 67.3264 57.8406C67.247 57.9041 67.2083 58.0136 67.2261 58.1894C67.2439 58.3649 67.3168 58.5801 67.4259 58.8124C67.5975 59.1777 67.848 59.563 68.0696 59.8637L68.4575 57.9243L68.6283 58.1805C69.0942 58.8793 69.8369 59.9075 70.5505 60.7214C70.9079 61.129 71.2537 61.4779 71.5509 61.705C71.6997 61.8188 71.8309 61.8977 71.9409 61.9396C72.0523 61.982 72.1249 61.9803 72.1709 61.9605C72.2296 61.9354 72.2608 61.8995 72.278 61.8538C72.297 61.8033 72.3022 61.7306 72.2852 61.6314C72.2509 61.4318 72.1347 61.1706 71.9644 60.8794C71.6264 60.3014 71.1038 59.6522 70.724 59.2302C70.1782 58.6425 68.4958 57.0779 66.1601 55.5542C65.1411 54.9811 63.532 54.1163 62.0126 53.382C61.2519 53.0143 60.5152 52.6802 59.8871 52.4319C59.3561 52.222 58.913 52.0777 58.6008 52.0225C58.7374 52.1048 58.9285 52.2077 59.1651 52.3279C59.6486 52.5737 60.2983 52.8803 61.0005 53.2117C61.3494 53.3764 61.7112 53.5472 62.0721 53.7197C63.1551 54.2373 64.2301 54.7705 64.8991 55.1916C65.0668 55.2972 65.2115 55.3973 65.3254 55.4896C65.4368 55.58 65.5289 55.6708 65.5803 55.7595C65.6065 55.8047 65.6273 55.858 65.6275 55.9163C65.6278 55.9789 65.6041 56.0355 65.5612 56.0803Z" fill="#514640"/>
<path id="Vector 28" d="M113.292 25.2156C108.905 23.481 108.403 26.8737 108.701 28.787C108.919 30.19 110.869 29.0421 110.486 30.0625C110.103 31.0829 111.124 31.9758 112.272 32.486C113.42 32.9962 110.996 30.1901 113.292 29.2972C115.129 28.5829 116.268 30.02 116.609 30.8278C117.331 29.6799 117.68 26.9503 113.292 25.2156Z" fill="#514640"/>
<path id="Vector 28 (Stroke)" fill-rule="evenodd" clip-rule="evenodd" d="M109.343 25.7086C108.736 26.5379 108.68 27.8221 108.827 28.7674C108.876 29.0808 109.016 29.2354 109.184 29.321C109.363 29.4125 109.59 29.4328 109.824 29.4408C109.857 29.4419 109.89 29.4428 109.924 29.4437C110.004 29.4458 110.084 29.448 110.157 29.4532C110.259 29.4607 110.364 29.4751 110.451 29.5131C110.544 29.5538 110.624 29.6252 110.653 29.7416C110.679 29.8477 110.657 29.9708 110.606 30.1073C110.436 30.5609 110.572 30.9915 110.903 31.3832C111.237 31.7777 111.76 32.1187 112.324 32.3694C112.391 32.3992 112.438 32.4133 112.468 32.4181C112.469 32.4183 112.471 32.4185 112.472 32.4187C112.473 32.4028 112.472 32.3795 112.467 32.3469C112.454 32.2551 112.418 32.1305 112.372 31.9726C112.369 31.9608 112.365 31.9489 112.361 31.9368C112.319 31.7908 112.269 31.6237 112.228 31.4468C112.139 31.066 112.081 30.6207 112.204 30.2074C112.33 29.7849 112.64 29.4142 113.247 29.1783C114.207 28.8049 114.994 28.9935 115.583 29.3856C116.066 29.7075 116.413 30.1643 116.618 30.5512C116.898 29.9931 117.061 29.1664 116.747 28.2845C116.393 27.2875 115.418 26.1931 113.246 25.3343C112.161 24.9055 111.331 24.7995 110.702 24.8988C110.077 24.9974 109.642 25.2996 109.343 25.7086ZM110.663 24.6468C111.352 24.538 112.23 24.6585 113.34 25.097C115.555 25.9729 116.6 27.1106 116.988 28.199C117.374 29.2849 117.095 30.2949 116.717 30.8958L116.587 31.103L116.492 30.8773C116.329 30.4908 115.973 29.9519 115.441 29.5979C114.916 29.248 114.216 29.0752 113.339 29.4161C112.798 29.6267 112.55 29.9415 112.448 30.2803C112.345 30.6284 112.39 31.0201 112.476 31.3887C112.516 31.5582 112.563 31.7188 112.606 31.8656C112.61 31.8774 112.613 31.8891 112.617 31.9007C112.662 32.0532 112.703 32.1967 112.719 32.3102C112.728 32.3667 112.731 32.4262 112.722 32.4805C112.711 32.5371 112.683 32.6007 112.619 32.6406C112.558 32.6782 112.488 32.6796 112.428 32.67C112.366 32.6603 112.297 32.6365 112.221 32.6025C111.637 32.3431 111.076 31.9825 110.708 31.548C110.338 31.1105 110.155 30.5845 110.367 30.0177C110.412 29.8991 110.413 29.8349 110.405 29.803C110.4 29.7814 110.388 29.764 110.349 29.7469C110.303 29.7271 110.235 29.7147 110.138 29.7077C110.072 29.7029 110.001 29.701 109.924 29.6989C109.889 29.698 109.853 29.697 109.815 29.6957C109.582 29.6878 109.303 29.6682 109.068 29.5484C108.821 29.4228 108.635 29.1948 108.575 28.8066C108.424 27.8386 108.47 26.4698 109.137 25.558C109.474 25.0966 109.969 24.7563 110.663 24.6468Z" fill="#514640"/>
</g>
<defs>
<filter id="filter0_d_340_468" x="-0.00292969" y="0.609192" width="155.878" height="139.293" filterUnits="userSpaceOnUse" color-interpolation-filters="sRGB">
<feFlood flood-opacity="0" result="BackgroundImageFix"/>
<feColorMatrix in="SourceAlpha" type="matrix" values="0 0 0 0 0 0 0 0 0 0 0 0 0 0 0 0 0 0 127 0" result="hardAlpha"/>
<feOffset/>
<feGaussianBlur stdDeviation="12"/>
<feComposite in2="hardAlpha" operator="out"/>
<feColorMatrix type="matrix" values="0 0 0 0 0 0 0 0 0 0 0 0 0 0 0 0 0 0 0.45 0"/>
<feBlend mode="normal" in2="BackgroundImageFix" result="effect1_dropShadow_340_468"/>
<feBlend mode="normal" in="SourceGraphic" in2="effect1_dropShadow_340_468" result="shape"/>
</filter>
<linearGradient id="paint0_linear_340_468" x1="75.7924" y1="34.3992" x2="89.6955" y2="58.3788" gradientUnits="userSpaceOnUse">
<stop offset="0.376236" stop-color="#E6F0A7"/>
<stop offset="0.793035" stop-color="#70A172"/>
</linearGradient>
<linearGradient id="paint1_linear_340_468" x1="123.624" y1="53.4043" x2="104.108" y2="53.2768" gradientUnits="userSpaceOnUse">
<stop stop-color="#70A172"/>
<stop offset="1" stop-color="#E6F0A7"/>
</linearGradient>
<radialGradient id="paint2_radial_340_468" cx="0" cy="0" r="1" gradientUnits="userSpaceOnUse" gradientTransform="translate(40.5892 71.5022) rotate(112.783) scale(37.1432 43.6123)">
<stop stop-color="white"/>
<stop offset="1" stop-color="#9A0C1D"/>
</radialGradient>
<radialGradient id="paint3_radial_340_468" cx="0" cy="0" r="1" gradientUnits="userSpaceOnUse" gradientTransform="translate(109.414 79.2161) rotate(125.024) scale(39.7115 25.8623)">
<stop stop-color="white"/>
<stop offset="1" stop-color="#9A0C1D"/>
</radialGradient>
<radialGradient id="paint4_radial_340_468" cx="0" cy="0" r="1" gradientUnits="userSpaceOnUse" gradientTransform="translate(37.9658 66.8348) rotate(116.386) scale(8.10615 8.42766)">
<stop offset="0.223958" stop-color="#DD364A" stop-opacity="0"/>
<stop offset="1" stop-color="#E5707E"/>
</radialGradient>
</defs>
</svg>
