<svg width="236" height="269" viewBox="0 0 236 269" fill="none" xmlns="http://www.w3.org/2000/svg">
<g id="fruit_1" filter="url(#filter0_d_256_517)">
<path id="Vector 32 (Stroke)" fill-rule="evenodd" clip-rule="evenodd" d="M132.217 76.3743C132.549 79.7933 133.266 87.7933 133.467 92.3289C133.673 96.9666 132.708 106.217 132.212 110.197L129.267 109.831C129.768 105.809 130.695 96.8067 130.502 92.4604C130.305 88.0119 129.595 80.0833 129.263 76.661L132.217 76.3743Z" fill="#514640"/>
<g id="Group 1">
<g id="Mask group">
<mask id="mask0_256_517" style="mask-type:alpha" maskUnits="userSpaceOnUse" x="135" y="88" width="37" height="41">
<path id="Ellipse 21" d="M170.426 106.218C173.3 117.236 168.006 127.19 158.601 128.453C149.197 129.715 139.242 121.807 136.367 110.789C133.493 99.7721 138.786 89.8175 148.191 88.5552C157.596 87.2929 167.551 95.2009 170.426 106.218Z" fill="#DD364A"/>
</mask>
<g mask="url(#mask0_256_517)">
<path id="Ellipse 24" d="M170.426 106.218C173.3 117.236 168.006 127.19 158.601 128.453C149.197 129.715 139.242 121.807 136.367 110.789C133.493 99.7721 138.786 89.8175 148.191 88.5552C157.596 87.2929 167.551 95.2009 170.426 106.218Z" fill="#DD364A"/>
<path id="Ellipse 22" d="M150.375 106.249C151.685 111.268 149.273 115.803 144.988 116.378C140.704 116.953 136.169 113.351 134.859 108.332C133.55 103.313 135.962 98.7778 140.246 98.2027C144.53 97.6277 149.065 101.23 150.375 106.249Z" fill="url(#paint0_radial_256_517)" fill-opacity="0.4"/>
<path id="Ellipse 23" d="M171.91 101.996C175.876 117.189 168.403 130.939 155.221 132.708C142.038 134.477 128.136 123.594 124.17 108.401C120.205 93.2085 127.677 79.4583 140.86 77.6896C154.043 75.9208 167.945 86.8032 171.91 101.996Z" fill="url(#paint1_radial_256_517)" fill-opacity="0.5"/>
</g>
</g>
<g id="Mask group_2">
<mask id="mask1_256_517" style="mask-type:alpha" maskUnits="userSpaceOnUse" x="137" y="31" width="39" height="40">
<path id="Ellipse 21_2" d="M169.038 67.0317C161.151 72.9753 149.191 70.6514 142.324 61.841C135.458 53.0307 136.285 41.0703 144.173 35.1267C152.06 29.1831 164.02 31.507 170.887 40.3173C177.753 49.1276 176.926 61.088 169.038 67.0317Z" fill="#DD364A"/>
</mask>
<g mask="url(#mask1_256_517)">
<path id="Ellipse 24_2" d="M169.038 67.0317C161.151 72.9753 149.191 70.6514 142.324 61.841C135.458 53.0307 136.285 41.0703 144.173 35.1267C152.06 29.1831 164.02 31.507 170.887 40.3173C177.753 49.1276 176.926 61.088 169.038 67.0317Z" fill="#DD364A"/>
<path id="Ellipse 22_2" d="M158.48 48.1805C154.887 50.8882 149.438 49.8295 146.31 45.8159C143.182 41.8023 143.559 36.3537 147.152 33.6461C150.745 30.9384 156.194 31.9971 159.322 36.0107C162.45 40.0243 162.073 45.4729 158.48 48.1805Z" fill="url(#paint2_radial_256_517)" fill-opacity="0.4"/>
<path id="Ellipse 23_2" d="M174.528 67.129C163.666 75.3139 147.072 71.955 137.464 59.6267C127.856 47.2984 128.872 30.6691 139.734 22.4842C150.595 14.2992 167.189 17.6581 176.798 29.9865C186.406 42.3148 185.39 58.9441 174.528 67.129Z" fill="url(#paint3_radial_256_517)" fill-opacity="0.5"/>
</g>
</g>
<path id="Vector 31 (Stroke)" fill-rule="evenodd" clip-rule="evenodd" d="M100.366 150.582C101.913 148.475 103.981 144.975 105.357 141.039C106.728 137.116 107.575 132.296 105.979 127.936L100.803 129.829C101.752 132.423 101.361 135.765 100.153 139.22C98.9681 142.61 97.1496 145.663 95.8763 147.382L95.8178 147.461L62.4805 199.909L67.1324 202.866L100.366 150.582Z" fill="#514640"/>
<g id="Mask group_3">
<mask id="mask2_256_517" style="mask-type:alpha" maskUnits="userSpaceOnUse" x="102" y="105" width="42" height="48">
<path id="Ellipse 21_3" d="M142.766 125.914C146.124 138.782 139.94 150.41 128.955 151.884C117.969 153.359 106.342 144.122 102.984 131.253C99.6263 118.384 105.81 106.757 116.795 105.282C127.781 103.808 139.408 113.045 142.766 125.914Z" fill="#DD364A"/>
</mask>
<g mask="url(#mask2_256_517)">
<path id="Ellipse 24_3" d="M142.766 125.914C146.124 138.782 139.94 150.41 128.955 151.884C117.969 153.359 106.342 144.122 102.984 131.253C99.6263 118.384 105.81 106.757 116.795 105.282C127.781 103.808 139.408 113.045 142.766 125.914Z" fill="#DD364A"/>
<path id="Ellipse 22_3" d="M119.344 125.95C120.873 131.812 118.056 137.109 113.052 137.781C108.047 138.453 102.751 134.245 101.221 128.382C99.6912 122.52 102.508 117.223 107.513 116.551C112.517 115.879 117.814 120.087 119.344 125.95Z" fill="url(#paint4_radial_256_517)" fill-opacity="0.4"/>
<path id="Ellipse 23_3" d="M144.501 120.982C149.133 138.728 140.405 154.789 125.006 156.855C109.608 158.921 93.3703 146.21 88.7384 128.464C84.1065 110.718 92.8344 94.6569 108.233 92.5908C123.631 90.5248 139.869 103.236 144.501 120.982Z" fill="url(#paint5_radial_256_517)" fill-opacity="0.4"/>
</g>
</g>
<path id="Vector 30 (Stroke)" fill-rule="evenodd" clip-rule="evenodd" d="M137.246 141.618C129.506 143.395 122.623 145.34 119.53 146.999C118.144 147.743 115.434 149.925 111.733 153.294C108.126 156.577 103.814 160.765 99.311 165.275C90.3091 174.291 80.6242 184.515 74.4567 191.176L70.4121 187.431C76.6115 180.736 86.346 170.459 95.4104 161.38C99.9407 156.843 104.323 152.585 108.022 149.218C111.627 145.937 114.833 143.264 116.924 142.142C120.785 140.071 128.424 137.988 136.012 136.245C143.742 134.471 151.864 132.955 156.995 132.1L157.901 137.537C152.855 138.378 144.844 139.873 137.246 141.618Z" fill="#514640"/>
<path id="Vector 29 (Stroke)" fill-rule="evenodd" clip-rule="evenodd" d="M179.453 56.2842C167.544 69.8943 142.19 99.1823 135.482 108.07C133.492 110.707 131.334 114.37 128.975 118.654C127.955 120.508 126.855 122.556 125.721 124.669C124.343 127.235 122.914 129.897 121.514 132.419C116.336 141.751 110.355 151.459 103.553 156.532C100.758 158.616 96.4749 163.406 91.3196 169.917C86.2351 176.338 80.503 184.171 74.8385 192.098C71.3658 196.959 67.9039 201.876 64.6343 206.521C57.3258 216.904 50.9776 225.922 47.6136 229.884C39.5611 239.368 29.7511 243.469 25.5187 244.365L24.3779 238.972C27.495 238.313 36.2 234.81 43.4117 226.316C46.6075 222.552 52.682 213.923 59.8668 203.716C63.1838 199.003 66.7374 193.955 70.3537 188.894C76.0314 180.948 81.827 173.026 86.9982 166.495C92.0986 160.054 96.7986 154.693 100.258 152.114C105.964 147.858 111.432 139.229 116.695 129.745C118.142 127.137 119.486 124.63 120.807 122.168C121.922 120.09 123.019 118.043 124.147 115.996C126.511 111.701 128.832 107.731 131.082 104.75C137.942 95.6601 163.469 66.1807 175.305 52.6544L179.453 56.2842Z" fill="#514640"/>
<g id="Mask group_4">
<mask id="mask3_256_517" style="mask-type:alpha" maskUnits="userSpaceOnUse" x="105" y="43" width="39" height="39">
<path id="Ellipse 21_4" d="M143.88 62.5254C143.88 73.0632 135.338 81.6057 124.8 81.6057C114.262 81.6057 105.72 73.0632 105.72 62.5254C105.72 51.9876 114.262 43.4451 124.8 43.4451C135.338 43.4451 143.88 51.9876 143.88 62.5254Z" fill="#DD364A"/>
</mask>
<g mask="url(#mask3_256_517)">
<path id="Ellipse 24_4" d="M143.88 62.5254C143.88 73.0632 135.338 81.6057 124.8 81.6057C114.262 81.6057 105.72 73.0632 105.72 62.5254C105.72 51.9876 114.262 43.4451 124.8 43.4451C135.338 43.4451 143.88 51.9876 143.88 62.5254Z" fill="#DD364A"/>
<path id="Ellipse 22_4" d="M123.104 59.3455C123.104 64.146 119.212 68.0376 114.412 68.0376C109.611 68.0376 105.72 64.146 105.72 59.3455C105.72 54.5449 109.611 50.6533 114.412 50.6533C119.212 50.6533 123.104 54.5449 123.104 59.3455Z" fill="url(#paint6_radial_256_517)" fill-opacity="0.4"/>
<path id="Ellipse 23_4" d="M146.85 58.2854C146.85 72.8041 134.89 84.5739 120.137 84.5739C105.384 84.5739 93.4248 72.8041 93.4248 58.2854C93.4248 43.7667 105.384 31.997 120.137 31.997C134.89 31.997 146.85 43.7667 146.85 58.2854Z" fill="url(#paint7_radial_256_517)" fill-opacity="0.8"/>
</g>
</g>
<g id="Mask group_5">
<mask id="mask4_256_517" style="mask-type:alpha" maskUnits="userSpaceOnUse" x="173" y="24" width="39" height="39">
<path id="Ellipse 21_5" d="M211.724 43.4451C211.724 32.9073 203.182 24.3648 192.644 24.3648C182.106 24.3648 173.563 32.9073 173.563 43.4451C173.563 53.9828 182.106 62.5254 192.644 62.5254C203.182 62.5254 211.724 53.9828 211.724 43.4451Z" fill="#DD364A"/>
</mask>
<g mask="url(#mask4_256_517)">
<path id="Ellipse 24_5" d="M211.724 43.4451C211.724 32.9073 203.182 24.3648 192.644 24.3648C182.106 24.3648 173.563 32.9073 173.563 43.4451C173.563 53.9828 182.106 62.5254 192.644 62.5254C203.182 62.5254 211.724 53.9828 211.724 43.4451Z" fill="#DD364A"/>
<path id="Ellipse 22_5" d="M186.284 44.7171C186.284 41.2045 183.436 38.357 179.924 38.357C176.411 38.357 173.563 41.2045 173.563 44.7171C173.563 48.2297 176.411 51.0772 179.924 51.0772C183.436 51.0772 186.284 48.2297 186.284 44.7171Z" fill="url(#paint8_radial_256_517)" fill-opacity="0.4"/>
<path id="Ellipse 25" d="M183.734 36.873C183.734 34.4142 181.741 32.4209 179.282 32.4209C176.823 32.4209 174.83 34.4142 174.83 36.873C174.83 39.3318 176.823 41.325 179.282 41.325C181.741 41.325 183.734 39.3318 183.734 36.873Z" fill="url(#paint9_radial_256_517)" fill-opacity="0.4"/>
<path id="Ellipse 23_5" d="M214.692 47.6851C214.692 33.1664 202.733 21.3967 187.98 21.3967C173.227 21.3967 161.268 33.1664 161.268 47.6851C161.268 62.2038 173.227 73.9736 187.98 73.9736C202.733 73.9736 214.692 62.2038 214.692 47.6851Z" fill="url(#paint10_radial_256_517)" fill-opacity="0.9"/>
</g>
</g>
<g id="Mask group_6">
<mask id="mask5_256_517" style="mask-type:alpha" maskUnits="userSpaceOnUse" x="149" y="128" width="38" height="43">
<path id="Ellipse 21_6" d="M185.332 152.772C181.315 164.263 170.388 171.966 160.927 169.978C151.465 167.99 147.052 157.064 151.069 145.573C155.085 134.083 166.012 126.379 175.473 128.367C184.935 130.355 189.349 141.281 185.332 152.772Z" fill="#DD364A"/>
</mask>
<g mask="url(#mask5_256_517)">
<path id="Ellipse 24_6" d="M185.332 152.772C181.315 164.263 170.388 171.966 160.927 169.978C151.465 167.99 147.052 157.064 151.069 145.573C155.085 134.083 166.012 126.379 175.473 128.367C184.935 130.355 189.349 141.281 185.332 152.772Z" fill="#DD364A"/>
<path id="Ellipse 22_6" d="M166.416 144.779C164.587 150.014 159.609 153.523 155.299 152.617C150.988 151.712 148.978 146.734 150.808 141.5C152.638 136.265 157.615 132.756 161.925 133.661C166.236 134.567 168.246 139.544 166.416 144.779Z" fill="url(#paint11_radial_256_517)" fill-opacity="0.4"/>
<path id="Ellipse 23_6" d="M188.681 148.678C183.139 164.526 167.894 175.115 154.63 172.33C141.366 169.544 135.106 154.438 140.648 138.589C146.19 122.741 161.435 112.152 174.699 114.938C187.963 117.724 194.223 132.83 188.681 148.678Z" fill="url(#paint12_radial_256_517)" fill-opacity="0.4"/>
</g>
</g>
<g id="Mask group_7">
<mask id="mask6_256_517" style="mask-type:alpha" maskUnits="userSpaceOnUse" x="84" y="79" width="41" height="41">
<path id="Ellipse 21_7" d="M119.291 88.334C126.386 97.67 125.427 110.133 117.148 116.171C108.869 122.209 96.4063 119.535 89.311 110.199C82.2157 100.863 83.1751 88.4002 91.4538 82.3622C99.7325 76.3243 112.196 78.9979 119.291 88.334Z" fill="#DD364A"/>
</mask>
<g mask="url(#mask6_256_517)">
<path id="Ellipse 24_7" d="M119.291 88.334C126.386 97.67 125.427 110.133 117.148 116.171C108.869 122.209 96.4063 119.535 89.311 110.199C82.2157 100.863 83.1751 88.4002 91.4538 82.3622C99.7325 76.3243 112.196 78.9979 119.291 88.334Z" fill="#DD364A"/>
<path id="Ellipse 22_7" d="M100.459 98.0947C103.692 102.348 103.255 108.025 99.4831 110.776C95.7117 113.527 90.0341 112.309 86.8018 108.056C83.5695 103.802 84.0065 98.1249 87.7779 95.3742C91.5494 92.6236 97.227 93.8416 100.459 98.0947Z" fill="url(#paint13_radial_256_517)" fill-opacity="0.4"/>
<path id="Ellipse 23_7" d="M118.759 83.3105C128.54 96.1805 127.069 113.47 115.472 121.928C103.875 130.386 86.5452 126.809 76.7641 113.939C66.9829 101.069 68.4546 83.7791 80.0512 75.3214C91.6478 66.8637 108.978 70.4405 118.759 83.3105Z" fill="url(#paint14_radial_256_517)" fill-opacity="0.4"/>
</g>
</g>
</g>
</g>
<defs>
<filter id="filter0_d_256_517" x="0.37793" y="0.364761" width="235.346" height="268" filterUnits="userSpaceOnUse" color-interpolation-filters="sRGB">
<feFlood flood-opacity="0" result="BackgroundImageFix"/>
<feColorMatrix in="SourceAlpha" type="matrix" values="0 0 0 0 0 0 0 0 0 0 0 0 0 0 0 0 0 0 127 0" result="hardAlpha"/>
<feOffset/>
<feGaussianBlur stdDeviation="12"/>
<feComposite in2="hardAlpha" operator="out"/>
<feColorMatrix type="matrix" values="0 0 0 0 0 0 0 0 0 0 0 0 0 0 0 0 0 0 0.45 0"/>
<feBlend mode="normal" in2="BackgroundImageFix" result="effect1_dropShadow_256_517"/>
<feBlend mode="normal" in="SourceGraphic" in2="effect1_dropShadow_256_517" result="shape"/>
</filter>
<radialGradient id="paint0_radial_256_517" cx="0" cy="0" r="1" gradientUnits="userSpaceOnUse" gradientTransform="translate(142.617 107.29) rotate(75.3762) scale(9.39199 7.76929)">
<stop stop-color="white"/>
<stop offset="1" stop-color="#D9D9D9" stop-opacity="0"/>
</radialGradient>
<radialGradient id="paint1_radial_256_517" cx="0" cy="0" r="1" gradientUnits="userSpaceOnUse" gradientTransform="translate(148.04 105.199) rotate(75.3715) scale(28.4307 23.9049)">
<stop stop-color="#D9D9D9" stop-opacity="0"/>
<stop offset="0.666667" stop-color="#9A0C1D"/>
</radialGradient>
<radialGradient id="paint2_radial_256_517" cx="0" cy="0" r="1" gradientUnits="userSpaceOnUse" gradientTransform="translate(152.816 40.9133) rotate(143) scale(8.1464 9.21248)">
<stop stop-color="white"/>
<stop offset="1" stop-color="#D9D9D9" stop-opacity="0"/>
</radialGradient>
<radialGradient id="paint3_radial_256_517" cx="0" cy="0" r="1" gradientUnits="userSpaceOnUse" gradientTransform="translate(157.131 44.8066) rotate(143) scale(24.6255 28.2974)">
<stop stop-color="#D9D9D9" stop-opacity="0"/>
<stop offset="0.666667" stop-color="#9A0C1D"/>
</radialGradient>
<radialGradient id="paint4_radial_256_517" cx="0" cy="0" r="1" gradientUnits="userSpaceOnUse" gradientTransform="translate(110.282 127.166) rotate(75.3762) scale(10.9703 9.07491)">
<stop stop-color="white"/>
<stop offset="1" stop-color="#D9D9D9" stop-opacity="0"/>
</radialGradient>
<radialGradient id="paint5_radial_256_517" cx="0" cy="0" r="1" gradientUnits="userSpaceOnUse" gradientTransform="translate(116.62 124.723) rotate(75.3715) scale(33.2085 27.9221)">
<stop stop-color="#D9D9D9" stop-opacity="0"/>
<stop offset="0.0001" stop-color="#9A0C1D"/>
</radialGradient>
<radialGradient id="paint6_radial_256_517" cx="0" cy="0" r="1" gradientUnits="userSpaceOnUse" gradientTransform="translate(114.412 59.3455) rotate(90) scale(8.69214)">
<stop stop-color="white"/>
<stop offset="1" stop-color="#D9D9D9" stop-opacity="0"/>
</radialGradient>
<radialGradient id="paint7_radial_256_517" cx="0" cy="0" r="1" gradientUnits="userSpaceOnUse" gradientTransform="translate(120.137 58.2854) rotate(90) scale(26.2884 26.7124)">
<stop stop-color="white" stop-opacity="0"/>
<stop offset="0.838542" stop-color="#9A0C1D"/>
</radialGradient>
<radialGradient id="paint8_radial_256_517" cx="0" cy="0" r="1" gradientUnits="userSpaceOnUse" gradientTransform="translate(179.924 44.7171) rotate(-90) scale(6.36011)">
<stop stop-color="white"/>
<stop offset="1" stop-color="#D9D9D9" stop-opacity="0"/>
</radialGradient>
<radialGradient id="paint9_radial_256_517" cx="0" cy="0" r="1" gradientUnits="userSpaceOnUse" gradientTransform="translate(179.282 36.873) rotate(-90) scale(4.45207)">
<stop stop-color="white"/>
<stop offset="1" stop-color="#D9D9D9" stop-opacity="0"/>
</radialGradient>
<radialGradient id="paint10_radial_256_517" cx="0" cy="0" r="1" gradientUnits="userSpaceOnUse" gradientTransform="translate(187.98 47.6851) rotate(-90) scale(26.2884 26.7124)">
<stop stop-color="#D9D9D9" stop-opacity="0"/>
<stop offset="1" stop-color="#9A0C1D"/>
</radialGradient>
<radialGradient id="paint11_radial_256_517" cx="0" cy="0" r="1" gradientUnits="userSpaceOnUse" gradientTransform="translate(158.612 143.139) rotate(109.269) scale(10.0405 7.90828)">
<stop stop-color="white"/>
<stop offset="1" stop-color="#D9D9D9" stop-opacity="0"/>
</radialGradient>
<radialGradient id="paint12_radial_256_517" cx="0" cy="0" r="1" gradientUnits="userSpaceOnUse" gradientTransform="translate(164.665 143.634) rotate(109.274) scale(30.3996 24.3356)">
<stop stop-color="#D9D9D9" stop-opacity="0"/>
<stop offset="0.692708" stop-color="#9A0C1D"/>
</radialGradient>
<radialGradient id="paint13_radial_256_517" cx="0" cy="0" r="1" gradientUnits="userSpaceOnUse" gradientTransform="translate(93.6305 103.075) rotate(52.7655) scale(9.67246 8.45036)">
<stop stop-color="white"/>
<stop offset="1" stop-color="#D9D9D9" stop-opacity="0"/>
</radialGradient>
<radialGradient id="paint14_radial_256_517" cx="0" cy="0" r="1" gradientUnits="userSpaceOnUse" gradientTransform="translate(97.7616 98.6246) rotate(52.7653) scale(29.2694 25.9837)">
<stop stop-color="#D9D9D9" stop-opacity="0"/>
<stop offset="0.692708" stop-color="#9A0C1D"/>
</radialGradient>
</defs>
</svg>
