<svg width="311" height="260" viewBox="0 0 311 260" fill="none" xmlns="http://www.w3.org/2000/svg">
<g filter="url(#filter0_d_340_1064)">
<path d="M79.6223 39.4281C55.0013 31.0636 32.9046 34.9616 24.9338 37.9562C42.692 35.8011 52.0809 70.4759 61.432 76.9995C70.7831 83.5232 67.2691 75.5202 92.8667 91.5597C113.345 104.391 129.023 96.8578 135.514 94.0428C138.742 88.4704 146.661 70.6356 134.232 64.916C94.5605 46.6602 111.798 42.0423 102.378 45.5813C96.0017 47.9769 84.5507 42.4773 79.6223 39.4281Z" fill="url(#paint0_linear_340_1064)"/>
<path d="M221.268 118.238C189.572 121.364 172.924 110.89 168.562 105.263C166.071 93.4019 164.931 67.5467 180.293 59.0149C195.656 50.4832 204.787 37.4971 207.432 32.0704C209.977 36.3415 219.555 43.6185 237.501 38.5574C255.447 33.4963 277.649 42.0943 286.507 47.0259C278.334 52.0722 283.414 58.6636 261.69 83.8247C244.311 103.954 244.406 108.447 246.626 108.178C242.004 112.302 235.013 111.429 230.435 110.856L230.28 110.837C226.621 110.38 222.747 115.581 221.268 118.238Z" fill="url(#paint1_linear_340_1064)"/>
<path fill-rule="evenodd" clip-rule="evenodd" d="M155.806 121.042C146.804 120.226 129.12 111.451 130.399 82.8762C131.997 47.158 150.906 30.1315 157.945 24.402C159.543 23.1019 159.219 25.0455 158.637 28.5407C158.398 29.981 158.114 31.6847 157.903 33.5336C145.386 68.6261 151.168 103.696 156.701 119.961C156.408 120.324 156.11 120.684 155.806 121.042Z" fill="#DD364A"/>
<path fill-rule="evenodd" clip-rule="evenodd" d="M130.52 92.4208C130.205 89.6321 130.1 86.5979 130.247 83.2999C131.846 47.5816 150.754 30.5551 157.794 24.8257C158.697 24.0902 158.986 24.3926 158.962 25.4265C151.315 32.1301 133.881 49.8075 130.748 84.107C130.475 87.0956 130.409 89.8621 130.52 92.4208ZM153.497 121.144C154.257 121.299 154.98 121.405 155.654 121.466C175.559 98.0282 170.718 64.7582 160.724 51.0128C158.817 48.3909 157.922 45.2733 157.595 42.1118C147.504 74.0259 150.614 104.329 154.63 119.723C154.261 120.199 153.883 120.673 153.497 121.144Z" fill="url(#paint2_linear_340_1064)"/>
<path d="M117.55 171.247C126.937 146.141 150.069 134.189 160.461 131.351C161.717 131.799 165.009 133.187 168.13 135.15C172.032 137.605 174.592 166.126 164.64 188.057C154.687 209.988 124.251 220.889 113.724 225.095C103.197 229.301 99.1305 249.616 107.366 219.109C115.602 188.602 105.817 202.629 117.55 171.247Z" fill="url(#paint3_linear_340_1064)"/>
<path d="M198.808 139.823C185.382 140.551 176.844 126.496 174.253 119.377L175.664 112.448C181.905 98.5365 201.807 97.7129 211.684 99.2923C213.764 99.4147 213.652 99.7292 214.039 100.133C216.514 102.715 222.291 103.786 224.869 103.999C224.265 110.154 246.061 118.997 250.13 120.98C254.2 122.964 269.101 128.814 260.76 126.898C252.418 124.982 242.968 130.634 232.609 134.369C222.251 138.104 215.591 138.912 198.808 139.823Z" fill="url(#paint4_linear_340_1064)"/>
<path d="M109.645 137.47C94.7343 121.276 71.71 127.81 67.6953 126.377C81.6656 121.658 95.227 109.027 97.5219 100.787C98.5054 97.2559 94.3761 94.7465 101.291 95.6621C109.935 96.8065 109.158 88.1168 113.295 92.8292C117.432 97.5415 125.012 94.4234 147.584 101.834C170.156 109.245 170.893 119.861 169.459 123.879C168.024 127.897 159.667 131.384 147.458 134.791C137.691 137.516 129.486 143.474 126.605 146.112C125.262 136.832 114.739 136.484 109.645 137.47Z" fill="#95283A"/>
<path d="M155.924 148.413C156.353 140.071 160.181 126.572 162.041 120.866C170.246 106.806 191.101 122.744 197.223 124.93C202.12 126.678 203.367 131.016 203.379 132.967C211.72 134.883 218.113 146.721 217.811 153.515C217.509 160.309 235.403 166.697 233.285 169.657C231.166 172.617 227.836 173.021 224.309 197.776C220.781 222.531 239.011 227.977 236.253 231.24C233.496 234.503 234.807 232.317 219.737 219.504C204.668 206.692 204.937 208.912 191.651 201.515C178.364 194.117 179.139 202.358 176.515 199.297C173.891 196.237 172.41 184.028 170.425 180.665C168.44 177.302 163.967 179.422 160.2 178.077C156.433 176.732 155.387 158.839 155.924 148.413Z" fill="url(#paint5_linear_340_1064)"/>
<path d="M139.808 121.504C147.86 128.423 160.648 126.586 166.036 124.803C162.055 118.55 160.563 104.492 157.289 97.9325C154.015 91.3725 120.075 83.8651 111.886 85.326C103.697 86.787 77.4379 77.619 91.1283 83.0095C104.819 88.4001 129.744 112.856 139.808 121.504Z" fill="#E35667"/>
<path d="M160.746 125.561C158.469 131.978 150.74 145.623 138.046 148.868C122.178 152.924 117.733 154.58 103.671 153.07C93.7667 152.006 87.1085 153.57 84.2082 154.807C83.8704 154.977 83.5457 155.137 83.2363 155.285C83.4902 155.136 83.8146 154.974 84.2082 154.807C90.855 151.451 102.587 143.835 103.096 136.58C103.764 127.051 128.277 112.687 143.995 118.642C156.568 123.406 160.401 125.24 160.746 125.561Z" fill="#E8394E"/>
<path d="M187.353 116.532C180.196 113.977 170.85 116.658 167.072 118.318L168.45 105.537C171.776 82.8335 185.297 86.5985 190.106 83.5372C194.916 80.4758 195.026 80.5153 199.534 84.248C204.041 87.9807 226.531 86.4527 226.508 87.5066C226.475 89.0873 223.898 88.2482 215.04 91.3761C205.32 94.8081 208.775 98.1651 208.171 104.32C207.566 110.475 196.3 119.726 187.353 116.532Z" fill="url(#paint6_linear_340_1064)"/>
<g filter="url(#filter1_d_340_1064)">
<circle cx="158.673" cy="116.912" r="4.5" transform="rotate(-70.3545 158.673 116.912)" fill="#E6F0A7"/>
</g>
<g filter="url(#filter2_d_340_1064)">
<circle cx="165.905" cy="118.963" r="4" transform="rotate(-70.3545 165.905 118.963)" fill="#E6F0A7"/>
</g>
<g filter="url(#filter3_d_340_1064)">
<circle cx="159.718" cy="127.372" r="5" transform="rotate(-70.3545 159.718 127.372)" fill="#E6F0A7"/>
</g>
</g>
<defs>
<filter id="filter0_d_340_1064" x="0.933594" y="-0.00363159" width="309.573" height="259.62" filterUnits="userSpaceOnUse" color-interpolation-filters="sRGB">
<feFlood flood-opacity="0" result="BackgroundImageFix"/>
<feColorMatrix in="SourceAlpha" type="matrix" values="0 0 0 0 0 0 0 0 0 0 0 0 0 0 0 0 0 0 127 0" result="hardAlpha"/>
<feOffset/>
<feGaussianBlur stdDeviation="12"/>
<feComposite in2="hardAlpha" operator="out"/>
<feColorMatrix type="matrix" values="0 0 0 0 0 0 0 0 0 0 0 0 0 0 0 0 0 0 0.45 0"/>
<feBlend mode="normal" in2="BackgroundImageFix" result="effect1_dropShadow_340_1064"/>
<feBlend mode="normal" in="SourceGraphic" in2="effect1_dropShadow_340_1064" result="shape"/>
</filter>
<filter id="filter1_d_340_1064" x="150.172" y="110.411" width="17.002" height="17.0024" filterUnits="userSpaceOnUse" color-interpolation-filters="sRGB">
<feFlood flood-opacity="0" result="BackgroundImageFix"/>
<feColorMatrix in="SourceAlpha" type="matrix" values="0 0 0 0 0 0 0 0 0 0 0 0 0 0 0 0 0 0 127 0" result="hardAlpha"/>
<feOffset dy="2"/>
<feGaussianBlur stdDeviation="2"/>
<feComposite in2="hardAlpha" operator="out"/>
<feColorMatrix type="matrix" values="0 0 0 0 0 0 0 0 0 0 0 0 0 0 0 0 0 0 0.25 0"/>
<feBlend mode="normal" in2="BackgroundImageFix" result="effect1_dropShadow_340_1064"/>
<feBlend mode="normal" in="SourceGraphic" in2="effect1_dropShadow_340_1064" result="shape"/>
</filter>
<filter id="filter2_d_340_1064" x="157.904" y="112.962" width="16.002" height="16.0022" filterUnits="userSpaceOnUse" color-interpolation-filters="sRGB">
<feFlood flood-opacity="0" result="BackgroundImageFix"/>
<feColorMatrix in="SourceAlpha" type="matrix" values="0 0 0 0 0 0 0 0 0 0 0 0 0 0 0 0 0 0 127 0" result="hardAlpha"/>
<feOffset dy="2"/>
<feGaussianBlur stdDeviation="2"/>
<feComposite in2="hardAlpha" operator="out"/>
<feColorMatrix type="matrix" values="0 0 0 0 0 0 0 0 0 0 0 0 0 0 0 0 0 0 0.25 0"/>
<feBlend mode="normal" in2="BackgroundImageFix" result="effect1_dropShadow_340_1064"/>
<feBlend mode="normal" in="SourceGraphic" in2="effect1_dropShadow_340_1064" result="shape"/>
</filter>
<filter id="filter3_d_340_1064" x="150.717" y="120.371" width="18.0029" height="18.0027" filterUnits="userSpaceOnUse" color-interpolation-filters="sRGB">
<feFlood flood-opacity="0" result="BackgroundImageFix"/>
<feColorMatrix in="SourceAlpha" type="matrix" values="0 0 0 0 0 0 0 0 0 0 0 0 0 0 0 0 0 0 127 0" result="hardAlpha"/>
<feOffset dy="2"/>
<feGaussianBlur stdDeviation="2"/>
<feComposite in2="hardAlpha" operator="out"/>
<feColorMatrix type="matrix" values="0 0 0 0 0 0 0 0 0 0 0 0 0 0 0 0 0 0 0.25 0"/>
<feBlend mode="normal" in2="BackgroundImageFix" result="effect1_dropShadow_340_1064"/>
<feBlend mode="normal" in="SourceGraphic" in2="effect1_dropShadow_340_1064" result="shape"/>
</filter>
<linearGradient id="paint0_linear_340_1064" x1="105.728" y1="76.6091" x2="24.2772" y2="34.0494" gradientUnits="userSpaceOnUse">
<stop stop-color="#4C5E48"/>
<stop offset="1" stop-color="#91A172"/>
</linearGradient>
<linearGradient id="paint1_linear_340_1064" x1="197.645" y1="92.1919" x2="267.304" y2="63.7477" gradientUnits="userSpaceOnUse">
<stop stop-color="#485C49"/>
<stop offset="1" stop-color="#A3B584"/>
</linearGradient>
<linearGradient id="paint2_linear_340_1064" x1="127.401" y1="66.7805" x2="172.895" y2="94.4564" gradientUnits="userSpaceOnUse">
<stop stop-color="#DD364A"/>
<stop offset="1" stop-color="#B13F54"/>
</linearGradient>
<linearGradient id="paint3_linear_340_1064" x1="153.808" y1="151.66" x2="114.968" y2="232.716" gradientUnits="userSpaceOnUse">
<stop stop-color="#882635"/>
<stop offset="1" stop-color="#C52F4B"/>
</linearGradient>
<linearGradient id="paint4_linear_340_1064" x1="176.574" y1="109.901" x2="262.04" y2="124.602" gradientUnits="userSpaceOnUse">
<stop stop-color="#7A2933"/>
<stop offset="1" stop-color="#D9506A"/>
</linearGradient>
<linearGradient id="paint5_linear_340_1064" x1="184.07" y1="151.471" x2="219.704" y2="189.715" gradientUnits="userSpaceOnUse">
<stop stop-color="#DD364A"/>
<stop offset="1" stop-color="#FA939A"/>
</linearGradient>
<linearGradient id="paint6_linear_340_1064" x1="178.603" y1="109.502" x2="218.524" y2="89.2822" gradientUnits="userSpaceOnUse">
<stop stop-color="#DD364A"/>
<stop offset="1" stop-color="#FB949B"/>
</linearGradient>
</defs>
</svg>
