<svg width="222" height="232" viewBox="0 0 222 232" fill="none" xmlns="http://www.w3.org/2000/svg">
<g id="ribbon" filter="url(#filter0_d_256_492)">
<path id="Vector 42" d="M67.4642 95.1762L74.4086 88.8165C74.5548 88.9871 74.9203 89.2552 75.2127 88.9628C75.5782 88.5973 77.9905 88.378 78.5022 88.2318C78.9115 88.1148 83.7897 87.5495 86.1776 87.2815C90.8072 86.7211 100.286 85.5271 101.163 85.2347C102.04 84.9423 105.135 84.9666 106.572 85.0154C105.476 87.3058 103.312 92.7054 103.429 95.9803C103.546 99.2551 102.503 105.629 101.967 108.407L86.1045 154.752L73.5314 194.08C74.2868 196.857 75.5343 202.735 74.4817 204.021C73.1659 205.629 50.2127 208.48 46.4846 205.191C43.5022 202.559 40.2225 200.683 38.9554 200.074C37.8102 197.978 35.7244 192.778 36.5431 188.743C37.5665 183.7 40.125 167.618 40.6367 166.448C41.1484 165.278 42.3911 157.311 42.5373 153.729C42.6542 150.863 47.3131 138.597 49.6279 132.822C51.2361 127.681 54.5987 116.901 55.1835 114.913C55.7683 112.925 57.4739 109.504 58.2536 108.042L67.4642 95.1762Z" fill="url(#paint0_linear_256_492)" stroke="white"/>
<path id="Vector 39" d="M107.742 100.293C106.748 96.3748 106.694 88.4265 106.792 84.9421C108.619 84.7471 112.377 84.5473 112.786 85.3076C113.298 86.2579 113.883 86.7696 117.83 91.0824C121.777 95.3953 126.09 96.638 128.064 98.5386C129.643 100.059 144.706 103.168 152.04 104.533L161.251 112.427C173.215 126.097 197.143 156.755 197.143 170.03C197.143 183.305 187.932 197.247 183.327 202.559C178.234 198.612 167.07 189.957 163.152 186.916C159.233 183.875 146.022 163.329 139.906 153.436L109.424 107.31C109.277 106.604 108.736 104.211 107.742 100.293Z" fill="url(#paint1_linear_256_492)" stroke="white"/>
<path id="Vector 40" d="M24.8481 78.0708L30.3305 72.8076C30.7691 73.6848 31.7925 82.7491 39.7603 84.7959C47.7282 86.8427 58.1814 84.0649 60.8129 83.407C63.4445 82.7491 75.4328 82.9684 74.4094 85.7462C73.5907 87.9684 74.0683 88.7676 74.4094 88.8895L67.7574 94.9567C64.1755 96.37 54.9211 99.6351 46.5586 101.389C38.196 103.144 33.5713 107.773 32.3042 109.869C30.5498 108.48 26.6756 96.8573 25.3598 92.252C24.3071 88.5678 24.58 81.2628 24.8481 78.0708Z" fill="url(#paint2_linear_256_492)" stroke="white"/>
<path id="Vector 41" d="M57.523 109.431C58.9265 106.74 64.8817 98.7093 67.6838 95.03C66.7335 95.6148 52.6253 100.293 47.5084 101.243C42.3914 102.194 39.6136 103.802 37.8593 104.752C36.1049 105.702 32.3037 109.211 32.3037 109.869C32.3037 110.527 34.8622 111.624 35.8125 112.866C36.7628 114.109 39.0289 112.647 42.3183 114.474C44.9499 115.936 52.0405 115.425 55.2569 114.986C55.4275 114.255 56.1195 112.121 57.523 109.431Z" fill="url(#paint3_linear_256_492)" stroke="white"/>
<g id="Vector 36">
<path d="M122.289 45.6147C131.085 37.6712 150.023 22.603 155.403 25.8779C160.783 29.1527 168.756 51.3652 172.07 62.0621C172.24 62.0621 172.581 62.4568 172.581 64.0358C172.581 66.0094 166.953 69.372 165.564 70.5416C164.453 71.4773 155.159 72.3333 150.652 72.6443C143.737 75.8724 137.804 78.3748 136.251 78.2901C132.231 78.0708 125.432 79.6059 125.067 79.8252C124.774 80.0007 126.992 71.8574 128.137 67.7638C128.478 64.1089 129.058 56.3457 128.649 54.5328C128.137 52.2668 127.187 48.8311 125.505 47.5884C124.16 46.5942 122.801 45.8584 122.289 45.6147Z" fill="url(#paint4_linear_256_492)"/>
<path d="M172.07 62.0621C168.756 51.3652 160.783 29.1527 155.403 25.8779C150.023 22.603 131.085 37.6712 122.289 45.6147C122.801 45.8584 124.16 46.5943 125.505 47.5884C127.187 48.8311 128.137 52.2668 128.649 54.5328C129.058 56.3457 128.478 64.1089 128.137 67.7638C126.992 71.8574 124.774 80.0007 125.067 79.8252C125.432 79.6059 132.231 78.0708 136.251 78.2901C137.804 78.3748 143.737 75.8724 150.652 72.6443M172.07 62.0621C166.588 64.8973 158.057 69.187 150.652 72.6443M172.07 62.0621C172.24 62.0621 172.581 62.4568 172.581 64.0358C172.581 66.0094 166.953 69.372 165.564 70.5416C164.453 71.4773 155.159 72.3333 150.652 72.6443" stroke="white"/>
</g>
<g id="Vector 37">
<path d="M161.251 112.427C161.763 112.111 162.976 110.907 163.736 108.626C164.248 107.09 158.861 105.809 151.748 104.359L161.251 112.427Z" fill="url(#paint5_linear_256_492)"/>
<path d="M112.786 85.3806C114.955 88.9868 121.894 96.9596 132.304 100C138.305 101.754 145.659 103.118 151.748 104.359M151.748 104.359C158.861 105.809 164.248 107.09 163.736 108.626C162.976 110.907 161.763 112.111 161.251 112.427L151.748 104.359Z" stroke="white"/>
</g>
<g id="Vector 34">
<path d="M56.6464 40.0592C60.5645 40.3516 69.1951 44.372 73.0206 46.3457C72.2653 47.296 70.5353 49.9276 69.6581 52.8515C68.7809 55.7755 72.5577 75.8047 74.5557 85.4538C73.1591 84.4064 69.703 82.8433 65.0528 82.966C63.5371 83.006 61.8946 83.2251 60.1552 83.6995C51.3102 86.1117 44.0733 85.6731 39.4681 84.6498C34.8628 83.6264 34.7897 81.6527 32.3043 78.5094C29.819 75.3661 29.892 67.91 30.6961 60.8194C31.5002 53.7287 34.7897 47.4422 34.7897 45.0299C34.7897 42.6176 33.9125 44.8106 34.7897 41.5211C35.6669 38.2317 39.9797 38.0124 43.3423 37.7931C46.7049 37.5738 51.7487 39.6937 56.6464 40.0592Z" fill="white"/>
<path d="M32.3043 78.5094C29.819 75.3661 29.892 67.91 30.6961 60.8194C31.5002 53.7287 34.7897 47.4422 34.7897 45.0299C34.7897 42.6176 33.9125 44.8106 34.7897 41.5211C35.6669 38.2317 39.9797 38.0124 43.3423 37.7931C46.7049 37.5738 51.7487 39.6937 56.6464 40.0592C60.5645 40.3516 69.1951 44.372 73.0206 46.3457C72.2653 47.296 70.5353 49.9276 69.6581 52.8515C68.7809 55.7755 72.5577 75.8047 74.5557 85.4538C73.1591 84.4064 69.703 82.8433 65.0528 82.966M32.3043 78.5094C34.7897 81.6527 34.8628 83.6264 39.4681 84.6498C44.0733 85.6731 51.3102 86.1117 60.1552 83.6995C61.8946 83.2251 63.5371 83.006 65.0528 82.966M32.3043 78.5094C32.7673 77.6566 34.3803 76.1702 37.1289 77.0474C40.5645 78.1439 46.1932 82.4568 49.4096 82.7492C52.6259 83.0416 58.4008 81.2823 65.0528 82.966" stroke="white"/>
</g>
<g id="Vector 45">
<path d="M56.6464 40.0592C60.5645 40.3516 69.1951 44.372 73.0206 46.3457C72.2653 47.296 70.5353 49.9276 69.6581 52.8515C68.7809 55.7755 72.5577 75.8047 74.5557 85.4538C73.1591 84.4064 69.703 82.8433 65.0528 82.966C63.5371 83.006 61.8946 83.2251 60.1552 83.6995C51.3102 86.1117 44.0733 85.6731 39.4681 84.6498C34.8628 83.6264 34.7897 81.6527 32.3043 78.5094C29.819 75.3661 29.892 67.91 30.6961 60.8194C31.5002 53.7287 34.7897 47.4422 34.7897 45.0299C34.7897 42.6176 33.9125 44.8106 34.7897 41.5211C35.6669 38.2317 39.9797 38.0124 43.3423 37.7931C46.7049 37.5738 51.7487 39.6937 56.6464 40.0592Z" fill="url(#paint6_linear_256_492)" fill-opacity="0.8"/>
<path d="M32.3043 78.5094C29.819 75.3661 29.892 67.91 30.6961 60.8194C31.5002 53.7287 34.7897 47.4422 34.7897 45.0299C34.7897 42.6176 33.9125 44.8106 34.7897 41.5211C35.6669 38.2317 39.9797 38.0124 43.3423 37.7931C46.7049 37.5738 51.7487 39.6937 56.6464 40.0592C60.5645 40.3516 69.1951 44.372 73.0206 46.3457C72.2653 47.296 70.5353 49.9276 69.6581 52.8515C68.7809 55.7755 72.5577 75.8047 74.5557 85.4538C73.1591 84.4064 69.703 82.8433 65.0528 82.966M32.3043 78.5094C34.7897 81.6527 34.8628 83.6264 39.4681 84.6498C44.0733 85.6731 51.3102 86.1117 60.1552 83.6995C61.8946 83.2251 63.5371 83.006 65.0528 82.966M32.3043 78.5094C32.7673 77.6566 34.3803 76.1702 37.1289 77.0474C40.5645 78.1439 46.1932 82.4568 49.4096 82.7492C52.6259 83.0416 58.4008 81.2823 65.0528 82.966" stroke="white"/>
</g>
<path id="Vector 35" d="M97.6553 43.4949C95.3161 42.6762 80.3551 45.0056 73.167 46.2727C71.4711 48.027 70.1212 51.5358 69.6582 53.071V57.1645L74.7752 85.7464C74.2391 87.1109 73.5909 89.6499 75.2869 88.8896C77.4067 87.9393 92.7576 86.6236 100.433 85.3078C108.108 83.992 124.41 86.6236 126.383 86.6236C128.357 86.6236 125.725 83.0417 125.214 80.8487C124.702 78.6557 129.307 68.2756 128.796 57.2376C128.284 46.1996 122.582 46.2727 118.489 43.4949C114.395 40.7171 100.579 44.5183 97.6553 43.4949Z" fill="white" stroke="white"/>
<path id="Vector 38" d="M170.097 70.3223C168.986 69.679 166.564 70.2004 165.492 70.5416C165.37 70.6634 164.38 71.0679 161.398 71.7111C158.415 72.3544 153.284 72.4178 151.091 72.369C147.533 74.5377 139.644 78.7725 136.544 78.3632C133.445 77.9538 127.748 79.1673 125.287 79.8252C125.116 79.9714 125.024 80.7901 126.018 82.8953C127.261 85.5269 127.187 85.8193 126.822 86.6234C126.456 87.4275 113.225 84.7959 112.714 85.3076C112.304 85.717 114.298 87.7686 115.345 88.7433C116.856 90.2296 120.828 93.9187 124.629 96.7842C129.38 100.366 140.638 102.194 152.114 104.46C161.296 106.273 163.786 107.847 163.883 108.407C166.052 98.7092 170.579 78.524 171.339 75.3661C172.29 71.4187 171.486 71.1264 170.097 70.3223Z" fill="url(#paint7_linear_256_492)" stroke="white"/>
<path id="Vector 43" d="M171.997 61.9158L151.091 72.2959C151.31 72.5883 157.304 72.0766 159.059 72.0035C160.813 71.9304 164.76 70.834 165.345 70.6147C165.93 70.3954 172.29 66.0094 172.582 64.4743C172.816 63.2462 172.29 62.257 171.997 61.9158Z" fill="url(#paint8_linear_256_492)" stroke="white"/>
<path id="Vector 44" d="M59.7895 82.1644C61.7778 82.3398 63.9806 82.7248 64.8334 82.8954C63.8831 82.8954 61.5878 83.0562 60.0088 83.6995C58.0352 84.5036 50.9445 85.527 44.8773 85.4539C38.81 85.3808 36.9094 83.4802 36.1785 83.4071C35.4475 83.334 32.5235 79.3135 32.4504 78.5094C32.3773 77.7054 34.2048 76.9743 35.0819 76.9012C35.9591 76.8281 38.079 76.8281 41.1492 78.948C44.2194 81.0679 49.3363 82.8954 49.9211 82.8954C50.5059 82.8954 57.3041 81.9451 59.7895 82.1644Z" fill="url(#paint9_linear_256_492)" stroke="white"/>
</g>
<defs>
<filter id="filter0_d_256_492" x="0.104492" y="0.919373" width="221.538" height="230.288" filterUnits="userSpaceOnUse" color-interpolation-filters="sRGB">
<feFlood flood-opacity="0" result="BackgroundImageFix"/>
<feColorMatrix in="SourceAlpha" type="matrix" values="0 0 0 0 0 0 0 0 0 0 0 0 0 0 0 0 0 0 127 0" result="hardAlpha"/>
<feOffset/>
<feGaussianBlur stdDeviation="12"/>
<feComposite in2="hardAlpha" operator="out"/>
<feColorMatrix type="matrix" values="0 0 0 0 0 0 0 0 0 0 0 0 0 0 0 0 0 0 0.45 0"/>
<feBlend mode="normal" in2="BackgroundImageFix" result="effect1_dropShadow_256_492"/>
<feBlend mode="normal" in="SourceGraphic" in2="effect1_dropShadow_256_492" result="shape"/>
</filter>
<linearGradient id="paint0_linear_256_492" x1="101.675" y1="87.2815" x2="65.0519" y2="123.539" gradientUnits="userSpaceOnUse">
<stop stop-color="#E8E8E8"/>
<stop offset="1" stop-color="white"/>
</linearGradient>
<linearGradient id="paint1_linear_256_492" x1="106.792" y1="82.6029" x2="151.967" y2="148.758" gradientUnits="userSpaceOnUse">
<stop stop-color="#DBDBDB"/>
<stop offset="1" stop-color="white"/>
</linearGradient>
<linearGradient id="paint2_linear_256_492" x1="59.4241" y1="82.6029" x2="49.5379" y2="109.869" gradientUnits="userSpaceOnUse">
<stop stop-color="#E5E5E5"/>
<stop offset="1" stop-color="white"/>
</linearGradient>
<linearGradient id="paint3_linear_256_492" x1="67.6107" y1="95.1031" x2="37.5669" y2="115.425" gradientUnits="userSpaceOnUse">
<stop stop-color="#838383"/>
<stop offset="1" stop-color="white"/>
</linearGradient>
<linearGradient id="paint4_linear_256_492" x1="116.003" y1="66.3749" x2="141.733" y2="58.6264" gradientUnits="userSpaceOnUse">
<stop stop-color="#D8D8D8"/>
<stop offset="1" stop-color="white"/>
</linearGradient>
<linearGradient id="paint5_linear_256_492" x1="154.526" y1="97.3689" x2="168.561" y2="119.079" gradientUnits="userSpaceOnUse">
<stop stop-color="#A5A5A5"/>
<stop offset="1" stop-color="white"/>
</linearGradient>
<linearGradient id="paint6_linear_256_492" x1="59.9359" y1="61.6235" x2="98.6785" y2="51.2434" gradientUnits="userSpaceOnUse">
<stop stop-color="white"/>
<stop offset="1" stop-color="#B1B1B1" stop-opacity="0"/>
</linearGradient>
<linearGradient id="paint7_linear_256_492" x1="142.173" y1="77.8515" x2="148.532" y2="102.486" gradientUnits="userSpaceOnUse">
<stop stop-color="#E5E5E5"/>
<stop offset="1" stop-color="white"/>
</linearGradient>
<linearGradient id="paint8_linear_256_492" x1="158.181" y1="63.8895" x2="165.126" y2="74.1965" gradientUnits="userSpaceOnUse">
<stop stop-color="#B3AEAE"/>
<stop offset="1" stop-color="#D9D9D9" stop-opacity="0"/>
</linearGradient>
<linearGradient id="paint9_linear_256_492" x1="48.6408" y1="76.8801" x2="48.6408" y2="85.4576" gradientUnits="userSpaceOnUse">
<stop stop-color="#B0B0B0"/>
<stop offset="1" stop-color="#D9D9D9" stop-opacity="0"/>
</linearGradient>
</defs>
</svg>
