<svg width="301" height="301" viewBox="0 0 301 301" fill="none" xmlns="http://www.w3.org/2000/svg">
<path d="M270.08 147.353C270.08 151.315 268.841 155.048 268.474 158.919C268.107 162.789 269.025 166.891 268.199 170.669C267.373 174.448 284.676 184.263 283.436 187.949C282.197 191.636 259.203 187.903 257.642 191.451C256.082 194.999 239.146 189.286 237.218 192.695C235.291 196.105 242.359 203.386 240.11 206.52C237.861 209.653 230.242 206.52 227.626 209.423C225.01 212.326 256.22 249.927 253.328 252.554C250.437 255.18 223.725 230.205 220.604 232.509C217.483 234.813 222.485 249.927 219.135 251.908C215.784 253.89 203.163 237.301 199.629 238.914C196.095 240.527 202.199 268.037 198.481 269.235C194.764 270.433 190.128 275.317 186.273 276.101C182.417 276.884 173.192 244.536 169.291 244.95C165.39 245.365 163.003 288.865 159.056 288.865C155.109 288.865 149.509 275.87 145.654 275.455C141.799 275.041 134.455 282.183 130.692 281.4C126.928 280.616 132.023 243.43 128.351 242.232C124.679 241.034 121.329 242.047 117.794 240.435C114.26 238.822 103.245 252.231 99.8488 250.296C96.4524 248.36 88.604 251.356 85.4372 249.052C82.2703 246.748 97.6916 221.588 94.8001 218.961C91.9086 216.335 77.3134 226.472 74.6973 223.569C72.0812 220.666 93.7445 199.746 91.4497 196.566C89.1548 193.387 65.2425 206.197 63.3149 202.787C61.3872 199.377 62.2592 194.861 60.6528 191.267C59.0464 187.673 79.0575 177.535 77.8183 173.803C76.5791 170.07 71.9894 169.932 71.1632 166.061C70.3371 162.19 68.134 160.854 67.721 156.937C67.3079 153.02 16.5 151.223 16.5 147.26C16.5 143.298 28.7086 137.445 29.1217 133.575C29.5347 129.704 26.6432 122.976 27.4235 119.198C28.2037 115.419 76.5332 124.451 77.7265 120.764C78.9198 117.078 39.0813 97.9085 40.6418 94.3604C42.2023 90.8122 80.9393 106.572 82.8669 103.162C84.7946 99.7517 63.1772 82.1952 65.472 79.0157C67.7669 75.8361 80.3426 81.4118 82.9587 78.5088C85.5749 75.6057 65.9769 49.3861 68.8684 46.7595C71.7599 44.133 96.4983 67.5417 99.6193 65.2377C102.74 62.9337 104.622 60.5836 108.018 58.6021C111.415 56.6207 106.412 38.3269 109.946 36.7141C113.48 35.1013 117.886 33.0737 121.604 31.8756C125.322 30.6776 126.653 13.7201 130.508 12.8906C134.363 12.0612 142.854 31.507 146.755 31.0923C150.657 30.6776 154.971 13.9044 158.918 13.9044C162.865 13.9044 165.986 42.5662 169.842 42.981C173.697 43.3957 175.716 49.34 179.48 50.1234C183.243 50.9068 190.449 37.2209 194.121 38.419C197.793 39.6171 208.946 24.7793 212.526 26.3921C216.106 28.0049 202.75 63.118 206.146 65.0995C209.542 67.0809 215.325 62.6572 218.446 64.9151C221.567 67.1731 235.107 56.3903 237.998 58.9708C240.89 61.5513 238.457 69.984 241.028 72.887C243.598 75.7901 240.706 82.656 243.001 85.7895C245.296 88.9229 264.16 81.5501 266.133 84.96C268.107 88.3699 280.04 88.6464 281.646 92.2407C283.253 95.8349 281.646 102.931 282.84 106.664C284.033 110.396 274.946 118.276 275.772 122.147C276.598 126.017 269.897 131.409 270.31 135.326C270.723 139.242 270.08 143.113 270.08 147.076V147.353Z" fill="url(#paint0_linear_227_870)"/>
<defs>
<linearGradient id="paint0_linear_227_870" x1="56.8585" y1="48.4689" x2="307.764" y2="324.226" gradientUnits="userSpaceOnUse">
<stop stop-color="#E7F1A4"/>
<stop offset="0.21875" stop-color="#688055"/>
<stop offset="0.442708" stop-color="#495B3E"/>
<stop offset="0.744792" stop-color="#273127"/>
</linearGradient>
</defs>
</svg>
