<svg width="301" height="301" viewBox="0 0 301 301" fill="none" xmlns="http://www.w3.org/2000/svg">
<path d="M243.205 152.949C243.205 156.917 234.984 158.254 234.617 162.084C234.25 165.913 276.868 176.385 276.087 180.214C275.306 184.044 277.74 191.102 276.546 194.793C275.352 198.484 237.235 188.426 235.627 191.979C234.02 195.531 232.504 197.238 230.575 200.606C228.647 203.974 250.92 222.981 248.67 226.164C246.42 229.348 254.87 244.018 252.252 246.925C249.634 249.831 207.245 212.785 204.352 215.415C201.459 218.045 229.014 257.72 225.845 260.027C222.676 262.334 199.668 234.376 196.269 236.314C192.871 238.252 204.123 269.023 200.54 270.638C196.958 272.253 195.397 285.632 191.677 286.831C187.957 288.031 174.363 256.659 170.505 257.49C166.648 258.32 162.469 249.831 158.565 250.247C154.661 250.662 152.319 250.154 148.37 250.154C144.42 250.154 139.46 275.113 135.648 274.744C131.837 274.375 132.296 247.525 128.53 246.694C124.764 245.864 112.502 276.497 108.782 275.298C105.062 274.098 108.415 252.646 104.833 251.077C101.251 249.508 107.864 231.193 104.511 229.209C101.159 227.226 99.3216 227.364 96.1528 225.057C92.9839 222.75 77.2316 238.021 74.3384 235.437C71.4451 232.854 67.174 231.562 64.5563 228.656C61.9386 225.749 76.7266 209.971 74.4303 206.788C72.134 203.605 46.7374 216.338 44.7626 212.924C42.7878 209.51 69.5163 192.394 67.9549 188.795C66.3934 185.197 54.6825 187.55 53.4425 183.813C52.2025 180.076 62.5356 175.232 61.709 171.357C60.8823 167.481 10.9159 171.264 10.5026 167.343C10.0892 163.421 59.7802 156.778 59.7802 152.811C59.7802 148.843 49.493 146.259 49.8604 142.384C50.2278 138.509 42.742 134.218 43.5227 130.389C44.3034 126.56 61.4335 128.498 62.6735 124.807C63.9135 121.116 20.1009 99.6636 21.6623 96.1112C23.2238 92.5589 51.6974 101.232 53.6263 97.8643C55.5551 94.4965 55.555 89.9292 57.8513 86.7459C60.1475 83.5627 63.2704 81.1175 65.8882 78.211C68.5059 75.3046 65.8882 66.6774 68.8274 64.0478C71.7666 61.4181 76.3591 59.8956 79.5279 57.5889C82.6967 55.2822 100.24 76.7809 103.593 74.8432C106.945 72.9056 95.2343 42.5952 98.8165 40.9805C102.399 39.3658 104.006 28.2474 107.726 27.0479C111.446 25.8484 119.069 33.1376 122.927 32.3072C126.785 31.4768 134.087 53.852 137.991 53.4368C141.894 53.0216 144.466 43.5179 148.415 43.5179C152.365 43.5179 158.978 14.4993 162.836 14.8684C166.694 15.2374 167.75 42.872 171.516 43.7024C175.282 44.5329 183.227 32.5379 186.947 33.7835C190.667 35.0291 190.988 47.2548 194.524 48.8695C198.061 50.4842 192.182 68.938 195.535 70.8757C198.887 72.8133 220.564 46.4705 223.733 48.7772C226.901 51.084 209.771 78.534 212.665 81.1637C215.558 83.7933 222.906 80.1948 225.524 83.1013C228.141 86.0078 223.136 93.4816 225.432 96.6187C227.728 99.7559 220.242 106.63 222.171 110.044C224.1 113.458 250.231 102.939 251.839 106.538C253.446 110.136 263.274 111.151 264.468 114.888C265.662 118.625 276.225 121.439 277.052 125.314C277.878 129.19 289.084 133.988 289.497 137.909C289.911 141.831 243.343 148.797 243.343 152.764L243.205 152.949Z" fill="url(#paint0_linear_227_890)"/>
<defs>
<linearGradient id="paint0_linear_227_890" x1="52.6723" y1="49.953" x2="298.166" y2="336.035" gradientUnits="userSpaceOnUse">
<stop stop-color="#E7F1A4"/>
<stop offset="0.21875" stop-color="#688055"/>
<stop offset="0.442708" stop-color="#495B3E"/>
<stop offset="0.744792" stop-color="#273127"/>
</linearGradient>
</defs>
</svg>
