<svg width="300" height="300" viewBox="0 0 300 300" fill="none" xmlns="http://www.w3.org/2000/svg">
<path d="M236.741 142.416C236.741 146.356 237.754 147.867 237.385 151.716C237.017 155.564 258.112 161.612 257.329 165.368C256.546 169.125 257.559 173.523 256.361 177.189C255.164 180.854 234.115 175.952 232.503 179.479C230.891 183.007 254.611 198.721 252.677 202.066C250.742 205.41 222.509 190.841 220.206 194.002C217.903 197.164 225.779 206.143 223.153 209.029C220.528 211.916 211.132 205.502 208.231 208.113C205.329 210.725 233.701 252.003 230.523 254.294C227.345 256.585 196.578 217.047 193.216 219.017C189.853 220.987 192.801 231.158 189.209 232.715C185.616 234.273 185.754 242.932 182.023 244.123C178.293 245.314 171.476 229.554 167.607 230.333C163.738 231.112 167.239 279.583 163.278 279.996C159.317 280.408 152.73 251.499 148.769 251.499C144.808 251.499 140.893 253.79 137.025 253.378C133.156 252.965 129.379 251.499 125.602 250.72C121.825 249.942 115.607 256.401 111.877 255.21C108.146 254.019 104.461 250.766 100.915 249.163C97.3684 247.559 107.179 221.766 103.817 219.796C100.454 217.826 80.0505 242.978 76.9185 240.687C73.7866 238.396 63.3313 242.52 60.4297 239.908C57.528 237.297 60.0151 227.08 57.3898 224.194C54.7645 221.308 70.3782 203.807 68.0753 200.645C65.7724 197.484 56.2384 200.004 54.2579 196.614C52.2773 193.224 23.8594 201.928 22.2934 198.401C20.7274 194.873 44.079 180.304 42.8815 176.593C41.6839 172.882 27.3598 172.012 26.5768 168.209C25.7938 164.406 36.203 158.084 35.8345 154.19C35.4661 150.296 54.35 146.31 54.35 142.37C54.35 138.43 20.5893 132.886 21.0038 129.084C21.4183 125.281 53.7512 126.243 54.5342 122.486C55.3172 118.73 48.5466 114.102 49.7441 110.437C50.9417 106.772 59.877 107.322 61.489 103.794C63.101 100.266 72.7733 103.29 74.7077 99.9458C76.6422 96.6013 54.5803 79.192 56.8371 76.0308C59.094 72.8696 55.133 63.8442 57.7583 60.9579C60.3836 58.0716 57.528 47.5343 60.4297 44.9229C63.3313 42.3115 61.8575 30.2166 65.0355 27.9259C68.2135 25.6351 92.348 53.1237 95.7103 51.1537C99.0725 49.1836 92.8547 27.3303 96.4472 25.7268C100.04 24.1233 116.437 56.4223 120.213 55.2311C123.99 54.04 123.345 42.678 127.214 41.8534C131.083 41.0287 135.781 57.8425 139.696 57.4302C143.611 57.0179 144.762 20 148.723 20C152.684 20 157.106 26.2307 160.929 26.5972C164.752 26.9638 169.127 28.3382 172.904 29.117C176.681 29.8959 179.905 34.3857 183.589 35.5768C187.274 36.768 185.386 50.833 188.978 52.3906C192.571 53.9483 207.263 33.7443 210.626 35.7143C213.988 37.6843 207.724 54.9562 210.856 57.2469C213.988 59.5377 223.936 53.3986 226.838 56.01C229.74 58.6214 209.658 82.5364 212.284 85.4227C214.909 88.309 234.392 75.6185 236.695 78.7338C238.998 81.8492 237.8 86.6597 239.734 90.0499C241.669 93.4402 276.397 81.4827 277.963 85.0562C279.529 88.6297 231.076 111.583 232.273 115.294C233.471 119.005 255.302 115.752 256.131 119.6C256.96 123.448 260.046 126.747 260.461 130.641C260.875 134.536 236.695 138.384 236.695 142.324L236.741 142.416Z" fill="url(#paint0_linear_414_881)"/>
<defs>
<linearGradient id="paint0_linear_414_881" x1="59.8469" y1="53.5401" x2="295.674" y2="318.371" gradientUnits="userSpaceOnUse">
<stop stop-color="#E7F1A4"/>
<stop offset="0.21875" stop-color="#688055"/>
<stop offset="0.442708" stop-color="#495B3E"/>
<stop offset="0.744792" stop-color="#273127"/>
</linearGradient>
</defs>
</svg>
