<svg width="301" height="301" viewBox="0 0 301 301" fill="none" xmlns="http://www.w3.org/2000/svg">
<path d="M265.137 145.857C265.137 149.805 268.391 154.303 268.025 158.112C267.658 161.922 252.899 163.528 252.12 167.292C251.34 171.056 233.786 168.577 232.594 172.249C231.402 175.921 269.216 194.143 267.658 197.677C266.099 201.211 272.929 211.63 270.958 214.981C268.987 218.332 260.095 220.122 257.849 223.289C255.603 226.456 237.086 217.827 234.473 220.718C231.86 223.61 242.128 240.868 239.24 243.484C236.352 246.1 211.647 222.187 208.484 224.482C205.322 226.777 199.042 220.581 195.651 222.554C192.259 224.528 191.846 227.098 188.271 228.705C184.696 230.311 196.659 272.538 192.946 273.778C189.234 275.017 180.112 262.027 176.262 262.854C172.412 263.68 168.929 275.063 165.033 275.476C161.137 275.889 155.407 243.943 151.465 243.943C147.524 243.943 146.103 233.616 142.252 233.203C138.402 232.79 126.393 282.636 122.635 281.856C118.876 281.075 113.605 275.109 109.939 273.915C106.272 272.722 116.814 233.432 113.285 231.826C109.755 230.219 101.78 239.904 98.434 237.93C95.088 235.957 90.0461 237.242 86.8835 234.947C83.7208 232.652 99.1214 209.978 96.2338 207.408C93.3462 204.837 78.2206 217.23 75.6079 214.338C72.9953 211.447 65.3409 213.42 63.0491 210.253C60.7574 207.086 31.7894 219.663 29.8643 216.266C27.9393 212.87 42.6524 198.733 41.0482 195.153C39.4439 191.573 17.7639 193.5 16.5721 189.783C15.3804 186.065 29.3602 175.875 28.5352 172.066C27.7101 168.256 61.1699 159.397 60.7574 155.496C60.3448 151.595 29.131 149.85 29.131 145.903C29.131 141.956 49.9402 139.064 50.3069 135.255C50.6736 131.445 54.1571 129.15 54.9363 125.34C55.7155 121.531 56.9072 119.19 58.0989 115.518C59.2906 111.846 56.128 107.623 57.7322 104.089C59.3364 100.555 73.7746 105.466 75.6996 102.116C77.6247 98.765 47.4651 75.0353 49.7568 71.8683C52.0486 68.7012 52.0945 61.4951 54.7071 58.6035C57.3197 55.7118 65.2033 55.7118 68.091 53.0956C70.9786 50.4794 76.3872 48.9647 79.504 46.6698C82.6208 44.3748 101.047 66.1309 104.392 64.1572C107.738 62.1836 108.014 57.6855 111.589 56.1249C115.164 54.5644 114.11 43.3191 117.822 42.1258C121.535 40.9324 125.339 41.4373 129.144 40.657C132.948 39.8767 139.044 65.4424 142.986 65.0293C146.928 64.6162 147.569 19.8648 151.511 19.8648C155.453 19.8648 160.174 26.2448 164.024 26.6578C167.874 27.0709 169.479 42.8602 173.237 43.6863C176.996 44.5125 181.212 41.8963 184.925 43.0897C188.638 44.283 200.83 25.6022 204.359 27.2086C207.889 28.8151 202.343 50.1122 205.689 52.0399C209.035 53.9677 209.264 59.751 212.426 62.0459C215.589 64.3408 226.085 57.2265 228.973 59.8428C231.86 62.459 241.99 59.1543 244.557 62.0918C247.124 65.0293 246.528 72.006 248.82 75.173C251.111 78.34 225.077 98.9945 227.002 102.345C228.927 105.696 265.733 90.7327 267.337 94.3128C268.941 97.8929 239.79 113.131 240.982 116.849C242.173 120.567 283.654 113.866 284.479 117.675C285.304 121.485 261.103 130.481 261.516 134.383C261.928 138.284 265.183 142.048 265.183 145.995L265.137 145.857Z" fill="url(#paint0_linear_227_878)"/>
<defs>
<linearGradient id="paint0_linear_227_878" x1="57.0096" y1="53.6629" x2="293.576" y2="328.58" gradientUnits="userSpaceOnUse">
<stop stop-color="#E7F1A4"/>
<stop offset="0.21875" stop-color="#688055"/>
<stop offset="0.442708" stop-color="#495B3E"/>
<stop offset="0.744792" stop-color="#273127"/>
</linearGradient>
</defs>
</svg>
