<svg width="301" height="301" viewBox="0 0 301 301" fill="none" xmlns="http://www.w3.org/2000/svg">
<path d="M281.029 144.063C281.029 148.024 263.168 152.077 262.755 155.945C262.342 159.814 253.113 162.071 252.332 165.893C251.552 169.716 234.977 167.689 233.737 171.374C232.497 175.058 246.455 182.887 244.894 186.433C243.333 189.98 260.551 203.612 258.623 206.974C256.694 210.336 260.138 219.5 257.842 222.678C255.546 225.856 217.253 199.513 214.636 202.414C212.019 205.316 215.83 211.533 212.937 214.158C210.045 216.783 226.85 243.449 223.682 245.751C220.513 248.054 202.882 228.067 199.484 230.047C196.087 232.027 194.067 233.731 190.531 235.343C186.996 236.955 183.093 233.455 179.374 234.652C175.655 235.85 179.098 262.423 175.288 263.252C171.477 264.081 168.079 278.865 164.176 279.279C160.273 279.694 153.983 285.865 150.034 285.865C146.086 285.865 139.566 281.167 135.755 280.753C131.944 280.338 126.894 272.002 123.129 271.219C119.364 270.437 111.283 276.424 107.563 275.226C103.844 274.029 98.3346 270.068 94.7992 268.502C91.2638 266.936 91.4015 253.719 88.0498 251.785C84.698 249.85 105.819 211.855 102.697 209.553C99.5743 207.25 67.0668 242.389 64.1742 239.764C61.2816 237.139 68.8115 222.77 66.1944 219.869C63.5773 216.967 62.2917 212.915 59.9959 209.783C57.7002 206.651 31.1156 217.612 29.1413 214.204C27.167 210.796 77.168 180.999 75.561 177.407C73.954 173.814 65.2302 175.933 64.0364 172.203C62.8426 168.472 67.2964 165.847 66.4699 162.025C65.6434 158.202 41.4005 159.584 41.0332 155.669C40.6659 151.754 10.5 148.116 10.5 144.155C10.5 140.195 12.107 133.517 12.5202 129.694C12.9335 125.872 10.6837 118.411 11.4642 114.635C12.2448 110.858 29.0495 108.786 30.2892 105.101C31.5289 101.417 69.6839 112.516 71.2909 108.97C72.8979 105.424 64.0823 98.8379 66.0107 95.4759C67.9392 92.114 50.9048 76.6858 53.2006 73.5541C55.4963 70.4224 53.3383 62.0405 55.9095 59.093C58.4808 56.1455 92.9626 86.3572 95.8552 83.7321C98.7478 81.107 63.9905 31.9669 67.1586 29.6642C70.3267 27.3615 98.702 62.5931 102.054 60.6588C105.405 58.7245 98.656 37.908 102.237 36.296C105.819 34.6841 104.855 17.1374 108.574 15.894C112.293 14.6505 126.894 53.6125 130.75 52.8296C134.607 52.0467 135.525 42.6055 139.428 42.191C143.331 41.7765 146.178 51.6322 150.126 51.6322C154.075 51.6322 155.039 60.4746 158.896 60.843C162.753 61.2115 170.926 27.4075 174.691 28.1905C178.456 28.9734 175.747 52.4611 179.466 53.6586C183.185 54.856 197.327 28.2826 200.908 29.8945C204.489 31.5064 201.78 46.7043 205.178 48.6386C208.576 50.5729 230.798 26.3483 233.92 28.605C237.043 30.8616 220.422 60.1062 223.314 62.7313C226.207 65.3564 238.512 59.139 241.129 62.0405C243.746 64.9419 245.812 69.6394 248.108 72.8172C250.404 75.9949 254.812 79.0806 256.74 82.4426C258.668 85.8045 259.265 91.1468 260.872 94.7391C262.479 98.3313 272.764 100.081 273.958 103.858C275.152 107.634 245.583 119.793 246.409 123.661C247.236 127.53 290.074 125.503 290.487 129.418C290.9 133.333 281.167 140.241 281.167 144.155L281.029 144.063Z" fill="url(#paint0_linear_227_877)"/>
<defs>
<linearGradient id="paint0_linear_227_877" x1="52.8235" y1="50.6949" x2="296.093" y2="337.308" gradientUnits="userSpaceOnUse">
<stop stop-color="#E7F1A4"/>
<stop offset="0.21875" stop-color="#688055"/>
<stop offset="0.442708" stop-color="#495B3E"/>
<stop offset="0.744792" stop-color="#273127"/>
</linearGradient>
</defs>
</svg>
