<svg width="301" height="301" viewBox="0 0 301 301" fill="none" xmlns="http://www.w3.org/2000/svg">
<path d="M257.108 151.939C257.108 155.892 277.65 161.087 277.237 164.949C276.825 168.81 259.126 170.465 258.346 174.235C257.567 178.004 238.951 175.614 237.759 179.291C236.567 182.969 262.152 196.07 260.593 199.61C259.034 203.15 243.903 199.61 241.931 202.92C239.96 206.23 222.949 197.45 220.656 200.576C218.363 203.702 261.189 243.604 258.576 246.5C255.962 249.396 240.235 242.317 237.346 244.937C234.457 247.557 216.667 232.065 213.549 234.364C210.431 236.662 210.018 241.719 206.625 243.65C203.232 245.581 213.182 275.921 209.606 277.484C206.029 279.047 195.07 266.497 191.356 267.738C187.642 268.979 181.223 262.268 177.372 263.049C173.52 263.831 171.548 283.782 167.651 284.196C163.754 284.609 157.747 270.313 153.804 270.313C149.86 270.313 145.138 271.462 141.332 271.048C137.526 270.634 128.585 289.666 124.825 288.839C121.065 288.011 123.725 257.395 120.011 256.2C116.297 255.004 114.187 250.729 110.657 249.12C107.126 247.511 94.5169 262.681 91.1697 260.705C87.8225 258.728 93.5998 241.673 90.436 239.375C87.2722 237.076 90.0234 228.801 87.1347 226.181C84.246 223.561 73.2415 229.905 70.6738 227.009C68.1061 224.112 58.5229 226.181 56.2303 223.055C53.9377 219.929 75.7633 201.633 73.7917 198.231C71.8201 194.829 32.0663 210.551 30.5073 206.965C28.9483 203.38 44.6756 191.565 43.4835 187.842C42.2913 184.118 17.3478 184.946 16.5225 181.13C15.6971 177.315 37.8895 168.075 37.4768 164.121C37.0642 160.168 18.1272 155.801 18.1272 151.847C18.1272 147.894 36.193 143.343 36.5598 139.481C36.9266 135.62 29.0401 129.184 29.8195 125.414C30.599 121.645 71.8201 129.184 73.0122 125.46C74.2044 121.736 57.7435 113.14 59.3483 109.6C60.9531 106.061 38.348 89.3734 40.2738 86.0176C42.1996 82.6617 81.6783 104.038 83.925 100.866C86.1718 97.694 73.5625 84.5005 76.1302 81.6044C78.6979 78.7083 68.2895 62.2969 71.1782 59.6766C74.0668 57.0563 95.3422 77.605 98.4601 75.3065C101.578 73.008 97.4973 61.6993 100.844 59.7225C104.192 57.7458 95.4798 30.0257 99.0562 28.4627C102.633 26.8997 110.703 31.4048 114.417 30.2096C118.131 29.0144 121.478 18.0275 125.329 17.2C129.181 16.3725 136.609 24.7851 140.507 24.4173C144.404 24.0496 149.906 59.9064 153.849 59.9064C157.793 59.9064 164.671 11.4537 168.522 11.8674C172.374 12.2812 173.428 41.0126 177.234 41.7941C181.04 42.5756 182.094 52.4133 185.762 53.6085C189.431 54.8037 188.055 65.4229 191.586 67.0318C195.116 68.6408 195.346 72.0886 198.739 74.0653C202.132 76.042 232.853 36.4156 236.016 38.7141C239.18 41.0126 226.479 65.3309 229.368 67.9512C232.257 70.5715 227.35 80.4092 229.964 83.3513C232.577 86.2934 221.848 97.694 224.141 100.866C226.433 104.038 273.569 78.2026 275.541 81.5584C277.513 84.9143 275.999 93.1889 277.558 96.7746C279.117 100.36 241.885 119.208 243.078 122.932C244.27 126.655 283.703 120.311 284.482 124.173C285.262 128.034 260.364 136.815 260.777 140.722C261.189 144.63 257.154 148.032 257.154 151.985L257.108 151.939Z" fill="url(#paint0_linear_227_872)"/>
<defs>
<linearGradient id="paint0_linear_227_872" x1="57.0096" y1="47.5979" x2="308.821" y2="324.385" gradientUnits="userSpaceOnUse">
<stop stop-color="#E7F1A4"/>
<stop offset="0.21875" stop-color="#688055"/>
<stop offset="0.442708" stop-color="#495B3E"/>
<stop offset="0.744792" stop-color="#273127"/>
</linearGradient>
</defs>
</svg>
