<svg width="301" height="301" viewBox="0 0 301 301" fill="none" xmlns="http://www.w3.org/2000/svg">
<path d="M248.505 152.161C248.505 156.101 253.377 159.399 252.963 163.202C252.55 167.004 249.7 169.845 248.918 173.647C248.137 177.45 247.08 180.336 245.884 184.001C244.689 187.666 267.811 201.319 266.248 204.846C264.685 208.374 260.87 212.909 258.939 216.254C257.009 219.598 217.476 197.928 215.178 201.089C212.879 204.251 235.45 225.829 232.829 228.715C230.209 231.601 230.531 238.198 227.635 240.81C224.739 243.421 225.383 252.309 222.211 254.599C219.039 256.89 219.912 269.306 216.557 271.276C213.201 273.245 184.471 225.325 180.931 226.928C177.392 228.532 184.517 252.95 180.793 254.141C177.07 255.332 177.668 274.62 173.806 275.399C169.945 276.178 165.302 283.462 161.395 283.828C157.488 284.195 151.466 281.675 147.512 281.675C143.559 281.675 138.779 272.054 134.917 271.688C131.056 271.321 126.551 269.031 122.782 268.252C119.012 267.473 119.748 249.927 116.07 248.735C112.393 247.544 116.622 231.006 113.036 229.448C109.451 227.89 96.4877 248.048 93.132 246.124C89.7764 244.2 84.3061 245.574 81.1343 243.284C77.9625 240.993 72.1705 241.405 69.2745 238.794C66.3785 236.182 65.0455 231.418 62.4713 228.532C59.897 225.645 74.9746 209.519 72.6762 206.404C70.3778 203.289 45.4171 215.475 43.4865 212.085C41.5558 208.695 42.4292 203.105 40.8662 199.532C39.3033 195.958 30.1556 194.309 28.9145 190.598C27.6733 186.887 38.5218 179.282 37.6944 175.48C36.867 171.677 44.7735 166.913 44.3598 163.019C43.9461 159.124 38.1081 156.147 38.1081 152.207C38.1081 148.267 12.1361 141.899 12.5039 138.096C12.8716 134.294 49.0026 135.256 49.83 131.499C50.6574 127.742 32.9597 119.175 34.1548 115.51C35.35 111.845 24.5015 101.858 26.1104 98.3302C27.7193 94.8026 25.7427 86.602 27.7193 83.2576C29.696 79.9132 36.4533 76.5689 38.7517 73.4535C41.0501 70.3382 66.8383 85.0443 69.4585 82.1581C72.0786 79.2718 50.7953 50.9592 53.6913 48.3478C56.5873 45.7365 91.9369 82.5246 95.1087 80.2339C98.2805 77.9433 74.6528 34.1915 78.0545 32.2215C81.4561 30.2516 94.1433 42.163 97.7289 40.5596C101.314 38.9561 103.153 28.5565 106.922 27.3195C110.692 26.0826 120.943 46.0114 124.804 45.1867C128.665 44.3621 132.619 47.4774 136.526 47.0651C140.433 46.6528 143.697 29.9309 147.604 29.9309C151.512 29.9309 157.993 16.4618 161.855 16.8741C165.716 17.2864 166.221 46.4237 169.991 47.2483C173.76 48.073 173.76 59.3889 177.484 60.58C181.207 61.7711 186.264 56.0903 189.849 57.6479C193.435 59.2056 203.042 48.806 206.398 50.7301C209.753 52.6543 225.98 38.0857 229.152 40.3763C232.324 42.667 211.454 75.6984 214.35 78.3098C217.246 80.9211 229.933 73.0412 232.554 75.9733C235.174 78.9053 217.706 96.6351 220.004 99.7962C222.303 102.957 233.105 98.5134 235.036 101.904C236.967 105.294 257.698 99.0632 259.307 102.637C260.916 106.21 227.635 122.153 228.83 125.91C230.025 129.667 230.163 130.72 230.945 134.523C231.726 138.325 288.083 133.561 288.497 137.501C288.911 141.441 248.596 148.313 248.596 152.207L248.505 152.161Z" fill="url(#paint0_linear_227_873)"/>
<defs>
<linearGradient id="paint0_linear_227_873" x1="54.2189" y1="51.3079" x2="294.909" y2="333.973" gradientUnits="userSpaceOnUse">
<stop stop-color="#E7F1A4"/>
<stop offset="0.21875" stop-color="#688055"/>
<stop offset="0.442708" stop-color="#495B3E"/>
<stop offset="0.744792" stop-color="#273127"/>
</linearGradient>
</defs>
</svg>
