<svg width="301" height="301" viewBox="0 0 301 301" fill="none" xmlns="http://www.w3.org/2000/svg">
<path d="M267.298 143.823C267.298 147.783 247.552 149.902 247.139 153.77C246.725 157.638 282.268 167.401 281.487 171.177C280.707 174.953 267.344 176.979 266.15 180.663C264.956 184.347 239.975 178.36 238.414 181.906C236.852 185.452 236.393 187.524 234.465 190.886C232.536 194.247 244.062 205.207 241.766 208.385C239.47 211.562 240.526 217.456 237.909 220.357C235.291 223.259 214.811 206.635 211.918 209.26C209.025 211.884 207.831 212.621 204.662 214.924C201.494 217.226 203.239 222.982 199.886 224.962C196.534 226.943 205.81 252.638 202.228 254.25C198.647 255.862 193.595 255.769 189.876 256.967C186.156 258.164 177.018 237.027 173.161 237.81C169.303 238.593 166.318 230.811 162.415 231.225C158.512 231.64 157.18 259.407 153.231 259.407C149.282 259.407 142.44 284.274 138.582 283.86C134.725 283.445 134.633 250.197 130.822 249.415C127.01 248.632 118.791 262.585 115.117 261.388C111.443 260.19 113.877 242.047 110.341 240.435C106.805 238.823 97.2079 248.954 93.8098 247.02C90.4117 245.086 80.2632 251.165 77.1406 248.862C74.018 246.56 79.1152 232.238 76.2222 229.659C73.3292 227.081 59.4612 233.85 56.8437 230.949C54.2262 228.048 80.3551 201.846 78.059 198.668C75.763 195.491 33.7456 217.641 31.817 214.233C29.8883 210.825 44.4911 196.734 42.9298 193.142C41.3685 189.55 65.2472 176.703 64.0532 172.973C62.8593 169.243 62.6297 167.262 61.8031 163.394C60.9766 159.526 26.2606 161.23 25.8473 157.27C25.434 153.309 18.5 147.83 18.5 143.869C18.5 139.909 24.0105 134.153 24.4238 130.285C24.837 126.417 26.6279 120.845 27.4086 117.022C28.1892 113.2 56.3845 116.332 57.5784 112.648C58.7724 108.964 74.0639 112.74 75.6252 109.194C77.1865 105.648 33.562 79.0316 35.4906 75.6239C37.4193 72.2163 64.3747 83.9128 66.6707 80.7815C68.9668 77.6501 63.2267 67.7955 65.7982 64.8944C68.3698 61.9933 81.5031 69.7757 84.3961 67.1969C87.2891 64.6181 74.3854 41.7315 77.5539 39.4291C80.7224 37.1266 100.652 60.3355 104.05 58.4014C107.448 56.4674 103.04 40.4882 106.622 38.8765C110.203 37.2647 115.852 41.1789 119.571 39.9816C123.291 38.7844 124.577 27.6864 128.434 26.9036C132.291 26.1208 137.434 31.048 141.338 30.6796C145.241 30.3113 149.282 16.8648 153.185 16.8648C157.088 16.8648 159.568 46.0602 163.425 46.4746C167.283 46.8891 167.65 57.1581 171.462 57.9409C175.273 58.7238 185.33 32.1993 189.003 33.3966C192.677 34.5939 198.647 31.923 202.228 33.5347C205.81 35.1464 200.667 53.6583 204.019 55.5924C207.371 57.5265 198.647 74.4727 201.769 76.7752C204.892 79.0776 240.297 41.0408 243.19 43.6196C246.083 46.1983 228.587 70.5124 231.158 73.4136C233.73 76.3147 225.648 86.2153 227.944 89.3467C230.24 92.478 270.971 71.065 272.9 74.4267C274.829 77.7883 269.41 87.5508 271.017 91.1426C272.625 94.7345 250.721 107.859 251.96 111.589C253.2 115.319 261.833 116.608 262.66 120.43C263.486 124.252 254.394 129.133 254.807 133.048C255.221 136.962 267.252 139.817 267.252 143.777L267.298 143.823Z" fill="url(#paint0_linear_227_876)"/>
<defs>
<linearGradient id="paint0_linear_227_876" x1="58.2538" y1="51.3079" x2="300.526" y2="322.429" gradientUnits="userSpaceOnUse">
<stop stop-color="#E7F1A4"/>
<stop offset="0.21875" stop-color="#688055"/>
<stop offset="0.442708" stop-color="#495B3E"/>
<stop offset="0.744792" stop-color="#273127"/>
</linearGradient>
</defs>
</svg>
