<svg width="301" height="301" viewBox="0 0 301 301" fill="none" xmlns="http://www.w3.org/2000/svg">
<path d="M274.9 145.29C274.9 149.236 279.362 154.88 278.948 158.734C278.534 162.589 232.679 158.734 231.851 162.543C231.023 166.351 270.485 180.071 269.289 183.742C268.093 187.413 226.47 174.702 224.86 178.236C223.251 181.769 260.873 204.298 258.941 207.648C257.009 210.998 258.527 218.66 256.227 221.781C253.928 224.901 241.648 221.735 239.026 224.625C236.405 227.516 224.17 220.863 221.273 223.478C218.375 226.094 210.143 220.266 206.969 222.561C203.796 224.855 215.432 249.312 212.074 251.285C208.717 253.258 211.43 271.612 207.843 273.218C204.256 274.824 185.72 240.043 181.995 241.236C178.27 242.429 176.154 245.595 172.291 246.375C168.427 247.155 168.703 278.449 164.794 278.862C160.884 279.275 154.675 240.089 150.766 240.089C146.857 240.089 146.121 225.681 142.303 225.314C138.486 224.947 135.864 233.711 132.093 232.931C128.322 232.151 129.333 223.662 125.654 222.469C121.975 221.276 112.914 239.722 109.373 238.161C105.831 236.601 106.659 229.397 103.302 227.424C99.9441 225.451 77.5456 252.524 74.3721 250.229C71.1987 247.935 73.4524 236.831 70.5548 234.215C67.6573 231.6 91.9414 203.381 89.3198 200.49C86.6982 197.599 84.1226 198.379 81.8229 195.259C79.5233 192.139 36.6582 215.586 34.6805 212.191C32.7028 208.795 41.2574 198.241 39.6937 194.662C38.1299 191.083 71.5666 175.115 70.3248 171.399C69.083 167.682 35.2784 173.831 34.4505 169.976C33.6226 166.122 18.767 163.093 18.3531 159.193C17.9391 155.293 19.4109 149.282 19.4109 145.336C19.4109 141.39 36.8421 137.26 37.2561 133.452C37.67 129.643 23.1363 122.256 23.9642 118.493C24.7921 114.731 16.4214 105.875 17.6172 102.204C18.813 98.5332 24.5621 93.5317 26.1258 89.9986C27.6896 86.4654 50.548 92.1093 52.4796 88.7597C54.4113 85.4101 48.7083 76.1872 51.0079 73.067C53.3076 69.9468 73.9582 81.6475 76.5338 78.7567C79.1094 75.866 65.8175 57.1448 68.7151 54.5294C71.6126 51.9139 82.6968 58.6132 85.8703 56.3189C89.0438 54.0247 99.9442 65.4042 103.348 63.4311C106.751 61.458 103.624 49.3444 107.165 47.7384C110.706 46.1324 111.258 36.8636 114.984 35.6706C118.709 34.4776 124.78 42.5993 128.644 41.7733C132.507 40.9474 134.439 28.0996 138.348 27.6866C142.257 27.2737 146.811 55.08 150.766 55.08C154.721 55.08 159.827 22.4557 163.69 22.8687C167.553 23.2817 170.037 36.6342 173.808 37.4602C177.58 38.2861 179.741 44.0217 183.421 45.2147C187.1 46.4077 180.017 70.3139 183.605 71.874C187.192 73.4341 204.624 44.6641 207.981 46.5913C211.339 48.5185 228.632 31.9081 231.805 34.2023C234.979 36.4966 234.749 46.5913 237.646 49.2067C240.544 51.8222 250.754 50.3997 253.376 53.2905C255.997 56.1813 256.917 63.7064 259.217 66.8266C261.516 69.9468 264.414 75.453 266.346 78.8485C268.277 82.244 266.346 89.815 267.955 93.3941C269.565 96.9731 260.091 105.921 261.287 109.637C262.482 113.354 281.661 113.721 282.489 117.53C283.317 121.338 236.542 132.442 236.956 136.388C237.37 140.335 274.9 141.528 274.9 145.474V145.29Z" fill="url(#paint0_linear_227_880)"/>
<defs>
<linearGradient id="paint0_linear_227_880" x1="57.5562" y1="55.8889" x2="288.279" y2="327.227" gradientUnits="userSpaceOnUse">
<stop stop-color="#E7F1A4"/>
<stop offset="0.21875" stop-color="#688055"/>
<stop offset="0.442708" stop-color="#495B3E"/>
<stop offset="0.744792" stop-color="#273127"/>
</linearGradient>
</defs>
</svg>
