<svg width="26" height="8" viewBox="0 0 26 8" fill="none" xmlns="http://www.w3.org/2000/svg">
<path d="M4.25031 4.38C4.28498 4.51867 4.30231 4.692 4.30231 4.9C4.30231 5.09933 4.28498 5.27267 4.25031 5.42C4.28498 5.55867 4.30231 5.732 4.30231 5.94C4.30231 6.13933 4.28498 6.31267 4.25031 6.46H3.73031C3.76498 6.59867 3.78231 6.772 3.78231 6.98C3.78231 7.17933 3.76498 7.35267 3.73031 7.5H0.610313C0.575646 7.35267 0.558313 7.17933 0.558313 6.98C0.558313 6.772 0.575646 6.59867 0.610313 6.46H0.0903125C0.0556459 6.31267 0.0383125 6.13933 0.0383125 5.94C0.0383125 5.732 0.0556459 5.55867 0.0903125 5.42H1.13031C1.16498 5.55867 1.18231 5.732 1.18231 5.94C1.18231 6.13933 1.16498 6.31267 1.13031 6.46H3.21031C3.17565 6.31267 3.15831 6.13933 3.15831 5.94C3.15831 5.732 3.17565 5.55867 3.21031 5.42C3.17565 5.27267 3.15831 5.09933 3.15831 4.9C3.15831 4.692 3.17565 4.51867 3.21031 4.38H0.610313C0.575646 4.23267 0.558313 4.05933 0.558313 3.86C0.558313 3.652 0.575646 3.47867 0.610313 3.34H0.0903125C0.0556459 3.19267 0.0383125 3.01933 0.0383125 2.82C0.0383125 2.612 0.0556459 2.43867 0.0903125 2.3C0.0556459 2.15267 0.0383125 1.97933 0.0383125 1.78C0.0383125 1.572 0.0556459 1.39867 0.0903125 1.26H0.610313C0.575646 1.11267 0.558313 0.939333 0.558313 0.739999C0.558313 0.532 0.575646 0.358666 0.610313 0.22H3.73031C3.76498 0.358666 3.78231 0.532 3.78231 0.739999C3.78231 0.939333 3.76498 1.11267 3.73031 1.26H4.25031C4.28498 1.39867 4.30231 1.572 4.30231 1.78C4.30231 1.97933 4.28498 2.15267 4.25031 2.3H3.21031C3.17565 2.15267 3.15831 1.97933 3.15831 1.78C3.15831 1.572 3.17565 1.39867 3.21031 1.26H1.13031C1.16498 1.39867 1.18231 1.572 1.18231 1.78C1.18231 1.97933 1.16498 2.15267 1.13031 2.3C1.16498 2.43867 1.18231 2.612 1.18231 2.82C1.18231 3.01933 1.16498 3.19267 1.13031 3.34H3.73031C3.76498 3.47867 3.78231 3.652 3.78231 3.86C3.78231 4.05933 3.76498 4.23267 3.73031 4.38H4.25031ZM9.50739 0.739999C9.50739 0.939333 9.49006 1.11267 9.45539 1.26H7.89539C7.93006 1.39867 7.94739 1.572 7.94739 1.78C7.94739 1.97933 7.93006 2.15267 7.89539 2.3C7.93006 2.43867 7.94739 2.612 7.94739 2.82C7.94739 3.01933 7.93006 3.19267 7.89539 3.34C7.93006 3.47867 7.94739 3.652 7.94739 3.86C7.94739 4.05933 7.93006 4.23267 7.89539 4.38C7.93006 4.51867 7.94739 4.692 7.94739 4.9C7.94739 5.09933 7.93006 5.27267 7.89539 5.42C7.93006 5.55867 7.94739 5.732 7.94739 5.94C7.94739 6.13933 7.93006 6.31267 7.89539 6.46C7.93006 6.59867 7.94739 6.772 7.94739 6.98C7.94739 7.17933 7.93006 7.35267 7.89539 7.5H6.85539C6.82072 7.35267 6.80339 7.17933 6.80339 6.98C6.80339 6.772 6.82072 6.59867 6.85539 6.46C6.82072 6.31267 6.80339 6.13933 6.80339 5.94C6.80339 5.732 6.82072 5.55867 6.85539 5.42C6.82072 5.27267 6.80339 5.09933 6.80339 4.9C6.80339 4.692 6.82072 4.51867 6.85539 4.38C6.82072 4.23267 6.80339 4.05933 6.80339 3.86C6.80339 3.652 6.82072 3.47867 6.85539 3.34C6.82072 3.19267 6.80339 3.01933 6.80339 2.82C6.80339 2.612 6.82072 2.43867 6.85539 2.3C6.82072 2.15267 6.80339 1.97933 6.80339 1.78C6.80339 1.572 6.82072 1.39867 6.85539 1.26H5.29539C5.26072 1.11267 5.24339 0.939333 5.24339 0.739999C5.24339 0.532 5.26072 0.358666 5.29539 0.22H9.45539C9.49006 0.358666 9.50739 0.532 9.50739 0.739999ZM14.7125 5.94C14.7125 6.13933 14.6951 6.31267 14.6605 6.46C14.6951 6.59867 14.7125 6.772 14.7125 6.98C14.7125 7.17933 14.6951 7.35267 14.6605 7.5H13.6205C13.5858 7.35267 13.5685 7.17933 13.5685 6.98C13.5685 6.772 13.5858 6.59867 13.6205 6.46C13.5858 6.31267 13.5685 6.13933 13.5685 5.94C13.5685 5.732 13.5858 5.55867 13.6205 5.42H11.5405C11.5751 5.55867 11.5925 5.732 11.5925 5.94C11.5925 6.13933 11.5751 6.31267 11.5405 6.46C11.5751 6.59867 11.5925 6.772 11.5925 6.98C11.5925 7.17933 11.5751 7.35267 11.5405 7.5H10.5005C10.4658 7.35267 10.4485 7.17933 10.4485 6.98C10.4485 6.772 10.4658 6.59867 10.5005 6.46C10.4658 6.31267 10.4485 6.13933 10.4485 5.94C10.4485 5.732 10.4658 5.55867 10.5005 5.42H10.8905C10.8558 5.27267 10.8385 5.09933 10.8385 4.9C10.8385 4.692 10.8558 4.51867 10.8905 4.38C10.8558 4.23267 10.8385 4.05933 10.8385 3.86C10.8385 3.652 10.8558 3.47867 10.8905 3.34H11.1505C11.1158 3.19267 11.0985 3.01933 11.0985 2.82C11.0985 2.612 11.1158 2.43867 11.1505 2.3H11.5405C11.5058 2.15267 11.4885 1.97933 11.4885 1.78C11.4885 1.572 11.5058 1.39867 11.5405 1.26H11.8005C11.7658 1.11267 11.7485 0.939333 11.7485 0.739999C11.7485 0.532 11.7658 0.358666 11.8005 0.22H13.3605C13.3951 0.358666 13.4125 0.532 13.4125 0.739999C13.4125 0.939333 13.3951 1.11267 13.3605 1.26H13.6205C13.6551 1.39867 13.6725 1.572 13.6725 1.78C13.6725 1.97933 13.6551 2.15267 13.6205 2.3H14.0105C14.0451 2.43867 14.0625 2.612 14.0625 2.82C14.0625 3.01933 14.0451 3.19267 14.0105 3.34H14.2705C14.3051 3.47867 14.3225 3.652 14.3225 3.86C14.3225 4.05933 14.3051 4.23267 14.2705 4.38C14.3051 4.51867 14.3225 4.692 14.3225 4.9C14.3225 5.09933 14.3051 5.27267 14.2705 5.42H14.6605C14.6951 5.55867 14.7125 5.732 14.7125 5.94ZM13.2305 4.38C13.1958 4.23267 13.1785 4.05933 13.1785 3.86C13.1785 3.652 13.1958 3.47867 13.2305 3.34H12.9705C12.9358 3.19267 12.9185 3.01933 12.9185 2.82C12.9185 2.612 12.9358 2.43867 12.9705 2.3H12.1905C12.2251 2.43867 12.2425 2.612 12.2425 2.82C12.2425 3.01933 12.2251 3.19267 12.1905 3.34H11.9305C11.9651 3.47867 11.9825 3.652 11.9825 3.86C11.9825 4.05933 11.9651 4.23267 11.9305 4.38H13.2305ZM19.8655 6.46C19.9002 6.59867 19.9175 6.772 19.9175 6.98C19.9175 7.17933 19.9002 7.35267 19.8655 7.5H18.8255C18.7909 7.35267 18.7735 7.17933 18.7735 6.98C18.7735 6.772 18.7909 6.59867 18.8255 6.46H18.4355C18.4009 6.31267 18.3835 6.13933 18.3835 5.94C18.3835 5.732 18.4009 5.55867 18.4355 5.42H18.0455C18.0109 5.27267 17.9935 5.09933 17.9935 4.9C17.9935 4.692 18.0109 4.51867 18.0455 4.38H16.7455C16.7802 4.51867 16.7975 4.692 16.7975 4.9C16.7975 5.09933 16.7802 5.27267 16.7455 5.42C16.7802 5.55867 16.7975 5.732 16.7975 5.94C16.7975 6.13933 16.7802 6.31267 16.7455 6.46C16.7802 6.59867 16.7975 6.772 16.7975 6.98C16.7975 7.17933 16.7802 7.35267 16.7455 7.5H15.7055C15.6709 7.35267 15.6535 7.17933 15.6535 6.98C15.6535 6.772 15.6709 6.59867 15.7055 6.46C15.6709 6.31267 15.6535 6.13933 15.6535 5.94C15.6535 5.732 15.6709 5.55867 15.7055 5.42C15.6709 5.27267 15.6535 5.09933 15.6535 4.9C15.6535 4.692 15.6709 4.51867 15.7055 4.38C15.6709 4.23267 15.6535 4.05933 15.6535 3.86C15.6535 3.652 15.6709 3.47867 15.7055 3.34C15.6709 3.19267 15.6535 3.01933 15.6535 2.82C15.6535 2.612 15.6709 2.43867 15.7055 2.3C15.6709 2.15267 15.6535 1.97933 15.6535 1.78C15.6535 1.572 15.6709 1.39867 15.7055 1.26C15.6709 1.11267 15.6535 0.939333 15.6535 0.739999C15.6535 0.532 15.6709 0.358666 15.7055 0.22H19.3455C19.3802 0.358666 19.3975 0.532 19.3975 0.739999C19.3975 0.939333 19.3802 1.11267 19.3455 1.26H19.8655C19.9002 1.39867 19.9175 1.572 19.9175 1.78C19.9175 1.97933 19.9002 2.15267 19.8655 2.3H19.6055C19.6402 2.43867 19.6575 2.612 19.6575 2.82C19.6575 3.01933 19.6402 3.19267 19.6055 3.34H18.8255C18.8602 3.47867 18.8775 3.652 18.8775 3.86C18.8775 4.05933 18.8602 4.23267 18.8255 4.38H19.0855C19.1202 4.51867 19.1375 4.692 19.1375 4.9C19.1375 5.09933 19.1202 5.27267 19.0855 5.42H19.4755C19.5102 5.55867 19.5275 5.732 19.5275 5.94C19.5275 6.13933 19.5102 6.31267 19.4755 6.46H19.8655ZM18.5655 3.34C18.5309 3.19267 18.5135 3.01933 18.5135 2.82C18.5135 2.612 18.5309 2.43867 18.5655 2.3C18.5309 2.15267 18.5135 1.97933 18.5135 1.78C18.5135 1.572 18.5309 1.39867 18.5655 1.26H16.7455C16.7802 1.39867 16.7975 1.572 16.7975 1.78C16.7975 1.97933 16.7802 2.15267 16.7455 2.3C16.7802 2.43867 16.7975 2.612 16.7975 2.82C16.7975 3.01933 16.7802 3.19267 16.7455 3.34H18.5655ZM25.1226 0.739999C25.1226 0.939333 25.1053 1.11267 25.0706 1.26H23.5106C23.5453 1.39867 23.5626 1.572 23.5626 1.78C23.5626 1.97933 23.5453 2.15267 23.5106 2.3C23.5453 2.43867 23.5626 2.612 23.5626 2.82C23.5626 3.01933 23.5453 3.19267 23.5106 3.34C23.5453 3.47867 23.5626 3.652 23.5626 3.86C23.5626 4.05933 23.5453 4.23267 23.5106 4.38C23.5453 4.51867 23.5626 4.692 23.5626 4.9C23.5626 5.09933 23.5453 5.27267 23.5106 5.42C23.5453 5.55867 23.5626 5.732 23.5626 5.94C23.5626 6.13933 23.5453 6.31267 23.5106 6.46C23.5453 6.59867 23.5626 6.772 23.5626 6.98C23.5626 7.17933 23.5453 7.35267 23.5106 7.5H22.4706C22.436 7.35267 22.4186 7.17933 22.4186 6.98C22.4186 6.772 22.436 6.59867 22.4706 6.46C22.436 6.31267 22.4186 6.13933 22.4186 5.94C22.4186 5.732 22.436 5.55867 22.4706 5.42C22.436 5.27267 22.4186 5.09933 22.4186 4.9C22.4186 4.692 22.436 4.51867 22.4706 4.38C22.436 4.23267 22.4186 4.05933 22.4186 3.86C22.4186 3.652 22.436 3.47867 22.4706 3.34C22.436 3.19267 22.4186 3.01933 22.4186 2.82C22.4186 2.612 22.436 2.43867 22.4706 2.3C22.436 2.15267 22.4186 1.97933 22.4186 1.78C22.4186 1.572 22.436 1.39867 22.4706 1.26H20.9106C20.876 1.11267 20.8586 0.939333 20.8586 0.739999C20.8586 0.532 20.876 0.358666 20.9106 0.22H25.0706C25.1053 0.358666 25.1226 0.532 25.1226 0.739999Z" fill="black"/>
</svg>
