<svg width="42" height="8" viewBox="0 0 42 8" fill="none" xmlns="http://www.w3.org/2000/svg">
<path d="M5.11707 1.78C5.11707 1.97933 5.09974 2.15267 5.06507 2.3C5.09974 2.43867 5.11707 2.612 5.11707 2.82C5.11707 3.01933 5.09974 3.19267 5.06507 3.34H4.54507C4.57974 3.47867 4.59707 3.652 4.59707 3.86C4.59707 4.05933 4.57974 4.23267 4.54507 4.38H1.94507C1.97974 4.51867 1.99707 4.692 1.99707 4.9C1.99707 5.09933 1.97974 5.27267 1.94507 5.42C1.97974 5.55867 1.99707 5.732 1.99707 5.94C1.99707 6.13933 1.97974 6.31267 1.94507 6.46C1.97974 6.59867 1.99707 6.772 1.99707 6.98C1.99707 7.17933 1.97974 7.35267 1.94507 7.5H0.905071C0.870404 7.35267 0.853071 7.17933 0.853071 6.98C0.853071 6.772 0.870404 6.59867 0.905071 6.46C0.870404 6.31267 0.853071 6.13933 0.853071 5.94C0.853071 5.732 0.870404 5.55867 0.905071 5.42C0.870404 5.27267 0.853071 5.09933 0.853071 4.9C0.853071 4.692 0.870404 4.51867 0.905071 4.38C0.870404 4.23267 0.853071 4.05933 0.853071 3.86C0.853071 3.652 0.870404 3.47867 0.905071 3.34C0.870404 3.19267 0.853071 3.01933 0.853071 2.82C0.853071 2.612 0.870404 2.43867 0.905071 2.3C0.870404 2.15267 0.853071 1.97933 0.853071 1.78C0.853071 1.572 0.870404 1.39867 0.905071 1.26C0.870404 1.11267 0.853071 0.939333 0.853071 0.739999C0.853071 0.532 0.870404 0.358666 0.905071 0.22H4.54507C4.57974 0.358666 4.59707 0.532 4.59707 0.739999C4.59707 0.939333 4.57974 1.11267 4.54507 1.26H5.06507C5.09974 1.39867 5.11707 1.572 5.11707 1.78ZM4.02507 3.34C3.9904 3.19267 3.97307 3.01933 3.97307 2.82C3.97307 2.612 3.9904 2.43867 4.02507 2.3C3.9904 2.15267 3.97307 1.97933 3.97307 1.78C3.97307 1.572 3.9904 1.39867 4.02507 1.26H1.94507C1.97974 1.39867 1.99707 1.572 1.99707 1.78C1.99707 1.97933 1.97974 2.15267 1.94507 2.3C1.97974 2.43867 1.99707 2.612 1.99707 2.82C1.99707 3.01933 1.97974 3.19267 1.94507 3.34H4.02507ZM10.2701 1.26C10.3048 1.39867 10.3221 1.572 10.3221 1.78C10.3221 1.97933 10.3048 2.15267 10.2701 2.3C10.3048 2.43867 10.3221 2.612 10.3221 2.82C10.3221 3.01933 10.3048 3.19267 10.2701 3.34C10.3048 3.47867 10.3221 3.652 10.3221 3.86C10.3221 4.05933 10.3048 4.23267 10.2701 4.38C10.3048 4.51867 10.3221 4.692 10.3221 4.9C10.3221 5.09933 10.3048 5.27267 10.2701 5.42C10.3048 5.55867 10.3221 5.732 10.3221 5.94C10.3221 6.13933 10.3048 6.31267 10.2701 6.46C10.3048 6.59867 10.3221 6.772 10.3221 6.98C10.3221 7.17933 10.3048 7.35267 10.2701 7.5H9.23015C9.19548 7.35267 9.17815 7.17933 9.17815 6.98C9.17815 6.772 9.19548 6.59867 9.23015 6.46C9.19548 6.31267 9.17815 6.13933 9.17815 5.94C9.17815 5.732 9.19548 5.55867 9.23015 5.42C9.19548 5.27267 9.17815 5.09933 9.17815 4.9C9.17815 4.692 9.19548 4.51867 9.23015 4.38C9.19548 4.23267 9.17815 4.05933 9.17815 3.86C9.17815 3.652 9.19548 3.47867 9.23015 3.34C9.19548 3.19267 9.17815 3.01933 9.17815 2.82C9.17815 2.612 9.19548 2.43867 9.23015 2.3H8.84015C8.87482 2.43867 8.89215 2.612 8.89215 2.82C8.89215 3.01933 8.87482 3.19267 8.84015 3.34C8.87482 3.47867 8.89215 3.652 8.89215 3.86C8.89215 4.05933 8.87482 4.23267 8.84015 4.38H8.58015C8.61482 4.51867 8.63215 4.692 8.63215 4.9C8.63215 5.09933 8.61482 5.27267 8.58015 5.42C8.61482 5.55867 8.63215 5.732 8.63215 5.94C8.63215 6.13933 8.61482 6.31267 8.58015 6.46H7.80015C7.76548 6.31267 7.74815 6.13933 7.74815 5.94C7.74815 5.732 7.76548 5.55867 7.80015 5.42C7.76548 5.27267 7.74815 5.09933 7.74815 4.9C7.74815 4.692 7.76548 4.51867 7.80015 4.38H7.54015C7.50548 4.23267 7.48815 4.05933 7.48815 3.86C7.48815 3.652 7.50548 3.47867 7.54015 3.34C7.50548 3.19267 7.48815 3.01933 7.48815 2.82C7.48815 2.612 7.50548 2.43867 7.54015 2.3H7.15015C7.18482 2.43867 7.20215 2.612 7.20215 2.82C7.20215 3.01933 7.18482 3.19267 7.15015 3.34C7.18482 3.47867 7.20215 3.652 7.20215 3.86C7.20215 4.05933 7.18482 4.23267 7.15015 4.38C7.18482 4.51867 7.20215 4.692 7.20215 4.9C7.20215 5.09933 7.18482 5.27267 7.15015 5.42C7.18482 5.55867 7.20215 5.732 7.20215 5.94C7.20215 6.13933 7.18482 6.31267 7.15015 6.46C7.18482 6.59867 7.20215 6.772 7.20215 6.98C7.20215 7.17933 7.18482 7.35267 7.15015 7.5H6.11015C6.07548 7.35267 6.05815 7.17933 6.05815 6.98C6.05815 6.772 6.07548 6.59867 6.11015 6.46C6.07548 6.31267 6.05815 6.13933 6.05815 5.94C6.05815 5.732 6.07548 5.55867 6.11015 5.42C6.07548 5.27267 6.05815 5.09933 6.05815 4.9C6.05815 4.692 6.07548 4.51867 6.11015 4.38C6.07548 4.23267 6.05815 4.05933 6.05815 3.86C6.05815 3.652 6.07548 3.47867 6.11015 3.34C6.07548 3.19267 6.05815 3.01933 6.05815 2.82C6.05815 2.612 6.07548 2.43867 6.11015 2.3C6.07548 2.15267 6.05815 1.97933 6.05815 1.78C6.05815 1.572 6.07548 1.39867 6.11015 1.26C6.07548 1.11267 6.05815 0.939333 6.05815 0.739999C6.05815 0.532 6.07548 0.358666 6.11015 0.22H7.41015C7.44482 0.358666 7.46215 0.532 7.46215 0.739999C7.46215 0.939333 7.44482 1.11267 7.41015 1.26H7.80015C7.83482 1.39867 7.85215 1.572 7.85215 1.78C7.85215 1.97933 7.83482 2.15267 7.80015 2.3H7.99515C8.02982 2.43867 8.04715 2.612 8.04715 2.82C8.04715 3.01933 8.02982 3.19267 7.99515 3.34H8.38515C8.35048 3.19267 8.33315 3.01933 8.33315 2.82C8.33315 2.612 8.35048 2.43867 8.38515 2.3H8.58015C8.54548 2.15267 8.52815 1.97933 8.52815 1.78C8.52815 1.572 8.54548 1.39867 8.58015 1.26H8.97015C8.93548 1.11267 8.91815 0.939333 8.91815 0.739999C8.91815 0.532 8.93548 0.358666 8.97015 0.22H10.2701C10.3048 0.358666 10.3221 0.532 10.3221 0.739999C10.3221 0.939333 10.3048 1.11267 10.2701 1.26ZM20.1603 6.46C20.195 6.59867 20.2123 6.772 20.2123 6.98C20.2123 7.17933 20.195 7.35267 20.1603 7.5H17.0403C17.0056 7.35267 16.9883 7.17933 16.9883 6.98C16.9883 6.772 17.0056 6.59867 17.0403 6.46H18.0803C18.0456 6.31267 18.0283 6.13933 18.0283 5.94C18.0283 5.732 18.0456 5.55867 18.0803 5.42C18.0456 5.27267 18.0283 5.09933 18.0283 4.9C18.0283 4.692 18.0456 4.51867 18.0803 4.38C18.0456 4.23267 18.0283 4.05933 18.0283 3.86C18.0283 3.652 18.0456 3.47867 18.0803 3.34C18.0456 3.19267 18.0283 3.01933 18.0283 2.82C18.0283 2.612 18.0456 2.43867 18.0803 2.3H17.3003C17.2656 2.15267 17.2483 1.97933 17.2483 1.78C17.2483 1.572 17.2656 1.39867 17.3003 1.26H18.0803C18.0456 1.11267 18.0283 0.939333 18.0283 0.739999C18.0283 0.532 18.0456 0.358666 18.0803 0.22H19.1203C19.155 0.358666 19.1723 0.532 19.1723 0.739999C19.1723 0.939333 19.155 1.11267 19.1203 1.26C19.155 1.39867 19.1723 1.572 19.1723 1.78C19.1723 1.97933 19.155 2.15267 19.1203 2.3C19.155 2.43867 19.1723 2.612 19.1723 2.82C19.1723 3.01933 19.155 3.19267 19.1203 3.34C19.155 3.47867 19.1723 3.652 19.1723 3.86C19.1723 4.05933 19.155 4.23267 19.1203 4.38C19.155 4.51867 19.1723 4.692 19.1723 4.9C19.1723 5.09933 19.155 5.27267 19.1203 5.42C19.155 5.55867 19.1723 5.732 19.1723 5.94C19.1723 6.13933 19.155 6.31267 19.1203 6.46H20.1603ZM25.6774 2.82C25.6774 3.01933 25.6601 3.19267 25.6254 3.34H24.9754C25.0101 3.47867 25.0274 3.652 25.0274 3.86C25.0274 4.05933 25.0101 4.23267 24.9754 4.38H24.3254C24.3601 4.51867 24.3774 4.692 24.3774 4.9C24.3774 5.09933 24.3601 5.27267 24.3254 5.42H23.6754C23.7101 5.55867 23.7274 5.732 23.7274 5.94C23.7274 6.13933 23.7101 6.31267 23.6754 6.46H25.6254C25.6601 6.59867 25.6774 6.772 25.6774 6.98C25.6774 7.17933 25.6601 7.35267 25.6254 7.5H21.9854C21.9507 7.35267 21.9334 7.17933 21.9334 6.98C21.9334 6.772 21.9507 6.59867 21.9854 6.46H22.6354C22.6007 6.31267 22.5834 6.13933 22.5834 5.94C22.5834 5.732 22.6007 5.55867 22.6354 5.42H23.2854C23.2507 5.27267 23.2334 5.09933 23.2334 4.9C23.2334 4.692 23.2507 4.51867 23.2854 4.38H23.9354C23.9007 4.23267 23.8834 4.05933 23.8834 3.86C23.8834 3.652 23.9007 3.47867 23.9354 3.34H24.5854C24.5507 3.19267 24.5334 3.01933 24.5334 2.82C24.5334 2.612 24.5507 2.43867 24.5854 2.3C24.5507 2.15267 24.5334 1.97933 24.5334 1.78C24.5334 1.572 24.5507 1.39867 24.5854 1.26H22.7654C22.8001 1.39867 22.8174 1.572 22.8174 1.78C22.8174 1.97933 22.8001 2.15267 22.7654 2.3H21.9854C21.9507 2.15267 21.9334 1.97933 21.9334 1.78C21.9334 1.572 21.9507 1.39867 21.9854 1.26H22.5054C22.4707 1.11267 22.4534 0.939333 22.4534 0.739999C22.4534 0.532 22.4707 0.358666 22.5054 0.22H25.1054C25.1401 0.358666 25.1574 0.532 25.1574 0.739999C25.1574 0.939333 25.1401 1.11267 25.1054 1.26H25.6254C25.6601 1.39867 25.6774 1.572 25.6774 1.78C25.6774 1.97933 25.6601 2.15267 25.6254 2.3C25.6601 2.43867 25.6774 2.612 25.6774 2.82ZM29.7125 1.78C29.7125 1.97933 29.6951 2.15267 29.6605 2.3C29.6951 2.43867 29.7125 2.612 29.7125 2.82C29.7125 3.01933 29.6951 3.19267 29.6605 3.34H28.3605C28.3258 3.19267 28.3085 3.01933 28.3085 2.82C28.3085 2.612 28.3258 2.43867 28.3605 2.3C28.3258 2.15267 28.3085 1.97933 28.3085 1.78C28.3085 1.572 28.3258 1.39867 28.3605 1.26H29.6605C29.6951 1.39867 29.7125 1.572 29.7125 1.78ZM29.6605 5.42C29.6951 5.55867 29.7125 5.732 29.7125 5.94C29.7125 6.13933 29.6951 6.31267 29.6605 6.46C29.6951 6.59867 29.7125 6.772 29.7125 6.98C29.7125 7.17933 29.6951 7.35267 29.6605 7.5H28.3605C28.3258 7.35267 28.3085 7.17933 28.3085 6.98C28.3085 6.772 28.3258 6.59867 28.3605 6.46C28.3258 6.31267 28.3085 6.13933 28.3085 5.94C28.3085 5.732 28.3258 5.55867 28.3605 5.42H29.6605ZM34.9175 0.739999C34.9175 0.939333 34.9002 1.11267 34.8655 1.26H33.5655C33.5309 1.11267 33.5135 0.939333 33.5135 0.739999C33.5135 0.532 33.5309 0.358666 33.5655 0.22H34.8655C34.9002 0.358666 34.9175 0.532 34.9175 0.739999ZM33.5655 5.42C33.6002 5.55867 33.6175 5.732 33.6175 5.94C33.6175 6.13933 33.6002 6.31267 33.5655 6.46H32.9155C32.8809 6.31267 32.8635 6.13933 32.8635 5.94C32.8635 5.732 32.8809 5.55867 32.9155 5.42H32.5255C32.4909 5.27267 32.4735 5.09933 32.4735 4.9C32.4735 4.692 32.4909 4.51867 32.5255 4.38C32.4909 4.23267 32.4735 4.05933 32.4735 3.86C32.4735 3.652 32.4909 3.47867 32.5255 3.34C32.4909 3.19267 32.4735 3.01933 32.4735 2.82C32.4735 2.612 32.4909 2.43867 32.5255 2.3H32.9155C32.8809 2.15267 32.8635 1.97933 32.8635 1.78C32.8635 1.572 32.8809 1.39867 32.9155 1.26H33.5655C33.6002 1.39867 33.6175 1.572 33.6175 1.78C33.6175 1.97933 33.6002 2.15267 33.5655 2.3C33.6002 2.43867 33.6175 2.612 33.6175 2.82C33.6175 3.01933 33.6002 3.19267 33.5655 3.34C33.6002 3.47867 33.6175 3.652 33.6175 3.86C33.6175 4.05933 33.6002 4.23267 33.5655 4.38C33.6002 4.51867 33.6175 4.692 33.6175 4.9C33.6175 5.09933 33.6002 5.27267 33.5655 5.42ZM35.9055 3.34C35.9402 3.47867 35.9575 3.652 35.9575 3.86C35.9575 4.05933 35.9402 4.23267 35.9055 4.38C35.9402 4.51867 35.9575 4.692 35.9575 4.9C35.9575 5.09933 35.9402 5.27267 35.9055 5.42H35.5155C35.5502 5.55867 35.5675 5.732 35.5675 5.94C35.5675 6.13933 35.5502 6.31267 35.5155 6.46H34.8655C34.8309 6.31267 34.8135 6.13933 34.8135 5.94C34.8135 5.732 34.8309 5.55867 34.8655 5.42C34.8309 5.27267 34.8135 5.09933 34.8135 4.9C34.8135 4.692 34.8309 4.51867 34.8655 4.38C34.8309 4.23267 34.8135 4.05933 34.8135 3.86C34.8135 3.652 34.8309 3.47867 34.8655 3.34C34.8309 3.19267 34.8135 3.01933 34.8135 2.82C34.8135 2.612 34.8309 2.43867 34.8655 2.3C34.8309 2.15267 34.8135 1.97933 34.8135 1.78C34.8135 1.572 34.8309 1.39867 34.8655 1.26H35.5155C35.5502 1.39867 35.5675 1.572 35.5675 1.78C35.5675 1.97933 35.5502 2.15267 35.5155 2.3H35.9055C35.9402 2.43867 35.9575 2.612 35.9575 2.82C35.9575 3.01933 35.9402 3.19267 35.9055 3.34ZM33.5135 6.98C33.5135 6.772 33.5309 6.59867 33.5655 6.46H34.8655C34.9002 6.59867 34.9175 6.772 34.9175 6.98C34.9175 7.17933 34.9002 7.35267 34.8655 7.5H33.5655C33.5309 7.35267 33.5135 7.17933 33.5135 6.98ZM40.1226 0.739999C40.1226 0.939333 40.1053 1.11267 40.0706 1.26H38.7706C38.736 1.11267 38.7186 0.939333 38.7186 0.739999C38.7186 0.532 38.736 0.358666 38.7706 0.22H40.0706C40.1053 0.358666 40.1226 0.532 40.1226 0.739999ZM38.7706 5.42C38.8053 5.55867 38.8226 5.732 38.8226 5.94C38.8226 6.13933 38.8053 6.31267 38.7706 6.46H38.1206C38.086 6.31267 38.0686 6.13933 38.0686 5.94C38.0686 5.732 38.086 5.55867 38.1206 5.42H37.7306C37.696 5.27267 37.6786 5.09933 37.6786 4.9C37.6786 4.692 37.696 4.51867 37.7306 4.38C37.696 4.23267 37.6786 4.05933 37.6786 3.86C37.6786 3.652 37.696 3.47867 37.7306 3.34C37.696 3.19267 37.6786 3.01933 37.6786 2.82C37.6786 2.612 37.696 2.43867 37.7306 2.3H38.1206C38.086 2.15267 38.0686 1.97933 38.0686 1.78C38.0686 1.572 38.086 1.39867 38.1206 1.26H38.7706C38.8053 1.39867 38.8226 1.572 38.8226 1.78C38.8226 1.97933 38.8053 2.15267 38.7706 2.3C38.8053 2.43867 38.8226 2.612 38.8226 2.82C38.8226 3.01933 38.8053 3.19267 38.7706 3.34C38.8053 3.47867 38.8226 3.652 38.8226 3.86C38.8226 4.05933 38.8053 4.23267 38.7706 4.38C38.8053 4.51867 38.8226 4.692 38.8226 4.9C38.8226 5.09933 38.8053 5.27267 38.7706 5.42ZM41.1106 3.34C41.1453 3.47867 41.1626 3.652 41.1626 3.86C41.1626 4.05933 41.1453 4.23267 41.1106 4.38C41.1453 4.51867 41.1626 4.692 41.1626 4.9C41.1626 5.09933 41.1453 5.27267 41.1106 5.42H40.7206C40.7553 5.55867 40.7726 5.732 40.7726 5.94C40.7726 6.13933 40.7553 6.31267 40.7206 6.46H40.0706C40.036 6.31267 40.0186 6.13933 40.0186 5.94C40.0186 5.732 40.036 5.55867 40.0706 5.42C40.036 5.27267 40.0186 5.09933 40.0186 4.9C40.0186 4.692 40.036 4.51867 40.0706 4.38C40.036 4.23267 40.0186 4.05933 40.0186 3.86C40.0186 3.652 40.036 3.47867 40.0706 3.34C40.036 3.19267 40.0186 3.01933 40.0186 2.82C40.0186 2.612 40.036 2.43867 40.0706 2.3C40.036 2.15267 40.0186 1.97933 40.0186 1.78C40.0186 1.572 40.036 1.39867 40.0706 1.26H40.7206C40.7553 1.39867 40.7726 1.572 40.7726 1.78C40.7726 1.97933 40.7553 2.15267 40.7206 2.3H41.1106C41.1453 2.43867 41.1626 2.612 41.1626 2.82C41.1626 3.01933 41.1453 3.19267 41.1106 3.34ZM38.7186 6.98C38.7186 6.772 38.736 6.59867 38.7706 6.46H40.0706C40.1053 6.59867 40.1226 6.772 40.1226 6.98C40.1226 7.17933 40.1053 7.35267 40.0706 7.5H38.7706C38.736 7.35267 38.7186 7.17933 38.7186 6.98Z" fill="black"/>
</svg>
