<?xml version="1.0" encoding="UTF-8"?>
<svg id="_레이어_1" data-name="레이어 1" xmlns="http://www.w3.org/2000/svg" viewBox="0 0 855 405">
  <defs>
    <style>
      .cls-1 {
        fill: none;
      }

      .cls-1, .cls-2 {
        stroke-width: 0px;
      }
    </style>
  </defs>
  <rect class="cls-1" width="855" height="405"/>
  <g>
    <g>
      <path class="cls-2" d="m218.28,268.63l.02-12.74h-3.52v-2.97c.52,0,1.02-.07,1.51-.22.48-.15.93-.38,1.33-.69.27-.23.52-.55.77-.96.25-.41.37-.84.37-1.3h2.63v18.87h-3.1Z"/>
      <path class="cls-2" d="m231.23,250.2c.78.47,1.43,1.14,1.95,1.99.52.83.92,1.84,1.19,3.02s.41,2.47.41,3.88-.14,2.75-.41,3.94c-.28,1.19-.67,2.21-1.19,3.08-.52.85-1.17,1.51-1.95,1.99s-1.67.71-2.67.71-1.9-.24-2.65-.71-1.4-1.14-1.92-1.99c-.52-.87-.91-1.89-1.17-3.08-.26-1.19-.39-2.5-.39-3.94s.13-2.7.39-3.88.65-2.18,1.17-3.02c.52-.85,1.16-1.51,1.92-1.99s1.64-.71,2.65-.71,1.89.24,2.67.71Zm-1.37,14.97c.37-.33.68-.78.94-1.37.24-.59.42-1.28.56-2.09.13-.8.2-1.68.2-2.63s-.07-1.77-.2-2.55c-.13-.79-.32-1.46-.56-2.04-.25-.57-.57-1.02-.94-1.35-.37-.33-.8-.49-1.29-.49s-.94.16-1.32.49c-.37.33-.68.78-.94,1.35-.24.57-.42,1.25-.54,2.04-.12.78-.18,1.64-.18,2.55s.06,1.82.18,2.63.3,1.5.54,2.09c.25.59.57,1.05.94,1.37s.81.49,1.32.49.92-.16,1.29-.49Z"/>
      <path class="cls-2" d="m244.05,250.2c.78.47,1.43,1.14,1.95,1.99.52.83.92,1.84,1.19,3.02s.41,2.47.41,3.88-.14,2.75-.41,3.94c-.28,1.19-.67,2.21-1.19,3.08-.52.85-1.17,1.51-1.95,1.99s-1.67.71-2.67.71-1.9-.24-2.65-.71-1.4-1.14-1.92-1.99c-.52-.87-.91-1.89-1.17-3.08-.26-1.19-.39-2.5-.39-3.94s.13-2.7.39-3.88.65-2.18,1.17-3.02c.52-.85,1.16-1.51,1.92-1.99s1.64-.71,2.65-.71,1.89.24,2.67.71Zm-1.37,14.97c.37-.33.68-.78.94-1.37.24-.59.42-1.28.56-2.09.13-.8.2-1.68.2-2.63s-.07-1.77-.2-2.55c-.13-.79-.32-1.46-.56-2.04-.25-.57-.57-1.02-.94-1.35-.37-.33-.8-.49-1.29-.49s-.94.16-1.32.49c-.37.33-.68.78-.94,1.35-.24.57-.42,1.25-.54,2.04-.12.78-.18,1.64-.18,2.55s.06,1.82.18,2.63.3,1.5.54,2.09c.25.59.57,1.05.94,1.37s.81.49,1.32.49.92-.16,1.29-.49Z"/>
      <path class="cls-2" d="m256.88,250.2c.78.47,1.43,1.14,1.95,1.99.52.83.92,1.84,1.19,3.02s.41,2.47.41,3.88-.14,2.75-.41,3.94c-.28,1.19-.67,2.21-1.19,3.08-.52.85-1.17,1.51-1.95,1.99s-1.67.71-2.67.71-1.9-.24-2.65-.71-1.4-1.14-1.92-1.99c-.52-.87-.91-1.89-1.17-3.08-.26-1.19-.39-2.5-.39-3.94s.13-2.7.39-3.88.65-2.18,1.17-3.02c.52-.85,1.16-1.51,1.92-1.99s1.64-.71,2.65-.71,1.89.24,2.67.71Zm-1.37,14.97c.37-.33.68-.78.94-1.37.24-.59.42-1.28.56-2.09.13-.8.2-1.68.2-2.63s-.07-1.77-.2-2.55c-.13-.79-.32-1.46-.56-2.04-.25-.57-.57-1.02-.94-1.35-.37-.33-.8-.49-1.29-.49s-.94.16-1.32.49c-.37.33-.68.78-.94,1.35-.24.57-.42,1.25-.54,2.04-.12.78-.18,1.64-.18,2.55s.06,1.82.18,2.63.3,1.5.54,2.09c.25.59.57,1.05.94,1.37s.81.49,1.32.49.92-.16,1.29-.49Z"/>
      <path class="cls-2" d="m269.71,250.2c.78.47,1.43,1.14,1.95,1.99.52.83.92,1.84,1.19,3.02s.41,2.47.41,3.88-.14,2.75-.41,3.94c-.28,1.19-.67,2.21-1.19,3.08-.52.85-1.17,1.51-1.95,1.99s-1.67.71-2.67.71-1.9-.24-2.65-.71-1.4-1.14-1.92-1.99c-.52-.87-.91-1.89-1.17-3.08-.26-1.19-.39-2.5-.39-3.94s.13-2.7.39-3.88.65-2.18,1.17-3.02c.52-.85,1.16-1.51,1.92-1.99s1.64-.71,2.65-.71,1.89.24,2.67.71Zm-1.37,14.97c.37-.33.68-.78.94-1.37.24-.59.42-1.28.56-2.09.13-.8.2-1.68.2-2.63s-.07-1.77-.2-2.55c-.13-.79-.32-1.46-.56-2.04-.25-.57-.57-1.02-.94-1.35-.37-.33-.8-.49-1.29-.49s-.94.16-1.32.49c-.37.33-.68.78-.94,1.35-.24.57-.42,1.25-.54,2.04-.12.78-.18,1.64-.18,2.55s.06,1.82.18,2.63.3,1.5.54,2.09c.25.59.57,1.05.94,1.37s.81.49,1.32.49.92-.16,1.29-.49Z"/>
    </g>
    <path class="cls-2" d="m253.81,214.8h-19.22c-8.9,2.47-16.84,8.12-21.08,15.49-1.39,2.43-5.61,9.77-2.81,17.87,2.05,5.96,7.71,11.79,15.62,12.52,7.27.68,13.8-3.48,17.87-9.71,5.1-7.8,9.61-9.02,10.78-9.42,6.22-2.1,12.73-.53,17.92,3.65,5.79,4.65,7.26,11.05,7.46,12.52,1.35-20.52-10.54-38.08-26.54-42.93Z"/>
  </g>
</svg>