<?xml version="1.0" encoding="UTF-8"?>
<svg id="_레이어_1" data-name=" 레이어 1" xmlns="http://www.w3.org/2000/svg" viewBox="0 0 855 405">
  <defs>
    <style>
      .cls-1 {
        fill: none;
      }

      .cls-1, .cls-2 {
        stroke-width: 0px;
      }
    </style>
  </defs>
  <rect class="cls-1" width="855" height="405"/>
  <g>
    <path class="cls-2" d="m216.18,280.03h5.66v-33.42h-5.66v33.42Zm4.51-32.28v31.13h-3.37v-31.13h3.37Z"/>
    <path class="cls-2" d="m224.57,280.03h5.66v-33.42h-5.66v33.42Zm4.51-32.28v31.13h-3.37v-31.13h3.37Z"/>
    <path class="cls-2" d="m232.97,280.03h5.66v-33.42h-5.66v33.42Zm4.51-32.28v31.13h-3.37v-31.13h3.37Z"/>
    <path class="cls-2" d="m240.7,272.49h33.42v-5.66h-33.42v5.66Zm32.27-4.51v3.37h-31.13v-3.37h31.13Z"/>
    <path class="cls-2" d="m258.67,264.09h15.45v-5.66h-15.45v5.66Zm14.3-4.51v3.37h-13.16v-3.37h13.16Z"/>
    <path class="cls-2" d="m256.15,258.43h-15.45v5.66h15.45v-5.66Zm-14.31,4.52v-3.37h13.16v3.37h-13.16Z"/>
    <path class="cls-2" d="m240.7,250.04v5.66h33.42v-5.66h-33.42Zm1.14,4.52v-3.37h31.13v3.37h-31.13Z"/>
    <path class="cls-2" d="m245.94,230.48h-33.42v5.66h33.42v-5.66Zm-32.28,4.52v-3.37h31.13v3.37h-31.13Z"/>
    <path class="cls-2" d="m227.97,222.09h-15.45v5.66h15.45v-5.66Zm-14.31,4.52v-3.37h13.16v3.37h-13.16Z"/>
    <path class="cls-2" d="m245.94,222.09h-15.45v5.66h15.45v-5.66Zm-14.31,4.52v-3.37h13.16v3.37h-13.16Z"/>
    <path class="cls-2" d="m227.97,238.87h-15.45v5.66h15.45v-5.66Zm-14.31,4.52v-3.37h13.16v3.37h-13.16Z"/>
    <path class="cls-2" d="m245.94,238.87h-15.45v5.66h15.45v-5.66Zm-14.31,4.52v-3.37h13.16v3.37h-13.16Z"/>
    <path class="cls-2" d="m253.68,232.51h-5.66v15.45h5.66v-15.45Zm-4.52,14.31v-13.16h3.37v13.16h-3.37Z"/>
    <path class="cls-2" d="m253.68,214.55h-5.66v15.45h5.66v-15.45Zm-4.52,14.31v-13.16h3.37v13.16h-3.37Z"/>
    <path class="cls-2" d="m262.07,232.51h-5.66v15.45h5.66v-15.45Zm-4.52,14.31v-13.16h3.37v13.16h-3.37Z"/>
    <path class="cls-2" d="m262.07,214.55h-5.66v15.45h5.66v-15.45Zm-4.52,14.31v-13.16h3.37v13.16h-3.37Z"/>
    <path class="cls-2" d="m270.46,232.51h-5.66v15.45h5.66v-15.45Zm-4.52,14.31v-13.16h3.37v13.16h-3.37Z"/>
    <path class="cls-2" d="m270.46,214.55h-5.66v15.45h5.66v-15.45Zm-4.52,14.31v-13.16h3.37v13.16h-3.37Z"/>
  </g>
</svg>