<?xml version="1.0" encoding="UTF-8"?>
<svg id="_레이어_1" data-name="레이어 1" xmlns="http://www.w3.org/2000/svg" viewBox="0 0 855 405">
  <defs>
    <style>
      .cls-1 {
        fill: none;
      }

      .cls-1, .cls-2 {
        stroke-width: 0px;
      }
    </style>
  </defs>
  <rect class="cls-1" width="855" height="405"/>
  <g>
    <path class="cls-2" d="m241.13,278.29l-2.64.55-1.89.79-.75.75-.31.63.75,1.06.51-.31,2.52-.04.67-.35,1.14-.35.98-1.26s.35-.63-.98-1.46Z"/>
    <path class="cls-2" d="m259.49,254.58s-1.89.75-1.79,1.01.85.78,1.21.78,2.06-.49.59-1.79Z"/>
    <path class="cls-2" d="m263.63,256.02s-.81.28-.54.48.36.3.64.16.3-.11.66.07.81-.41.38-.64-.46.16-.68.11-.46-.17-.46-.17Z"/>
    <path class="cls-2" d="m260.04,216.23l-.99.24-.65,3.57-1.26.44-.75-.34-1.19,1.63-1.22.61-4.32.14v.92l.99,1.67-.99,1.5-.75-.44-1.46.07-2.28-.88-.78-1.6-.58-.24s-2.21.2-2.21,2.21l-3.03,2.99-4.08,1.74-3.03,1.77-2.25,1.8-.58.92,1.53,1.36.95.2,1.77,1.46,1.36.31-.44,2.11-1.5,1.97.34,1.12-.31.85-.88.27-.88,1.6-.1,1.12,1.05.61h.78l-.93.3-.16.2.98.44.52.82.85.21.88-.25.11-.89.59-.13.33.61,1.22,1.36,1.26.08.38.95.96.74.58,1.19-.71.1.3,1.64.35.17.17.72-.88-.18-.57-.38-.65.14-.27.52-.65.14-.57.79.2.69.86.59.42.75v1.63s.92,1.63.92,1.63l-.55.31.45.57h.37l-.18.87h-.3l-1.02.57s-.16.03,0,.43.29.46.29.46l-1.36,1.79-.94,1.72.42,2.01s-.65.86-.96,1.8-.08.73.54.42.89-.34.89-.34l.61,1.05,2.32.11.88-.89,2.62-.43,4.76-2.03,2.04-.56h1.85l1.56-1.72,1.12-1.88.7-3.21-.69.24-.14-1.69.69-1.9.08-2.43-.24-1.6-2.91-5.75-1.61-2.56-.64-2.87-2.01-1.71-.93-1.28-1.29-.34-.72-.72s.18-1.25,1.02-1.1c0,0-.13-1.31.24-1.39l-.35-.62.67-.62,3.02-1.41,1.26.11,1.47-1.02.13-.5,2.73-1.09.59-1.26,2.3-1.01.5-1.21-.26-1.6.42-.86-.5-.69.02-1.44,2.26-2.62,2.4-1.45h.81l-.4-1.6-1.61-2.52-1.2-.88Z"/>
  </g>
</svg>