<?xml version="1.0" encoding="UTF-8"?>
<svg id="_레이어_1" data-name="레이어 1" xmlns="http://www.w3.org/2000/svg" viewBox="0 0 855 405">
  <defs>
    <style>
      .cls-1 {
        fill: none;
      }

      .cls-1, .cls-2 {
        stroke-width: 0px;
      }
    </style>
  </defs>
  <rect class="cls-1" width="855" height="405"/>
  <g>
    <path class="cls-2" d="m278.6,285.12c.5-.79,1-1.58,1.49-2.37v-1.93c-.89,1.44-1.8,2.87-2.72,4.3h1.23Z"/>
    <path class="cls-2" d="m274.76,285.12c1.81-2.78,3.59-5.59,5.33-8.41v-1.93c-2.15,3.48-4.35,6.93-6.59,10.34h1.26Z"/>
    <path class="cls-2" d="m269.56,285.12c3.61-5.26,7.11-10.6,10.53-16v-1.93c-3.83,6.07-7.78,12.05-11.87,17.93h1.34Z"/>
    <path class="cls-2" d="m264.36,285.12c5.46-7.61,10.69-15.42,15.73-23.37v-1.91c-5.48,8.61-11.16,17.06-17.13,25.28h1.4Z"/>
    <path class="cls-2" d="m259.63,285.12c7.21-9.74,13.98-19.86,20.46-30.14v-1.95c-6.92,10.97-14.16,21.75-21.91,32.09h1.45Z"/>
    <path class="cls-2" d="m254,285.12c9.33-12.01,17.93-24.69,26.09-37.58v-1.94c-8.61,13.58-17.69,26.93-27.6,39.52h1.51Z"/>
    <path class="cls-2" d="m277.72,241.86c-9.65,14.94-19.88,29.63-31.18,43.26h1.57c11.17-13.65,21.29-28.34,30.85-43.26h-1.24Z"/>
    <path class="cls-2" d="m272.81,241.86c-10.01,15.04-20.68,29.77-32.5,43.26h1.63c11.7-13.52,22.24-28.24,32.16-43.26h-1.29Z"/>
    <path class="cls-2" d="m267.73,241.86c-10.41,15.17-21.56,29.93-33.97,43.26h1.72c12.26-13.38,23.28-28.13,33.58-43.26h-1.33Z"/>
    <path class="cls-2" d="m262.49,241.86c-10.86,15.32-22.54,30.14-35.61,43.26h1.83c12.89-13.17,24.43-27.98,35.16-43.26h-1.38Z"/>
    <path class="cls-2" d="m257.09,241.86c-11.36,15.52-23.65,30.4-37.48,43.26h1.93c13.62-12.93,25.75-27.79,36.97-43.26h-1.42Z"/>
    <path class="cls-2" d="m253.03,241.8v-1.94c-12.37,16.52-25.86,32.21-41.21,45.26h2.11c14.48-12.65,27.3-27.59,39.1-43.32Z"/>
    <path class="cls-2" d="m253.03,234.35v-1.96c-12.93,17.4-27.07,34.05-43.26,47.64v1.78c16.19-13.54,30.33-30.1,43.26-47.46Z"/>
    <path class="cls-2" d="m253.03,226.86v-1.96c-12.94,17.56-27.09,34.5-43.26,48.34v1.76c16.18-13.77,30.32-30.63,43.26-48.14Z"/>
    <path class="cls-2" d="m253.03,219.35v-1.97c-12.95,17.71-27.08,34.96-43.26,49.05v1.78c16.18-14.03,30.31-31.2,43.26-48.86Z"/>
    <path class="cls-2" d="m250.85,214.8h-1.44c-11.96,16.12-24.96,31.83-39.64,44.88v1.76c15.27-13.51,28.72-29.87,41.08-46.64Z"/>
    <path class="cls-2" d="m245.26,214.8h-1.48c-10.39,13.64-21.6,26.84-34.01,38.12v1.77c13-11.75,24.69-25.6,35.49-39.89Z"/>
    <path class="cls-2" d="m239.56,214.8h-1.49c-8.77,11.16-18.13,21.93-28.3,31.38v1.75c10.75-9.93,20.6-21.32,29.79-33.13Z"/>
    <path class="cls-2" d="m233.76,214.8h-1.54c-7.05,8.7-14.51,17.08-22.45,24.65v1.75c8.52-8.06,16.48-17.06,23.99-26.4Z"/>
    <path class="cls-2" d="m226.27,214.8c-5.27,6.26-10.76,12.3-16.5,17.91v1.75c6.32-6.13,12.33-12.77,18.07-19.66h-1.57Z"/>
    <path class="cls-2" d="m220.19,214.8c-3.38,3.85-6.85,7.6-10.42,11.18v1.75c4.14-4.12,8.14-8.46,12.02-12.93h-1.6Z"/>
    <path class="cls-2" d="m214.19,214.8c-1.45,1.6-2.93,3.17-4.42,4.71v1.76c2.05-2.1,4.07-4.26,6.06-6.47h-1.64Z"/>
    <path class="cls-2" d="m255.02,208.22v.85c.2-.28.41-.56.61-.85h-.61Z"/>
    <path class="cls-2" d="m259.62,208.22c-1.52,2.14-3.05,4.29-4.6,6.43v1.97c2.03-2.79,4.02-5.6,6-8.4h-1.4Z"/>
    <path class="cls-2" d="m264.93,208.22c-3.23,4.66-6.53,9.33-9.91,13.97v1.96c3.86-5.28,7.61-10.62,11.28-15.93h-1.37Z"/>
    <path class="cls-2" d="m270.13,208.22c-4.87,7.16-9.89,14.37-15.11,21.48v1.96c5.69-7.75,11.15-15.62,16.45-23.44h-1.34Z"/>
    <path class="cls-2" d="m275.22,208.22c-6.47,9.66-13.16,19.44-20.2,28.97v1.95c7.52-10.16,14.63-20.61,21.5-30.92h-1.3Z"/>
    <path class="cls-2" d="m259.94,239.87c7.51-10.43,14.62-21.12,21.51-31.65h-1.27c-6.93,10.54-14.08,21.23-21.65,31.65h1.41Z"/>
    <path class="cls-2" d="m265.26,239.87c7.3-10.47,14.24-21.14,20.99-31.65h-1.24c-6.79,10.51-13.77,21.19-21.12,31.65h1.37Z"/>
    <path class="cls-2" d="m269.09,239.87h1.32c5.6-8.27,10.99-16.65,16.26-24.96v-1.9c-5.69,8.94-11.52,17.96-17.58,26.86Z"/>
    <path class="cls-2" d="m275.41,239.87c3.83-5.84,7.58-11.72,11.26-17.59v-1.93c-4.09,6.51-8.25,13.04-12.54,19.52h1.28Z"/>
    <path class="cls-2" d="m280.24,239.87c2.17-3.4,4.31-6.82,6.43-10.24v-1.92c-2.52,4.06-5.08,8.12-7.67,12.16h1.24Z"/>
    <path class="cls-2" d="m284.89,239.87c.6-.96,1.19-1.92,1.78-2.88v-1.94c-.98,1.61-1.98,3.22-2.98,4.82h1.2Z"/>
  </g>
</svg>