<svg width="29" height="29" viewBox="0 0 29 29" fill="none" xmlns="http://www.w3.org/2000/svg">
<path d="M28.9494 14.8965C28.9494 17.4709 29.3066 18.887 27.5 22C26.296 24.0746 24.0172 25.2798 21.8672 26.5165C19.7173 27.7532 17.7241 28.995 15.1442 28.995C12.5642 28.995 9.80217 28.9344 7.71798 27.728C5.63379 26.5215 4.08582 24.1238 2.84137 21.9785C1.59693 19.8332 0.5 17.0744 0.5 14.5C0.5 11.9256 1.39458 9.74779 2.60361 7.67316C3.81265 5.59852 4.85005 4.24175 7 3C9.14995 1.75825 12.5642 0.5 15.1442 0.5C17.7241 0.5 20.2231 1.31296 22.3073 2.51433C24.3915 3.7157 26.2556 4.8547 27.5 7C28.7444 9.1453 28.9494 12.3222 28.9494 14.8965Z" fill="black"/>
</svg>
