<svg width="300" height="300" viewBox="0 0 300 300" fill="none" xmlns="http://www.w3.org/2000/svg">
<path d="M254.137 148.613C254.137 152.563 290.41 159.543 289.996 163.401C289.583 167.258 273.492 171.116 272.71 174.928C271.929 178.739 242.873 175.065 241.678 178.785C240.482 182.505 241.678 185.674 240.069 189.21C238.46 192.746 268.067 212.953 266.09 216.305C264.113 219.657 233.816 205.513 231.517 208.636C229.219 211.759 223.15 210.243 220.576 213.136C218.001 216.029 243.149 247.396 240.253 250.013C237.356 252.631 226.23 248.36 223.058 250.656C219.886 252.952 214.139 253.733 210.737 255.708C207.335 257.682 189.267 229.761 185.681 231.322C182.095 232.884 191.796 268.107 188.072 269.301C184.348 270.495 174.325 249.508 170.464 250.335C166.602 251.161 163.154 247.12 159.246 247.533C155.338 247.947 152.764 233.297 148.81 233.297C144.856 233.297 144.166 229.301 140.305 228.888C136.443 228.475 124.857 279.772 121.087 278.991C117.318 278.21 119.019 252.769 115.295 251.575C111.571 250.381 101.64 263.928 98.1003 262.367C94.5603 260.805 109.456 224.525 106.1 222.597C102.744 220.668 87.8021 239.175 84.6299 236.879C81.4577 234.583 82.2393 228.291 79.3429 225.719C76.4465 223.148 58.0568 235.547 55.4363 232.654C52.8157 229.761 53.1376 222.964 50.8388 219.795C48.5401 216.626 72.4008 197.247 70.4239 193.894C68.447 190.542 55.0225 194.721 53.4134 191.139C51.8043 187.557 27.3461 192.241 26.1507 188.521C24.9554 184.801 40.4027 175.754 39.5751 171.897C38.7476 168.039 46.4713 163.401 46.0575 159.497C45.6437 155.594 52.218 152.654 52.218 148.705C52.218 144.756 8.63452 137.913 9.00231 134.055C9.37011 130.198 68.3091 135.525 69.1366 131.759C69.9642 127.993 64.6311 125.467 65.8265 121.748C67.0218 118.028 56.6775 111.966 58.2866 108.43C59.8957 104.894 43.3451 92.3563 45.276 88.9579C47.2069 85.5596 41.8738 75.8696 44.1725 72.7009C46.4712 69.5321 50.563 65.5367 53.1836 62.6435C55.8041 59.7503 68.4929 65.399 71.3893 62.7813C74.2857 60.1636 95.5717 82.0693 98.698 79.7731C101.824 77.4769 100.675 73.206 104.077 71.2313C107.479 69.2566 108.215 67.1441 111.801 65.5826C115.387 64.0212 110.192 42.6207 113.915 41.3807C117.639 40.1408 124.995 55.709 128.857 54.8824C132.719 54.0557 135.109 56.1223 139.017 55.709C142.925 55.2957 144.856 50.4737 148.81 50.4737C152.764 50.4737 158.005 24.297 161.866 24.7103C165.728 25.1237 172.395 19.2913 176.21 20.072C180.026 20.8527 172.441 63.6079 176.165 64.8019C179.888 65.996 188.945 49.2796 192.485 50.8411C196.025 52.4025 205.634 42.7125 208.99 44.6413C212.346 46.5701 224.024 38.7171 227.15 41.0133C230.276 43.3095 203.197 82.5286 206.094 85.1462C208.99 87.7639 209.818 88.5905 212.438 91.4837C215.059 94.377 236.207 80.4161 238.505 83.5848C240.804 86.7536 239.333 91.9889 241.264 95.3414C243.195 98.6938 274.273 88.5446 275.837 92.1267C277.4 95.7087 240.069 114.905 241.31 118.625C242.551 122.345 279.974 116.788 280.802 120.645C281.629 124.503 254.091 133.642 254.504 137.545C254.918 141.449 254.183 144.71 254.183 148.659L254.137 148.613Z" fill="url(#paint0_linear_227_888)"/>
<defs>
<linearGradient id="paint0_linear_227_888" x1="55.6201" y1="45.468" x2="325.13" y2="332.098" gradientUnits="userSpaceOnUse">
<stop offset="0.12" stop-color="#C3DC8F"/>
<stop offset="0.2" stop-color="#BAD58C"/>
<stop offset="0.32" stop-color="#A3C583"/>
<stop offset="0.48" stop-color="#7DAA76"/>
<stop offset="0.51" stop-color="#76A574"/>
<stop offset="0.89" stop-color="#597464"/>
</linearGradient>
</defs>
</svg>
