<svg width="300" height="300" viewBox="0 0 300 300" fill="none" xmlns="http://www.w3.org/2000/svg">
<path d="M236.666 147.249C236.666 151.214 236.942 152.459 236.529 156.285C236.116 160.111 262.599 167.072 261.773 170.853C260.947 174.633 239.558 172.005 238.365 175.693C237.171 179.381 235.106 180.488 233.499 184.037C231.893 187.587 266.776 209.807 264.802 213.172C262.829 216.538 223.723 195.378 221.474 198.513C219.225 201.647 219.271 203.584 216.655 206.488C214.039 209.392 246.397 247.701 243.505 250.283C240.614 252.864 202.748 212.02 199.581 214.325C196.414 216.63 198.846 222.531 195.45 224.513C192.053 226.495 208.852 267.893 205.272 269.507C201.692 271.12 183.746 235.531 180.028 236.729C176.31 237.928 171.996 227.095 168.186 227.878C164.377 228.662 166.35 255.216 162.449 255.63C158.548 256.045 155.059 241.293 151.112 241.293C147.165 241.293 141.887 272.411 138.077 271.996C134.267 271.581 137.021 232.35 133.258 231.52C129.494 230.69 119.947 256.091 116.275 254.893C112.603 253.694 106.132 258.212 102.598 256.645C99.0634 255.077 87.4511 265.726 84.1005 263.744C80.7499 261.762 105.765 216.584 102.643 214.279C99.5224 211.974 89.0116 222.346 86.12 219.719C83.2284 217.091 86.5331 210.867 83.9169 207.963C81.3007 205.059 61.6104 217.321 59.3155 214.187C57.0205 211.052 47.795 211.651 45.8673 208.24C43.9395 204.828 43.0675 199.849 41.461 196.254C39.8546 192.658 30.4913 190.722 29.298 186.942C28.1046 183.161 14.84 180.303 14.0138 176.431C13.1877 172.558 49.6768 161.863 49.3096 157.945C48.9424 154.026 44.169 151.122 44.169 147.203C44.169 143.285 14.6564 136.693 15.0236 132.866C15.3908 129.04 26.0392 124.476 26.8195 120.696C27.5997 116.916 29.2062 111.522 30.3995 107.834C31.5929 104.146 34.2091 99.2133 35.7696 95.6175C37.3302 92.0217 33.1075 83.2627 35.0352 79.8975C36.963 76.5322 61.5186 86.6741 63.8135 83.5393C66.1084 80.4046 61.1055 71.0924 63.7217 68.1881C66.3379 65.2838 74.0488 67.0817 76.9404 64.454C79.832 61.8263 98.7421 81.3727 101.863 79.0677C104.984 76.7627 92.2704 52.6524 95.6669 50.7162C99.0634 48.78 96.0341 32.5989 99.6142 31.0315C103.194 29.4641 116 51.3155 119.718 50.1169C123.435 48.9183 123.344 34.8578 127.199 34.028C131.054 33.1982 138.261 62.2412 142.208 61.8263C146.155 61.4114 147.257 43.8473 151.158 43.8473C155.059 43.8473 159.19 33.6131 163 34.028C166.809 34.4429 166.717 55.234 170.481 56.0177C174.245 56.8014 186.041 26.8364 189.713 28.035C193.384 29.2336 189.896 50.2552 193.43 51.8226C196.964 53.39 215.048 28.3116 218.399 30.2939C221.75 32.2762 210.504 58.5071 213.671 60.8121C216.838 63.1171 238.961 43.4324 241.853 46.0601C244.745 48.6878 218.537 81.0039 221.153 83.9542C223.769 86.9046 241.164 76.7166 243.459 79.8975C245.754 83.0784 234.647 94.3267 236.621 97.7381C238.594 101.15 274.533 87.7805 276.139 91.3763C277.745 94.9721 273.523 103.224 274.762 106.958C276.001 110.692 280.499 115.671 281.326 119.497C282.152 123.324 284.584 129.224 284.997 133.143C285.41 137.061 236.758 143.285 236.758 147.249H236.666Z" fill="url(#paint0_linear_227_883)"/>
<defs>
<linearGradient id="paint0_linear_227_883" x1="58.1221" y1="43.0636" x2="330.919" y2="331.608" gradientUnits="userSpaceOnUse">
<stop offset="0.12" stop-color="#C3DC8F"/>
<stop offset="0.2" stop-color="#BAD58C"/>
<stop offset="0.32" stop-color="#A3C583"/>
<stop offset="0.48" stop-color="#7DAA76"/>
<stop offset="0.51" stop-color="#76A574"/>
<stop offset="0.89" stop-color="#597464"/>
</linearGradient>
</defs>
</svg>
