<svg width="300" height="300" viewBox="0 0 300 300" fill="none" xmlns="http://www.w3.org/2000/svg">
<path d="M256.608 151.074C256.608 155.028 277.15 160.222 276.737 164.084C276.325 167.945 258.626 169.6 257.846 173.37C257.067 177.139 238.451 174.749 237.259 178.427C236.067 182.104 261.652 195.206 260.093 198.745C258.534 202.285 243.403 198.745 241.431 202.055C239.46 205.365 222.449 196.585 220.156 199.711C217.863 202.837 260.689 242.739 258.076 245.635C255.462 248.531 239.735 241.452 236.846 244.072C233.957 246.692 216.167 231.2 213.049 233.499C209.931 235.797 209.518 240.854 206.125 242.785C202.732 244.716 212.682 275.056 209.106 276.619C205.529 278.182 194.57 265.632 190.856 266.873C187.142 268.115 180.723 261.403 176.872 262.184C173.02 262.966 171.048 282.917 167.151 283.331C163.254 283.745 157.247 269.448 153.304 269.448C149.36 269.448 144.638 270.597 140.832 270.183C137.026 269.77 128.085 288.801 124.325 287.974C120.565 287.146 123.225 256.53 119.511 255.335C115.797 254.14 113.687 249.864 110.157 248.255C106.626 246.646 94.0169 261.817 90.6697 259.84C87.3225 257.863 93.0998 240.808 89.936 238.51C86.7722 236.211 89.5234 227.937 86.6347 225.316C83.746 222.696 72.7415 229.04 70.1738 226.144C67.6061 223.248 58.0229 225.316 55.7303 222.19C53.4377 219.064 75.2633 200.768 73.2917 197.366C71.3201 193.964 31.5663 209.686 30.0073 206.101C28.4483 202.515 44.1756 190.701 42.9835 186.977C41.7913 183.253 16.8478 184.081 16.0225 180.265C15.1971 176.45 37.3895 167.21 36.9768 163.256C36.5642 159.303 17.6272 154.936 17.6272 150.982C17.6272 147.029 35.693 142.478 36.0598 138.616C36.4266 134.755 28.5401 128.319 29.3195 124.549C30.099 120.78 71.3201 128.319 72.5122 124.595C73.7044 120.872 57.2435 112.275 58.8483 108.736C60.4531 105.196 37.848 88.5086 39.7738 85.1528C41.6996 81.7969 81.1783 103.173 83.425 100.001C85.6718 96.8292 73.0625 83.6357 75.6302 80.7396C78.1979 77.8435 67.7895 61.4321 70.6782 58.8118C73.5668 56.1915 94.8422 76.7402 97.9601 74.4417C101.078 72.1432 96.9973 60.8345 100.344 58.8577C103.692 56.881 94.9798 29.1609 98.5562 27.5979C102.133 26.0349 110.203 30.54 113.917 29.3448C117.631 28.1496 120.978 17.1627 124.829 16.3352C128.681 15.5077 136.109 23.9203 140.007 23.5525C143.904 23.1848 149.406 59.0416 153.349 59.0416C157.293 59.0416 164.171 10.5889 168.022 11.0026C171.874 11.4164 172.928 40.1478 176.734 40.9293C180.54 41.7108 181.594 51.5485 185.262 52.7437C188.931 53.9389 187.555 64.5581 191.086 66.167C194.616 67.776 194.846 71.2237 198.239 73.2005C201.632 75.1772 232.353 35.5508 235.516 37.8493C238.68 40.1478 225.979 64.4661 228.868 67.0864C231.757 69.7067 226.85 79.5444 229.464 82.4865C232.077 85.4286 221.348 96.8292 223.641 100.001C225.933 103.173 273.069 77.3378 275.041 80.6936C277.013 84.0495 275.499 92.3241 277.058 95.9098C278.617 99.4955 241.385 118.343 242.578 122.067C243.77 125.791 283.203 119.447 283.982 123.308C284.762 127.17 259.864 135.95 260.277 139.857C260.689 143.765 256.654 147.167 256.654 151.12L256.608 151.074Z" fill="url(#paint0_linear_227_872)"/>
<defs>
<linearGradient id="paint0_linear_227_872" x1="62.2414" y1="46.9514" x2="335.714" y2="336.689" gradientUnits="userSpaceOnUse">
<stop offset="0.12" stop-color="#C3DC8F"/>
<stop offset="0.2" stop-color="#BAD58C"/>
<stop offset="0.32" stop-color="#A3C583"/>
<stop offset="0.48" stop-color="#7DAA76"/>
<stop offset="0.51" stop-color="#76A574"/>
<stop offset="0.89" stop-color="#597464"/>
</linearGradient>
</defs>
</svg>
