<svg width="300" height="300" viewBox="0 0 300 300" fill="none" xmlns="http://www.w3.org/2000/svg">
<path d="M281.631 147.298C281.631 151.262 268.422 156.102 268.055 159.975C267.688 163.847 241.224 163.294 240.444 167.074C239.665 170.854 271.265 183.485 270.073 187.173C268.88 190.861 274.109 199.482 272.504 203.031C270.898 206.581 229.896 190.308 227.924 193.673C225.951 197.039 218.154 193.673 215.861 196.854C213.568 200.035 232.693 218.751 230.079 221.655C227.465 224.56 243.059 247.655 240.169 250.283C237.28 252.911 222.924 244.428 219.805 246.733C216.687 249.038 210.816 248.946 207.422 250.882C204.028 252.818 201.735 259.088 198.157 260.701C194.58 262.315 191.048 267.985 187.333 269.23C183.618 270.474 178.344 272.272 174.491 273.056C170.639 273.84 162.016 244.198 158.118 244.613C154.219 245.028 151.834 288.822 147.936 288.822C144.037 288.822 136.883 290.343 133.03 289.928C129.177 289.513 134.406 229.585 130.645 228.755C126.884 227.925 124.545 232.12 120.876 230.921C117.207 229.723 109.777 242.953 106.245 241.34C102.713 239.726 98.8609 240.418 95.5127 238.482C92.1646 236.545 79.5978 248.393 76.479 246.088C73.3602 243.783 94.8707 212.343 91.9812 209.716C89.0918 207.088 85.4226 209.07 82.8083 206.166C80.1941 203.262 77.7632 203.262 75.47 200.127C73.1768 196.992 27.8168 221.471 25.8446 218.106C23.8725 214.741 19.5612 208.978 17.9559 205.429C16.3507 201.879 24.6522 191.645 23.4597 187.911C22.2672 184.177 61.0685 169.886 60.243 166.014C59.4174 162.141 13.3695 165.414 13.0026 161.496C12.6357 157.578 50.7491 151.216 50.7491 147.251C50.7491 143.287 28.5507 138.539 28.9635 134.712C29.3763 130.886 42.9063 128.812 43.686 124.986C44.4657 121.159 54.8769 120.975 56.0694 117.241C57.2619 113.507 71.5715 117.379 73.1768 113.83C74.782 110.28 41.6221 90.0423 43.5484 86.6771C45.4747 83.3119 40.7965 73.8154 43.0897 70.6807C45.3829 67.5459 82.3956 93.2232 85.0099 90.3189C87.6242 87.4147 65.6092 61.1843 68.4987 58.6027C71.3881 56.0212 65.6092 40.0708 68.7738 37.7659C71.9385 35.4609 100.466 72.4325 103.86 70.4502C107.254 68.4679 94.6872 36.6595 98.2646 35.0921C101.842 33.5248 104.227 24.6737 107.942 23.429C111.657 22.1844 117.344 21.3546 121.197 20.5248C125.049 19.695 135.094 62.1984 138.992 61.7836C142.891 61.3687 144.037 9 147.982 9C151.926 9 157.2 21.8617 161.053 22.2766C164.906 22.6915 163.851 53.7162 167.612 54.4999C171.373 55.2836 183.252 25.5496 186.921 26.7482C190.59 27.9468 187.976 47.4006 191.507 48.968C195.039 50.5354 203.019 43.6205 206.367 45.6027C209.715 47.585 205.404 61.1382 208.523 63.4431C211.642 65.7481 199.166 84.1877 202.056 86.8154C204.945 89.4431 240.766 57.9573 243.38 60.8616C245.994 63.7658 254.662 64.4573 256.956 67.592C259.249 70.7268 245.902 85.8473 247.874 89.2125C249.847 92.5778 241.178 101.198 242.784 104.794C244.389 108.39 273.926 101.936 275.164 105.67C276.402 109.404 286.171 113.691 286.951 117.517C287.731 121.344 278.925 129.411 279.338 133.329C279.75 137.248 281.631 143.241 281.631 147.205V147.298Z" fill="url(#paint0_linear_227_886)"/>
<defs>
<linearGradient id="paint0_linear_227_886" x1="47.4927" y1="42.6063" x2="325.645" y2="336.546" gradientUnits="userSpaceOnUse">
<stop offset="0.12" stop-color="#C3DC8F"/>
<stop offset="0.2" stop-color="#BAD58C"/>
<stop offset="0.32" stop-color="#A3C583"/>
<stop offset="0.48" stop-color="#7DAA76"/>
<stop offset="0.51" stop-color="#76A574"/>
<stop offset="0.89" stop-color="#597464"/>
</linearGradient>
</defs>
</svg>
