<svg width="300" height="300" viewBox="0 0 300 300" fill="none" xmlns="http://www.w3.org/2000/svg">
<path d="M228.888 154.498C228.888 158.449 276.411 164.699 275.997 168.513C275.584 172.327 252.672 173.981 251.846 177.795C251.019 181.609 232.377 179.725 231.184 183.401C229.99 187.077 242.02 194.659 240.413 198.197C238.806 201.736 252.994 213.959 251.065 217.313C249.137 220.668 250.055 227.974 247.759 231.145C245.463 234.315 219.613 218.83 216.996 221.724C214.379 224.619 235.729 252.42 232.837 254.993C229.944 257.567 205.15 234.269 201.981 236.567C198.813 238.864 187.564 224.987 184.166 226.963C180.768 228.939 188.482 248.514 184.901 250.122C181.319 251.731 180.309 258.715 176.59 259.91C172.871 261.105 173.468 282.059 169.611 282.886C165.754 283.713 159.464 279.761 155.515 280.175C151.566 280.588 146.286 259.175 142.337 259.175C138.388 259.175 134.256 268.181 130.445 267.768C126.634 267.354 123.741 260.553 119.976 259.726C116.211 258.899 106.293 278.061 102.574 276.866C98.855 275.671 97.0643 265.7 93.5288 264.092C89.9933 262.483 84.5294 262.346 81.1775 260.416C77.8257 258.486 95.7787 225.171 92.6564 222.919C89.5341 220.668 81.2234 228.204 78.3307 225.584C75.4381 222.965 74.6575 220.668 72.0403 217.773C69.4231 214.878 56.7964 221.449 54.5006 218.278C52.2048 215.107 63.9133 204.217 61.9848 200.817C60.0564 197.416 62.9031 194.062 61.342 190.478C59.7809 186.893 66.3009 183.263 65.1071 179.541C63.9133 175.819 52.2507 177.611 51.4242 173.797C50.5978 169.983 37.42 169.432 37.0526 165.526C36.6853 161.62 46.4194 158.357 46.4194 154.452C46.4194 150.546 61.2042 149.765 61.6175 145.905C62.0307 142.045 27.5941 133.957 28.4205 130.189C29.247 126.421 32.3693 122.745 33.609 119.023C34.8487 115.301 65.2907 124.307 66.8978 120.769C68.5048 117.231 22.1301 89.3385 24.0585 85.984C25.987 82.6295 37.3281 82.7674 39.6239 79.6427C41.9197 76.518 62.7195 87.8221 65.3367 84.9271C67.9538 82.0322 70.571 80.3779 73.4637 77.7587C76.3564 75.1395 72.1321 64.203 75.2544 61.9055C78.3767 59.6079 80.1215 54.2775 83.5192 52.3476C86.917 50.4176 105.651 81.3889 109.232 79.8265C112.813 78.2642 94.6308 19.9978 98.3499 18.803C102.069 17.6083 120.114 68.6603 123.971 67.8332C127.828 67.0061 124.338 20.0897 128.241 19.6761C132.144 19.2626 138.434 16 142.383 16C146.332 16 152.668 19.4004 156.479 19.768C160.29 20.1356 167.545 17.0569 171.356 17.8381C175.167 18.6192 176.728 35.9889 180.447 37.1836C184.166 38.3783 188.804 40.5381 192.339 42.1004C195.875 43.6628 208.042 32.8642 211.394 34.7941C214.746 36.7241 196.839 72.75 199.961 75.0476C203.083 77.3451 199.961 84.5136 202.854 87.1328C205.746 89.752 218.19 80.7915 220.807 83.6864C223.424 86.5814 224.434 89.8439 226.73 93.0146C229.026 96.1852 239.586 93.6579 241.561 97.0123C243.535 100.367 265.483 95.1743 267.044 98.7585C268.605 102.343 222.965 123.986 224.159 127.708C225.352 131.43 255.198 126.283 256.024 130.143C256.85 134.003 228.016 141.31 228.429 145.261C228.842 149.213 228.842 150.408 228.842 154.36L228.888 154.498Z" fill="url(#paint0_linear_227_871)"/>
<defs>
<linearGradient id="paint0_linear_227_871" x1="50.5977" y1="45.9603" x2="322.045" y2="334.094" gradientUnits="userSpaceOnUse">
<stop offset="0.12" stop-color="#C3DC8F"/>
<stop offset="0.2" stop-color="#BAD58C"/>
<stop offset="0.32" stop-color="#A3C583"/>
<stop offset="0.48" stop-color="#7DAA76"/>
<stop offset="0.51" stop-color="#76A574"/>
<stop offset="0.89" stop-color="#597464"/>
</linearGradient>
</defs>
</svg>
