<svg width="300" height="300" viewBox="0 0 300 300" fill="none" xmlns="http://www.w3.org/2000/svg">
<path d="M266.798 142.958C266.798 146.919 247.052 149.037 246.639 152.905C246.225 156.773 281.768 166.536 280.987 170.312C280.207 174.088 266.844 176.114 265.65 179.798C264.456 183.482 239.475 177.496 237.914 181.041C236.352 184.587 235.893 186.659 233.965 190.021C232.036 193.383 243.562 204.342 241.266 207.52C238.97 210.697 240.026 216.592 237.409 219.493C234.791 222.394 214.311 205.77 211.418 208.395C208.525 211.02 207.331 211.756 204.162 214.059C200.994 216.361 202.739 222.117 199.386 224.098C196.034 226.078 205.31 251.773 201.728 253.385C198.147 254.997 193.095 254.905 189.376 256.102C185.656 257.299 176.518 236.163 172.661 236.945C168.803 237.728 165.818 229.946 161.915 230.36C158.012 230.775 156.68 258.543 152.731 258.543C148.782 258.543 141.94 283.409 138.082 282.995C134.225 282.58 134.133 249.333 130.322 248.55C126.51 247.767 118.291 261.72 114.617 260.523C110.943 259.325 113.377 241.182 109.841 239.57C106.305 237.958 96.7079 248.089 93.3098 246.155C89.9117 244.221 79.7632 250.3 76.6406 247.997C73.518 245.695 78.6152 231.373 75.7222 228.795C72.8292 226.216 58.9612 232.985 56.3437 230.084C53.7262 227.183 79.8551 200.981 77.559 197.803C75.263 194.626 33.2456 216.776 31.317 213.368C29.3883 209.96 43.9911 195.869 42.4298 192.277C40.8685 188.686 64.7472 175.838 63.5532 172.108C62.3593 168.378 62.1297 166.398 61.3031 162.529C60.4766 158.661 25.7606 160.365 25.3473 156.405C24.934 152.445 18 146.965 18 143.004C18 139.044 23.5105 133.288 23.9238 129.42C24.337 125.552 26.1279 119.98 26.9086 116.158C27.6892 112.336 55.8845 115.467 57.0784 111.783C58.2724 108.099 73.5639 111.875 75.1252 108.329C76.6865 104.783 33.062 78.1668 34.9906 74.7591C36.9193 71.3515 63.8747 83.048 66.1707 79.9167C68.4668 76.7853 62.7267 66.9307 65.2982 64.0296C67.8698 61.1285 81.0031 68.9109 83.8961 66.3321C86.7891 63.7533 73.8854 40.8667 77.0539 38.5642C80.2224 36.2618 100.152 59.4707 103.55 57.5366C106.948 55.6026 102.54 39.6234 106.122 38.0117C109.703 36.3999 115.352 40.3141 119.071 39.1168C122.791 37.9196 124.077 26.8216 127.934 26.0388C131.791 25.2559 136.934 30.1832 140.838 29.8148C144.741 29.4464 148.782 16 152.685 16C156.588 16 159.068 45.1954 162.925 45.6098C166.783 46.0243 167.15 56.2933 170.962 57.0761C174.773 57.859 184.83 31.3345 188.503 32.5318C192.177 33.729 198.147 31.0582 201.728 32.6699C205.31 34.2816 200.167 52.7935 203.519 54.7276C206.871 56.6617 198.147 73.6079 201.269 75.9104C204.392 78.2128 239.797 40.176 242.69 42.7547C245.583 45.3335 228.087 69.6476 230.658 72.5488C233.23 75.4499 225.148 85.3505 227.444 88.4819C229.74 91.6132 270.471 70.2002 272.4 73.5618C274.329 76.9235 268.91 86.6859 270.517 90.2778C272.125 93.8697 250.221 106.994 251.46 110.724C252.7 114.454 261.333 115.743 262.16 119.565C262.986 123.387 253.894 128.269 254.307 132.183C254.721 136.097 266.752 138.952 266.752 142.912L266.798 142.958Z" fill="url(#paint0_linear_227_876)"/>
<defs>
<linearGradient id="paint0_linear_227_876" x1="55.8845" y1="41.1891" x2="305.284" y2="305.414" gradientUnits="userSpaceOnUse">
<stop offset="0.12" stop-color="#C3DC8F"/>
<stop offset="0.2" stop-color="#BAD58C"/>
<stop offset="0.32" stop-color="#A3C583"/>
<stop offset="0.48" stop-color="#7DAA76"/>
<stop offset="0.51" stop-color="#76A574"/>
<stop offset="0.89" stop-color="#597464"/>
</linearGradient>
</defs>
</svg>
