<svg width="300" height="300" viewBox="0 0 300 300" fill="none" xmlns="http://www.w3.org/2000/svg">
<path d="M285.207 150.043C285.207 153.983 243.781 155.769 243.368 159.617C242.954 163.464 271.199 171.297 270.373 175.099C269.546 178.901 287.136 189.711 285.942 193.376C284.748 197.04 263.3 195.116 261.738 198.689C260.177 202.262 257.467 206.201 255.538 209.545C253.609 212.889 248.787 215.225 246.537 218.385C244.286 221.546 236.341 220.309 233.723 223.195C231.105 226.081 223.16 222.783 220.267 225.348C217.373 227.913 216.776 231.944 213.607 234.234C210.438 236.524 213.286 247.609 209.887 249.533C206.489 251.457 210.622 271.108 207.04 272.711C203.458 274.314 199.003 280.864 195.283 282.055C191.563 283.246 181.321 267.626 177.509 268.405C173.697 269.184 170.115 281.918 166.211 282.284C162.307 282.651 156.245 285.262 152.295 285.262C148.346 285.262 141.732 287.323 137.874 286.956C134.016 286.59 132.685 260.389 128.919 259.565C125.153 258.74 126.852 240.555 123.132 239.364C119.412 238.173 115.6 241.655 112.064 240.051C108.527 238.448 109.997 230.799 106.598 228.875C103.2 226.951 100.582 227.547 97.413 225.256C94.2441 222.966 76.8839 239.273 73.9905 236.662C71.0972 234.051 60.4421 237.624 57.8702 234.738C55.2984 231.852 82.0277 205.651 79.7314 202.491C77.435 199.33 57.5488 208.995 55.6199 205.606C53.691 202.216 50.2005 199.513 48.639 195.986C47.0774 192.459 53.4612 186.092 52.2212 182.382C50.9812 178.672 62.2333 173.084 61.4525 169.236C60.6718 165.388 25.2164 167.221 24.803 163.281C24.3897 159.342 13 153.845 13 149.952C13 146.058 43.9545 142.44 44.3678 138.638C44.7812 134.836 40.9692 130.301 41.75 126.499C42.5307 122.698 63.4733 125.217 64.6674 121.552C65.8615 117.888 56.7221 111.75 58.3295 108.223C59.937 104.696 75.9653 110.467 77.8942 107.124C79.8231 103.78 56.125 85.0453 58.4213 81.9305C60.7177 78.8158 51.4864 64.616 54.0583 61.7303C56.6301 58.8445 87.5388 84.0376 90.4322 81.4267C93.3256 78.8158 70.7756 44.6906 73.8986 42.4003C77.0216 40.11 96.5405 61.5012 99.939 59.5316C103.338 57.562 95.2545 31.8192 98.7909 30.216C102.327 28.6128 113.947 45.057 117.713 43.8661C121.479 42.6751 119.274 13.8634 123.132 13.0389C126.99 12.2144 135.165 24.7652 139.068 24.3529C142.972 23.9407 148.346 40.2016 152.295 40.2016C156.245 40.2016 159.919 40.7513 163.777 41.1636C167.635 41.5758 174.432 27.5593 178.198 28.338C181.964 29.1167 182.24 45.5609 185.914 46.7518C189.588 47.9428 198.13 37.7281 201.666 39.3313C205.203 40.9345 195.742 67.0895 199.095 69.0592C202.447 71.0288 207.591 67.4102 210.76 69.7004C213.929 71.9907 240.474 46.477 243.368 49.0879C246.261 51.6988 211.678 91.4123 214.296 94.298C216.914 97.1838 221.461 95.0309 223.757 98.1915C226.053 101.352 238.086 96.0845 240.061 99.4283C242.036 102.772 277.353 90.1297 278.961 93.7026C280.568 97.2754 273.22 106.666 274.46 110.376C275.7 114.086 253.518 124.484 254.344 128.332C255.171 132.179 250.349 135.752 250.716 139.646C251.083 143.539 285.207 146.058 285.207 149.998V150.043Z" fill="url(#paint0_linear_227_887)"/>
<defs>
<linearGradient id="paint0_linear_227_887" x1="57.5488" y1="43.3622" x2="321.117" y2="324.112" gradientUnits="userSpaceOnUse">
<stop offset="0.12" stop-color="#C3DC8F"/>
<stop offset="0.2" stop-color="#BAD58C"/>
<stop offset="0.32" stop-color="#A3C583"/>
<stop offset="0.48" stop-color="#7DAA76"/>
<stop offset="0.51" stop-color="#76A574"/>
<stop offset="0.89" stop-color="#597464"/>
</linearGradient>
</defs>
</svg>
