<svg width="300" height="300" viewBox="0 0 300 300" fill="none" xmlns="http://www.w3.org/2000/svg">
<path d="M269.58 146.488C269.58 150.451 268.341 154.183 267.974 158.054C267.607 161.925 268.525 166.026 267.699 169.804C266.873 173.583 284.176 183.398 282.936 187.084C281.697 190.771 258.703 187.038 257.142 190.587C255.582 194.135 238.646 188.421 236.718 191.831C234.791 195.241 241.859 202.521 239.61 205.655C237.361 208.788 229.742 205.655 227.126 208.558C224.51 211.461 255.72 249.062 252.828 251.689C249.937 254.315 223.225 229.34 220.104 231.644C216.983 233.948 221.985 249.062 218.635 251.044C215.284 253.025 202.663 236.436 199.129 238.049C195.595 239.662 201.699 267.172 197.981 268.37C194.264 269.568 189.628 274.452 185.773 275.236C181.917 276.019 172.692 243.671 168.791 244.086C164.89 244.5 162.503 288 158.556 288C154.609 288 149.009 275.005 145.154 274.591C141.299 274.176 133.955 281.318 130.192 280.535C126.428 279.752 131.523 242.565 127.851 241.367C124.179 240.169 120.829 241.183 117.294 239.57C113.76 237.957 102.745 251.366 99.3488 249.431C95.9524 247.496 88.104 250.491 84.9372 248.187C81.7703 245.883 97.1916 220.723 94.3001 218.096C91.4086 215.47 76.8134 225.607 74.1973 222.704C71.5812 219.801 93.2445 198.881 90.9497 195.701C88.6548 192.522 64.7425 205.332 62.8149 201.922C60.8872 198.512 61.7592 193.996 60.1528 190.402C58.5464 186.808 78.5575 176.67 77.3183 172.938C76.0791 169.205 71.4894 169.067 70.6632 165.196C69.8371 161.326 67.634 159.989 67.221 156.072C66.8079 152.156 16 150.359 16 146.396C16 142.433 28.2086 136.581 28.6217 132.71C29.0347 128.839 26.1432 122.111 26.9235 118.333C27.7037 114.554 76.0332 123.586 77.2265 119.9C78.4198 116.213 38.5813 97.0437 40.1418 93.4956C41.7023 89.9474 80.4393 105.707 82.3669 102.297C84.2946 98.8869 62.6772 81.3304 64.972 78.1509C67.2669 74.9713 79.8426 80.547 82.4587 77.644C85.0749 74.7409 65.4769 48.5213 68.3684 45.8947C71.2599 43.2682 95.9983 66.6769 99.1193 64.3729C102.24 62.0689 104.122 59.7188 107.518 57.7373C110.915 55.7559 105.912 37.4621 109.446 35.8493C112.98 34.2365 117.386 32.2089 121.104 31.0108C124.822 29.8128 126.153 12.8552 130.008 12.0258C133.863 11.1964 142.354 30.6422 146.255 30.2275C150.157 29.8128 154.471 13.0396 158.418 13.0396C162.365 13.0396 165.486 41.7014 169.342 42.1162C173.197 42.5309 175.216 48.4752 178.98 49.2586C182.743 50.042 189.949 36.3561 193.621 37.5542C197.293 38.7523 208.446 23.9145 212.026 25.5273C215.606 27.1401 202.25 62.2532 205.646 64.2346C209.042 66.2161 214.825 61.7924 217.946 64.0503C221.067 66.3083 234.607 55.5255 237.498 58.106C240.39 60.6865 237.957 69.1191 240.528 72.0222C243.098 74.9252 240.206 81.7912 242.501 84.9246C244.796 88.0581 263.66 80.6853 265.633 84.0952C267.607 87.5051 279.54 87.7816 281.146 91.3759C282.753 94.9701 281.146 102.066 282.34 105.799C283.533 109.531 274.446 117.411 275.272 121.282C276.098 125.153 269.397 130.544 269.81 134.461C270.223 138.378 269.58 142.248 269.58 146.211V146.488Z" fill="url(#paint0_linear_227_870)"/>
<defs>
<linearGradient id="paint0_linear_227_870" x1="59.9233" y1="38.5219" x2="341.907" y2="336.875" gradientUnits="userSpaceOnUse">
<stop offset="0.12" stop-color="#C3DC8F"/>
<stop offset="0.2" stop-color="#BAD58C"/>
<stop offset="0.32" stop-color="#A3C583"/>
<stop offset="0.48" stop-color="#7DAA76"/>
<stop offset="0.51" stop-color="#76A574"/>
<stop offset="0.89" stop-color="#597464"/>
</linearGradient>
</defs>
</svg>
