<svg width="301" height="301" viewBox="0 0 301 301" fill="none" xmlns="http://www.w3.org/2000/svg">
<path d="M254.637 149.478C254.637 153.427 290.91 160.408 290.496 164.266C290.083 168.123 273.992 171.981 273.21 175.792C272.429 179.604 243.373 175.93 242.178 179.65C240.982 183.37 242.178 186.539 240.569 190.075C238.96 193.611 268.567 213.817 266.59 217.17C264.613 220.522 234.316 206.378 232.017 209.501C229.719 212.623 223.65 211.108 221.076 214.001C218.501 216.894 243.649 248.26 240.753 250.878C237.856 253.496 226.73 249.225 223.558 251.521C220.386 253.817 214.639 254.598 211.237 256.573C207.835 258.547 189.767 230.626 186.181 232.187C182.595 233.748 192.296 268.972 188.572 270.166C184.848 271.36 174.825 250.373 170.964 251.2C167.102 252.026 163.654 247.985 159.746 248.398C155.838 248.811 153.264 234.162 149.31 234.162C145.356 234.162 144.666 230.166 140.805 229.753C136.943 229.34 125.357 280.637 121.587 279.856C117.818 279.075 119.519 253.633 115.795 252.439C112.071 251.245 102.14 264.793 98.6003 263.232C95.0603 261.67 109.956 225.39 106.6 223.461C103.244 221.533 88.3021 240.04 85.1299 237.744C81.9577 235.448 82.7393 229.156 79.8429 226.584C76.9465 224.013 58.5568 236.412 55.9363 233.519C53.3157 230.626 53.6376 223.829 51.3388 220.66C49.0401 217.491 72.9008 198.111 70.9239 194.759C68.947 191.407 55.5225 195.586 53.9134 192.004C52.3043 188.421 27.8461 193.106 26.6507 189.386C25.4554 185.666 40.9027 176.619 40.0751 172.761C39.2476 168.904 46.9713 164.265 46.5575 160.362C46.1437 156.458 52.718 153.519 52.718 149.57C52.718 145.62 9.13452 138.778 9.50231 134.92C9.87011 131.062 68.8091 136.39 69.6366 132.624C70.4642 128.858 65.1311 126.332 66.3265 122.612C67.5218 118.893 57.1775 112.831 58.7866 109.295C60.3957 105.758 43.8451 93.2212 45.776 89.8228C47.7069 86.4244 42.3738 76.7345 44.6725 73.5657C46.9712 70.397 51.063 66.4016 53.6836 63.5084C56.3041 60.6152 68.9929 66.2638 71.8893 63.6462C74.7857 61.0285 96.0717 82.9342 99.198 80.638C102.324 78.3418 101.175 74.0709 104.577 72.0962C107.979 70.1214 108.715 68.0089 112.301 66.4475C115.887 64.8861 110.692 43.4855 114.415 42.2456C118.139 41.0057 125.495 56.5739 129.357 55.7472C133.219 54.9206 135.609 56.9872 139.517 56.5739C143.425 56.1606 145.356 51.3385 149.31 51.3385C153.264 51.3385 158.505 25.1619 162.366 25.5752C166.228 25.9885 172.895 20.1562 176.71 20.9369C180.526 21.7176 172.941 64.4728 176.665 65.6668C180.388 66.8608 189.445 50.1445 192.985 51.7059C196.525 53.2673 206.134 43.5774 209.49 45.5062C212.846 47.435 224.524 39.582 227.65 41.8782C230.776 44.1744 203.697 83.3934 206.594 86.0111C209.49 88.6288 210.318 89.4554 212.938 92.3486C215.559 95.2418 236.707 81.2809 239.005 84.4497C241.304 87.6184 239.833 92.8538 241.764 96.2062C243.695 99.5587 274.773 89.4095 276.337 92.9916C277.9 96.5736 240.569 115.77 241.81 119.49C243.051 123.21 280.474 117.653 281.302 121.51C282.129 125.368 254.591 134.507 255.004 138.41C255.418 142.314 254.683 145.574 254.683 149.524L254.637 149.478Z" fill="url(#paint0_linear_227_888)"/>
<defs>
<linearGradient id="paint0_linear_227_888" x1="51.9746" y1="54.276" x2="283.398" y2="339.528" gradientUnits="userSpaceOnUse">
<stop stop-color="#E7F1A4"/>
<stop offset="0.21875" stop-color="#688055"/>
<stop offset="0.442708" stop-color="#495B3E"/>
<stop offset="0.744792" stop-color="#273127"/>
</linearGradient>
</defs>
</svg>
