<svg width="301" height="301" viewBox="0 0 301 301" fill="none" xmlns="http://www.w3.org/2000/svg">
<path d="M258.852 150.612C258.852 154.559 280.906 160.112 280.494 163.967C280.083 167.822 243.982 165.94 243.205 169.75C242.427 173.559 252.493 178.791 251.303 182.462C250.113 186.133 233.23 181.911 231.629 185.445C230.027 188.979 261.461 208.575 259.493 211.971C257.526 215.368 249.976 216.056 247.688 219.177C245.401 222.297 242.152 225.326 239.544 228.218C236.936 231.109 231.537 231.568 228.655 234.184C225.772 236.8 214.562 228.126 211.405 230.421C208.248 232.715 218.497 255.524 215.111 257.452C211.725 259.379 199.921 245.29 196.352 246.896C192.783 248.503 193.195 260.114 189.489 261.307C185.783 262.5 175.168 233.174 171.324 234C167.481 234.826 168.808 258.002 164.919 258.415C161.03 258.829 157.552 255.341 153.617 255.341C149.682 255.341 142.774 291.229 138.93 290.862C135.087 290.495 139.159 237.075 135.407 236.295C131.655 235.515 123.511 255.937 119.851 254.744C116.19 253.551 111.706 254.515 108.137 252.954C104.569 251.394 111.523 231.476 108.137 229.503C104.752 227.529 83.9791 253.23 80.8221 250.935C77.665 248.64 76.5213 242.169 73.6388 239.599C70.7562 237.029 62.6577 237.901 60.0497 235.01C57.4417 232.119 71.4883 215.184 69.2006 212.017C66.9129 208.851 69.8869 203.527 67.9195 200.131C65.952 196.735 74.1878 190.264 72.5864 186.684C70.985 183.105 42.5714 190.815 41.3818 187.097C40.1922 183.38 20.3348 182.921 19.5112 179.112C18.6877 175.303 63.3897 164.059 63.0237 160.158C62.6577 156.257 40.6041 154.513 40.6041 150.612C40.6041 146.711 60.1411 144.646 60.5529 140.791C60.9647 136.936 25.5508 127.298 26.3286 123.535C27.1064 119.772 52.729 121.883 53.9186 118.166C55.1082 114.448 24.3612 97.1923 25.9168 93.6585C27.4725 90.1247 44.1271 91.8228 46.0945 88.4266C48.062 85.0305 74.691 98.0183 76.9787 94.8976C79.2665 91.7769 64.5336 75.5306 67.1416 72.6393C69.7496 69.7481 85.2603 80.4412 88.1428 77.8712C91.0254 75.3012 73.3184 46.6637 76.4297 44.3691C79.541 42.0744 93.9995 55.1999 97.3853 53.2724C100.771 51.3448 114.177 71.8133 117.746 70.207C121.315 68.6007 121.361 64.2409 125.067 63.0476C128.773 61.8544 126.622 43.0382 130.466 42.2121C134.309 41.386 140.486 64.8834 144.375 64.4703C148.264 64.0573 149.5 59.0549 153.434 59.0549C157.369 59.0549 164.461 10.4998 168.259 10.8669C172.056 11.2341 167.206 68.1418 171.004 68.922C174.802 69.7022 185.325 40.3763 188.986 41.5696C192.646 42.7628 187.933 63.8737 191.456 65.4341C194.979 66.9945 193.286 73.9702 196.626 75.8978C199.967 77.8253 199.372 80.8083 202.529 83.103C205.686 85.3977 237.714 51.1613 240.596 53.7772C243.479 56.3931 225.36 80.6248 227.923 83.5161C230.485 86.4073 234.237 87.0498 236.524 90.2165C238.812 93.3831 233.688 99.7623 235.655 103.113C237.622 106.463 266.493 95.9073 268.049 99.4869C269.605 103.067 245.767 116.422 246.956 120.139C248.146 123.856 263.657 123.076 264.434 126.931C265.212 130.786 277.703 133.54 278.115 137.441C278.527 141.342 258.852 146.619 258.852 150.566V150.612Z" fill="url(#paint0_linear_227_889)"/>
<defs>
<linearGradient id="paint0_linear_227_889" x1="58.9515" y1="46.985" x2="314.21" y2="317.304" gradientUnits="userSpaceOnUse">
<stop stop-color="#E7F1A4"/>
<stop offset="0.21875" stop-color="#688055"/>
<stop offset="0.442708" stop-color="#495B3E"/>
<stop offset="0.744792" stop-color="#273127"/>
</linearGradient>
</defs>
</svg>
