<svg width="301" height="301" viewBox="0 0 301 301" fill="none" xmlns="http://www.w3.org/2000/svg">
<path d="M274.078 146.466C274.078 150.418 285.904 157.035 285.489 160.849C285.075 164.663 235.519 161.079 234.691 164.847C233.863 168.615 236.67 171.096 235.473 174.772C234.277 178.448 274.676 198.483 273.112 202.021C271.547 205.559 254.753 203.446 252.82 206.8C250.888 210.155 219.921 193.704 217.621 196.829C215.32 199.953 212.789 199.356 210.213 202.251C207.636 205.146 230.366 231.798 227.467 234.417C224.569 237.036 224.292 244.48 221.163 246.778C218.035 249.075 207.682 241.585 204.277 243.561C200.872 245.537 204.415 263.09 200.872 264.699C197.329 266.307 188.356 257.301 184.583 258.495C180.81 259.69 175.151 254.497 171.332 255.325C167.513 256.152 162.635 246.41 158.724 246.824C154.813 247.237 152.098 275.865 148.141 275.865C144.184 275.865 142.712 234.601 138.893 234.187C135.074 233.773 131.07 245.215 127.297 244.434C123.524 243.653 117.543 253.119 113.862 251.924C110.181 250.73 104.567 253.808 101.024 252.2C97.4811 250.592 97.8032 241.401 94.3983 239.426C90.9933 237.45 86.3 238.047 83.1712 235.749C80.0423 233.452 94.0302 212.268 91.1314 209.649C88.2326 207.03 61.9133 229.178 59.3366 226.283C56.7598 223.389 41.5756 228.581 39.2749 225.41C36.9743 222.24 58.8304 202.389 56.8518 199.034C54.8733 195.68 31.4068 202.619 29.8424 199.034C28.2779 195.45 72.2201 175.186 70.9778 171.464C69.7354 167.742 36.2381 174.175 35.4099 170.361C34.5816 166.547 49.4438 160.757 49.0757 156.851C48.7076 152.945 18.5692 150.372 18.5692 146.42C18.5692 142.468 26.1153 137.506 26.4834 133.646C26.8515 129.786 64.582 132.589 65.3642 128.775C66.1464 124.961 13.3237 106.718 14.52 102.996C15.7164 99.2743 30.5786 98.3094 32.1891 94.7711C33.7995 91.2329 74.0607 108.143 76.0392 104.788C78.0178 101.434 35.2718 69.1763 37.5264 66.0516C39.781 62.9269 83.4933 93.4385 86.07 90.5436C88.6467 87.6487 89.1528 86.7297 92.0976 84.1564C95.0425 81.5831 96.837 82.4102 100.012 80.1127C103.187 77.8151 95.8246 63.5703 99.2296 61.6403C102.635 59.7104 95.1345 36.9645 98.7235 35.4022C102.312 33.8398 119.107 69.5899 122.834 68.3492C126.561 67.1085 118.555 25.7065 122.374 24.8793C126.193 24.0522 135.028 58.7913 138.939 58.4237C142.85 58.0561 144.276 35.7238 148.233 35.7238C152.19 35.7238 153.617 58.7454 157.436 59.113C161.255 59.4806 161.577 65.1326 165.396 65.9138C169.215 66.6949 181.454 31.818 185.135 33.0127C188.817 34.2074 182.007 61.0889 185.596 62.6512C189.185 64.2136 213.663 25.6146 217.022 27.5445C220.381 29.4745 225.443 33.7939 228.572 36.0914C231.7 38.389 208.74 73.5417 211.639 76.1609C214.538 78.7801 229.768 67.9356 232.391 70.8305C235.013 73.7255 259.63 60.8132 261.931 63.9838C264.231 67.1544 248.633 84.0645 250.612 87.4649C252.59 90.8653 258.802 93.025 260.412 96.6092C262.023 100.193 267.821 103.594 269.017 107.316C270.213 111.038 238.464 123.307 239.247 127.167C240.029 131.027 249.645 131.9 250.014 135.806C250.382 139.711 274.124 142.56 274.124 146.512L274.078 146.466Z" fill="url(#paint0_linear_227_885)"/>
<defs>
<linearGradient id="paint0_linear_227_885" x1="55.4631" y1="57.2439" x2="279.96" y2="332.617" gradientUnits="userSpaceOnUse">
<stop stop-color="#E7F1A4"/>
<stop offset="0.21875" stop-color="#688055"/>
<stop offset="0.442708" stop-color="#495B3E"/>
<stop offset="0.744792" stop-color="#273127"/>
</linearGradient>
</defs>
</svg>
