<svg width="301" height="301" viewBox="0 0 301 301" fill="none" xmlns="http://www.w3.org/2000/svg">
<path d="M285.707 150.908C285.707 154.848 244.281 156.634 243.868 160.482C243.454 164.329 271.699 172.162 270.873 175.964C270.046 179.766 287.636 190.576 286.442 194.24C285.248 197.905 263.8 195.981 262.238 199.554C260.677 203.127 257.967 207.066 256.038 210.41C254.109 213.754 249.287 216.09 247.037 219.25C244.786 222.411 236.841 221.174 234.223 224.06C231.605 226.946 223.66 223.648 220.767 226.213C217.873 228.778 217.276 232.809 214.107 235.099C210.938 237.389 213.786 248.474 210.387 250.398C206.989 252.322 211.122 271.972 207.54 273.576C203.958 275.179 199.503 281.729 195.783 282.92C192.063 284.111 181.821 268.491 178.009 269.27C174.197 270.049 170.615 282.783 166.711 283.149C162.807 283.515 156.745 286.126 152.795 286.126C148.846 286.126 142.232 288.188 138.374 287.821C134.516 287.455 133.185 261.254 129.419 260.429C125.653 259.605 127.352 241.42 123.632 240.229C119.912 239.038 116.1 242.52 112.564 240.916C109.027 239.313 110.497 231.664 107.098 229.74C103.7 227.816 101.082 228.411 97.913 226.121C94.7441 223.831 77.3839 240.138 74.4905 237.527C71.5972 234.916 60.9421 238.489 58.3702 235.603C55.7984 232.717 82.5277 206.516 80.2314 203.356C77.935 200.195 58.0488 209.86 56.1199 206.47C54.191 203.081 50.7005 200.378 49.139 196.851C47.5774 193.324 53.9612 186.957 52.7212 183.247C51.4812 179.537 62.7333 173.949 61.9525 170.101C61.1718 166.253 25.7164 168.085 25.303 164.146C24.8897 160.207 13.5 154.71 13.5 150.817C13.5 146.923 44.4545 143.305 44.8678 139.503C45.2812 135.701 41.4692 131.166 42.25 127.364C43.0307 123.562 63.9733 126.082 65.1674 122.417C66.3615 118.753 57.2221 112.615 58.8295 109.088C60.437 105.561 76.4653 111.332 78.3942 107.988C80.3231 104.645 56.625 85.9102 58.9213 82.7954C61.2177 79.6806 51.9864 65.4809 54.5583 62.5951C57.1301 59.7094 88.0388 84.9025 90.9322 82.2915C93.8256 79.6806 71.2756 45.5555 74.3986 43.2652C77.5216 40.9749 97.0405 62.3661 100.439 60.3965C103.838 58.4268 95.7545 32.6841 99.2909 31.0809C102.827 29.4777 114.447 45.9219 118.213 44.731C121.979 43.54 119.774 14.7283 123.632 13.9038C127.49 13.0793 135.665 25.63 139.568 25.2178C143.472 24.8055 148.846 41.0665 152.795 41.0665C156.745 41.0665 160.419 41.6162 164.277 42.0284C168.135 42.4407 174.932 28.4242 178.698 29.2029C182.464 29.9816 182.74 46.4258 186.414 47.6167C190.088 48.8077 198.63 38.593 202.166 40.1962C205.703 41.7994 196.242 67.9544 199.595 69.924C202.947 71.8937 208.091 68.275 211.26 70.5653C214.429 72.8556 240.974 47.3419 243.868 49.9528C246.761 52.5637 212.178 92.2772 214.796 95.1629C217.414 98.0487 221.961 95.8958 224.257 99.0564C226.553 102.217 238.586 96.9493 240.561 100.293C242.536 103.637 277.853 90.9946 279.461 94.5674C281.068 98.1403 273.72 107.53 274.96 111.241C276.2 114.951 254.018 125.349 254.844 129.196C255.671 133.044 250.849 136.617 251.216 140.51C251.583 144.404 285.707 146.923 285.707 150.863V150.908Z" fill="url(#paint0_linear_227_887)"/>
<defs>
<linearGradient id="paint0_linear_227_887" x1="54.7654" y1="49.211" x2="303.055" y2="330.262" gradientUnits="userSpaceOnUse">
<stop stop-color="#E7F1A4"/>
<stop offset="0.21875" stop-color="#688055"/>
<stop offset="0.442708" stop-color="#495B3E"/>
<stop offset="0.744792" stop-color="#273127"/>
</linearGradient>
</defs>
</svg>
