<svg width="301" height="301" viewBox="0 0 301 301" fill="none" xmlns="http://www.w3.org/2000/svg">
<path d="M274.261 145.179C274.261 149.127 256.466 151.79 256.098 155.601C255.73 159.411 262.076 163.543 261.248 167.354C260.421 171.165 284.653 182.596 283.457 186.269C282.262 189.942 232.786 174.7 231.223 178.235C229.659 181.77 235.223 185.856 233.246 189.208C231.269 192.559 225.843 190.401 223.544 193.569C221.245 196.737 220.647 197.334 218.026 200.226C215.405 203.119 228.05 218.407 225.153 221.024C222.256 223.641 220.233 225.753 217.06 228.048C213.888 230.344 222.854 251.601 219.451 253.575C216.049 255.549 214.164 264.226 210.577 265.833C206.991 267.44 189.104 231.813 185.379 233.053C181.655 234.292 179.126 231.033 175.264 231.859C171.401 232.685 175.585 286.447 171.677 286.86C167.769 287.273 160.733 259.36 156.825 259.36C152.917 259.36 149.744 249.213 145.928 248.8C142.111 248.387 133.283 274.464 129.512 273.684C125.742 272.903 120.96 267.991 117.281 266.797C113.603 265.603 103.671 274.005 100.13 272.398C96.5898 270.791 106.43 240.215 103.073 238.286C99.7165 236.358 94.0608 238.195 90.8881 235.899C87.7154 233.604 71.1621 246.091 68.2653 243.474C65.3685 240.857 96.9116 204.404 94.2907 201.512C91.6698 198.619 89.8305 198.711 87.5314 195.543C85.2324 192.375 47.8038 212.668 45.8725 209.271C43.9413 205.873 60.9544 192.192 59.391 188.611C57.8277 185.03 67.5297 178.373 66.3342 174.654C65.1387 170.935 62.7017 169.282 61.874 165.426C61.0464 161.569 31.0666 162.396 30.6528 158.493C30.239 154.591 61.9201 149.219 61.9201 145.271C61.9201 141.322 17.1344 134.528 17.5023 130.671C17.8701 126.815 48.6314 126.218 49.4591 122.453C50.2867 118.688 42.8378 112.307 44.0333 108.634C45.2288 104.961 64.0811 108.266 65.6904 104.731C67.2997 101.196 58.7473 93.1618 60.6785 89.8103C62.6097 86.4588 45.6427 69.3799 47.9417 66.212C50.2408 63.0442 73.9671 75.9451 76.542 73.0528C79.117 70.1604 87.8534 74.5219 90.7502 71.9509C93.647 69.3799 73.0474 36.7372 76.2201 34.4416C79.3928 32.1461 109.327 70.7572 112.683 68.8289C116.04 66.9007 109.465 48.6281 113.051 47.0212C116.638 45.4143 123.121 54.2292 126.845 53.0356C130.57 51.8419 130.708 41.3283 134.57 40.5478C138.433 39.7673 142.433 45.8734 146.341 45.4603C150.25 45.0471 152.917 21.0356 156.871 21.0356C160.825 21.0356 166.757 14.4703 170.573 14.8835C174.39 15.2967 179.08 22.3211 182.85 23.1016C186.621 23.8821 193.656 19.7042 197.334 20.8979C201.013 22.0915 196.737 46.2866 200.277 47.8935C203.818 49.5004 208.416 48.3526 211.773 50.2809C215.129 52.2092 203.772 74.1087 206.944 76.4043C210.117 78.6998 230.027 58.3612 232.924 60.9323C235.821 63.5033 242.948 62.631 245.569 65.5234C248.19 68.4157 230.809 86.8261 233.108 89.9939C235.407 93.1618 234.533 96.0083 236.464 99.4057C238.396 102.803 264.559 93.1159 266.168 96.6969C267.778 100.278 257.11 108.634 258.305 112.398C259.501 116.163 245.569 122.453 246.396 126.264C247.224 130.074 250.811 131.452 251.224 135.354C251.638 139.256 274.353 141.322 274.353 145.271L274.261 145.179Z" fill="url(#paint0_linear_227_874)"/>
<defs>
<linearGradient id="paint0_linear_227_874" x1="57.7073" y1="49.9529" x2="304.71" y2="324.381" gradientUnits="userSpaceOnUse">
<stop stop-color="#E7F1A4"/>
<stop offset="0.21875" stop-color="#688055"/>
<stop offset="0.442708" stop-color="#495B3E"/>
<stop offset="0.744792" stop-color="#273127"/>
</linearGradient>
</defs>
</svg>
