<svg width="301" height="301" viewBox="0 0 301 301" fill="none" xmlns="http://www.w3.org/2000/svg">
<path d="M237.166 148.114C237.166 152.079 237.442 153.324 237.029 157.15C236.616 160.976 263.099 167.937 262.273 171.717C261.447 175.498 240.058 172.87 238.865 176.558C237.671 180.246 235.606 181.352 233.999 184.902C232.393 188.452 267.276 210.672 265.302 214.037C263.329 217.402 224.223 196.243 221.974 199.377C219.725 202.512 219.771 204.448 217.155 207.353C214.539 210.257 246.897 248.566 244.005 251.148C241.114 253.729 203.248 212.885 200.081 215.19C196.914 217.495 199.346 223.395 195.95 225.378C192.553 227.36 209.352 268.758 205.772 270.371C202.192 271.985 184.246 236.396 180.528 237.594C176.81 238.793 172.496 227.959 168.686 228.743C164.877 229.527 166.85 256.08 162.949 256.495C159.048 256.91 155.559 242.158 151.612 242.158C147.665 242.158 142.387 273.276 138.577 272.861C134.767 272.446 137.521 233.215 133.758 232.385C129.994 231.555 120.447 256.956 116.775 255.758C113.103 254.559 106.632 259.077 103.098 257.509C99.5634 255.942 87.9511 266.591 84.6005 264.609C81.2499 262.627 106.265 217.449 103.143 215.144C100.022 212.839 89.5116 223.211 86.62 220.583C83.7284 217.956 87.0331 211.732 84.4169 208.828C81.8007 205.924 62.1104 218.186 59.8155 215.051C57.5205 211.917 48.295 212.516 46.3673 209.104C44.4395 205.693 43.5675 200.714 41.961 197.118C40.3546 193.523 30.9913 191.587 29.798 187.806C28.6046 184.026 15.34 181.168 14.5138 177.296C13.6877 173.423 50.1768 162.728 49.8096 158.809C49.4424 154.891 44.669 151.987 44.669 148.068C44.669 144.15 15.1564 137.557 15.5236 133.731C15.8908 129.905 26.5392 125.341 27.3195 121.561C28.0997 117.781 29.7062 112.387 30.8995 108.699C32.0929 105.011 34.7091 100.078 36.2696 96.4823C37.8302 92.8865 33.6075 84.1276 35.5352 80.7623C37.463 77.397 62.0186 87.539 64.3135 84.4042C66.6084 81.2694 61.6055 71.9572 64.2217 69.0529C66.8379 66.1486 74.5488 67.9465 77.4404 65.3188C80.332 62.6911 99.2421 82.2375 102.363 79.9325C105.484 77.6275 92.7704 53.5172 96.1669 51.581C99.5634 49.6448 96.5341 33.4637 100.114 31.8963C103.694 30.3289 116.5 52.1803 120.218 50.9817C123.935 49.7831 123.844 35.7226 127.699 34.8928C131.554 34.063 138.761 63.106 142.708 62.6911C146.655 62.2762 147.757 44.7121 151.658 44.7121C155.559 44.7121 159.69 34.4779 163.5 34.8928C167.309 35.3077 167.217 56.0988 170.981 56.8825C174.745 57.6662 186.541 27.7012 190.213 28.8998C193.884 30.0984 190.396 51.12 193.93 52.6874C197.464 54.2548 215.548 29.1764 218.899 31.1587C222.25 33.141 211.004 59.3719 214.171 61.6769C217.338 63.9819 239.461 44.2972 242.353 46.9249C245.245 49.5526 219.037 81.8687 221.653 84.8191C224.269 87.7695 241.664 77.5814 243.959 80.7623C246.254 83.9432 235.147 95.1915 237.121 98.6029C239.094 102.014 275.033 88.6454 276.639 92.2411C278.245 95.8369 274.023 104.089 275.262 107.823C276.501 111.557 280.999 116.536 281.826 120.362C282.652 124.188 285.084 130.089 285.497 134.008C285.91 137.926 237.258 144.15 237.258 148.114H237.166Z" fill="url(#paint0_linear_227_883)"/>
<defs>
<linearGradient id="paint0_linear_227_883" x1="55.4631" y1="60.3409" x2="272.376" y2="334.045" gradientUnits="userSpaceOnUse">
<stop stop-color="#E7F1A4"/>
<stop offset="0.21875" stop-color="#688055"/>
<stop offset="0.442708" stop-color="#495B3E"/>
<stop offset="0.744792" stop-color="#273127"/>
</linearGradient>
</defs>
</svg>
