<svg width="301" height="301" viewBox="0 0 301 301" fill="none" xmlns="http://www.w3.org/2000/svg">
<path d="M229.388 155.362C229.388 159.314 276.911 165.564 276.497 169.378C276.084 173.192 253.172 174.846 252.346 178.66C251.519 182.474 232.877 180.59 231.684 184.266C230.49 187.942 242.52 195.524 240.913 199.062C239.306 202.6 253.494 214.824 251.565 218.178C249.637 221.532 250.555 228.839 248.259 232.009C245.963 235.18 220.113 219.694 217.496 222.589C214.879 225.484 236.229 253.285 233.337 255.858C230.444 258.431 205.65 235.134 202.481 237.432C199.313 239.729 188.064 225.852 184.666 227.828C181.268 229.804 188.982 249.379 185.401 250.987C181.819 252.596 180.809 259.58 177.09 260.775C173.371 261.97 173.968 282.923 170.111 283.751C166.254 284.578 159.964 280.626 156.015 281.039C152.066 281.453 146.786 260.04 142.837 260.04C138.888 260.04 134.756 269.046 130.945 268.633C127.134 268.219 124.241 261.418 120.476 260.591C116.711 259.764 106.793 278.926 103.074 277.731C99.355 276.536 97.5643 266.565 94.0288 264.956C90.4933 263.348 85.0294 263.21 81.6775 261.28C78.3257 259.35 96.2787 226.036 93.1564 223.784C90.0341 221.532 81.7234 229.068 78.8307 226.449C75.9381 223.83 75.1575 221.532 72.5403 218.637C69.9231 215.743 57.2964 222.314 55.0006 219.143C52.7048 215.972 64.4133 205.082 62.4848 201.681C60.5564 198.281 63.4031 194.927 61.842 191.342C60.2809 187.758 66.8009 184.128 65.6071 180.406C64.4133 176.684 52.7507 178.476 51.9242 174.662C51.0978 170.848 37.92 170.297 37.5526 166.391C37.1853 162.485 46.9194 159.222 46.9194 155.316C46.9194 151.411 61.7042 150.629 62.1175 146.769C62.5307 142.91 28.0941 134.822 28.9205 131.054C29.747 127.286 32.8693 123.61 34.109 119.888C35.3487 116.166 65.7907 125.172 67.3978 121.634C69.0048 118.096 22.6301 90.2033 24.5585 86.8488C26.487 83.4944 37.8281 83.6322 40.1239 80.5075C42.4197 77.3828 63.2195 88.6869 65.8367 85.7919C68.4538 82.897 71.071 81.2427 73.9637 78.6235C76.8564 76.0043 72.6321 65.0678 75.7544 62.7703C78.8767 60.4727 80.6215 55.1423 84.0192 53.2124C87.417 51.2824 106.151 82.2537 109.732 80.6913C113.313 79.129 95.1308 20.8626 98.8499 19.6678C102.569 18.4731 120.614 69.5251 124.471 68.698C128.328 67.8709 124.838 20.9545 128.741 20.5409C132.644 20.1274 138.934 16.8648 142.883 16.8648C146.832 16.8648 153.168 20.2652 156.979 20.6328C160.79 21.0004 168.045 17.9217 171.856 18.7029C175.667 19.484 177.228 36.8537 180.947 38.0484C184.666 39.2431 189.304 41.4029 192.839 42.9652C196.375 44.5276 208.542 33.729 211.894 35.6589C215.246 37.5889 197.339 73.6148 200.461 75.9124C203.583 78.2099 200.461 85.3784 203.354 87.9976C206.246 90.6168 218.69 81.6563 221.307 84.5512C223.924 87.4462 224.934 90.7087 227.23 93.8794C229.526 97.05 240.086 94.5227 242.061 97.8771C244.035 101.232 265.983 96.0391 267.544 99.6233C269.105 103.208 223.465 124.851 224.659 128.573C225.852 132.295 255.698 127.148 256.524 131.008C257.35 134.868 228.516 142.174 228.929 146.126C229.342 150.078 229.342 151.273 229.342 155.225L229.388 155.362Z" fill="url(#paint0_linear_227_871)"/>
<defs>
<linearGradient id="paint0_linear_227_871" x1="62.5911" y1="51.3079" x2="305.806" y2="312.1" gradientUnits="userSpaceOnUse">
<stop stop-color="#E7F1A4"/>
<stop offset="0.21875" stop-color="#688055"/>
<stop offset="0.442708" stop-color="#495B3E"/>
<stop offset="0.744792" stop-color="#273127"/>
</linearGradient>
</defs>
</svg>
