<svg width="301" height="301" viewBox="0 0 301 301" fill="none" xmlns="http://www.w3.org/2000/svg">
<path d="M248.921 146.439C248.921 150.397 290.911 157.118 290.497 160.984C290.083 164.85 286.404 171.064 285.622 174.838C284.84 178.613 266.628 179.625 265.432 183.308C264.236 186.99 246.713 184.32 245.104 187.91C243.494 191.501 244.598 195.413 242.666 198.773C240.734 202.133 227.489 196.426 225.189 199.602C222.89 202.778 247.311 226.988 244.69 229.888C242.068 232.788 225.925 222.662 223.028 225.285C220.13 227.909 236.917 256.584 233.744 258.886C230.57 261.187 214.427 246.642 211.024 248.576C207.621 250.509 194.605 232.374 191.018 233.985C187.431 235.596 189.27 248.253 185.545 249.45C181.82 250.647 181.498 265.928 177.634 266.757C173.771 267.585 167.194 252.626 163.285 253.04C159.376 253.455 156.018 232.834 152.063 232.834C148.108 232.834 142.037 279.276 138.174 278.862C134.311 278.448 134.587 247.241 130.815 246.412C127.044 245.584 121.065 254.513 117.34 253.316C113.615 252.12 114.58 240.152 111.039 238.587C107.498 237.022 84.87 270.623 81.5126 268.644C78.1553 266.665 77.2354 256.124 74.062 253.823C70.8886 251.521 78.6612 233.847 75.7637 231.223C72.8663 228.599 65.8295 229.382 63.208 226.482C60.5865 223.582 51.2963 224.549 48.9967 221.373C46.6972 218.197 57.1372 205.769 55.1596 202.409C53.1819 199.049 30.4163 204.941 28.8066 201.351C27.1969 197.76 57.9191 181.144 56.7233 177.416C55.5275 173.688 62.8401 169.453 62.0123 165.587C61.1845 161.72 70.4747 159.005 70.0608 155.092C69.6468 151.18 59.0229 150.397 59.0229 146.439C59.0229 142.481 10.1341 135.438 10.5021 131.572C10.87 127.706 60.4946 130.882 61.2764 127.107C62.0583 123.333 67.9911 123.149 69.1869 119.467C70.3827 115.784 36.7171 99.2602 38.2808 95.716C39.8445 92.1718 64.3578 100.273 66.2894 96.8667C68.2211 93.4606 47.571 75.2335 49.8706 72.0575C52.1702 68.8816 57.1832 66.1199 59.7587 63.2201C62.3342 60.3204 61.7363 51.8051 64.6338 49.2276C67.5312 46.65 66.9793 35.8334 70.1067 33.532C73.2341 31.2306 92.5505 51.0687 95.9539 49.0895C99.3572 47.1103 109.199 59.6299 112.787 58.0189C116.374 56.408 118.72 56.3159 122.445 55.1192C126.17 53.9224 126.538 45.1771 130.401 44.3946C134.265 43.6121 137.668 47.1103 141.577 46.696C145.486 46.2818 148.108 30.1719 152.063 30.1719C156.018 30.1719 160.71 26.9499 164.573 27.3642C168.436 27.7784 168.62 50.01 172.391 50.8386C176.163 51.6671 178.83 51.529 182.509 52.7257C186.189 53.9224 195.755 38.7792 199.296 40.3441C202.838 41.9091 219.992 21.0583 223.35 22.9915C226.707 24.9247 205.229 66.6262 208.357 68.9276C211.484 71.229 204.631 82.2298 207.529 84.8534C210.426 87.477 250.439 52.5876 253.06 55.4874C255.682 58.3872 251.772 69.1578 254.072 72.3337C256.371 75.5097 269.203 74.3129 271.135 77.673C273.066 81.033 227.995 108.374 229.605 111.964C231.214 115.554 252.37 109.755 253.566 113.483C254.762 117.211 252.278 121.124 253.106 124.99C253.934 128.856 281.575 128.948 281.989 132.861C282.403 136.773 248.875 142.573 248.875 146.485L248.921 146.439Z" fill="url(#paint0_linear_227_884)"/>
<defs>
<linearGradient id="paint0_linear_227_884" x1="52.8235" y1="55.8889" x2="281.178" y2="339.643" gradientUnits="userSpaceOnUse">
<stop stop-color="#E7F1A4"/>
<stop offset="0.21875" stop-color="#688055"/>
<stop offset="0.442708" stop-color="#495B3E"/>
<stop offset="0.744792" stop-color="#273127"/>
</linearGradient>
</defs>
</svg>
