<svg width="301" height="301" viewBox="0 0 301 301" fill="none" xmlns="http://www.w3.org/2000/svg">
<path d="M282.154 145.444C282.154 149.397 264.912 153.764 264.545 157.579C264.179 161.395 289.262 171.324 288.482 175.093C287.703 178.863 275.826 182.632 274.634 186.309C273.441 189.987 236.069 179.966 234.51 183.505C232.951 187.045 245.79 196.882 243.864 200.238C241.938 203.593 246.111 211.224 243.864 214.396C241.617 217.567 212.224 197.066 209.61 199.962C206.996 202.858 214.838 212.741 211.949 215.315C209.06 217.889 230.291 250.618 227.127 252.917C223.963 255.215 199.934 225.704 196.541 227.68C193.148 229.657 198.788 247.492 195.211 249.101C191.635 250.71 180.492 229.335 176.777 230.53C173.063 231.725 181.5 279.026 177.648 279.854C173.797 280.681 162.562 235.449 158.664 235.816C154.766 236.184 153.116 277.325 149.172 277.325C145.228 277.325 141.055 259.582 137.249 259.214C133.443 258.846 129.225 258.065 125.464 257.237C121.704 256.41 118.632 252.227 114.918 251.032C111.203 249.837 97.9968 270.108 94.4659 268.5C90.935 266.891 111.066 219.36 107.718 217.429C104.371 215.499 75.665 253.422 72.5009 251.17C69.3368 248.917 82.9102 225.014 80.0213 222.394C77.1323 219.774 71.5379 220.739 68.9241 217.843C66.3104 214.947 53.4248 219.958 51.132 216.832C48.8392 213.706 59.2944 201.984 57.3226 198.583C55.3508 195.181 68.1905 185.85 66.6314 182.264C65.0723 178.679 20.7754 191.366 19.5832 187.642C18.3909 183.919 12.338 178.587 11.5125 174.725C10.6871 170.864 50.8569 159.74 50.4442 155.833C50.0315 151.925 66.0811 149.351 66.0811 145.398C66.0811 141.445 15.7772 135.239 16.1899 131.424C16.6026 127.609 60.1198 130.367 60.8994 126.597C61.6789 122.828 63.6507 121.633 64.843 117.955C66.0352 114.278 52.6911 106.647 54.2961 103.108C55.9011 99.5682 25.6362 78.4231 27.608 75.0674C29.5798 71.7118 71.0794 93.4085 73.3722 90.2827C75.665 87.1569 41.5023 53.5086 44.1161 50.6126C46.7299 47.7166 76.6279 70.4706 79.5168 67.8965C82.4058 65.3223 94.5117 76.6303 97.6299 74.3319C100.748 72.0336 97.309 63.2537 100.702 61.2771C104.096 59.3005 112.166 71.7118 115.743 70.1029C119.32 68.494 113.588 48.3602 117.302 47.1191C121.016 45.8779 124.547 48.2223 128.353 47.3949C132.159 46.5674 133.856 37.0521 137.754 36.6384C141.652 36.2247 145.228 30.2029 149.172 30.2029C153.116 30.2029 154.308 59.8061 158.16 60.2198C162.012 60.6336 169.119 32.915 172.879 33.6965C176.64 34.4779 175.218 52.6352 178.887 53.8763C182.555 55.1174 200.989 19.3086 204.52 20.9175C208.051 22.5263 199.751 49.9231 203.098 51.8997C206.446 53.8763 223.504 36.3626 226.668 38.661C229.832 40.9594 222.45 58.1513 225.339 60.7715C228.228 63.3916 243.452 55.2094 246.02 58.1053C248.588 61.0013 220.249 88.9497 222.541 92.1214C224.834 95.2932 268.076 72.1715 270.048 75.5271C272.02 78.8827 251.339 95.615 252.944 99.2005C254.549 102.786 278.027 99.4303 279.265 103.154C280.503 106.877 264.637 116.898 265.463 120.759C266.288 124.621 280.045 127.792 280.457 131.7C280.87 135.607 282.246 141.537 282.246 145.49L282.154 145.444Z" fill="url(#paint0_linear_227_882)"/>
<defs>
<linearGradient id="paint0_linear_227_882" x1="53.37" y1="54.2759" x2="285.455" y2="336.271" gradientUnits="userSpaceOnUse">
<stop stop-color="#E7F1A4"/>
<stop offset="0.21875" stop-color="#688055"/>
<stop offset="0.442708" stop-color="#495B3E"/>
<stop offset="0.744792" stop-color="#273127"/>
</linearGradient>
</defs>
</svg>
