<svg width="301" height="301" viewBox="0 0 301 301" fill="none" xmlns="http://www.w3.org/2000/svg">
<path d="M277.731 144.176C277.731 148.138 241.975 149.843 241.608 153.713C241.242 157.583 268.346 165.139 267.521 168.963C266.697 172.787 255.435 174.031 254.244 177.717C253.054 181.403 252.367 185.043 250.811 188.59C249.254 192.138 263.309 204.532 261.341 207.895C259.372 211.259 241.746 205.177 239.456 208.356C237.167 211.535 230.025 209.922 227.415 212.825C224.806 215.728 233.963 230.287 231.078 232.913C228.194 235.539 208.095 215.682 204.936 217.985C201.777 220.289 207.591 233.834 204.203 235.77C200.815 237.705 207.317 260.281 203.746 261.893C200.175 263.506 182.685 227.568 178.977 228.812C175.269 230.056 179.618 257.7 175.818 258.53C172.018 259.359 167.165 254.567 163.228 254.982C159.29 255.397 155.582 286.865 151.645 286.865C147.707 286.865 144.594 248.44 140.794 248.071C136.994 247.702 130.447 263.367 126.647 262.584C122.847 261.801 114.743 271.062 111.081 269.818C107.418 268.574 120.42 224.343 116.895 222.731C113.37 221.118 101.924 238.672 98.5819 236.691C95.2397 234.71 94.8277 229.55 91.6686 227.246C88.5096 224.942 84.6181 224.942 81.7337 222.316C78.8494 219.69 48.9988 242.45 46.3892 239.548C43.7796 236.645 62.7337 214.023 60.4446 210.844C58.1554 207.665 50.6928 207.342 48.7241 203.979C46.7554 200.616 54.5844 191.954 52.982 188.36C51.3796 184.766 33.982 186.748 32.7916 183.016C31.6012 179.284 14.2952 177.533 13.5169 173.663C12.7386 169.793 39.1097 160.025 38.7434 156.063C38.3772 152.1 44.5579 148.092 44.5579 144.13C44.5579 140.167 20.9795 134.224 21.3916 130.354C21.8036 126.484 41.6735 124.549 42.4518 120.724C43.2302 116.9 46.8013 113.86 47.9916 110.174C49.182 106.488 62.2759 108.285 63.8325 104.737C65.3892 101.189 54.9506 92.3894 56.9193 89.0261C58.888 85.6627 71.8903 90.5926 74.1795 87.4135C76.4686 84.2345 50.0976 57.2355 52.6614 54.3329C55.2253 51.4303 53.8976 40.6491 56.8277 38.0229C59.7578 35.3968 85.9915 59.6774 89.1506 57.3737C92.3096 55.07 84.8012 35.3046 88.1892 33.3235C91.5771 31.3423 90.6156 15.5392 94.1409 13.9727C97.6662 12.4062 110.257 28.4397 113.965 27.1957C117.673 25.9517 129.348 57.2355 133.148 56.4062C136.948 55.5769 134.522 17.336 138.413 16.9214C142.305 16.5067 147.753 34.5674 151.69 34.5674C155.628 34.5674 158.787 39.2208 162.587 39.6355C166.387 40.0502 168.722 44.7036 172.522 45.4868C176.322 46.2701 178.611 48.0669 182.273 49.2648C185.936 50.4627 198.618 28.3936 202.143 30.0062C205.669 31.6187 195.825 59.3088 199.167 61.2439C202.51 63.179 203.15 66.0816 206.264 68.3852C209.377 70.6889 204.295 79.3968 207.179 81.9769C210.064 84.557 221.281 75.7109 223.844 78.6135C226.408 81.5161 234.558 78.6135 236.847 81.7465C239.136 84.8795 263.309 74.6051 265.278 78.0145C267.247 81.424 227.919 105.612 229.521 109.16C231.124 112.708 240.509 110.819 241.746 114.551C242.982 118.283 285.651 111.326 286.476 115.196C287.3 119.066 266.972 127.866 267.338 131.782C267.705 135.698 277.731 140.075 277.731 143.992V144.176Z" fill="url(#paint0_linear_227_879)"/>
<defs>
<linearGradient id="paint0_linear_227_879" x1="54.7654" y1="49.0819" x2="302.036" y2="330.005" gradientUnits="userSpaceOnUse">
<stop stop-color="#E7F1A4"/>
<stop offset="0.21875" stop-color="#688055"/>
<stop offset="0.442708" stop-color="#495B3E"/>
<stop offset="0.744792" stop-color="#273127"/>
</linearGradient>
</defs>
</svg>
