<svg width="300" height="300" viewBox="0 0 300 300" fill="none" xmlns="http://www.w3.org/2000/svg">
<path d="M273.761 144.314C273.761 148.262 255.966 150.925 255.598 154.736C255.23 158.547 261.576 162.679 260.748 166.489C259.921 170.3 284.153 181.732 282.957 185.404C281.762 189.077 232.286 173.835 230.722 177.37C229.159 180.905 234.723 184.991 232.746 188.343C230.768 191.694 225.343 189.536 223.044 192.704C220.745 195.872 220.147 196.469 217.526 199.361C214.905 202.254 227.55 217.542 224.653 220.159C221.756 222.776 219.733 224.888 216.56 227.183C213.388 229.479 222.354 250.736 218.951 252.71C215.549 254.684 213.664 263.361 210.077 264.968C206.49 266.575 188.604 230.948 184.879 232.188C181.155 233.427 178.626 230.168 174.764 230.994C170.901 231.82 175.085 285.582 171.177 285.995C167.269 286.409 160.233 258.495 156.325 258.495C152.417 258.495 149.244 248.348 145.428 247.935C141.611 247.522 132.783 273.599 129.012 272.819C125.242 272.038 120.46 267.126 116.781 265.932C113.103 264.739 103.171 273.14 99.6304 271.533C96.0898 269.927 105.93 239.35 102.573 237.422C99.2165 235.493 93.5608 237.33 90.3881 235.034C87.2154 232.739 70.6621 245.226 67.7653 242.61C64.8685 239.993 96.4116 203.539 93.7907 200.647C91.1697 197.755 89.3305 197.846 87.0314 194.678C84.7324 191.511 47.3037 211.803 45.3725 208.406C43.4413 205.008 60.4544 191.327 58.891 187.746C57.3276 184.165 67.0297 177.508 65.8342 173.789C64.6387 170.07 62.2017 168.417 61.374 164.561C60.5464 160.704 30.5666 161.531 30.1528 157.628C29.739 153.726 61.4201 148.354 61.4201 144.406C61.4201 140.458 16.6344 133.663 17.0023 129.806C17.3701 125.95 48.1314 125.353 48.9591 121.588C49.7867 117.823 42.3378 111.442 43.5333 107.769C44.7288 104.096 63.5811 107.402 65.1904 103.867C66.7997 100.331 58.2473 92.297 60.1785 88.9455C62.1097 85.594 45.1427 68.5151 47.4417 65.3472C49.7408 62.1793 73.4671 75.0803 76.042 72.1879C78.617 69.2955 87.3534 73.6571 90.2502 71.0861C93.147 68.5151 72.5474 35.8723 75.7201 33.5768C78.8928 31.2812 108.827 69.8924 112.183 67.9641C115.54 66.0359 108.965 47.7633 112.551 46.1564C116.138 44.5495 122.621 53.3644 126.345 52.1707C130.07 50.9771 130.208 40.4634 134.07 39.683C137.933 38.9025 141.933 45.0086 145.841 44.5954C149.75 44.1822 152.417 20.1708 156.371 20.1708C160.325 20.1708 166.257 13.6055 170.073 14.0187C173.89 14.4319 178.58 21.4563 182.35 22.2368C186.121 23.0173 193.156 18.8394 196.834 20.0331C200.513 21.2267 196.237 45.4218 199.777 47.0287C203.318 48.6356 207.916 47.4878 211.273 49.4161C214.629 51.3444 203.272 73.2439 206.444 75.5394C209.617 77.835 229.527 57.4964 232.424 60.0674C235.321 62.6385 242.448 61.7661 245.069 64.6585C247.69 67.5509 230.309 85.9612 232.608 89.1291C234.907 92.297 234.033 95.1434 235.964 98.5409C237.896 101.938 264.059 92.2511 265.668 95.8321C267.278 99.4132 256.61 107.769 257.805 111.534C259.001 115.298 245.069 121.588 245.896 125.399C246.724 129.209 250.31 130.587 250.724 134.489C251.138 138.392 273.853 140.458 273.853 144.406L273.761 144.314Z" fill="url(#paint0_linear_227_874)"/>
<defs>
<linearGradient id="paint0_linear_227_874" x1="51.1203" y1="41.8867" x2="316.782" y2="324.598" gradientUnits="userSpaceOnUse">
<stop offset="0.12" stop-color="#C3DC8F"/>
<stop offset="0.2" stop-color="#BAD58C"/>
<stop offset="0.32" stop-color="#A3C583"/>
<stop offset="0.48" stop-color="#7DAA76"/>
<stop offset="0.51" stop-color="#76A574"/>
<stop offset="0.89" stop-color="#597464"/>
</linearGradient>
</defs>
</svg>
