<svg width="300" height="300" viewBox="0 0 300 300" fill="none" xmlns="http://www.w3.org/2000/svg">
<path d="M248.421 145.574C248.421 149.533 290.411 156.253 289.997 160.119C289.583 163.986 285.904 170.199 285.122 173.974C284.34 177.748 266.128 178.761 264.932 182.443C263.736 186.125 246.213 183.455 244.604 187.046C242.994 190.636 244.098 194.548 242.166 197.908C240.234 201.268 226.989 195.561 224.689 198.737C222.39 201.913 246.811 226.124 244.19 229.023C241.568 231.923 225.425 221.797 222.528 224.42C219.63 227.044 236.417 255.72 233.244 258.021C230.07 260.322 213.927 245.778 210.524 247.711C207.121 249.644 194.105 231.509 190.518 233.12C186.931 234.731 188.77 247.389 185.045 248.585C181.32 249.782 180.998 265.063 177.134 265.892C173.271 266.72 166.694 251.761 162.785 252.175C158.876 252.59 155.518 231.969 151.563 231.969C147.608 231.969 141.537 278.412 137.674 277.997C133.811 277.583 134.087 246.376 130.315 245.547C126.544 244.719 120.565 253.648 116.84 252.452C113.115 251.255 114.08 239.288 110.539 237.723C106.998 236.158 84.37 269.758 81.0126 267.779C77.6553 265.8 76.7354 255.259 73.562 252.958C70.3886 250.657 78.1612 232.982 75.2637 230.358C72.3663 227.735 65.3295 228.517 62.708 225.617C60.0865 222.717 50.7963 223.684 48.4967 220.508C46.1972 217.332 56.6372 204.905 54.6596 201.544C52.6819 198.184 29.9163 204.076 28.3066 200.486C26.6969 196.896 57.4191 180.279 56.2233 176.551C55.0275 172.823 62.3401 168.588 61.5123 164.722C60.6845 160.856 69.9747 158.14 69.5608 154.228C69.1468 150.315 58.5229 149.533 58.5229 145.574C58.5229 141.616 9.63414 134.574 10.0021 130.707C10.37 126.841 59.9946 130.017 60.7764 126.242C61.5583 122.468 67.4911 122.284 68.6869 118.602C69.8827 114.919 36.2171 98.3954 37.7808 94.8512C39.3445 91.307 63.8578 99.408 65.7894 96.0019C67.7211 92.5958 47.071 74.3687 49.3706 71.1927C51.6702 68.0168 56.6832 65.2551 59.2587 62.3553C61.8342 59.4555 61.2363 50.9403 64.1338 48.3628C67.0312 45.7852 66.4793 34.9686 69.6067 32.6672C72.7341 30.3658 92.0505 50.2039 95.4539 48.2247C98.8572 46.2455 108.699 58.7651 112.287 57.1541C115.874 55.5432 118.22 55.4511 121.945 54.2544C125.67 53.0576 126.038 44.3123 129.901 43.5298C133.765 42.7473 137.168 46.2455 141.077 45.8312C144.986 45.417 147.608 29.3071 151.563 29.3071C155.518 29.3071 160.21 26.0851 164.073 26.4994C167.936 26.9136 168.12 49.1452 171.891 49.9737C175.663 50.8023 178.33 50.6642 182.009 51.8609C185.689 53.0576 195.255 37.9144 198.796 39.4793C202.338 41.0443 219.492 20.1935 222.85 22.1267C226.207 24.0599 204.729 65.7614 207.857 68.0628C210.984 70.3642 204.131 81.365 207.029 83.9886C209.926 86.6122 249.939 51.7228 252.56 54.6226C255.182 57.5224 251.272 68.293 253.572 71.4689C255.871 74.6448 268.703 73.4481 270.635 76.8082C272.566 80.1682 227.495 107.509 229.105 111.099C230.714 114.689 251.87 108.89 253.066 112.618C254.262 116.346 251.778 120.259 252.606 124.125C253.434 127.991 281.075 128.084 281.489 131.996C281.903 135.908 248.375 141.708 248.375 145.62L248.421 145.574Z" fill="url(#paint0_linear_227_884)"/>
<defs>
<linearGradient id="paint0_linear_227_884" x1="49.5546" y1="36.1193" x2="331.076" y2="334.985" gradientUnits="userSpaceOnUse">
<stop offset="0.12" stop-color="#C3DC8F"/>
<stop offset="0.2" stop-color="#BAD58C"/>
<stop offset="0.32" stop-color="#A3C583"/>
<stop offset="0.48" stop-color="#7DAA76"/>
<stop offset="0.51" stop-color="#76A574"/>
<stop offset="0.89" stop-color="#597464"/>
</linearGradient>
</defs>
</svg>
