<svg width="300" height="300" viewBox="0 0 300 300" fill="none" xmlns="http://www.w3.org/2000/svg">
<path d="M248.005 151.296C248.005 155.236 252.877 158.535 252.463 162.337C252.05 166.14 249.2 168.98 248.418 172.782C247.637 176.585 246.58 179.471 245.384 183.136C244.189 186.801 267.311 200.454 265.748 203.981C264.185 207.509 260.37 212.045 258.439 215.389C256.509 218.733 216.976 197.064 214.678 200.225C212.379 203.386 234.95 224.964 232.329 227.85C229.709 230.736 230.031 237.333 227.135 239.945C224.239 242.556 224.883 251.444 221.711 253.735C218.539 256.025 219.412 268.441 216.057 270.411C212.701 272.381 183.971 224.46 180.431 226.063C176.892 227.667 184.017 252.085 180.293 253.277C176.57 254.468 177.168 273.755 173.306 274.534C169.445 275.313 164.802 282.597 160.895 282.964C156.988 283.33 150.966 280.81 147.012 280.81C143.059 280.81 138.279 271.19 134.417 270.823C130.556 270.457 126.051 268.166 122.282 267.387C118.512 266.608 119.248 249.062 115.57 247.871C111.893 246.679 116.122 230.141 112.536 228.583C108.951 227.025 95.9877 247.183 92.632 245.259C89.2764 243.335 83.8061 244.709 80.6343 242.419C77.4625 240.128 71.6705 240.54 68.7745 237.929C65.8785 235.318 64.5455 230.553 61.9713 227.667C59.397 224.781 74.4746 208.654 72.1762 205.539C69.8778 202.424 44.9171 214.61 42.9865 211.22C41.0558 207.83 41.9292 202.24 40.3662 198.667C38.8033 195.094 29.6556 193.444 28.4145 189.733C27.1733 186.023 38.0218 178.418 37.1944 174.615C36.367 170.813 44.2735 166.048 43.8598 162.154C43.4461 158.26 37.6081 155.282 37.6081 151.342C37.6081 147.402 11.6361 141.034 12.0039 137.231C12.3716 133.429 48.5026 134.391 49.33 130.634C50.1574 126.878 32.4597 118.31 33.6548 114.645C34.85 110.98 24.0015 100.993 25.6104 97.4654C27.2193 93.9378 25.2427 85.7372 27.2193 82.3928C29.196 79.0484 35.9533 75.704 38.2517 72.5887C40.5501 69.4734 66.3383 84.1795 68.9585 81.2933C71.5786 78.407 50.2953 50.0944 53.1913 47.483C56.0873 44.8717 91.4369 81.6598 94.6087 79.3691C97.7805 77.0784 74.1528 33.3267 77.5545 31.3567C80.9561 29.3868 93.6433 41.2982 97.2289 39.6948C100.814 38.0913 102.653 27.6917 106.422 26.4547C110.192 25.2178 120.443 45.1466 124.304 44.3219C128.165 43.4973 132.119 46.6126 136.026 46.2003C139.933 45.7879 143.197 29.0661 147.104 29.0661C151.012 29.0661 157.493 15.597 161.355 16.0093C165.216 16.4216 165.721 45.5589 169.491 46.3835C173.26 47.2082 173.26 58.524 176.984 59.7152C180.707 60.9063 185.764 55.2255 189.349 56.7831C192.935 58.3408 202.542 47.9412 205.898 49.8653C209.253 51.7895 225.48 37.2208 228.652 39.5115C231.824 41.8022 210.954 74.8336 213.85 77.445C216.746 80.0563 229.433 72.1764 232.054 75.1085C234.674 78.0405 217.206 95.7703 219.504 98.9314C221.803 102.093 232.605 97.6486 234.536 101.039C236.467 104.429 257.198 98.1984 258.807 101.772C260.416 105.345 227.135 121.288 228.33 125.045C229.525 128.802 229.663 129.855 230.445 133.658C231.226 137.46 287.583 132.696 287.997 136.636C288.411 140.576 248.096 147.448 248.096 151.342L248.005 151.296Z" fill="url(#paint0_linear_227_873)"/>
<defs>
<linearGradient id="paint0_linear_227_873" x1="50.2494" y1="34.7927" x2="329.057" y2="332.007" gradientUnits="userSpaceOnUse">
<stop offset="0.12" stop-color="#C3DC8F"/>
<stop offset="0.2" stop-color="#BAD58C"/>
<stop offset="0.32" stop-color="#A3C583"/>
<stop offset="0.48" stop-color="#7DAA76"/>
<stop offset="0.51" stop-color="#76A574"/>
<stop offset="0.89" stop-color="#597464"/>
</linearGradient>
</defs>
</svg>
