<svg width="300" height="300" viewBox="0 0 300 300" fill="none" xmlns="http://www.w3.org/2000/svg">
<path d="M280.529 143.199C280.529 147.159 262.668 151.212 262.255 155.081C261.842 158.949 252.613 161.206 251.832 165.028C251.052 168.851 234.477 166.824 233.237 170.509C231.997 174.193 245.955 182.022 244.394 185.569C242.833 189.115 260.051 202.747 258.123 206.109C256.194 209.471 259.638 218.636 257.342 221.813C255.046 224.991 216.753 198.648 214.136 201.549C211.519 204.451 215.33 210.668 212.437 213.293C209.545 215.918 226.35 242.584 223.182 244.887C220.013 247.189 202.382 227.202 198.984 229.182C195.587 231.162 193.567 232.866 190.031 234.478C186.496 236.09 182.593 232.59 178.874 233.788C175.155 234.985 178.598 261.558 174.788 262.387C170.977 263.216 167.579 278 163.676 278.414C159.773 278.829 153.483 285 149.534 285C145.586 285 139.066 280.302 135.255 279.888C131.444 279.473 126.394 271.138 122.629 270.355C118.864 269.572 110.783 275.559 107.063 274.361C103.344 273.164 97.8346 269.203 94.2992 267.637C90.7638 266.072 90.9015 252.854 87.5498 250.92C84.198 248.985 105.319 210.991 102.197 208.688C99.0743 206.385 66.5668 241.525 63.6742 238.9C60.7816 236.274 68.3115 221.905 65.6944 219.004C63.0773 216.103 61.7917 212.05 59.4959 208.918C57.2002 205.786 30.6156 216.747 28.6413 213.339C26.667 209.931 76.668 180.134 75.061 176.542C73.454 172.95 64.7302 175.068 63.5364 171.338C62.3426 167.607 66.7964 164.982 65.9699 161.16C65.1434 157.337 40.9005 158.719 40.5332 154.804C40.1659 150.89 10 147.251 10 143.291C10 139.33 11.607 132.652 12.0202 128.83C12.4335 125.007 10.1837 117.546 10.9642 113.77C11.7448 109.993 28.5495 107.921 29.7892 104.237C31.0289 100.552 69.1839 111.651 70.7909 108.105C72.3979 104.559 63.5823 97.9731 65.5107 94.6111C67.4392 91.2492 50.4048 75.8209 52.7006 72.6892C54.9963 69.5575 52.8383 61.1756 55.4095 58.2282C57.9808 55.2807 92.4626 85.4924 95.3552 82.8673C98.2478 80.2422 63.4905 31.1021 66.6586 28.7994C69.8267 26.4967 98.202 61.7283 101.554 59.794C104.905 57.8597 98.156 37.0431 101.737 35.4312C105.319 33.8193 104.355 16.2726 108.074 15.0291C111.793 13.7857 126.394 52.7477 130.25 51.9648C134.107 51.1818 135.025 41.7407 138.928 41.3262C142.831 40.9117 145.678 50.7674 149.626 50.7674C153.575 50.7674 154.539 59.6098 158.396 59.9782C162.253 60.3467 170.426 26.5427 174.191 27.3257C177.956 28.1086 175.247 51.5963 178.966 52.7937C182.685 53.9912 196.827 27.4178 200.408 29.0297C203.989 30.6416 201.28 45.8395 204.678 47.7738C208.076 49.7081 230.298 25.4835 233.42 27.7402C236.543 29.9968 219.922 59.2414 222.814 61.8665C225.707 64.4916 238.012 58.2742 240.629 61.1756C243.246 64.0771 245.312 68.7746 247.608 71.9524C249.904 75.1301 254.312 78.2158 256.24 81.5777C258.168 84.9397 258.765 90.282 260.372 93.8743C261.979 97.4665 272.264 99.2166 273.458 102.993C274.652 106.769 245.083 118.928 245.909 122.796C246.736 126.665 289.574 124.639 289.987 128.553C290.4 132.468 280.667 139.376 280.667 143.291L280.529 143.199Z" fill="url(#paint0_linear_227_877)"/>
<defs>
<linearGradient id="paint0_linear_227_877" x1="47.4663" y1="31.4706" x2="324.441" y2="324.826" gradientUnits="userSpaceOnUse">
<stop offset="0.12" stop-color="#C3DC8F"/>
<stop offset="0.2" stop-color="#BAD58C"/>
<stop offset="0.32" stop-color="#A3C583"/>
<stop offset="0.48" stop-color="#7DAA76"/>
<stop offset="0.51" stop-color="#76A574"/>
<stop offset="0.89" stop-color="#597464"/>
</linearGradient>
</defs>
</svg>
