<svg width="300" height="300" viewBox="0 0 300 300" fill="none" xmlns="http://www.w3.org/2000/svg">
<path d="M281.654 144.579C281.654 148.532 264.412 152.899 264.045 156.715C263.679 160.53 288.762 170.459 287.982 174.228C287.203 177.998 275.326 181.767 274.134 185.444C272.941 189.122 235.569 179.101 234.01 182.64C232.451 186.18 245.29 196.017 243.364 199.373C241.438 202.728 245.611 210.359 243.364 213.531C241.117 216.703 211.724 196.201 209.11 199.097C206.496 201.993 214.338 211.876 211.449 214.45C208.56 217.024 229.791 249.753 226.627 252.052C223.463 254.35 199.434 224.839 196.041 226.815C192.648 228.792 198.288 246.627 194.711 248.236C191.135 249.845 179.992 228.47 176.277 229.665C172.563 230.861 181 278.161 177.148 278.989C173.297 279.816 162.062 234.584 158.164 234.952C154.266 235.319 152.616 276.461 148.672 276.461C144.728 276.461 140.555 258.717 136.749 258.349C132.943 257.982 128.725 257.2 124.964 256.373C121.204 255.545 118.132 251.362 114.418 250.167C110.703 248.972 97.4968 269.244 93.9659 267.635C90.435 266.026 110.566 218.495 107.218 216.565C103.871 214.634 75.165 252.557 72.0009 250.305C68.8368 248.052 82.4102 224.149 79.5213 221.529C76.6323 218.909 71.0379 219.874 68.4241 216.978C65.8104 214.082 52.9248 219.093 50.632 215.967C48.3392 212.841 58.7944 201.119 56.8226 197.718C54.8508 194.316 67.6905 184.985 66.1314 181.399C64.5723 177.814 20.2754 190.501 19.0832 186.778C17.8909 183.054 11.838 177.722 11.0125 173.861C10.1871 169.999 50.3569 158.875 49.9442 154.968C49.5315 151.061 65.5811 148.486 65.5811 144.533C65.5811 140.58 15.2772 134.374 15.6899 130.559C16.1026 126.744 59.6198 129.502 60.3994 125.732C61.1789 121.963 63.1507 120.768 64.343 117.09C65.5352 113.413 52.1911 105.782 53.7961 102.243C55.4011 98.7034 25.1362 77.5583 27.108 74.2026C29.0798 70.847 70.5794 92.5437 72.8722 89.4179C75.165 86.2921 41.0023 52.6438 43.6161 49.7478C46.2299 46.8518 76.1279 69.6058 79.0168 67.0316C81.9058 64.4575 94.0117 75.7655 97.1299 73.4671C100.248 71.1687 96.809 62.3889 100.202 60.4123C103.596 58.4357 111.666 70.847 115.243 69.2381C118.82 67.6292 113.088 47.4954 116.802 46.2542C120.516 45.0131 124.047 47.3575 127.853 46.53C131.659 45.7026 133.356 36.1873 137.254 35.7736C141.152 35.3599 144.728 29.3381 148.672 29.3381C152.616 29.3381 153.808 58.9413 157.66 59.355C161.512 59.7687 168.619 32.0502 172.379 32.8317C176.14 33.6131 174.718 51.7704 178.387 53.0115C182.055 54.2526 200.489 18.4438 204.02 20.0526C207.551 21.6615 199.251 49.0583 202.598 51.0349C205.946 53.0115 223.004 35.4978 226.168 37.7962C229.332 40.0946 221.95 57.2865 224.839 59.9067C227.728 62.5268 242.952 54.3446 245.52 57.2405C248.088 60.1365 219.749 88.0849 222.041 91.2566C224.334 94.4284 267.576 71.3066 269.548 74.6623C271.52 78.0179 250.839 94.7502 252.444 98.3357C254.049 101.921 277.527 98.5655 278.765 102.289C280.003 106.012 264.137 116.033 264.963 119.895C265.788 123.756 279.545 126.928 279.957 130.835C280.37 134.742 281.746 140.672 281.746 144.625L281.654 144.579Z" fill="url(#paint0_linear_227_882)"/>
<defs>
<linearGradient id="paint0_linear_227_882" x1="47.2387" y1="30.947" x2="325.567" y2="325.935" gradientUnits="userSpaceOnUse">
<stop offset="0.12" stop-color="#C3DC8F"/>
<stop offset="0.2" stop-color="#BAD58C"/>
<stop offset="0.32" stop-color="#A3C583"/>
<stop offset="0.48" stop-color="#7DAA76"/>
<stop offset="0.51" stop-color="#76A574"/>
<stop offset="0.89" stop-color="#597464"/>
</linearGradient>
</defs>
</svg>
