<svg width="300" height="300" viewBox="0 0 300 300" fill="none" xmlns="http://www.w3.org/2000/svg">
<path d="M258.352 149.747C258.352 153.694 280.406 159.247 279.994 163.102C279.583 166.957 243.482 165.076 242.705 168.885C241.927 172.694 251.993 177.926 250.803 181.597C249.613 185.269 232.73 181.046 231.129 184.58C229.527 188.114 260.961 207.71 258.993 211.107C257.026 214.503 249.476 215.191 247.188 218.312C244.901 221.433 241.652 224.462 239.044 227.353C236.436 230.244 231.037 230.703 228.155 233.319C225.272 235.935 214.062 227.261 210.905 229.556C207.748 231.85 217.997 254.659 214.611 256.587C211.225 258.514 199.421 244.425 195.852 246.031C192.283 247.638 192.695 259.249 188.989 260.442C185.283 261.635 174.668 232.309 170.824 233.135C166.981 233.961 168.308 257.138 164.419 257.551C160.53 257.964 157.052 254.476 153.117 254.476C149.182 254.476 142.274 290.364 138.43 289.997C134.587 289.63 138.659 236.21 134.907 235.43C131.155 234.65 123.011 255.072 119.351 253.879C115.69 252.686 111.206 253.65 107.637 252.089C104.069 250.529 111.023 230.611 107.637 228.638C104.252 226.664 83.4791 252.365 80.3221 250.07C77.165 247.775 76.0213 241.304 73.1388 238.734C70.2562 236.164 62.1577 237.036 59.5497 234.145C56.9417 231.254 70.9883 214.319 68.7006 211.152C66.4129 207.986 69.3869 202.662 67.4195 199.266C65.452 195.87 73.6878 189.399 72.0864 185.819C70.485 182.24 42.0714 189.95 40.8818 186.232C39.6922 182.515 19.8348 182.056 19.0112 178.247C18.1877 174.438 62.8897 163.194 62.5237 159.293C62.1577 155.392 40.1041 153.648 40.1041 149.747C40.1041 145.846 59.6411 143.781 60.0529 139.926C60.4647 136.071 25.0508 126.433 25.8286 122.67C26.6064 118.907 52.229 121.018 53.4186 117.301C54.6082 113.583 23.8612 96.3274 25.4168 92.7936C26.9725 89.2598 43.6271 90.9579 45.5945 87.5618C47.562 84.1657 74.191 97.1535 76.4787 94.0327C78.7665 90.912 64.0336 74.6658 66.6416 71.7745C69.2496 68.8832 84.7603 79.5763 87.6428 77.0063C90.5254 74.4363 72.8184 45.7989 75.9297 43.5042C79.041 41.2095 93.4995 54.335 96.8853 52.4075C100.271 50.48 113.677 70.9484 117.246 69.3421C120.815 67.7359 120.861 63.376 124.567 62.1828C128.273 60.9895 126.122 42.1733 129.966 41.3472C133.809 40.5211 139.986 64.0185 143.875 63.6055C147.764 63.1924 149 58.1901 152.934 58.1901C156.869 58.1901 163.961 9.63493 167.759 10.0021C171.556 10.3692 166.706 67.2769 170.504 68.0571C174.302 68.8373 184.825 39.5115 188.486 40.7047C192.146 41.8979 187.433 63.0089 190.956 64.5692C194.479 66.1296 192.786 73.1054 196.126 75.0329C199.467 76.9604 198.872 79.9435 202.029 82.2382C205.186 84.5328 237.214 50.2964 240.096 52.9123C242.979 55.5282 224.86 79.7599 227.423 82.6512C229.985 85.5425 233.737 86.185 236.024 89.3516C238.312 92.5182 233.188 98.8974 235.155 102.248C237.122 105.598 265.993 95.0424 267.549 98.6221C269.105 102.202 245.267 115.557 246.456 119.274C247.646 122.991 263.157 122.211 263.934 126.066C264.712 129.921 277.203 132.675 277.615 136.576C278.027 140.477 258.352 145.755 258.352 149.701V149.747Z" fill="url(#paint0_linear_227_889)"/>
<defs>
<linearGradient id="paint0_linear_227_889" x1="58.4515" y1="46.1201" x2="313.71" y2="316.439" gradientUnits="userSpaceOnUse">
<stop offset="0.12" stop-color="#C3DC8F"/>
<stop offset="0.2" stop-color="#BAD58C"/>
<stop offset="0.32" stop-color="#A3C583"/>
<stop offset="0.48" stop-color="#7DAA76"/>
<stop offset="0.51" stop-color="#76A574"/>
<stop offset="0.89" stop-color="#597464"/>
</linearGradient>
</defs>
</svg>
