<svg width="300" height="300" viewBox="0 0 300 300" fill="none" xmlns="http://www.w3.org/2000/svg">
<path d="M264.637 144.992C264.637 148.94 267.891 153.438 267.525 157.247C267.158 161.057 252.399 162.664 251.62 166.427C250.84 170.191 233.286 167.712 232.094 171.384C230.902 175.056 268.716 193.278 267.158 196.812C265.599 200.347 272.429 210.766 270.458 214.116C268.487 217.467 259.595 219.257 257.349 222.424C255.103 225.591 236.586 216.962 233.973 219.854C231.36 222.745 241.628 240.003 238.74 242.619C235.852 245.236 211.147 221.322 207.984 223.617C204.822 225.912 198.542 219.716 195.151 221.69C191.759 223.663 191.346 226.234 187.771 227.84C184.196 229.446 196.159 271.673 192.446 272.913C188.734 274.152 179.612 261.163 175.762 261.989C171.912 262.815 168.429 274.198 164.533 274.611C160.637 275.024 154.907 243.078 150.965 243.078C147.024 243.078 145.603 232.751 141.752 232.338C137.902 231.925 125.893 281.771 122.135 280.991C118.376 280.211 113.105 274.244 109.439 273.05C105.772 271.857 116.314 232.568 112.785 230.961C109.255 229.355 101.28 239.039 97.934 237.066C94.588 235.092 89.5461 236.377 86.3835 234.082C83.2208 231.787 98.6214 209.113 95.7338 206.543C92.8462 203.973 77.7206 216.365 75.1079 213.474C72.4953 210.582 64.8409 212.556 62.5491 209.389C60.2574 206.222 31.2894 218.798 29.3643 215.401C27.4393 212.005 42.1524 197.868 40.5482 194.288C38.9439 190.708 17.2639 192.636 16.0721 188.918C14.8804 185.2 28.8602 175.01 28.0352 171.201C27.2101 167.391 60.6699 158.533 60.2574 154.631C59.8448 150.73 28.631 148.986 28.631 145.038C28.631 141.091 49.4402 138.199 49.8069 134.39C50.1736 130.58 53.6571 128.285 54.4363 124.476C55.2155 120.666 56.4072 118.325 57.5989 114.653C58.7906 110.981 55.628 106.759 57.2322 103.224C58.8364 99.6903 73.2746 104.601 75.1996 101.251C77.1247 97.9002 46.9651 74.1705 49.2568 71.0035C51.5486 67.8364 51.5945 60.6303 54.2071 57.7387C56.8197 54.847 64.7033 54.847 67.591 52.2308C70.4786 49.6146 75.8872 48.0999 79.004 45.805C82.1208 43.51 100.547 65.2661 103.892 63.2924C107.238 61.3188 107.514 56.8207 111.089 55.2601C114.664 53.6996 113.61 42.4543 117.322 41.261C121.035 40.0676 124.839 40.5725 128.644 39.7922C132.448 39.0119 138.544 64.5776 142.486 64.1645C146.428 63.7514 147.069 19 151.011 19C154.953 19 159.674 25.3799 163.524 25.793C167.374 26.2061 168.979 41.9954 172.737 42.8215C176.496 43.6477 180.712 41.0315 184.425 42.2248C188.138 43.4182 200.33 24.7374 203.859 26.3438C207.389 27.9503 201.843 49.2474 205.189 51.1751C208.535 53.1029 208.764 58.8861 211.926 61.1811C215.089 63.476 225.585 56.3617 228.473 58.9779C231.36 61.5942 241.49 58.2895 244.057 61.227C246.624 64.1645 246.028 71.1412 248.32 74.3082C250.611 77.4752 224.577 98.1297 226.502 101.48C228.427 104.831 265.233 89.8679 266.837 93.448C268.441 97.0281 239.29 112.267 240.482 115.984C241.673 119.702 283.154 113.001 283.979 116.811C284.804 120.62 260.603 129.616 261.016 133.518C261.428 137.419 264.683 141.183 264.683 145.13L264.637 144.992Z" fill="url(#paint0_linear_227_878)"/>
<defs>
<linearGradient id="paint0_linear_227_878" x1="50.3569" y1="46.4934" x2="317.97" y2="330.375" gradientUnits="userSpaceOnUse">
<stop offset="0.12" stop-color="#C3DC8F"/>
<stop offset="0.2" stop-color="#BAD58C"/>
<stop offset="0.32" stop-color="#A3C583"/>
<stop offset="0.48" stop-color="#7DAA76"/>
<stop offset="0.51" stop-color="#76A574"/>
<stop offset="0.89" stop-color="#597464"/>
</linearGradient>
</defs>
</svg>
