<svg width="300" height="300" viewBox="0 0 300 300" fill="none" xmlns="http://www.w3.org/2000/svg">
<path d="M242.705 152.084C242.705 156.052 234.484 157.39 234.117 161.219C233.75 165.048 276.368 175.52 275.587 179.35C274.806 183.179 277.24 190.237 276.046 193.928C274.852 197.619 236.735 187.562 235.127 191.114C233.52 194.666 232.004 196.373 230.075 199.741C228.147 203.109 250.42 222.116 248.17 225.3C245.92 228.483 254.37 243.154 251.752 246.06C249.134 248.967 206.745 211.921 203.852 214.55C200.959 217.18 228.514 256.856 225.345 259.162C222.176 261.469 199.168 233.512 195.769 235.449C192.371 237.387 203.623 268.159 200.04 269.773C196.458 271.388 194.897 284.767 191.177 285.966C187.457 287.166 173.863 255.794 170.005 256.625C166.148 257.455 161.969 248.967 158.065 249.382C154.161 249.797 151.819 249.29 147.87 249.29C143.92 249.29 138.96 274.248 135.148 273.879C131.337 273.51 131.796 246.66 128.03 245.829C124.264 244.999 112.002 275.632 108.282 274.433C104.562 273.233 107.915 251.781 104.333 250.212C100.751 248.644 107.364 230.328 104.011 228.344C100.659 226.361 98.8216 226.499 95.6528 224.192C92.4839 221.886 76.7316 237.156 73.8384 234.573C70.9451 231.989 66.674 230.697 64.0563 227.791C61.4386 224.884 76.2266 209.106 73.9303 205.923C71.634 202.74 46.2374 215.473 44.2626 212.059C42.2878 208.645 69.0163 191.529 67.4549 187.931C65.8934 184.332 54.1825 186.685 52.9425 182.948C51.7025 179.211 62.0356 174.367 61.209 170.492C60.3823 166.616 10.4159 170.399 10.0026 166.478C9.58924 162.557 59.2802 155.913 59.2802 151.946C59.2802 147.978 48.993 145.395 49.3604 141.519C49.7278 137.644 42.242 133.353 43.0227 129.524C43.8034 125.695 60.9335 127.633 62.1735 123.942C63.4135 120.251 19.6009 98.7987 21.1623 95.2464C22.7238 91.694 51.1974 100.367 53.1263 96.9995C55.0551 93.6317 55.055 89.0643 57.3513 85.8811C59.6475 82.6978 62.7704 80.2527 65.3882 77.3462C68.0059 74.4397 65.3882 65.8126 68.3274 63.1829C71.2666 60.5532 75.8591 59.0308 79.0279 56.7241C82.1967 54.4173 99.7401 75.916 103.093 73.9784C106.445 72.0407 94.7343 41.7303 98.3165 40.1156C101.899 38.5009 103.506 27.3825 107.226 26.183C110.946 24.9835 118.569 32.2728 122.427 31.4423C126.285 30.6119 133.587 52.9872 137.491 52.5719C141.394 52.1567 143.966 42.653 147.915 42.653C151.865 42.653 158.478 13.6344 162.336 14.0035C166.194 14.3726 167.25 42.0071 171.016 42.8376C174.782 43.668 182.727 31.673 186.447 32.9186C190.167 34.1643 190.488 46.3899 194.024 48.0046C197.561 49.6193 191.682 68.0731 195.035 70.0108C198.387 71.9484 220.064 45.6056 223.233 47.9124C226.401 50.2191 209.271 77.6691 212.165 80.2988C215.058 82.9285 222.406 79.33 225.024 82.2364C227.641 85.1429 222.636 92.6167 224.932 95.7539C227.228 98.891 219.742 105.765 221.671 109.179C223.6 112.593 249.731 102.074 251.339 105.673C252.946 109.271 262.774 110.286 263.968 114.023C265.162 117.76 275.725 120.574 276.552 124.45C277.378 128.325 288.584 133.123 288.997 137.044C289.411 140.966 242.843 147.932 242.843 151.9L242.705 152.084Z" fill="url(#paint0_linear_227_890)"/>
<defs>
<linearGradient id="paint0_linear_227_890" x1="55.9735" y1="47.2665" x2="329.762" y2="336.763" gradientUnits="userSpaceOnUse">
<stop offset="0.12" stop-color="#C3DC8F"/>
<stop offset="0.2" stop-color="#BAD58C"/>
<stop offset="0.32" stop-color="#A3C583"/>
<stop offset="0.48" stop-color="#7DAA76"/>
<stop offset="0.51" stop-color="#76A574"/>
<stop offset="0.89" stop-color="#597464"/>
</linearGradient>
</defs>
</svg>
