<svg width="300" height="300" viewBox="0 0 300 300" fill="none" xmlns="http://www.w3.org/2000/svg">
<path d="M274.4 144.425C274.4 148.371 278.862 154.015 278.448 157.87C278.034 161.724 232.179 157.87 231.351 161.678C230.523 165.487 269.985 179.206 268.789 182.877C267.593 186.548 225.97 173.838 224.36 177.371C222.751 180.904 260.373 203.434 258.441 206.783C256.509 210.133 258.027 217.796 255.727 220.916C253.428 224.036 241.148 220.87 238.526 223.761C235.905 226.651 223.67 219.998 220.773 222.613C217.875 225.229 209.643 219.402 206.469 221.696C203.296 223.99 214.932 248.447 211.574 250.42C208.217 252.393 210.93 270.747 207.343 272.353C203.756 273.959 185.22 239.178 181.495 240.371C177.77 241.564 175.654 244.73 171.791 245.51C167.927 246.29 168.203 277.584 164.294 277.997C160.384 278.41 154.175 239.224 150.266 239.224C146.357 239.224 145.621 224.816 141.803 224.449C137.986 224.082 135.364 232.846 131.593 232.066C127.822 231.286 128.833 222.797 125.154 221.604C121.475 220.411 112.414 238.857 108.873 237.297C105.331 235.737 106.159 228.533 102.802 226.56C99.4441 224.587 77.0456 251.659 73.8721 249.364C70.6987 247.07 72.9524 235.966 70.0548 233.351C67.1573 230.735 91.4414 202.516 88.8198 199.625C86.1982 196.734 83.6226 197.514 81.3229 194.394C79.0233 191.274 36.1582 214.721 34.1805 211.326C32.2028 207.93 40.7574 197.377 39.1937 193.798C37.6299 190.219 71.0666 174.251 69.8248 170.534C68.583 166.817 34.7784 172.966 33.9505 169.111C33.1226 165.257 18.267 162.229 17.8531 158.328C17.4391 154.428 18.9109 148.417 18.9109 144.471C18.9109 140.525 36.3421 136.395 36.7561 132.587C37.17 128.778 22.6363 121.391 23.4642 117.628C24.2921 113.866 15.9214 105.01 17.1172 101.339C18.313 97.6684 24.0621 92.6669 25.6258 89.1338C27.1896 85.6006 50.048 91.2445 51.9796 87.8949C53.9113 84.5453 48.2083 75.3224 50.5079 72.2022C52.8076 69.082 73.4582 80.7827 76.0338 77.8919C78.6094 75.0012 65.3175 56.28 68.2151 53.6646C71.1126 51.0491 82.1968 57.7484 85.3703 55.4541C88.5438 53.1599 99.4442 64.5394 102.848 62.5663C106.251 60.5932 103.124 48.4796 106.665 46.8736C110.206 45.2676 110.758 35.9988 114.484 34.8058C118.209 33.6128 124.28 41.7345 128.144 40.9085C132.007 40.0826 133.939 27.2348 137.848 26.8218C141.757 26.4089 146.311 54.2152 150.266 54.2152C154.221 54.2152 159.327 21.5909 163.19 22.0039C167.053 22.4169 169.537 35.7694 173.308 36.5953C177.08 37.4213 179.241 43.1569 182.921 44.3499C186.6 45.5429 179.517 69.4491 183.105 71.0092C186.692 72.5692 204.124 43.7993 207.481 45.7265C210.839 47.6536 228.132 31.0432 231.305 33.3375C234.479 35.6318 234.249 45.7265 237.146 48.3419C240.044 50.9574 250.254 49.5349 252.876 52.4257C255.497 55.3165 256.417 62.8416 258.717 65.9618C261.016 69.082 263.914 74.5882 265.846 77.9837C267.777 81.3792 265.846 88.9502 267.455 92.5293C269.065 96.1083 259.591 105.056 260.787 108.773C261.982 112.489 281.161 112.856 281.989 116.665C282.817 120.473 236.042 131.577 236.456 135.524C236.87 139.47 274.4 140.663 274.4 144.609V144.425Z" fill="url(#paint0_linear_227_880)"/>
<defs>
<linearGradient id="paint0_linear_227_880" x1="59.4305" y1="42.6981" x2="322.222" y2="322.477" gradientUnits="userSpaceOnUse">
<stop offset="0.12" stop-color="#C3DC8F"/>
<stop offset="0.2" stop-color="#BAD58C"/>
<stop offset="0.32" stop-color="#A3C583"/>
<stop offset="0.48" stop-color="#7DAA76"/>
<stop offset="0.51" stop-color="#76A574"/>
<stop offset="0.89" stop-color="#597464"/>
</linearGradient>
</defs>
</svg>
