<svg width="300" height="300" viewBox="0 0 300 300" fill="none" xmlns="http://www.w3.org/2000/svg">
<path d="M277.231 143.311C277.231 147.273 241.475 148.978 241.108 152.848C240.742 156.718 267.846 164.274 267.021 168.098C266.197 171.923 254.935 173.166 253.744 176.852C252.554 180.538 251.867 184.178 250.311 187.726C248.754 191.273 262.809 203.667 260.841 207.03C258.872 210.394 241.246 204.312 238.956 207.491C236.667 210.67 229.525 209.058 226.915 211.96C224.306 214.863 233.463 229.422 230.578 232.048C227.694 234.674 207.595 214.817 204.436 217.12C201.277 219.424 207.091 232.97 203.703 234.905C200.315 236.84 206.817 259.416 203.246 261.028C199.675 262.641 182.185 226.704 178.477 227.948C174.769 229.192 179.118 256.836 175.318 257.665C171.518 258.494 166.665 253.703 162.728 254.117C158.79 254.532 155.082 286 151.145 286C147.207 286 144.094 247.575 140.294 247.206C136.494 246.838 129.947 262.503 126.147 261.719C122.347 260.936 114.243 270.197 110.581 268.953C106.918 267.709 119.92 223.479 116.395 221.866C112.87 220.253 101.424 237.807 98.0819 235.826C94.7397 233.845 94.3277 228.685 91.1686 226.381C88.0096 224.077 84.1181 224.077 81.2337 221.451C78.3494 218.825 48.4988 241.585 45.8892 238.683C43.2796 235.78 62.2337 213.158 59.9446 209.979C57.6554 206.8 50.1928 206.477 48.2241 203.114C46.2554 199.751 54.0844 191.089 52.482 187.495C50.8796 183.902 33.482 185.883 32.2916 182.151C31.1012 178.419 13.7952 176.668 13.0169 172.798C12.2386 168.928 38.6097 159.16 38.2434 155.198C37.8772 151.236 44.0579 147.227 44.0579 143.265C44.0579 139.303 20.4795 133.359 20.8916 129.489C21.3036 125.619 41.1735 123.684 41.9518 119.86C42.7302 116.036 46.3013 112.995 47.4916 109.309C48.682 105.623 61.7759 107.42 63.3325 103.872C64.8892 100.325 54.4506 91.5246 56.4193 88.1613C58.388 84.7979 71.3903 89.7278 73.6795 86.5487C75.9686 83.3696 49.5976 56.3707 52.1614 53.4681C54.7253 50.5655 53.3976 39.7843 56.3277 37.1581C59.2578 34.5319 85.4915 58.8126 88.6506 56.5089C91.8096 54.2052 84.3012 34.4398 87.6892 32.4587C91.0771 30.4775 90.1156 14.6744 93.6409 13.1079C97.1662 11.5414 109.757 27.5749 113.465 26.3309C117.173 25.0869 128.848 56.3707 132.648 55.5414C136.448 54.7121 134.022 16.4712 137.913 16.0566C141.805 15.6419 147.253 33.7026 151.19 33.7026C155.128 33.7026 158.287 38.356 162.087 38.7707C165.887 39.1854 168.222 43.8388 172.022 44.622C175.822 45.4052 178.111 47.2021 181.773 48.4C185.436 49.5979 198.118 27.5288 201.643 29.1414C205.169 30.7539 195.325 58.444 198.667 60.3791C202.01 62.3141 202.65 65.2168 205.764 67.5204C208.877 69.8241 203.795 78.5319 206.679 81.112C209.564 83.6922 220.781 74.8461 223.344 77.7487C225.908 80.6513 234.058 77.7487 236.347 80.8817C238.636 84.0147 262.809 73.7403 264.778 77.1497C266.747 80.5592 227.419 104.748 229.021 108.295C230.624 111.843 240.009 109.954 241.246 113.686C242.482 117.418 285.151 110.461 285.976 114.331C286.8 118.201 266.472 127.001 266.838 130.917C267.205 134.834 277.231 139.21 277.231 143.127V143.311Z" fill="url(#paint0_linear_227_879)"/>
<defs>
<linearGradient id="paint0_linear_227_879" x1="41.5855" y1="36.3288" x2="311.488" y2="321.248" gradientUnits="userSpaceOnUse">
<stop offset="0.12" stop-color="#C3DC8F"/>
<stop offset="0.2" stop-color="#BAD58C"/>
<stop offset="0.32" stop-color="#A3C583"/>
<stop offset="0.48" stop-color="#7DAA76"/>
<stop offset="0.51" stop-color="#76A574"/>
<stop offset="0.89" stop-color="#597464"/>
</linearGradient>
</defs>
</svg>
