<svg width="300" height="300" viewBox="0 0 300 300" fill="none" xmlns="http://www.w3.org/2000/svg">
<path d="M273.578 145.601C273.578 149.553 285.404 156.17 284.989 159.984C284.575 163.798 235.019 160.214 234.191 163.982C233.363 167.75 236.17 170.231 234.973 173.907C233.777 177.583 274.176 197.618 272.612 201.156C271.047 204.695 254.253 202.581 252.32 205.935C250.388 209.29 219.421 192.839 217.121 195.964C214.82 199.089 212.289 198.491 209.713 201.386C207.136 204.281 229.866 230.933 226.967 233.552C224.069 236.171 223.792 243.615 220.663 245.913C217.535 248.21 207.182 240.72 203.777 242.696C200.372 244.672 203.915 262.226 200.372 263.834C196.829 265.442 187.856 256.436 184.083 257.63C180.31 258.825 174.651 253.633 170.832 254.46C167.013 255.287 162.135 245.545 158.224 245.959C154.313 246.372 151.598 275 147.641 275C143.684 275 142.212 233.736 138.393 233.322C134.574 232.909 130.57 244.351 126.797 243.569C123.024 242.788 117.043 252.254 113.362 251.059C109.681 249.865 104.067 252.943 100.524 251.335C96.9811 249.727 97.3032 240.537 93.8983 238.561C90.4933 236.585 85.8 237.182 82.6712 234.885C79.5423 232.587 93.5302 211.404 90.6314 208.784C87.7326 206.165 61.4133 228.314 58.8366 225.419C56.2598 222.524 41.0756 227.716 38.7749 224.546C36.4743 221.375 58.3304 201.524 56.3518 198.17C54.3733 194.815 30.9068 201.754 29.3424 198.17C27.7779 194.585 71.7201 174.321 70.4778 170.599C69.2354 166.877 35.7381 173.31 34.9099 169.496C34.0816 165.682 48.9438 159.892 48.5757 155.986C48.2076 152.081 18.0692 149.507 18.0692 145.555C18.0692 141.604 25.6153 136.641 25.9834 132.781C26.3515 128.921 64.082 131.724 64.8642 127.91C65.6464 124.096 12.8237 105.854 14.02 102.132C15.2164 98.4095 30.0786 97.4445 31.6891 93.9063C33.2995 90.3681 73.5607 107.278 75.5392 103.924C77.5178 100.569 34.7718 68.3115 37.0264 65.1868C39.281 62.0621 82.9933 92.5737 85.57 89.6788C88.1467 86.7839 88.6528 85.8649 91.5976 83.2916C94.5425 80.7183 96.337 81.5454 99.5118 79.2479C102.687 76.9503 95.3246 62.7054 98.7296 60.7755C102.135 58.8455 94.6345 36.0997 98.2235 34.5374C101.812 32.975 118.607 68.7251 122.334 67.4844C126.061 66.2437 118.055 24.8417 121.874 24.0145C125.693 23.1874 134.528 57.9265 138.439 57.5589C142.35 57.1913 143.776 34.859 147.733 34.859C151.69 34.859 153.117 57.8806 156.936 58.2482C160.755 58.6158 161.077 64.2678 164.896 65.049C168.715 65.8301 180.954 30.9532 184.635 32.1479C188.317 33.3426 181.507 60.2241 185.096 61.7864C188.685 63.3488 213.163 24.7498 216.522 26.6797C219.881 28.6097 224.943 32.9291 228.072 35.2266C231.2 37.5242 208.24 72.6769 211.139 75.2961C214.038 77.9153 229.268 67.0708 231.891 69.9657C234.513 72.8607 259.13 59.9484 261.431 63.119C263.731 66.2896 248.133 83.1997 250.112 86.6001C252.09 90.0005 258.302 92.1602 259.912 95.7444C261.523 99.3286 267.321 102.729 268.517 106.451C269.713 110.173 237.964 122.442 238.747 126.302C239.529 130.162 249.145 131.035 249.514 134.941C249.882 138.847 273.624 141.696 273.624 145.647L273.578 145.601Z" fill="url(#paint0_linear_227_885)"/>
<defs>
<linearGradient id="paint0_linear_227_885" x1="50.3701" y1="38.0756" x2="315.717" y2="320.341" gradientUnits="userSpaceOnUse">
<stop offset="0.12" stop-color="#C3DC8F"/>
<stop offset="0.2" stop-color="#BAD58C"/>
<stop offset="0.32" stop-color="#A3C583"/>
<stop offset="0.48" stop-color="#7DAA76"/>
<stop offset="0.51" stop-color="#76A574"/>
<stop offset="0.89" stop-color="#597464"/>
</linearGradient>
</defs>
</svg>
