<svg xmlns="http://www.w3.org/2000/svg" width="99" height="53" viewBox="0 0 99 53" fill="none">
  <g clip-path="url(#clip0_399_1176)">
    <path d="M17.6121 23.0293C19.2442 18.2217 20.8207 13.5839 22.4149 8.88529C23.0288 9.09563 23.5569 9.2781 24.1759 9.49099C24.0091 10.0207 23.8626 10.5174 23.6984 11.004C21.9804 16.0701 20.2497 21.1336 18.5544 26.2073C18.3271 26.8865 17.8445 26.6229 17.4352 26.6913C16.9729 26.7699 16.7253 26.5925 16.5686 26.1186C15.1942 21.9851 13.7946 17.8618 12.4025 13.736C12.3368 13.5408 12.2585 13.3533 12.117 12.9757C11.8542 13.7309 11.6395 14.3239 11.4424 14.9195C10.212 18.6297 8.96647 22.3374 7.77144 26.0603C7.56427 26.704 7.18783 26.742 6.64716 26.7623C6.10144 26.7851 5.83364 26.6254 5.6492 26.0806C3.81245 20.6749 1.95044 15.2768 0.0960061 9.87367C0.0631619 9.77483 0.0480031 9.66839 0 9.46818C0.593722 9.26036 1.18997 9.05255 1.83422 8.82446C3.44359 13.5053 5.03022 18.1178 6.61684 22.7277C6.66485 22.7277 6.71538 22.7277 6.76338 22.7277C7.10951 21.7038 7.46321 20.685 7.80176 19.6586C8.8932 16.3691 9.99474 13.0821 11.0559 9.7799C11.2302 9.23756 11.5207 9.11591 12.021 9.14885C12.5136 9.17927 12.9305 9.08803 13.1579 9.79003C14.4969 13.9108 15.9042 18.0113 17.2912 22.1169C17.3721 22.3526 17.458 22.5883 17.6121 23.0242V23.0293Z" fill="#2E3A2C"/>
    <path d="M47.0581 38.0628C47.0581 37.1809 47.0758 36.4738 47.0506 35.7667C47.0354 35.3359 47.1769 35.1813 47.6241 35.1762C49.0743 35.161 49.0743 35.1433 49.0743 36.5802C49.0743 38.8358 49.0844 41.0913 49.0743 43.3468C49.0616 46.1498 49.0187 48.9502 49.0187 51.7531C49.0187 52.2853 48.8469 52.4425 48.3315 52.4273C46.8889 52.3842 47.1415 52.5667 47.1188 51.2235C47.1087 50.742 47.1188 50.2604 47.1188 49.5711C44.2335 52.6756 40.891 53.7324 36.9674 52.4856C34.8426 51.8114 33.2307 50.4328 32.0837 48.5219C29.7973 44.7128 30.6386 39.8546 34.0013 36.8945C37.0407 34.2208 42.844 33.4428 47.0607 38.0653L47.0581 38.0628ZM47.0506 43.8106C47.235 40.4957 44.3877 36.6816 39.9992 36.6639C35.9543 36.6487 32.7684 39.8292 32.7734 43.7827C32.776 47.8275 35.9644 51.0993 39.9335 51.0385C44.2639 50.9726 47.1718 47.3891 47.0506 43.8106Z" fill="#2E3A2C"/>
    <path d="M42.5206 26.4252V23.5944C40.1028 26.2453 37.2479 27.4339 33.8094 26.8763C31.5254 26.5063 29.628 25.376 28.1879 23.5488C25.2699 19.8411 25.6817 14.4709 29.0166 11.2574C32.4046 7.99572 38.4707 7.59023 42.4499 12.0861C42.4499 11.2878 42.4853 10.6314 42.4398 9.98262C42.3994 9.4124 42.5712 9.16657 43.1674 9.23247C43.559 9.27555 43.9582 9.24007 44.413 9.24007C44.4332 9.50364 44.461 9.70385 44.461 9.90406C44.4509 15.1957 44.4307 20.4899 44.4307 25.7815C44.4307 26.2605 44.322 26.4886 43.8016 26.4354C43.4125 26.3948 43.0133 26.4277 42.5206 26.4277V26.4252ZM42.4448 17.7807C42.6394 14.3214 39.5798 10.6796 35.4263 10.6973C31.2955 10.715 28.1273 13.8626 28.1753 17.9708C28.2233 21.9775 31.5355 25.0896 35.4516 25.0364C39.2185 24.9857 42.6116 21.7672 42.4448 17.7807Z" fill="#2E3A2C"/>
    <path d="M98.9064 18.0747C98.6588 18.0747 98.391 18.0747 98.1232 18.0747C93.4139 18.0747 88.702 18.0747 83.9926 18.0747C83.4503 18.0747 83.2229 18.3374 83.3105 18.8629C83.8512 22.1119 85.9608 24.413 89.1795 24.9604C91.7691 25.4014 94.0303 24.5904 95.7938 22.5655C95.8772 22.4692 95.953 22.3704 96.0338 22.2715C96.0995 22.1904 96.1652 22.1093 96.2738 21.975C96.7994 22.3298 97.3122 22.6745 97.863 23.047C97.0015 24.4282 95.8494 25.4191 94.4447 26.0831C89.0102 28.6529 82.9669 25.8424 81.5344 19.9906C80.2787 14.8587 83.6263 9.87114 88.6464 8.94358C93.045 8.13261 97.0267 10.3679 98.535 14.3923C98.957 15.515 99.1212 17.028 98.9064 18.0722V18.0747ZM96.9055 16.1486C96.7059 13.7208 94.3512 10.8012 90.4832 10.7252C86.6833 10.6517 83.9472 13.5484 83.5126 16.1486H96.908H96.9055Z" fill="#2E3A2C"/>
    <path d="M55.4199 52.5768H53.5352V51.8672C53.5352 46.5552 53.5352 41.2408 53.5352 35.9289C53.5352 35.373 53.8072 35.0943 54.3512 35.0926C54.5205 35.0926 54.6898 35.1078 54.8565 35.0926C55.3037 35.0469 55.4578 35.2497 55.425 35.6831C55.3972 36.0581 55.4199 36.4357 55.4199 36.9603C55.6574 36.7804 55.8014 36.6892 55.9277 36.5751C60.243 32.7331 66.923 34.938 68.0902 40.6047C68.2241 41.256 68.1938 41.9453 68.1938 42.6169C68.2039 45.6961 68.1811 48.7728 68.2115 51.8519C68.2165 52.4576 68.0548 52.6984 67.4434 52.6224C67.115 52.5818 66.7764 52.6148 66.3671 52.6148C66.3495 52.3335 66.3191 52.0902 66.3191 51.8494C66.3166 48.75 66.3166 45.6505 66.3191 42.551C66.3191 40.962 65.9553 39.4997 64.8184 38.3187C63.4036 36.8488 61.678 36.304 59.7048 36.7475C57.7241 37.191 56.3875 38.4379 55.7938 40.3842C55.5589 41.1572 55.4502 41.9935 55.4401 42.8045C55.3997 45.7975 55.425 48.793 55.425 51.7861C55.425 52.0344 55.425 52.2802 55.425 52.5793L55.4199 52.5768Z" fill="#2E3A2C"/>
    <path d="M66.322 11.0749C66.322 11.4018 66.322 11.6705 66.322 11.9391C66.322 16.5566 66.322 21.1741 66.322 25.7916C66.322 26.3576 66.0349 26.6406 65.4605 26.6406C65.1472 26.6406 64.8339 26.6406 64.4524 26.6406V11.118H60.5137V9.18178H64.4146C64.4146 8.26436 64.3943 7.42804 64.4196 6.59425C64.4524 5.54505 64.3817 4.46543 64.6091 3.45425C65.0083 1.6853 66.226 0.560064 67.9769 0.144438C69.8743 -0.304135 71.4988 0.306633 72.8176 1.72078C73.1132 2.03503 73.3381 2.41518 73.6438 2.82574C73.1082 3.10704 72.661 3.38075 72.1784 3.57589C72.0521 3.62658 71.7666 3.48466 71.6554 3.3478C70.9556 2.47854 70.1017 1.9514 68.9572 1.96407C67.7369 1.97674 66.5747 2.8156 66.4585 4.0346C66.3069 5.62361 66.3524 7.23036 66.3524 8.83205C66.3524 8.94356 66.6909 9.14884 66.8753 9.15137C68.3255 9.17925 69.7757 9.16658 71.2285 9.16658C71.4558 9.16658 71.6832 9.16658 71.9662 9.16658V11.0749H66.322Z" fill="#2E3A2C"/>
    <path d="M59.0064 3.74827C58.4404 2.8055 57.6977 2.20234 56.6997 2.0072C55.0903 1.69041 53.6502 2.68639 53.5214 4.34129C53.4001 5.9075 53.4961 7.48891 53.4961 9.14381H59.0569V11.0724H53.438V26.6381C52.8696 26.6381 52.3693 26.666 51.8767 26.6204C51.7529 26.6077 51.5634 26.372 51.5533 26.2251C51.5129 25.7004 51.5356 25.1708 51.5356 24.6436C51.5356 20.4037 51.5356 16.1664 51.5356 11.9265C51.5356 11.6781 51.5356 11.4272 51.5356 11.1104H47.5438C47.5438 10.5123 47.5185 9.97506 47.5665 9.44539C47.5766 9.33895 47.8596 9.18436 48.0213 9.17929C48.946 9.15395 49.8706 9.16915 50.7979 9.16408C51.0227 9.16408 51.2501 9.14381 51.5356 9.1286C51.5356 7.6435 51.5432 6.21161 51.5356 4.78226C51.523 2.52926 52.9605 0.628532 55.0651 0.134342C57.2101 -0.369986 59.6734 0.760316 60.6107 2.68132C60.6284 2.7168 60.6233 2.76242 60.641 2.8866C60.1332 3.15524 59.6026 3.43655 59.0089 3.74827H59.0064Z" fill="#2E3A2C"/>
    <path d="M18.0482 48.6232C19.5792 51.3679 22.9091 51.3653 24.7484 50.4352C26.7469 49.424 26.8833 46.7199 24.9227 45.6378C23.7479 44.989 22.371 44.7229 21.1052 44.2262C20.2513 43.8917 19.3771 43.5445 18.6116 43.0503C15.9234 41.3117 16.4237 37.6649 18.3842 36.0252C20.7591 34.0408 25.1501 34.4514 27.0778 36.8488C27.2446 37.0566 27.3734 37.2948 27.5578 37.5736C26.9869 37.8701 26.474 38.1388 25.9333 38.4226C24.6322 36.6613 22.8611 36.4256 20.9082 36.8767C19.4175 37.2188 18.508 38.4581 18.7783 39.9001C18.8769 40.4298 19.2104 41.0659 19.6373 41.3497C20.4079 41.8591 21.3225 42.1633 22.1941 42.5105C23.4751 43.0199 24.8368 43.3696 26.0495 44.0057C27.6134 44.8268 28.3208 46.3094 28.2577 48.0505C28.1844 50.0754 27.1915 51.5807 25.2891 52.3461C22.7727 53.3573 20.3271 53.2559 18.0659 51.6213C17.313 51.0764 16.7066 50.382 16.3125 49.4519C16.9012 49.1706 17.462 48.9045 18.0482 48.6232Z" fill="#2E3A2C"/>
    <path d="M82.9574 37.5635C82.3586 37.8752 81.8432 38.1439 81.3026 38.4252C80.0014 36.6486 78.2279 36.4281 76.2799 36.8793C75.1759 37.1352 74.4078 37.8169 74.1476 38.965C73.9152 39.9939 74.1981 40.9012 75.1001 41.441C75.8454 41.887 76.6892 42.1734 77.5053 42.4902C78.7736 42.9793 80.1328 43.2885 81.3177 43.9272C84.5466 45.6682 84.2459 50.4403 81.2798 52.0547C78.5234 53.555 74.4306 53.3168 72.2729 50.4631C72.0506 50.1666 71.8763 49.8346 71.6641 49.49C71.8434 49.3861 71.9647 49.3075 72.0961 49.2467C72.4953 49.0591 72.9147 48.7119 73.2936 48.75C73.5943 48.7804 73.8545 49.2822 74.1198 49.5888C75.6913 51.3932 78.9353 51.2285 80.3551 50.3009C82.1237 49.1478 82.1767 46.6718 80.3375 45.6581C79.145 45.0017 77.7655 44.6773 76.4568 44.2363C75.3123 43.8511 74.2259 43.3772 73.3315 42.5333C71.4215 40.7314 71.9521 37.4723 73.8116 35.977C76.098 34.1422 80.2187 34.4159 82.2071 36.5599C82.4723 36.8438 82.677 37.1859 82.9549 37.561L82.9574 37.5635Z" fill="#2E3A2C"/>
    <path d="M75.2185 0.119141H77.0754C77.0881 0.354831 77.1108 0.577851 77.1108 0.80087C77.1108 9.16662 77.1058 17.5349 77.126 25.9007C77.126 26.5418 76.9087 26.6762 76.3301 26.6508C75.0644 26.5976 75.221 26.7978 75.221 25.5357C75.216 17.3575 75.221 9.18183 75.221 1.00361C75.221 0.732443 75.221 0.461272 75.221 0.119141H75.2185Z" fill="#2E3A2C"/>
  </g>
  <defs>
    <clipPath id="clip0_399_1176">
      <rect width="99" height="53" fill="white"/>
    </clipPath>
  </defs>
</svg>