<svg width="56" height="30" viewBox="0 0 56 30" fill="none" xmlns="http://www.w3.org/2000/svg">
<g clip-path="url(#clip0_402_985)">
<path d="M10.4093 12.6662C11.307 10.022 12.174 7.4712 13.0509 4.88697C13.3885 5.00266 13.6789 5.10302 14.0194 5.2201C13.9277 5.51142 13.8471 5.78462 13.7568 6.05224C12.8119 8.83859 11.86 11.6235 10.9276 14.4141C10.8025 14.7876 10.5371 14.6427 10.312 14.6803C10.0577 14.7235 9.92156 14.6259 9.83541 14.3653C9.07948 12.0919 8.30967 9.82406 7.54402 7.55484C7.50789 7.44751 7.46481 7.34436 7.387 7.13667C7.24248 7.55205 7.12437 7.87821 7.01599 8.20577C6.33927 10.2464 5.65421 12.2856 4.99695 14.3332C4.88301 14.6873 4.67596 14.7082 4.3786 14.7193C4.07845 14.7319 3.93116 14.6441 3.82972 14.3444C2.81951 11.3713 1.7954 8.40231 0.77546 5.43058C0.757395 5.37622 0.749058 5.31767 0.722656 5.20756C1.0492 5.09326 1.37714 4.97896 1.73148 4.85352C2.61663 7.42799 3.48928 9.96484 4.36192 12.5003C4.38832 12.5003 4.41611 12.5003 4.44252 12.5003C4.63289 11.9372 4.82742 11.3768 5.01363 10.8123C5.61392 9.00307 6.21977 7.19522 6.80338 5.379C6.89926 5.08072 7.05906 5.01381 7.33419 5.03193C7.60516 5.04866 7.83444 4.99848 7.9595 5.38458C8.69597 7.65101 9.46995 9.90629 10.2328 12.1644C10.2773 12.294 10.3245 12.4236 10.4093 12.6634V12.6662Z" fill="#F1F6F6"/>
<path d="M26.6047 20.9345C26.6047 20.4494 26.6145 20.0605 26.6006 19.6716C26.5922 19.4346 26.67 19.3496 26.916 19.3468C27.7136 19.3385 27.7136 19.3287 27.7136 20.119C27.7136 21.3596 27.7192 22.6001 27.7136 23.8407C27.7067 25.3823 27.683 26.9225 27.683 28.4641C27.683 28.7569 27.5885 28.8433 27.3051 28.8349C26.5116 28.8112 26.6506 28.9116 26.6381 28.1728C26.6325 27.908 26.6381 27.6431 26.6381 27.264C25.0512 28.9715 23.2128 29.5528 21.0548 28.867C19.8862 28.4962 18.9997 27.7379 18.3688 26.687C17.1112 24.592 17.574 21.9199 19.4235 20.2919C21.0951 18.8213 24.2869 18.3934 26.6061 20.9358L26.6047 20.9345ZM26.6006 24.0957C26.702 22.2726 25.136 20.1748 22.7223 20.165C20.4976 20.1567 18.7454 21.906 18.7481 24.0804C18.7495 26.305 20.5032 28.1045 22.6862 28.0711C25.0679 28.0348 26.6673 26.0639 26.6006 24.0957Z" fill="#F1F6F6"/>
<path d="M24.1098 14.534V12.977C22.78 14.435 21.2098 15.0887 19.3186 14.7821C18.0624 14.5786 17.0189 13.9569 16.2268 12.9519C14.6219 10.9127 14.8484 7.95907 16.6826 6.19164C18.546 4.39773 21.8823 4.17471 24.0709 6.64744C24.0709 6.20837 24.0903 5.84736 24.0653 5.49053C24.0431 5.17691 24.1376 5.0417 24.4655 5.07794C24.6809 5.10164 24.9005 5.08212 25.1506 5.08212C25.1617 5.22709 25.177 5.3372 25.177 5.44732C25.1714 8.35772 25.1603 11.2695 25.1603 14.1799C25.1603 14.4434 25.1005 14.5688 24.8143 14.5395C24.6003 14.5172 24.3808 14.5353 24.1098 14.5353V14.534ZM24.0681 9.77946C24.1751 7.87683 22.4923 5.87384 20.2079 5.8836C17.936 5.89336 16.1935 7.62454 16.2199 9.88401C16.2463 12.0877 18.068 13.7994 20.2218 13.7701C22.2936 13.7422 24.1598 11.972 24.0681 9.77946Z" fill="#F1F6F6"/>
<path d="M55.1222 9.941C54.986 9.941 54.8387 9.941 54.6914 9.941C52.1013 9.941 49.5097 9.941 46.9196 9.941C46.6213 9.941 46.4962 10.0855 46.5444 10.3745C46.8418 12.1614 48.0021 13.4271 49.7724 13.7281C51.1967 13.9707 52.4403 13.5246 53.4102 12.4109C53.4561 12.358 53.4978 12.3036 53.5422 12.2492C53.5784 12.2046 53.6145 12.16 53.6743 12.0862C53.9633 12.2813 54.2454 12.4709 54.5483 12.6758C54.0744 13.4354 53.4408 13.9804 52.6682 14.3456C49.6793 15.759 46.3554 14.2132 45.5675 10.9948C44.8769 8.17218 46.7181 5.42904 49.4792 4.91889C51.8984 4.47285 54.0883 5.70224 54.9179 7.91571C55.15 8.53319 55.2403 9.36533 55.1222 9.9396V9.941ZM54.0216 8.88166C53.9119 7.54633 52.6168 5.94059 50.4894 5.89878C48.3995 5.85835 46.8946 7.45155 46.6556 8.88166H54.023H54.0216Z" fill="#F1F6F6"/>
<path d="M31.2046 28.9172H30.168V28.5269C30.168 25.6053 30.168 22.6824 30.168 19.7609C30.168 19.4551 30.3176 19.3018 30.6168 19.3009C30.7099 19.3009 30.803 19.3092 30.8947 19.3009C31.1407 19.2758 31.2254 19.3873 31.2074 19.6256C31.1921 19.8319 31.2046 20.0396 31.2046 20.3282C31.3352 20.2292 31.4144 20.179 31.4839 20.1163C33.8573 18.0032 37.5313 19.2158 38.1732 22.3325C38.2469 22.6908 38.2302 23.0699 38.2302 23.4393C38.2358 25.1328 38.2233 26.825 38.2399 28.5185C38.2427 28.8517 38.1538 28.9841 37.8175 28.9423C37.6369 28.92 37.4507 28.9381 37.2256 28.9381C37.2158 28.7834 37.1992 28.6496 37.1992 28.5171C37.1978 26.8124 37.1978 25.1077 37.1992 23.403C37.1992 22.5291 36.9991 21.7248 36.3738 21.0753C35.5956 20.2668 34.6465 19.9671 33.5613 20.2111C32.4719 20.455 31.7368 21.1408 31.4102 22.2113C31.281 22.6364 31.2213 23.0964 31.2157 23.5424C31.1935 25.1886 31.2074 26.8361 31.2074 28.4823C31.2074 28.6189 31.2074 28.7541 31.2074 28.9186L31.2046 28.9172Z" fill="#F1F6F6"/>
<path d="M37.2005 6.09126C37.2005 6.27107 37.2005 6.41882 37.2005 6.56657C37.2005 9.1062 37.2005 11.6458 37.2005 14.1855C37.2005 14.4968 37.0425 14.6524 36.7266 14.6524C36.5543 14.6524 36.382 14.6524 36.1722 14.6524V6.11495H34.0059V5.05004H36.1513C36.1513 4.54546 36.1402 4.08548 36.1541 3.6269C36.1722 3.04984 36.1333 2.45605 36.2583 1.89989C36.4779 0.926972 37.1477 0.308093 38.1106 0.0794987C39.1542 -0.167216 40.0477 0.168706 40.773 0.946486C40.9356 1.11933 41.0593 1.32841 41.2274 1.55421C40.9328 1.70893 40.6869 1.85947 40.4215 1.9668C40.352 1.99468 40.195 1.91662 40.1338 1.84135C39.7489 1.36325 39.2792 1.07333 38.6498 1.0803C37.9786 1.08727 37.3394 1.54864 37.2755 2.21909C37.1921 3.09305 37.2171 3.97676 37.2171 4.85768C37.2171 4.91901 37.4033 5.03192 37.5048 5.03331C38.3024 5.04865 39.1 5.04168 39.899 5.04168C40.0241 5.04168 40.1491 5.04168 40.3047 5.04168V6.09126H37.2005Z" fill="#F1F6F6"/>
<path d="M33.1753 2.06147C32.864 1.54295 32.4555 1.21121 31.9066 1.10388C31.0215 0.929648 30.2294 1.47744 30.1585 2.38764C30.0918 3.24905 30.1447 4.11882 30.1447 5.02902H33.2031V6.08975H30.1127V14.6509C29.8 14.6509 29.5249 14.6662 29.2539 14.6411C29.1859 14.6342 29.0816 14.5045 29.0761 14.4237C29.0538 14.1352 29.0663 13.8439 29.0663 13.5539C29.0663 11.222 29.0663 8.89143 29.0663 6.55949C29.0663 6.42289 29.0663 6.2849 29.0663 6.11066H26.8708C26.8708 5.78171 26.8569 5.48621 26.8833 5.19489C26.8889 5.13635 27.0445 5.05132 27.1335 5.04853C27.6421 5.03459 28.1506 5.04296 28.6606 5.04017C28.7843 5.04017 28.9093 5.02902 29.0663 5.02066C29.0663 4.20385 29.0705 3.41631 29.0663 2.63017C29.0594 1.39102 29.8501 0.345616 31.0076 0.0738116C32.1873 -0.203568 33.5421 0.418097 34.0577 1.47465C34.0674 1.49416 34.0646 1.51925 34.0743 1.58755C33.795 1.7353 33.5032 1.89002 33.1767 2.06147H33.1753Z" fill="#F1F6F6"/>
<path d="M10.6499 26.7429C11.492 28.2525 13.3235 28.2511 14.3351 27.7395C15.4342 27.1834 15.5092 25.6961 14.4309 25.1009C13.7848 24.7441 13.0275 24.5978 12.3313 24.3246C11.8616 24.1406 11.3809 23.9496 10.9598 23.6778C9.48132 22.7216 9.75645 20.7158 10.8348 19.814C12.1409 18.7226 14.556 18.9484 15.6162 20.267C15.7079 20.3813 15.7788 20.5123 15.8803 20.6656C15.5662 20.8287 15.2841 20.9765 14.9868 21.1326C14.2711 20.1639 13.2971 20.0342 12.2229 20.2823C11.4031 20.4705 10.9028 21.1521 11.0515 21.9452C11.1057 22.2365 11.2891 22.5864 11.524 22.7425C11.9478 23.0227 12.4508 23.1899 12.9302 23.3809C13.6347 23.6611 14.3837 23.8534 15.0507 24.2033C15.9108 24.6549 16.2999 25.4703 16.2652 26.4279C16.2249 27.5416 15.6788 28.3696 14.6324 28.7905C13.2484 29.3467 11.9033 29.2909 10.6597 28.3919C10.2456 28.0922 9.91208 27.7103 9.69531 27.1987C10.0191 27.044 10.3276 26.8976 10.6499 26.7429Z" fill="#F1F6F6"/>
<path d="M46.35 20.6601C46.0207 20.8315 45.7372 20.9793 45.4399 21.134C44.7242 20.1569 43.7488 20.0356 42.6774 20.2837C42.0702 20.4245 41.6477 20.7995 41.5046 21.4309C41.3768 21.9968 41.5324 22.4958 42.0285 22.7927C42.4384 23.038 42.9025 23.1955 43.3513 23.3698C44.0489 23.6388 44.7965 23.8088 45.4482 24.1601C47.224 25.1177 47.0587 27.7423 45.4273 28.6302C43.9113 29.4554 41.6602 29.3244 40.4736 27.7549C40.3513 27.5918 40.2554 27.4092 40.1387 27.2196C40.2373 27.1625 40.304 27.1193 40.3763 27.0858C40.5958 26.9827 40.8265 26.7917 41.0349 26.8126C41.2003 26.8293 41.3434 27.1053 41.4893 27.274C42.3536 28.2664 44.1378 28.1758 44.9188 27.6657C45.8915 27.0315 45.9206 25.6696 44.909 25.1121C44.2532 24.7511 43.4945 24.5727 42.7747 24.3301C42.1452 24.1183 41.5477 23.8576 41.0558 23.3935C40.0053 22.4024 40.2971 20.6099 41.3198 19.7875C42.5774 18.7783 44.8437 18.9289 45.9373 20.1081C46.0832 20.2642 46.1958 20.4524 46.3486 20.6587L46.35 20.6601Z" fill="#F1F6F6"/>
<path d="M42.0918 0.0654297H43.1132C43.1201 0.19506 43.1326 0.31772 43.1326 0.440381C43.1326 5.04155 43.1298 9.6441 43.141 14.2453C43.141 14.5979 43.0215 14.6718 42.7033 14.6579C42.0071 14.6286 42.0932 14.7387 42.0932 14.0446C42.0905 9.54653 42.0932 5.04991 42.0932 0.55189C42.0932 0.402746 42.0932 0.253602 42.0932 0.0654297H42.0918Z" fill="#F1F6F6"/>
</g>
<defs>
<clipPath id="clip0_402_985">
<rect width="54.45" height="29.15" fill="white" transform="translate(0.722656)"/>
</clipPath>
</defs>
</svg>
