<svg width="330" height="44" viewBox="0 0 330 44" fill="none" xmlns="http://www.w3.org/2000/svg">
<g clip-path="url(#clip0_2477_801)">
<path d="M311.69 19.7797C312.29 17.3197 311.87 16.0597 310.55 16.0597C308.99 16.0597 307.79 17.4397 305.27 22.4797L303.83 21.9397C307.55 14.1397 309.35 12.2197 313.01 12.2197C317.57 12.2197 317.99 15.3997 314.87 25.7197H315.71C319.55 16.1197 322.61 12.2197 325.97 12.2197C328.31 12.2197 329.93 13.6597 329.93 15.6397C329.93 17.3797 328.73 18.9397 326.51 19.8997C325.37 18.5197 324.23 17.8597 322.97 17.8597C320.03 17.8597 316.91 25.0597 311.99 42.9997H305.81L311.69 19.7797Z" fill="#E00000"/>
<path d="M284.222 43.7797C276.602 43.7797 271.682 39.0397 271.682 31.5997C271.682 21.2197 279.062 12.2197 287.582 12.2197C295.262 12.2197 300.122 16.8997 300.122 24.3997C300.122 34.7797 292.742 43.7797 284.222 43.7797ZM283.442 41.6797C287.342 41.6797 290.642 36.8797 292.382 28.6597C292.982 25.7797 293.342 22.7197 293.342 20.6797C293.342 16.5997 291.542 14.2597 288.362 14.2597C284.522 14.2597 281.222 19.1197 279.482 27.3397C278.882 30.1597 278.462 33.2797 278.462 35.2597C278.462 39.3397 280.322 41.6797 283.442 41.6797Z" fill="#E00000"/>
<path d="M247.077 43.7797C248.697 22.9597 248.217 16.5397 245.157 16.5397C243.837 16.5397 242.877 17.8597 241.377 21.6997L239.877 21.1597C242.637 14.1997 244.317 12.2197 247.557 12.2197C253.497 12.2197 254.817 17.6197 253.497 36.9397H254.097C260.337 31.7197 264.417 25.7797 264.417 21.9997C264.417 19.1197 262.317 16.8397 259.677 16.8397C260.037 13.7797 261.477 12.2197 263.937 12.2197C266.697 12.2197 268.317 14.1997 268.317 17.4997C268.317 24.9997 261.057 34.7797 248.697 43.7797H247.077Z" fill="#E00000"/>
<path d="M216.832 43.7797C212.032 43.7797 208.912 40.9597 208.912 36.4597C208.912 31.2397 212.452 28.5397 221.032 27.3997L228.472 26.3797L229.252 23.3197C230.692 17.8597 228.712 14.4397 224.032 14.4397C220.612 14.4397 218.392 16.0597 218.392 18.5197C218.392 19.9597 219.172 21.2197 220.672 22.3597C219.832 24.0397 218.272 25.1197 216.472 25.1197C214.192 25.1197 212.752 23.5597 212.752 21.0997C212.752 16.1797 218.572 12.2197 225.772 12.2197C233.632 12.2197 237.412 16.8397 235.372 24.1597L232.072 36.1597C231.352 38.6197 231.772 39.9397 233.152 39.9397C234.712 39.9397 235.912 38.4997 238.432 33.5197L239.872 34.0597C236.212 41.7997 234.352 43.7797 230.812 43.7797C227.212 43.7797 226.252 41.0197 227.812 35.3197H226.972C224.152 41.2597 221.092 43.7797 216.832 43.7797ZM214.972 35.3797C214.972 38.0797 216.472 39.6397 219.112 39.6397C223.012 39.6397 225.892 36.1597 227.692 29.2597L227.932 28.3597L223.012 29.0197C217.312 29.7997 214.972 31.7197 214.972 35.3797Z" fill="#E00000"/>
<path d="M196.557 43.7796C192.297 43.7796 190.857 40.8396 192.297 34.9596L199.257 6.03961C199.797 3.87961 199.257 3.09961 197.037 3.09961H195.957L196.317 1.41961L205.797 0.0996094H207.057L198.357 36.1596C197.817 38.5596 198.237 39.9396 199.557 39.9396C201.117 39.9396 202.317 38.4396 204.837 33.5196L206.277 34.0596C202.737 41.4996 200.457 43.7796 196.557 43.7796Z" fill="#E00000"/>
<path d="M151.143 43L151.563 40.96H153.303C155.283 40.96 156.303 39.64 157.083 35.98L163.023 7.96004C163.803 4.36004 163.323 2.98004 161.343 2.98004H159.303L159.783 1.00004H189.963C191.523 1.00004 191.823 0.82004 192.003 0.0400391H193.503L191.283 14.5H189.543C190.683 7.54004 187.623 3.28004 181.263 3.28004H171.063L167.283 21.04H175.623C179.403 21.04 181.743 19 182.583 15.04L182.943 13.48H184.683L180.963 30.88H179.223L179.583 29.32C180.423 25.3 178.923 23.32 175.083 23.32H166.803L164.163 35.8C163.383 39.4 164.343 40.96 167.463 40.96H170.463L169.803 43H151.143Z" fill="#E00000"/>
<path d="M111.553 43.7796C106.453 43.7796 103.033 40.1796 103.033 34.8396C103.033 26.0796 109.753 12.9996 118.933 12.9996C121.393 12.9996 123.733 13.7196 126.613 15.2796L128.833 6.03961C129.313 3.81961 128.773 3.09961 126.613 3.09961H125.473L125.833 1.41961L135.373 0.0996094H136.633L127.933 36.1596C127.393 38.5596 127.813 39.9396 129.133 39.9396C130.693 39.9396 131.893 38.4996 134.413 33.5196L135.853 34.0596C132.193 41.7996 130.333 43.7796 126.673 43.7796C122.833 43.7796 121.873 40.1196 123.913 32.6796H123.073C119.833 40.3596 116.293 43.7796 111.553 43.7796ZM113.893 39.9396C118.213 39.9396 122.773 31.8996 125.713 18.9996C124.993 16.6596 122.353 14.9796 119.353 14.9796C113.113 14.9796 109.453 29.0796 109.453 34.5396C109.453 37.9596 111.073 39.9396 113.893 39.9396Z" fill="#E00000"/>
<path d="M85.1666 19.7797C85.7666 17.3197 85.3466 16.0597 84.0266 16.0597C82.4666 16.0597 81.2666 17.4397 78.7466 22.4797L77.3066 21.9397C81.0266 14.1397 82.8266 12.2197 86.4866 12.2197C91.0466 12.2197 91.4666 15.3997 88.3466 25.7197H89.1866C93.0266 16.1197 96.0866 12.2197 99.4466 12.2197C101.787 12.2197 103.407 13.6597 103.407 15.6397C103.407 17.3797 102.207 18.9397 99.9866 19.8997C98.8466 18.5197 97.7066 17.8597 96.4466 17.8597C93.5066 17.8597 90.3866 25.0597 85.4666 42.9997H79.2866L85.1666 19.7797Z" fill="#E00000"/>
<path d="M51.8907 43.7797C47.0907 43.7797 43.9707 40.9597 43.9707 36.4597C43.9707 31.2397 47.5107 28.5397 56.0907 27.3997L63.5307 26.3797L64.3107 23.3197C65.7507 17.8597 63.7707 14.4397 59.0907 14.4397C55.6707 14.4397 53.4507 16.0597 53.4507 18.5197C53.4507 19.9597 54.2307 21.2197 55.7307 22.3597C54.8907 24.0397 53.3307 25.1197 51.5307 25.1197C49.2507 25.1197 47.8107 23.5597 47.8107 21.0997C47.8107 16.1797 53.6307 12.2197 60.8307 12.2197C68.6907 12.2197 72.4707 16.8397 70.4307 24.1597L67.1307 36.1597C66.4107 38.6197 66.8307 39.9397 68.2107 39.9397C69.7707 39.9397 70.9707 38.4997 73.4907 33.5197L74.9307 34.0597C71.2707 41.7997 69.4107 43.7797 65.8707 43.7797C62.2707 43.7797 61.3107 41.0197 62.8707 35.3197H62.0307C59.2107 41.2597 56.1507 43.7797 51.8907 43.7797ZM50.0307 35.3797C50.0307 38.0797 51.5307 39.6397 54.1707 39.6397C58.0707 39.6397 60.9507 36.1597 62.7507 29.2597L62.9907 28.3597L58.0707 29.0197C52.3707 29.7997 50.0307 31.7197 50.0307 35.3797Z" fill="#E00000"/>
<path d="M19.8594 43.7797C7.91937 43.7797 0.359375 36.6397 0.359375 25.4797C0.359375 11.4397 11.8794 0.219727 26.2794 0.219727C34.3194 0.219727 38.8794 3.69973 40.7394 3.69973C41.4594 3.69973 41.6394 3.33973 41.8794 2.49973H43.3794L41.2194 16.5397H39.4794C40.7394 8.43973 35.2794 2.55973 26.3994 2.55973C15.4194 2.55973 7.91938 12.2197 7.91938 26.1997C7.91938 35.7997 12.5394 41.4397 20.3394 41.4397C28.4394 41.4397 35.6994 35.0197 37.7394 26.0197H39.4794L35.5194 42.2197H34.0194C34.1394 41.3197 34.0194 41.0197 33.2994 41.0197C31.7994 41.0197 27.5994 43.7797 19.8594 43.7797Z" fill="#E00000"/>
</g>
<defs>
<clipPath id="clip0_2477_801">
<rect width="329.571" height="43.7397" fill="white" transform="translate(0.359375 0.0400391)"/>
</clipPath>
</defs>
</svg>
