<svg width="270" height="26" viewBox="0 0 270 26" fill="none" xmlns="http://www.w3.org/2000/svg">
<path d="M4.52906 9.156C2.06906 9.156 0.317063 7.356 0.317063 4.8C0.317063 2.244 2.06906 0.443999 4.54106 0.443999C6.83306 0.443999 8.33306 2.004 8.51306 3.78H7.49306C7.32506 2.544 6.22106 1.428 4.52906 1.428C2.64506 1.428 1.39706 2.772 1.39706 4.8C1.39706 6.828 2.64506 8.172 4.52906 8.172C6.23306 8.172 7.32506 7.068 7.51706 5.772H8.52506C8.32106 7.584 6.80906 9.156 4.52906 9.156ZM13.7403 9.156C11.2683 9.156 9.51628 7.356 9.51628 4.8C9.51628 2.244 11.2683 0.443999 13.7403 0.443999C16.2243 0.443999 17.9643 2.244 17.9643 4.8C17.9643 7.356 16.2243 9.156 13.7403 9.156ZM13.7403 8.172C15.6363 8.172 16.8963 6.828 16.8963 4.8C16.8963 2.772 15.6363 1.428 13.7403 1.428C11.8443 1.428 10.5963 2.772 10.5963 4.8C10.5963 6.828 11.8443 8.172 13.7403 8.172ZM19.4642 0.599999H23.1602C25.0202 0.599999 26.1002 1.644 26.1002 3.108C26.1002 4.572 25.0202 5.628 23.1602 5.628H20.4962V9H19.4642V0.599999ZM20.4962 4.656H23.1602C24.3602 4.656 25.0202 4.08 25.0202 3.108C25.0202 2.136 24.3602 1.56 23.1602 1.56H20.4962V4.656ZM30.8186 9H29.7866V6.216L26.6546 0.599999H27.8186L30.2786 5.112H30.3626L32.8226 0.599999H33.9386L30.8186 6.216V9ZM42.019 9H40.759L38.179 5.496H36.211V9H35.179V0.599999H39.019C40.855 0.599999 41.923 1.62 41.923 3.048C41.923 4.368 40.999 5.34 39.403 5.484L42.019 9ZM39.019 1.56H36.211V4.536H39.019C40.183 4.536 40.843 3.984 40.843 3.048C40.843 2.112 40.183 1.56 39.019 1.56ZM44.5076 9H43.4876V0.599999H44.5076V9ZM50.1368 9.156C47.7128 9.156 45.9968 7.332 45.9968 4.8C45.9968 2.268 47.7968 0.443999 50.3048 0.443999C52.4528 0.443999 53.9408 1.812 54.1448 3.396H53.1488C52.9688 2.388 51.9368 1.428 50.3048 1.428C48.3728 1.428 47.0768 2.772 47.0768 4.8C47.0768 6.828 48.3488 8.172 50.2088 8.172C51.8168 8.172 53.0648 7.14 53.2928 5.616H50.4848V4.716H54.3488V9H53.4128V7.428H53.3288C52.6808 8.544 51.5528 9.156 50.1368 9.156ZM61.9533 4.248V0.599999H62.9853V9H61.9533V5.208H57.1173V9H56.0853V0.599999H57.1173V4.248H61.9533ZM68.1372 9H67.1052V1.56H64.1292V0.599999H71.1132V1.56H68.1372V9ZM80.7253 9H74.7133V8.16C74.7133 3.876 79.4533 5.508 79.4533 2.928C79.4533 1.98 78.8293 1.404 77.7853 1.404C76.8373 1.404 76.0213 1.884 75.9253 3.048H74.9173C75.0013 1.548 76.0693 0.443999 77.8093 0.443999C79.4533 0.443999 80.5093 1.416 80.5093 2.94C80.5093 6.42 75.6733 4.704 75.8173 8.052L80.7253 8.016V9ZM85.205 9.156C83.117 9.156 81.941 7.428 81.941 4.8C81.941 2.172 83.117 0.443999 85.205 0.443999C87.293 0.443999 88.457 2.172 88.457 4.8C88.457 7.428 87.293 9.156 85.205 9.156ZM85.205 8.196C86.717 8.196 87.413 6.924 87.413 4.8C87.413 2.676 86.717 1.404 85.205 1.404C83.681 1.404 82.985 2.676 82.985 4.8C82.985 6.924 83.681 8.196 85.205 8.196ZM95.8894 9H89.8774V8.16C89.8774 3.876 94.6174 5.508 94.6174 2.928C94.6174 1.98 93.9934 1.404 92.9494 1.404C92.0014 1.404 91.1854 1.884 91.0894 3.048H90.0814C90.1654 1.548 91.2334 0.443999 92.9734 0.443999C94.6174 0.443999 95.6734 1.416 95.6734 2.94C95.6734 6.42 90.8374 4.704 90.9814 8.052L95.8894 8.016V9ZM102.493 6.156H103.933V7.104H102.493V9H101.485V7.104H96.973V6.156L100.465 0.599999H101.617L98.113 6.156H101.485V2.904H102.493V6.156ZM106.34 9H105.128V7.776H106.34V9ZM112.172 9H111.152V0.599999H112.172V9ZM115.113 9H114.105V0.599999H115.545L120.213 7.764H120.297V0.599999H121.305V9H119.865L115.197 1.836H115.113V9ZM126.461 9H125.429V1.56H122.453V0.599999H129.437V1.56H126.461V9ZM131.625 5.196V8.04H136.521V9H130.593V0.599999H136.449V1.56H131.625V4.236H136.161V5.196H131.625ZM144.839 9H143.579L140.999 5.496H139.031V9H137.999V0.599999H141.839C143.675 0.599999 144.743 1.62 144.743 3.048C144.743 4.368 143.819 5.34 142.223 5.484L144.839 9ZM141.839 1.56H139.031V4.536H141.839C143.003 4.536 143.663 3.984 143.663 3.048C143.663 2.112 143.003 1.56 141.839 1.56ZM153.688 9H152.572L151.78 6.984H147.436L146.632 9H145.54L148.912 0.599999H150.316L153.688 9ZM149.572 1.596L147.808 6.024H151.396L149.644 1.596H149.572ZM158.396 9.156C155.936 9.156 154.184 7.356 154.184 4.8C154.184 2.244 155.936 0.443999 158.408 0.443999C160.7 0.443999 162.2 2.004 162.38 3.78H161.36C161.192 2.544 160.088 1.428 158.396 1.428C156.512 1.428 155.264 2.772 155.264 4.8C155.264 6.828 156.512 8.172 158.396 8.172C160.1 8.172 161.192 7.068 161.384 5.772H162.392C162.188 7.584 160.676 9.156 158.396 9.156ZM166.809 9H165.777V1.56H162.801V0.599999H169.785V1.56H166.809V9ZM171.961 9H170.941V0.599999H171.961V9ZM177.77 9H176.366L173.126 0.599999H174.23L177.038 8.004H177.122L179.93 0.599999H181.01L177.77 9ZM183.223 5.196V8.04H188.119V9H182.191V0.599999H188.047V1.56H183.223V4.236H187.759V5.196H183.223ZM195.636 9.156C193.272 9.156 192.036 7.92 192.036 6.264H193.056C193.056 7.38 193.992 8.172 195.66 8.172C196.932 8.172 197.772 7.704 197.772 6.696C197.772 5.832 197.208 5.424 195.66 5.196C193.212 4.836 192.36 4.212 192.36 2.832C192.36 1.356 193.56 0.443999 195.492 0.443999C197.532 0.443999 198.768 1.56 198.768 3.048H197.748C197.748 1.932 196.704 1.428 195.456 1.428C194.244 1.428 193.44 1.86 193.44 2.784C193.44 3.6 194.016 3.96 195.756 4.188C197.928 4.464 198.852 5.22 198.852 6.66C198.852 8.244 197.58 9.156 195.636 9.156ZM203.208 9H202.176V1.56H199.2V0.599999H206.184V1.56H203.208V9ZM210.663 9.156C208.635 9.156 207.279 7.764 207.279 5.448V0.599999H208.311V5.448C208.311 7.272 209.247 8.172 210.663 8.172C212.103 8.172 213.039 7.272 213.039 5.448V0.599999H214.059V5.448C214.059 7.764 212.691 9.156 210.663 9.156ZM218.557 9H215.929V0.599999H218.557C221.761 0.599999 223.345 2.4 223.345 4.8C223.345 7.212 221.749 9 218.557 9ZM216.961 1.56V8.04H218.557C221.125 8.04 222.265 6.672 222.265 4.8C222.265 2.904 221.113 1.56 218.557 1.56H216.961ZM227.823 9H226.791V6.216L223.659 0.599999H224.823L227.283 5.112H227.367L229.827 0.599999H230.943L227.823 6.216V9ZM240.874 0.599999V1.56H236.098V4.452H240.586V5.412H236.098V9H235.066V0.599999H240.874ZM249.066 9H247.806L245.226 5.496H243.258V9H242.226V0.599999H246.066C247.902 0.599999 248.97 1.62 248.97 3.048C248.97 4.368 248.046 5.34 246.45 5.484L249.066 9ZM246.066 1.56H243.258V4.536H246.066C247.23 4.536 247.89 3.984 247.89 3.048C247.89 2.112 247.23 1.56 246.066 1.56ZM254.315 9.156C251.843 9.156 250.091 7.356 250.091 4.8C250.091 2.244 251.843 0.443999 254.315 0.443999C256.799 0.443999 258.539 2.244 258.539 4.8C258.539 7.356 256.799 9.156 254.315 9.156ZM254.315 8.172C256.211 8.172 257.471 6.828 257.471 4.8C257.471 2.772 256.211 1.428 254.315 1.428C252.419 1.428 251.171 2.772 251.171 4.8C251.171 6.828 252.419 8.172 254.315 8.172ZM261.07 9H260.038V0.599999H261.574L264.61 6.576H264.694L267.754 0.599999H269.242V9H268.21V1.884H268.138L265.15 7.716H264.13L261.142 1.884H261.07V9ZM20.5348 25H19.0828L16.6468 16.6H17.7268L19.8028 23.98H19.8868L22.0588 17.08H23.0668L25.0828 23.98H25.1668L27.4348 16.6H28.5028L25.8628 25H24.4108L22.5748 18.736H22.5028L20.5348 25ZM36.395 25H35.279L34.487 22.984H30.143L29.339 25H28.247L31.619 16.6H33.023L36.395 25ZM32.279 17.596L30.515 22.024H34.103L32.351 17.596H32.279ZM43.3777 16.6V17.56H38.6017V20.452H43.0897V21.412H38.6017V25H37.5697V16.6H43.3777ZM50.5378 16.6V17.56H45.7618V20.452H50.2498V21.412H45.7618V25H44.7298V16.6H50.5378ZM57.458 25H51.89V16.6H52.922V24.04H57.458V25ZM59.5196 21.196V24.04H64.4156V25H58.4876V16.6H64.3436V17.56H59.5196V20.236H64.0556V21.196H59.5196ZM71.9327 25.156C69.5687 25.156 68.3327 23.92 68.3327 22.264H69.3527C69.3527 23.38 70.2887 24.172 71.9567 24.172C73.2287 24.172 74.0687 23.704 74.0687 22.696C74.0687 21.832 73.5047 21.424 71.9567 21.196C69.5087 20.836 68.6567 20.212 68.6567 18.832C68.6567 17.356 69.8567 16.444 71.7887 16.444C73.8287 16.444 75.0647 17.56 75.0647 19.048H74.0447C74.0447 17.932 73.0007 17.428 71.7527 17.428C70.5407 17.428 69.7367 17.86 69.7367 18.784C69.7367 19.6 70.3127 19.96 72.0527 20.188C74.2247 20.464 75.1487 21.22 75.1487 22.66C75.1487 24.244 73.8767 25.156 71.9327 25.156ZM79.5044 25H78.4724V17.56H75.4964V16.6H82.4804V17.56H79.5044V25ZM86.9601 25.156C84.9321 25.156 83.5761 23.764 83.5761 21.448V16.6H84.6081V21.448C84.6081 23.272 85.5441 24.172 86.9601 24.172C88.4001 24.172 89.3361 23.272 89.3361 21.448V16.6H90.3561V21.448C90.3561 23.764 88.9881 25.156 86.9601 25.156ZM94.8539 25H92.2259V16.6H94.8539C98.0579 16.6 99.6419 18.4 99.6419 20.8C99.6419 23.212 98.0459 25 94.8539 25ZM93.2579 17.56V24.04H94.8539C97.4219 24.04 98.5619 22.672 98.5619 20.8C98.5619 18.904 97.4099 17.56 94.8539 17.56H93.2579ZM102.164 25H101.144V16.6H102.164V25ZM107.877 25.156C105.405 25.156 103.653 23.356 103.653 20.8C103.653 18.244 105.405 16.444 107.877 16.444C110.361 16.444 112.101 18.244 112.101 20.8C112.101 23.356 110.361 25.156 107.877 25.156ZM107.877 24.172C109.773 24.172 111.033 22.828 111.033 20.8C111.033 18.772 109.773 17.428 107.877 17.428C105.981 17.428 104.733 18.772 104.733 20.8C104.733 22.828 105.981 24.172 107.877 24.172ZM123.864 25H122.748L121.956 22.984H117.612L116.808 25H115.716L119.088 16.6H120.492L123.864 25ZM119.748 17.596L117.984 22.024H121.572L119.82 17.596H119.748ZM130.606 25H125.038V16.6H126.07V24.04H130.606V25ZM137.204 25H131.636V16.6H132.668V24.04H137.204V25ZM147.476 25H146.216L143.636 21.496H141.668V25H140.636V16.6H144.476C146.312 16.6 147.38 17.62 147.38 19.048C147.38 20.368 146.456 21.34 144.86 21.484L147.476 25ZM144.476 17.56H141.668V20.536H144.476C145.64 20.536 146.3 19.984 146.3 19.048C146.3 18.112 145.64 17.56 144.476 17.56ZM149.965 25H148.945V16.6H149.965V25ZM155.594 25.156C153.17 25.156 151.454 23.332 151.454 20.8C151.454 18.268 153.254 16.444 155.762 16.444C157.91 16.444 159.398 17.812 159.602 19.396H158.606C158.426 18.388 157.394 17.428 155.762 17.428C153.83 17.428 152.534 18.772 152.534 20.8C152.534 22.828 153.806 24.172 155.666 24.172C157.274 24.172 158.522 23.14 158.75 21.616H155.942V20.716H159.806V25H158.87V23.428H158.786C158.138 24.544 157.01 25.156 155.594 25.156ZM167.41 20.248V16.6H168.442V25H167.41V21.208H162.574V25H161.542V16.6H162.574V20.248H167.41ZM173.594 25H172.562V17.56H169.586V16.6H176.57V17.56H173.594V25ZM180.401 25.156C178.037 25.156 176.801 23.92 176.801 22.264H177.821C177.821 23.38 178.757 24.172 180.425 24.172C181.697 24.172 182.537 23.704 182.537 22.696C182.537 21.832 181.973 21.424 180.425 21.196C177.977 20.836 177.125 20.212 177.125 18.832C177.125 17.356 178.325 16.444 180.257 16.444C182.297 16.444 183.533 17.56 183.533 19.048H182.513C182.513 17.932 181.469 17.428 180.221 17.428C179.009 17.428 178.205 17.86 178.205 18.784C178.205 19.6 178.781 19.96 180.521 20.188C182.693 20.464 183.617 21.22 183.617 22.66C183.617 24.244 182.345 25.156 180.401 25.156ZM194.96 25H193.7L191.12 21.496H189.152V25H188.12V16.6H191.96C193.796 16.6 194.864 17.62 194.864 19.048C194.864 20.368 193.94 21.34 192.344 21.484L194.96 25ZM191.96 17.56H189.152V20.536H191.96C193.124 20.536 193.784 19.984 193.784 19.048C193.784 18.112 193.124 17.56 191.96 17.56ZM197.461 21.196V24.04H202.357V25H196.429V16.6H202.285V17.56H197.461V20.236H201.997V21.196H197.461ZM206.991 25.156C204.627 25.156 203.391 23.92 203.391 22.264H204.411C204.411 23.38 205.347 24.172 207.015 24.172C208.287 24.172 209.127 23.704 209.127 22.696C209.127 21.832 208.563 21.424 207.015 21.196C204.567 20.836 203.715 20.212 203.715 18.832C203.715 17.356 204.915 16.444 206.847 16.444C208.887 16.444 210.123 17.56 210.123 19.048H209.103C209.103 17.932 208.059 17.428 206.811 17.428C205.599 17.428 204.795 17.86 204.795 18.784C204.795 19.6 205.371 19.96 207.111 20.188C209.283 20.464 210.207 21.22 210.207 22.66C210.207 24.244 208.935 25.156 206.991 25.156ZM212.859 21.196V24.04H217.755V25H211.827V16.6H217.683V17.56H212.859V20.236H217.395V21.196H212.859ZM226.074 25H224.814L222.234 21.496H220.266V25H219.234V16.6H223.074C224.91 16.6 225.978 17.62 225.978 19.048C225.978 20.368 225.054 21.34 223.458 21.484L226.074 25ZM223.074 17.56H220.266V20.536H223.074C224.238 20.536 224.898 19.984 224.898 19.048C224.898 18.112 224.238 17.56 223.074 17.56ZM231.184 25H229.78L226.54 16.6H227.644L230.452 24.004H230.536L233.344 16.6H234.424L231.184 25ZM236.637 21.196V24.04H241.533V25H235.605V16.6H241.461V17.56H236.637V20.236H241.173V21.196H236.637ZM245.639 25H243.011V16.6H245.639C248.843 16.6 250.427 18.4 250.427 20.8C250.427 23.212 248.831 25 245.639 25ZM244.043 17.56V24.04H245.639C248.207 24.04 249.347 22.672 249.347 20.8C249.347 18.904 248.195 17.56 245.639 17.56H244.043ZM252.661 25H251.449V23.776H252.661V25Z" fill="#E00000"/>
</svg>
