<svg width="52" height="22" viewBox="0 0 52 22" fill="none" xmlns="http://www.w3.org/2000/svg">
<g clip-path="url(#clip0_2477_839)">
<path d="M46.2907 15.3118L50.0588 4.7998H51.6908L46.2668 19.6558C45.7388 21.0958 44.9467 21.5998 43.7227 21.5998H41.8507V20.1358H43.6268C44.3468 20.1358 44.6348 19.9198 44.8988 19.1758L45.7627 16.7998H45.1628L40.2188 4.7998H41.9227L46.1468 15.3118H46.2907Z" fill="#E00000"/>
<path d="M34.0819 17.1123C30.7939 17.1123 28.8499 15.4323 28.7539 13.0803H30.3139C30.5059 14.5923 31.7539 15.6003 34.1059 15.6003C35.9779 15.6003 37.3459 15.0243 37.3459 13.5123C37.3459 12.2643 36.4099 11.6403 34.0819 11.3283C30.7219 10.8723 29.2579 9.81628 29.2579 7.84828C29.2579 5.71228 31.1539 4.48828 33.8659 4.48828C36.7939 4.48828 38.7619 6.04828 38.9299 8.32828H37.3699C37.2019 6.93628 36.0499 6.00028 33.8179 6.00028C31.9459 6.00028 30.9139 6.62428 30.9139 7.77628C30.9139 8.97628 31.9219 9.60028 34.4179 9.91228C37.6099 10.3203 39.0019 11.4003 39.0019 13.4403C39.0019 15.8403 36.9379 17.1123 34.0819 17.1123Z" fill="#E00000"/>
<path d="M19.7319 17.1123C16.2039 17.1123 13.7559 14.4483 13.7559 10.8003C13.7559 7.17628 16.2039 4.48828 19.7319 4.48828C21.4359 4.48828 23.3319 5.11228 24.2919 6.79228H24.4359V4.80028H26.0439V16.8003H24.4359V14.8083H24.2919C23.3319 16.4883 21.4359 17.1123 19.7319 17.1123ZM19.9239 15.6003C22.6599 15.6003 24.4359 13.7043 24.4359 10.8003C24.4359 7.92028 22.6599 6.00028 19.9239 6.00028C17.2119 6.00028 15.4119 7.92028 15.4119 10.8003C15.4119 13.7043 17.2119 15.6003 19.9239 15.6003Z" fill="#E00000"/>
<path d="M1.656 9V15.264H11.712V16.8H0V0H11.568V1.536H1.656V7.464H10.992V9H1.656Z" fill="#E00000"/>
</g>
<defs>
<clipPath id="clip0_2477_839">
<rect width="51.6908" height="21.5998" fill="white"/>
</clipPath>
</defs>
</svg>
