<svg width="1011" height="297" viewBox="0 0 1011 297" fill="none" xmlns="http://www.w3.org/2000/svg">
<g clip-path="url(#clip0_2477_652)">
<path d="M593.148 109.95C581.148 109.95 572.898 101.1 572.898 88.2C572.898 67.05 589.398 33 611.898 33C617.898 33 624.198 35.25 631.548 39.6L637.698 13.5C638.898 7.8 637.698 6 632.148 6H628.698L629.148 3.9L651.498 0.75H653.298L631.548 91.65C629.898 97.95 631.248 101.7 634.998 101.7C639.048 101.7 642.498 97.5 649.098 84.9L651.048 85.65C641.298 105 636.798 109.95 628.998 109.95C619.548 109.95 617.598 101.1 623.298 82.2H621.498C613.248 100.8 603.948 109.95 593.148 109.95ZM597.798 103.2C610.248 103.2 621.948 82.35 629.898 46.8C627.498 40.35 620.448 35.7 613.248 35.7C595.248 35.7 585.948 72 585.948 88.35C585.948 97.5 590.448 103.2 597.798 103.2Z" fill="#E00000"/>
<path d="M541.343 109.95C532.343 109.95 529.343 102.75 533.093 90.1498L542.393 59.6998C546.443 46.7998 543.293 39.4498 533.993 39.4498C521.243 39.4498 510.893 59.3998 498.743 108H486.593L501.293 49.7998C502.943 43.0498 501.743 39.2998 497.993 39.2998C493.943 39.2998 490.493 43.4998 483.743 56.0998L481.943 55.3498C491.693 35.8498 496.193 31.0498 504.293 31.0498C514.193 31.0498 515.093 39.4498 507.743 63.8998H509.543C518.993 41.2498 528.743 31.0498 540.443 31.0498C554.543 31.0498 559.793 42.1498 554.243 60.5998L544.943 91.1998C542.993 97.6498 544.193 101.7 548.093 101.7C552.143 101.7 555.743 97.4998 562.343 84.8998L564.293 85.6498C554.543 104.85 549.593 109.95 541.343 109.95Z" fill="#E00000"/>
<path d="M382.134 138.75C372.984 138.75 366.684 134.4 366.684 128.1C366.684 123.45 370.284 119.85 375.084 119.85C377.634 119.85 380.184 120.9 382.434 122.4C380.934 125.4 380.484 127.5 380.484 129.75C380.484 133.65 382.134 135.75 385.284 135.75C389.334 135.75 391.434 132.3 393.084 123.15L408.384 38.7H392.934L394.134 33H409.434C413.634 13.35 428.784 0.75 448.584 0.75C461.934 0.75 470.784 6 470.784 13.8C470.784 19.05 466.884 22.95 461.484 22.95C458.934 22.95 456.234 22.05 454.134 20.25C455.484 18 456.384 15.15 456.384 12.75C456.384 7.35 451.734 4.05 444.084 4.05C432.834 4.05 425.484 11.85 422.784 27.3L421.734 33H436.734L435.534 38.7H420.684L408.084 108.9C404.634 128.4 395.484 138.75 382.134 138.75ZM449.934 109.95C441.084 109.95 438.084 102.75 441.834 90.15L453.984 49.8C455.934 43.35 454.734 39.3 450.684 39.3C446.634 39.3 443.184 43.5 436.584 56.1L434.634 55.35C444.384 36.15 449.334 31.05 457.584 31.05C466.434 31.05 469.434 38.25 465.684 50.85L453.534 91.2C451.584 97.65 452.784 101.7 456.684 101.7C460.884 101.7 464.334 97.5 470.934 84.9L472.884 85.65C463.134 104.85 458.184 109.95 449.934 109.95Z" fill="#E00000"/>
<path d="M1001.39 296.84C1001.39 293.72 1000.43 293 993.713 293H866.273V285.8H875.153C883.313 285.8 886.673 280.04 886.673 265.64V152.36C886.673 137.96 883.313 132.2 875.153 132.2H866.273V125H986.993C993.953 125 995.153 124.28 995.153 121.16H1000.67L1004.27 178.76H998.033C996.593 149.72 981.713 133.4 957.473 133.4H908.513V202.04H947.153C961.793 202.04 968.753 194.12 968.753 178.28V171.32H975.233V240.92H968.753V233.96C968.753 218.12 961.793 210.2 947.153 210.2H908.513V284.6H963.473C988.193 284.6 1002.83 267.8 1004.27 237.56H1010.51L1007.15 296.84H1001.39Z" fill="#E00000"/>
<path d="M846.346 296.84C846.346 293.72 845.386 293 838.666 293H726.586V285.8H735.466C743.626 285.8 746.986 280.04 746.986 265.64V152.36C746.986 137.96 743.626 132.2 735.466 132.2H726.586V125H799.546V132.2H786.346C773.866 132.2 768.826 137.96 768.826 152.36V284.6H808.426C833.146 284.6 847.546 267.8 848.986 237.56H855.466L851.866 296.84H846.346Z" fill="#E00000"/>
<path d="M578.93 293V285.8H587.81C595.97 285.8 599.33 280.04 599.33 265.64V152.36C599.33 137.96 595.97 132.2 587.81 132.2H578.93V125H697.97C704.93 125 706.13 124.28 706.13 121.16H711.65L715.25 178.76H709.01C707.57 149.72 692.69 133.4 668.45 133.4H621.17V205.64H659.81C674.21 205.64 681.17 197.72 681.17 181.88V175.16H687.65V244.52H681.17V237.56C681.17 221.72 674.21 214.04 659.81 214.04H621.17V265.64C621.17 280.04 626.21 285.8 638.69 285.8H651.89V293H578.93Z" fill="#E00000"/>
<path d="M431.273 293V285.8H440.153C448.313 285.8 451.673 280.04 451.673 265.64V152.36C451.673 137.96 448.313 132.2 440.153 132.2H431.273V125H550.313C557.273 125 558.473 124.28 558.473 121.16H563.993L567.593 178.76H561.353C559.913 149.72 545.033 133.4 520.793 133.4H473.513V205.64H512.153C526.553 205.64 533.513 197.72 533.513 181.88V175.16H539.993V244.52H533.513V237.56C533.513 221.72 526.553 214.04 512.153 214.04H473.513V265.64C473.513 280.04 478.553 285.8 491.033 285.8H504.233V293H431.273Z" fill="#E00000"/>
<path d="M253.973 293V285.8H258.053C262.853 285.8 267.893 279.08 272.933 267.32L320.213 150.68C325.973 136.28 324.293 132.2 313.733 132.2H301.733V125H346.133L405.173 267.56C410.213 279.56 415.253 285.8 420.053 285.8H424.133V293H354.773V285.8H369.413C383.093 285.8 386.453 278.12 379.733 261.56L371.573 241.88H292.133L284.213 261.56C277.493 278.12 281.333 285.8 295.733 285.8H311.093V293H253.973ZM295.493 233.48H368.213L332.453 145.88H331.013L295.493 233.48Z" fill="#E00000"/>
<path d="M19.5733 150.44C14.2933 138.44 9.49328 132.2 4.69328 132.2H0.613281V125H70.6933V132.2H55.3333C41.6533 132.2 38.5333 139.88 45.2533 156.44L90.3733 266.12H91.8133L133.093 158.36L129.733 150.68C124.933 138.44 119.413 132.2 114.613 132.2H110.533V125H180.133V132.2H165.253C151.573 132.2 148.453 139.88 154.933 156.44L199.093 266.36H200.533L245.173 156.44C251.893 139.88 248.053 132.2 233.653 132.2H218.293V125H275.413V132.2H271.333C266.533 132.2 261.493 138.92 256.453 150.68L197.653 294.92H188.293L138.133 171.08H136.693L89.1733 294.92H79.8133L19.5733 150.44Z" fill="#E00000"/>
</g>
<defs>
<clipPath id="clip0_2477_652">
<rect width="1009.9" height="296.09" fill="white" transform="translate(0.613281 0.75)"/>
</clipPath>
</defs>
</svg>
