<svg width="360" height="44" viewBox="0 0 360 44" fill="none" xmlns="http://www.w3.org/2000/svg">
<g clip-path="url(#clip0_2477_787)">
<path d="M340.811 19.7797C341.411 17.3197 340.991 16.0597 339.671 16.0597C338.111 16.0597 336.911 17.4397 334.391 22.4797L332.951 21.9397C336.671 14.1397 338.471 12.2197 342.131 12.2197C346.691 12.2197 347.111 15.3997 343.991 25.7197H344.831C348.671 16.1197 351.731 12.2197 355.091 12.2197C357.431 12.2197 359.051 13.6597 359.051 15.6397C359.051 17.3797 357.851 18.9397 355.631 19.8997C354.491 18.5197 353.351 17.8597 352.091 17.8597C349.151 17.8597 346.031 25.0597 341.111 42.9997H334.931L340.811 19.7797Z" fill="#E00000"/>
<path d="M313.343 43.7797C305.723 43.7797 300.803 39.0397 300.803 31.5997C300.803 21.2197 308.183 12.2197 316.703 12.2197C324.383 12.2197 329.243 16.8997 329.243 24.3997C329.243 34.7797 321.863 43.7797 313.343 43.7797ZM312.563 41.6797C316.463 41.6797 319.763 36.8797 321.503 28.6597C322.103 25.7797 322.463 22.7197 322.463 20.6797C322.463 16.5997 320.663 14.2597 317.483 14.2597C313.643 14.2597 310.343 19.1197 308.603 27.3397C308.003 30.1597 307.583 33.2797 307.583 35.2597C307.583 39.3397 309.443 41.6797 312.563 41.6797Z" fill="#E00000"/>
<path d="M276.198 43.7797C277.818 22.9597 277.338 16.5397 274.278 16.5397C272.958 16.5397 271.998 17.8597 270.498 21.6997L268.998 21.1597C271.758 14.1997 273.438 12.2197 276.678 12.2197C282.618 12.2197 283.938 17.6197 282.618 36.9397H283.218C289.458 31.7197 293.538 25.7797 293.538 21.9997C293.538 19.1197 291.438 16.8397 288.798 16.8397C289.158 13.7797 290.598 12.2197 293.058 12.2197C295.818 12.2197 297.438 14.1997 297.438 17.4997C297.438 24.9997 290.178 34.7797 277.818 43.7797H276.198Z" fill="#E00000"/>
<path d="M245.953 43.7797C241.153 43.7797 238.033 40.9597 238.033 36.4597C238.033 31.2397 241.573 28.5397 250.153 27.3997L257.593 26.3797L258.373 23.3197C259.813 17.8597 257.833 14.4397 253.153 14.4397C249.733 14.4397 247.513 16.0597 247.513 18.5197C247.513 19.9597 248.293 21.2197 249.793 22.3597C248.953 24.0397 247.393 25.1197 245.593 25.1197C243.313 25.1197 241.873 23.5597 241.873 21.0997C241.873 16.1797 247.693 12.2197 254.893 12.2197C262.753 12.2197 266.533 16.8397 264.493 24.1597L261.193 36.1597C260.473 38.6197 260.893 39.9397 262.273 39.9397C263.833 39.9397 265.033 38.4997 267.553 33.5197L268.993 34.0597C265.333 41.7997 263.473 43.7797 259.933 43.7797C256.333 43.7797 255.373 41.0197 256.933 35.3197H256.093C253.273 41.2597 250.213 43.7797 245.953 43.7797ZM244.093 35.3797C244.093 38.0797 245.593 39.6397 248.233 39.6397C252.133 39.6397 255.013 36.1597 256.813 29.2597L257.053 28.3597L252.133 29.0197C246.433 29.7997 244.093 31.7197 244.093 35.3797Z" fill="#E00000"/>
<path d="M225.678 43.7796C221.418 43.7796 219.978 40.8396 221.418 34.9596L228.378 6.03961C228.918 3.87961 228.378 3.09961 226.158 3.09961H225.078L225.438 1.41961L234.918 0.0996094H236.178L227.478 36.1596C226.938 38.5596 227.358 39.9396 228.678 39.9396C230.238 39.9396 231.438 38.4396 233.958 33.5196L235.398 34.0596C231.858 41.4996 229.578 43.7796 225.678 43.7796Z" fill="#E00000"/>
<path d="M180.264 43L180.684 40.96H182.424C184.404 40.96 185.424 39.64 186.204 35.98L192.144 7.96004C192.924 4.36004 192.444 2.98004 190.464 2.98004H188.424L188.904 1.00004H219.084C220.644 1.00004 220.944 0.82004 221.124 0.0400391H222.624L220.404 14.5H218.664C219.804 7.54004 216.744 3.28004 210.384 3.28004H200.184L196.404 21.04H204.744C208.524 21.04 210.864 19 211.704 15.04L212.064 13.48H213.804L210.084 30.88H208.344L208.704 29.32C209.544 25.3 208.044 23.32 204.204 23.32H195.924L193.284 35.8C192.504 39.4 193.464 40.96 196.584 40.96H199.584L198.924 43H180.264Z" fill="#E00000"/>
<path d="M150.481 43.7797C143.281 43.7797 138.721 39.5197 138.721 32.7997C138.721 23.2597 145.261 12.2197 155.761 12.2197C161.341 12.2197 164.821 14.8597 164.821 19.1797C164.821 25.4797 158.401 28.9597 146.761 28.9597L145.561 28.8997C145.381 30.0997 145.321 31.1797 145.321 32.0797C145.321 36.9997 148.021 39.9397 152.581 39.9397C157.081 39.9397 160.441 36.9997 162.721 30.9997L164.161 31.4797C161.101 39.8197 156.721 43.7797 150.481 43.7797ZM145.861 26.9797L147.481 27.0397C154.981 27.0397 159.421 23.9197 159.421 18.6997C159.421 15.8797 157.981 14.2597 155.401 14.2597C150.001 14.2597 147.001 21.0997 145.861 26.9797Z" fill="#E00000"/>
<path d="M120.941 43.7797C115.061 43.7797 111.041 41.2597 111.041 37.6597C111.041 35.3797 112.481 33.8797 114.521 33.8797C115.781 33.8797 116.981 34.4197 117.701 35.3797C116.861 36.4597 116.441 37.3597 116.441 38.3197C116.441 40.4197 118.481 41.6797 121.781 41.6797C125.021 41.6797 127.001 39.9997 127.001 37.2997C127.001 31.1197 115.421 29.6797 115.421 21.2197C115.421 15.9397 119.861 12.2197 126.161 12.2197C131.741 12.2197 135.581 14.5597 135.581 17.9797C135.581 20.0797 134.141 21.5797 132.161 21.5797C130.901 21.5797 129.761 21.0397 128.921 20.0797C129.881 18.9397 130.181 18.2797 130.181 17.3797C130.181 15.4597 128.321 14.2597 125.261 14.2597C122.441 14.2597 120.701 15.9397 120.701 18.5797C120.701 25.1197 132.281 26.8597 132.281 34.8397C132.281 39.9397 127.481 43.7797 120.941 43.7797Z" fill="#E00000"/>
<path d="M92.0927 43.7797C84.4727 43.7797 79.5527 39.0397 79.5527 31.5997C79.5527 21.2197 86.9327 12.2197 95.4527 12.2197C103.133 12.2197 107.993 16.8997 107.993 24.3997C107.993 34.7797 100.613 43.7797 92.0927 43.7797ZM91.3127 41.6797C95.2127 41.6797 98.5127 36.8797 100.253 28.6597C100.853 25.7797 101.213 22.7197 101.213 20.6797C101.213 16.5997 99.4127 14.2597 96.2327 14.2597C92.3927 14.2597 89.0927 19.1197 87.3527 27.3397C86.7527 30.1597 86.3327 33.2797 86.3327 35.2597C86.3327 39.3397 88.1927 41.6797 91.3127 41.6797Z" fill="#E00000"/>
<path d="M59.1045 43.7797C51.4845 43.7797 46.5645 39.0397 46.5645 31.5997C46.5645 21.2197 53.9445 12.2197 62.4645 12.2197C70.1445 12.2197 75.0045 16.8997 75.0045 24.3997C75.0045 34.7797 67.6245 43.7797 59.1045 43.7797ZM58.3245 41.6797C62.2245 41.6797 65.5245 36.8797 67.2645 28.6597C67.8645 25.7797 68.2245 22.7197 68.2245 20.6797C68.2245 16.5997 66.4245 14.2597 63.2445 14.2597C59.4045 14.2597 56.1045 19.1197 54.3645 27.3397C53.7645 30.1597 53.3445 33.2797 53.3445 35.2597C53.3445 39.3397 55.2045 41.6797 58.3245 41.6797Z" fill="#E00000"/>
<path d="M19.8594 43.7797C7.91937 43.7797 0.359375 36.6397 0.359375 25.4797C0.359375 11.4397 11.8794 0.219727 26.2794 0.219727C34.3194 0.219727 38.8794 3.45973 40.7394 3.45973C41.4594 3.45973 41.6394 3.15973 41.8794 2.31973H43.3794L41.2194 16.3597H39.4794C40.7394 8.25973 35.2794 2.55973 26.2794 2.55973C15.3594 2.55973 7.91938 12.3397 7.91938 26.3797C7.91938 35.7997 12.4794 41.4397 20.2194 41.4397C25.0194 41.4397 28.8594 39.4597 31.6794 35.4997L32.8794 29.8597C33.6594 26.1997 32.5794 24.6397 29.3394 24.6397H26.2194L26.6394 22.6597H44.4594L44.0994 24.6397H42.7194C41.0994 24.6397 40.1394 26.0197 39.4194 29.5597L36.3594 43.6597H34.5594C34.9794 41.4397 34.4994 40.8397 33.2994 40.8397C31.0794 40.8397 27.5394 43.7797 19.8594 43.7797Z" fill="#E00000"/>
</g>
<defs>
<clipPath id="clip0_2477_787">
<rect width="358.692" height="43.7397" fill="white" transform="translate(0.359375 0.0400391)"/>
</clipPath>
</defs>
</svg>
