<svg width="320" height="44" viewBox="0 0 320 44" fill="none" xmlns="http://www.w3.org/2000/svg">
<g clip-path="url(#clip0_2477_855)">
<path d="M301.026 19.7797C301.626 17.3197 301.206 16.0597 299.886 16.0597C298.326 16.0597 297.126 17.4397 294.606 22.4797L293.166 21.9397C296.886 14.1397 298.686 12.2197 302.346 12.2197C306.906 12.2197 307.326 15.3997 304.206 25.7197H305.046C308.886 16.1197 311.946 12.2197 315.306 12.2197C317.646 12.2197 319.266 13.6597 319.266 15.6397C319.266 17.3797 318.066 18.9397 315.846 19.8997C314.706 18.5197 313.566 17.8597 312.306 17.8597C309.366 17.8597 306.246 25.0597 301.326 42.9997H295.146L301.026 19.7797Z" fill="#E00000"/>
<path d="M273.558 43.7797C265.938 43.7797 261.018 39.0397 261.018 31.5997C261.018 21.2197 268.398 12.2197 276.918 12.2197C284.598 12.2197 289.458 16.8997 289.458 24.3997C289.458 34.7797 282.078 43.7797 273.558 43.7797ZM272.778 41.6797C276.678 41.6797 279.978 36.8797 281.718 28.6597C282.318 25.7797 282.678 22.7197 282.678 20.6797C282.678 16.5997 280.878 14.2597 277.698 14.2597C273.858 14.2597 270.558 19.1197 268.818 27.3397C268.218 30.1597 267.798 33.2797 267.798 35.2597C267.798 39.3397 269.658 41.6797 272.778 41.6797Z" fill="#E00000"/>
<path d="M236.413 43.7797C238.033 22.9597 237.553 16.5397 234.493 16.5397C233.173 16.5397 232.213 17.8597 230.713 21.6997L229.213 21.1597C231.973 14.1997 233.653 12.2197 236.893 12.2197C242.833 12.2197 244.153 17.6197 242.833 36.9397H243.433C249.673 31.7197 253.753 25.7797 253.753 21.9997C253.753 19.1197 251.653 16.8397 249.013 16.8397C249.373 13.7797 250.813 12.2197 253.273 12.2197C256.033 12.2197 257.653 14.1997 257.653 17.4997C257.653 24.9997 250.393 34.7797 238.033 43.7797H236.413Z" fill="#E00000"/>
<path d="M206.168 43.7797C201.368 43.7797 198.248 40.9597 198.248 36.4597C198.248 31.2397 201.788 28.5397 210.368 27.3997L217.808 26.3797L218.588 23.3197C220.028 17.8597 218.048 14.4397 213.368 14.4397C209.948 14.4397 207.728 16.0597 207.728 18.5197C207.728 19.9597 208.508 21.2197 210.008 22.3597C209.168 24.0397 207.608 25.1197 205.808 25.1197C203.528 25.1197 202.088 23.5597 202.088 21.0997C202.088 16.1797 207.908 12.2197 215.108 12.2197C222.968 12.2197 226.748 16.8397 224.708 24.1597L221.408 36.1597C220.688 38.6197 221.108 39.9397 222.488 39.9397C224.048 39.9397 225.248 38.4997 227.768 33.5197L229.208 34.0597C225.548 41.7997 223.688 43.7797 220.148 43.7797C216.548 43.7797 215.588 41.0197 217.148 35.3197H216.308C213.488 41.2597 210.428 43.7797 206.168 43.7797ZM204.308 35.3797C204.308 38.0797 205.808 39.6397 208.448 39.6397C212.348 39.6397 215.228 36.1597 217.028 29.2597L217.268 28.3597L212.348 29.0197C206.648 29.7997 204.308 31.7197 204.308 35.3797Z" fill="#E00000"/>
<path d="M185.893 43.7796C181.633 43.7796 180.193 40.8396 181.633 34.9596L188.593 6.03961C189.133 3.87961 188.593 3.09961 186.373 3.09961H185.293L185.653 1.41961L195.133 0.0996094H196.393L187.693 36.1596C187.153 38.5596 187.573 39.9396 188.893 39.9396C190.453 39.9396 191.653 38.4396 194.173 33.5196L195.613 34.0596C192.073 41.4996 189.793 43.7796 185.893 43.7796Z" fill="#E00000"/>
<path d="M140.479 43L140.899 40.96H142.639C144.619 40.96 145.639 39.64 146.419 35.98L152.359 7.96004C153.139 4.36004 152.659 2.98004 150.679 2.98004H148.639L149.119 1.00004H179.299C180.859 1.00004 181.159 0.82004 181.339 0.0400391H182.839L180.619 14.5H178.879C180.019 7.54004 176.959 3.28004 170.599 3.28004H160.399L156.619 21.04H164.959C168.739 21.04 171.079 19 171.919 15.04L172.279 13.48H174.019L170.299 30.88H168.559L168.919 29.32C169.759 25.3 168.259 23.32 164.419 23.32H156.139L153.499 35.8C152.719 39.4 153.679 40.96 156.799 40.96H159.799L159.139 43H140.479Z" fill="#E00000"/>
<path d="M100.889 43.7796C95.7891 43.7796 92.3691 40.1796 92.3691 34.8396C92.3691 26.0796 99.0891 12.9996 108.269 12.9996C110.729 12.9996 113.069 13.7196 115.949 15.2796L118.169 6.03961C118.649 3.81961 118.109 3.09961 115.949 3.09961H114.809L115.169 1.41961L124.709 0.0996094H125.969L117.269 36.1596C116.729 38.5596 117.149 39.9396 118.469 39.9396C120.029 39.9396 121.229 38.4996 123.749 33.5196L125.189 34.0596C121.529 41.7996 119.669 43.7796 116.009 43.7796C112.169 43.7796 111.209 40.1196 113.249 32.6796H112.409C109.169 40.3596 105.629 43.7796 100.889 43.7796ZM103.229 39.9396C107.549 39.9396 112.109 31.8996 115.049 18.9996C114.329 16.6596 111.689 14.9796 108.689 14.9796C102.449 14.9796 98.7891 29.0796 98.7891 34.5396C98.7891 37.9596 100.409 39.9396 103.229 39.9396Z" fill="#E00000"/>
<path d="M79.5301 43.7802C75.3301 43.7802 73.8901 40.6002 75.6301 34.9002L80.1901 19.7802C80.9101 17.4402 80.4901 16.0602 79.0501 16.0602C77.4901 16.0602 76.2901 17.5002 73.7701 22.4802L72.3301 21.9402C75.8701 14.5002 78.1501 12.2202 82.0501 12.2202C86.2501 12.2202 87.6901 15.3402 85.9501 21.0402L81.3901 36.1602C80.6701 38.5002 81.0901 39.9402 82.5301 39.9402C84.0901 39.9402 85.2901 38.5002 87.8101 33.5202L89.2501 34.0602C85.7101 41.5002 83.4301 43.7802 79.5301 43.7802ZM84.9301 8.3802C82.8301 8.3802 81.4501 7.0002 81.4501 4.9602C81.4501 2.5602 83.3701 0.700195 85.8301 0.700195C87.9301 0.700195 89.3101 2.08019 89.3101 4.1202C89.3101 6.5202 87.3901 8.3802 84.9301 8.3802Z" fill="#E00000"/>
<path d="M53.5846 19.7797C54.1846 17.3197 53.7646 16.0597 52.4446 16.0597C50.8846 16.0597 49.6846 17.4397 47.1646 22.4797L45.7246 21.9397C49.4446 14.1397 51.2446 12.2197 54.9046 12.2197C59.4646 12.2197 59.8846 15.3997 56.7646 25.7197H57.6046C61.4446 16.1197 64.5046 12.2197 67.8646 12.2197C70.2046 12.2197 71.8246 13.6597 71.8246 15.6397C71.8246 17.3797 70.6246 18.9397 68.4046 19.8997C67.2646 18.5197 66.1246 17.8597 64.8646 17.8597C61.9246 17.8597 58.8046 25.0597 53.8846 42.9997H47.7046L53.5846 19.7797Z" fill="#E00000"/>
<path d="M19.8594 43.7797C7.91937 43.7797 0.359375 36.6397 0.359375 25.4797C0.359375 11.4397 11.8794 0.219727 26.2794 0.219727C34.3194 0.219727 38.8794 3.45973 40.7394 3.45973C41.4594 3.45973 41.6394 3.15973 41.8794 2.31973H43.3794L41.2194 16.3597H39.4794C40.7394 8.25973 35.2794 2.55973 26.2794 2.55973C15.3594 2.55973 7.91938 12.3397 7.91938 26.3797C7.91938 35.7997 12.4794 41.4397 20.2194 41.4397C25.0194 41.4397 28.8594 39.4597 31.6794 35.4997L32.8794 29.8597C33.6594 26.1997 32.5794 24.6397 29.3394 24.6397H26.2194L26.6394 22.6597H44.4594L44.0994 24.6397H42.7194C41.0994 24.6397 40.1394 26.0197 39.4194 29.5597L36.3594 43.6597H34.5594C34.9794 41.4397 34.4994 40.8397 33.2994 40.8397C31.0794 40.8397 27.5394 43.7797 19.8594 43.7797Z" fill="#E00000"/>
</g>
<defs>
<clipPath id="clip0_2477_855">
<rect width="318.907" height="43.7402" fill="white" transform="translate(0.359375 0.0400391)"/>
</clipPath>
</defs>
</svg>
