<svg width="52" height="18" viewBox="0 0 52 18" fill="none" xmlns="http://www.w3.org/2000/svg">
<g clip-path="url(#clip0_2477_845)">
<path d="M45.2787 17.112C41.7507 17.112 39.3027 14.448 39.3027 10.8C39.3027 7.176 41.7507 4.488 45.2787 4.488C46.9827 4.488 48.8787 5.112 49.8387 6.792H49.9827V0H51.5907V16.8H49.9827V14.808H49.8387C48.8787 16.488 46.9827 17.112 45.2787 17.112ZM45.4707 15.6C48.2067 15.6 49.9827 13.704 49.9827 10.8C49.9827 7.92 48.2067 6 45.4707 6C42.7587 6 40.9587 7.92 40.9587 10.8C40.9587 13.704 42.7587 15.6 45.4707 15.6Z" fill="#E00000"/>
<path d="M34.1094 16.7995H32.5254V4.79954H34.1094V6.40754H34.2534C34.7814 5.13554 35.6934 4.72754 37.3254 4.72754H38.0694V6.28754H36.7014C34.8054 6.28754 34.1094 7.75154 34.1094 9.64754V16.7995Z" fill="#E00000"/>
<path d="M22.5678 17.1123C19.0398 17.1123 16.5918 14.4483 16.5918 10.8003C16.5918 7.17628 19.0398 4.48828 22.5678 4.48828C24.2718 4.48828 26.1678 5.11228 27.1278 6.79228H27.2718V4.80028H28.8798V16.8003H27.2718V14.8083H27.1278C26.1678 16.4883 24.2718 17.1123 22.5678 17.1123ZM22.7598 15.6003C25.4958 15.6003 27.2718 13.7043 27.2718 10.8003C27.2718 7.92028 25.4958 6.00028 22.7598 6.00028C20.0478 6.00028 18.2478 7.92028 18.2478 10.8003C18.2478 13.7043 20.0478 15.6003 22.7598 15.6003Z" fill="#E00000"/>
<path d="M11.856 7.488V0H13.512V16.8H11.856V9.024H1.656V16.8H0V0H1.656V7.488H11.856Z" fill="#E00000"/>
</g>
<defs>
<clipPath id="clip0_2477_845">
<rect width="51.5907" height="17.1123" fill="white"/>
</clipPath>
</defs>
</svg>
