<svg width="249" height="73" viewBox="0 0 249 73" fill="none" xmlns="http://www.w3.org/2000/svg">
<g clip-path="url(#clip0_2477_821)">
<path d="M239.181 72.7797C234.921 72.7797 233.541 69.4797 235.341 63.6597L238.761 52.4997C240.201 47.6997 239.541 45.5997 236.661 45.5997C232.461 45.5997 228.081 54.4197 223.581 71.9997H217.401L222.501 52.4997C223.701 47.9997 222.681 45.5997 219.741 45.5997C215.601 45.5997 211.041 54.5397 206.361 71.9997H200.181L206.061 48.7797C206.661 46.2597 206.301 45.0597 204.921 45.0597C203.361 45.0597 202.161 46.4397 199.641 51.4797L198.201 50.9397C201.921 43.1397 203.781 41.2197 207.501 41.2197C212.001 41.2197 212.481 44.5797 209.421 54.6597H210.261C214.041 45.2397 217.641 41.2197 222.201 41.2197C227.841 41.2197 229.281 45.8997 226.341 54.6597H227.181C230.901 45.4797 234.801 41.2197 239.421 41.2197C244.821 41.2197 246.921 45.8397 244.701 53.0997L241.041 65.1597C240.321 67.4997 240.741 68.9397 242.181 68.9397C243.741 68.9397 244.941 67.4397 247.461 62.5197L248.901 63.0597C245.361 70.4997 243.081 72.7797 239.181 72.7797Z" fill="#E00000"/>
<path d="M172.785 72.7797C167.985 72.7797 164.865 69.9597 164.865 65.4597C164.865 60.2397 168.405 57.5397 176.985 56.3997L184.425 55.3797L185.205 52.3197C186.645 46.8597 184.665 43.4397 179.985 43.4397C176.565 43.4397 174.345 45.0597 174.345 47.5197C174.345 48.9597 175.125 50.2197 176.625 51.3597C175.785 53.0397 174.225 54.1197 172.425 54.1197C170.145 54.1197 168.705 52.5597 168.705 50.0997C168.705 45.1797 174.525 41.2197 181.725 41.2197C189.585 41.2197 193.365 45.8397 191.325 53.1597L188.025 65.1597C187.305 67.6197 187.725 68.9397 189.105 68.9397C190.665 68.9397 191.865 67.4997 194.385 62.5197L195.825 63.0597C192.165 70.7997 190.305 72.7797 186.765 72.7797C183.165 72.7797 182.205 70.0197 183.765 64.3197H182.925C180.105 70.2597 177.045 72.7797 172.785 72.7797ZM170.925 64.3797C170.925 67.0797 172.425 68.6397 175.065 68.6397C178.965 68.6397 181.845 65.1597 183.645 58.2597L183.885 57.3597L178.965 58.0197C173.265 58.7997 170.925 60.7197 170.925 64.3797Z" fill="#E00000"/>
<path d="M147.742 72.7797C140.542 72.7797 135.982 68.5197 135.982 61.7997C135.982 52.2597 142.522 41.2197 153.022 41.2197C158.602 41.2197 162.082 43.8597 162.082 48.1797C162.082 54.4797 155.662 57.9597 144.022 57.9597L142.822 57.8997C142.642 59.0997 142.582 60.1797 142.582 61.0797C142.582 65.9997 145.282 68.9397 149.842 68.9397C154.342 68.9397 157.702 65.9997 159.982 59.9997L161.422 60.4797C158.362 68.8197 153.982 72.7797 147.742 72.7797ZM143.122 55.9797L144.742 56.0397C152.242 56.0397 156.682 52.9197 156.682 47.6997C156.682 44.8797 155.242 43.2597 152.662 43.2597C147.262 43.2597 144.262 50.0997 143.122 55.9797Z" fill="#E00000"/>
<path d="M117.936 48.7797C118.536 46.3197 118.116 45.0597 116.796 45.0597C115.236 45.0597 114.036 46.4397 111.516 51.4797L110.076 50.9397C113.796 43.1397 115.596 41.2197 119.256 41.2197C123.816 41.2197 124.236 44.3997 121.116 54.7197H121.956C125.796 45.1197 128.856 41.2197 132.216 41.2197C134.556 41.2197 136.176 42.6597 136.176 44.6397C136.176 46.3797 134.976 47.9397 132.756 48.8997C131.616 47.5197 130.476 46.8597 129.216 46.8597C126.276 46.8597 123.156 54.0597 118.236 71.9997H112.056L117.936 48.7797Z" fill="#E00000"/>
<path d="M93.5452 72.7797C86.2852 72.7797 81.7852 68.3997 81.7852 61.3797C81.7852 50.4597 89.4052 41.2197 98.3452 41.2197C103.925 41.2197 107.765 44.0997 107.765 48.2997C107.765 51.1797 106.145 53.1597 103.805 53.1597C102.185 53.1597 100.925 52.1997 100.265 50.4597C101.705 48.7797 102.365 47.3997 102.365 46.1997C102.365 44.3397 100.805 43.2597 98.2252 43.2597C92.9452 43.2597 88.6852 51.0597 88.6852 60.6597C88.6852 65.6997 91.3252 68.6397 95.8252 68.6397C99.8452 68.6397 102.965 65.7597 105.485 59.8797L106.925 60.3597C103.445 69.1197 99.5452 72.7797 93.5452 72.7797Z" fill="#E00000"/>
<path d="M64.4221 72.7797C57.2221 72.7797 52.6621 68.5197 52.6621 61.7997C52.6621 52.2597 59.2021 41.2197 69.7021 41.2197C75.2821 41.2197 78.7621 43.8597 78.7621 48.1797C78.7621 54.4797 72.3421 57.9597 60.7021 57.9597L59.5021 57.8997C59.3221 59.0997 59.2621 60.1797 59.2621 61.0797C59.2621 65.9997 61.9621 68.9397 66.5221 68.9397C71.0221 68.9397 74.3821 65.9997 76.6621 59.9997L78.1021 60.4797C75.0421 68.8197 70.6621 72.7797 64.4221 72.7797ZM59.8021 55.9797L61.4221 56.0397C68.9221 56.0397 73.3621 52.9197 73.3621 47.6997C73.3621 44.8797 71.9221 43.2597 69.3421 43.2597C63.9421 43.2597 60.9421 50.0997 59.8021 55.9797Z" fill="#E00000"/>
<path d="M35.8303 72.7797C28.5703 72.7797 24.0703 68.3997 24.0703 61.3797C24.0703 50.4597 31.6903 41.2197 40.6303 41.2197C46.2103 41.2197 50.0503 44.0997 50.0503 48.2997C50.0503 51.1797 48.4303 53.1597 46.0903 53.1597C44.4703 53.1597 43.2103 52.1997 42.5503 50.4597C43.9903 48.7797 44.6503 47.3997 44.6503 46.1997C44.6503 44.3397 43.0903 43.2597 40.5103 43.2597C35.2303 43.2597 30.9703 51.0597 30.9703 60.6597C30.9703 65.6997 33.6103 68.6397 38.1103 68.6397C42.1303 68.6397 45.2503 65.7597 47.7703 59.8797L49.2103 60.3597C45.7303 69.1197 41.8303 72.7797 35.8303 72.7797Z" fill="#E00000"/>
<path d="M0.640625 72L1.06063 69.96H2.80063C4.78063 69.96 5.80063 68.64 6.58063 64.98L12.5206 36.96C13.2406 33.36 12.7606 31.98 10.7806 31.98H8.74063L9.22062 30H25.1806L24.7006 31.98H23.0206C21.0406 31.98 19.9606 33.36 19.2406 36.96L13.3006 64.98C12.5206 68.58 13.0606 69.96 15.0406 69.96H17.0206L16.6006 72H0.640625Z" fill="#E00000"/>
<path d="M56.9501 22.3898C54.8201 22.3898 54.1301 20.7398 55.0301 17.8298L56.7401 12.2498C57.4301 10.0598 56.8901 8.7998 55.2701 8.7998C53.1101 8.7998 50.6801 13.5998 48.6401 21.9998H45.5801L49.5401 3.5498C49.7801 2.4398 49.4801 2.0498 48.3401 2.0498H47.8001L47.9801 1.2098L52.7201 0.549805H53.3501L51.9401 6.6998L50.2001 13.0298H50.6201C52.4501 8.6498 54.4001 6.60981 56.6501 6.60981C59.6801 6.60981 60.8201 8.8598 59.7101 12.5498L57.8801 18.5798C57.5201 19.7498 57.7301 20.4698 58.4501 20.4698C59.2301 20.4698 59.8301 19.7198 61.0901 17.2598L61.8101 17.5298C60.0401 21.2498 58.9001 22.3898 56.9501 22.3898Z" fill="#E00000"/>
<path d="M38.7323 22.39C36.1523 22.39 35.1923 20.71 35.9723 17.44L38.0423 8.53H35.4023L35.7623 7H38.4023C39.9323 6.07 41.2823 4.18 41.6423 2.5H42.6323L41.5823 7H45.1523L44.7923 8.53H41.2223L39.0323 17.98C38.6723 19.48 39.0923 20.32 40.2023 20.32C41.2223 20.32 41.8823 19.6 43.1123 17.2L43.8323 17.47C42.0323 21.19 40.7723 22.39 38.7323 22.39Z" fill="#E00000"/>
<path d="M28.2016 22.3896C26.1016 22.3896 25.3816 20.7996 26.2516 17.9496L28.5316 10.3896C28.8916 9.21961 28.6816 8.52961 27.9616 8.52961C27.1816 8.52961 26.5816 9.24961 25.3216 11.7396L24.6016 11.4696C26.3716 7.74961 27.5116 6.60961 29.4616 6.60961C31.5616 6.60961 32.2816 8.16961 31.4116 11.0196L29.1316 18.5796C28.7716 19.7496 28.9816 20.4696 29.7016 20.4696C30.4816 20.4696 31.0816 19.7496 32.3416 17.2596L33.0616 17.5296C31.2916 21.2496 30.1516 22.3896 28.2016 22.3896ZM30.9016 4.68961C29.8516 4.68961 29.1616 3.99961 29.1616 2.97961C29.1616 1.77961 30.1216 0.849609 31.3516 0.849609C32.4016 0.849609 33.0916 1.53961 33.0916 2.55961C33.0916 3.75961 32.1316 4.68961 30.9016 4.68961Z" fill="#E00000"/>
<path d="M4.71914 22.3904C5.52914 11.9804 5.28914 8.77035 3.75914 8.77035C3.09914 8.77035 2.61914 9.43035 1.86914 11.3504L1.11914 11.0804C2.49914 7.60035 3.33914 6.61035 4.95914 6.61035C7.86914 6.61035 8.52914 9.19035 7.98914 18.2504H8.28914C9.99914 16.3604 11.4691 14.2004 12.4291 12.1904L12.3091 7.00035H15.2491L15.5191 19.1804H15.8191C19.1491 16.5404 21.3391 13.4804 21.3391 11.5604C21.3391 10.0904 20.2891 8.92035 18.9991 8.92035C19.1791 7.39035 19.8991 6.61035 21.0991 6.61035C22.5091 6.61035 23.3191 7.60035 23.3191 9.25035C23.3191 13.0304 19.6591 17.8904 13.4491 22.3904H12.6991L12.4891 14.4704H12.2491C10.5691 17.1104 8.28914 19.7804 5.46914 22.3904H4.71914Z" fill="#E00000"/>
</g>
<defs>
<clipPath id="clip0_2477_821">
<rect width="248.261" height="72.2299" fill="white" transform="translate(0.640625 0.549805)"/>
</clipPath>
</defs>
</svg>
