<svg width="77" height="18" viewBox="0 0 77 18" fill="none" xmlns="http://www.w3.org/2000/svg">
<g clip-path="url(#clip0_2477_814)">
<path d="M76.8086 17.0002H75.2246V0.200195H76.8086V17.0002Z" fill="#E00000"/>
<path d="M65.1948 17.3125C61.6668 17.3125 59.2188 14.6485 59.2188 11.0005C59.2188 7.37648 61.6668 4.68848 65.1948 4.68848C66.8988 4.68848 68.7947 5.31248 69.7547 6.99248H69.8988V5.00048H71.5067V17.0005H69.8988V15.0085H69.7547C68.7947 16.6885 66.8988 17.3125 65.1948 17.3125ZM65.3868 15.8005C68.1228 15.8005 69.8988 13.9045 69.8988 11.0005C69.8988 8.12048 68.1228 6.20048 65.3868 6.20048C62.6748 6.20048 60.8748 8.12048 60.8748 11.0005C60.8748 13.9045 62.6748 15.8005 65.3868 15.8005Z" fill="#E00000"/>
<path d="M41.7442 17.0005H40.1602V5.00048H41.7442V6.32048H41.8882C42.5842 5.16848 43.7602 4.68848 45.0322 4.68848C46.6402 4.68848 47.8402 5.45648 48.5122 6.82448H48.6802C49.4722 5.31248 50.8642 4.68848 52.3522 4.68848C54.8962 4.68848 56.5042 6.48848 56.5042 9.48848V17.0005H54.9202V9.56048C54.9202 7.37648 53.8642 6.20048 52.0402 6.20048C50.1922 6.20048 49.1362 7.42448 49.1362 9.56048V17.0005H47.5282V9.56048C47.5282 7.37648 46.4962 6.20048 44.6482 6.20048C42.8242 6.20048 41.7442 7.42448 41.7442 9.56048V17.0005Z" fill="#E00000"/>
<path d="M34.1504 16.9997H32.5664V4.99973H34.1504V6.60773H34.2944C34.8224 5.33573 35.7344 4.92773 37.3664 4.92773H38.1104V6.48773H36.7424C34.8464 6.48773 34.1504 7.95173 34.1504 9.84773V16.9997Z" fill="#E00000"/>
<path d="M23.5056 17.3125C19.8576 17.3125 17.2656 14.7205 17.2656 11.0005C17.2656 7.28048 19.8576 4.68848 23.5056 4.68848C27.1536 4.68848 29.7456 7.28048 29.7456 11.0005C29.7456 14.7205 27.1536 17.3125 23.5056 17.3125ZM23.5056 15.8005C26.2656 15.8005 28.0896 13.9045 28.0896 11.0005C28.0896 8.09648 26.2656 6.20048 23.5056 6.20048C20.7456 6.20048 18.9216 8.09648 18.9216 11.0005C18.9216 13.9045 20.7456 15.8005 23.5056 15.8005Z" fill="#E00000"/>
<path d="M1.69645 17.0002H0.0644531V0.200195H2.39245L12.4005 14.9842H12.5685V0.200195H14.2005V17.0002H11.8725L1.84045 2.2162H1.69645V17.0002Z" fill="#E00000"/>
</g>
<defs>
<clipPath id="clip0_2477_814">
<rect width="76.7442" height="17.1123" fill="white" transform="translate(0.0644531 0.200195)"/>
</clipPath>
</defs>
</svg>
