<svg width="108" height="108" viewBox="0 0 108 108" fill="none" xmlns="http://www.w3.org/2000/svg">
<path d="M19.504 58.312C14.56 58.312 11.056 54.712 11.056 49.6C11.056 44.488 14.56 40.888 19.504 40.888C24.472 40.888 27.952 44.488 27.952 49.6C27.952 54.712 24.472 58.312 19.504 58.312ZM19.504 56.344C23.296 56.344 25.816 53.656 25.816 49.6C25.816 45.544 23.296 42.856 19.504 42.856C15.712 42.856 13.216 45.544 13.216 49.6C13.216 53.656 15.712 56.344 19.504 56.344ZM45.1118 58H42.5918L37.4318 50.992H33.4958V58H31.4318V41.2H39.1118C42.7838 41.2 44.9198 43.24 44.9198 46.096C44.9198 48.736 43.0718 50.68 39.8798 50.968L45.1118 58ZM39.1118 43.12H33.4958V49.072H39.1118C41.4398 49.072 42.7598 47.968 42.7598 46.096C42.7598 44.224 41.4398 43.12 39.1118 43.12ZM53.785 58H48.529V41.2H53.785C60.193 41.2 63.361 44.8 63.361 49.6C63.361 54.424 60.169 58 53.785 58ZM50.593 43.12V56.08H53.785C58.921 56.08 61.201 53.344 61.201 49.6C61.201 45.808 58.897 43.12 53.785 43.12H50.593ZM68.9089 50.392V56.08H78.7009V58H66.8449V41.2H78.5569V43.12H68.9089V48.472H77.9809V50.392H68.9089ZM95.8174 58H93.2974L88.1374 50.992H84.2014V58H82.1374V41.2H89.8174C93.4894 41.2 95.6254 43.24 95.6254 46.096C95.6254 48.736 93.7774 50.68 90.5854 50.968L95.8174 58ZM89.8174 43.12H84.2014V49.072H89.8174C92.1454 49.072 93.4654 47.968 93.4654 46.096C93.4654 44.224 92.1454 43.12 89.8174 43.12Z" fill="#E00000"/>
<path d="M53.1481 66.464L59.9761 73.292H45.5996H45.3996V73.492V74.5072V74.7072H45.5996H59.9761L53.1481 81.5352L53.0079 81.6753L53.1468 81.8168L53.8569 82.5398L53.9983 82.6837L54.141 82.541L62.541 74.141L62.6825 73.9996L62.541 73.8582L54.141 65.4582L53.9983 65.3155L53.8569 65.4595L53.1468 66.1825L53.0079 66.3239L53.1481 66.464Z" fill="#E00000" stroke="#E00000" stroke-width="0.4"/>
<circle cx="54" cy="54" r="53" stroke="#E00000" stroke-width="2"/>
</svg>
