<svg width="1001" height="186" viewBox="0 0 1001 186" fill="none" xmlns="http://www.w3.org/2000/svg">
<g clip-path="url(#clip0_2477_653)">
<path d="M389.191 73.718C374.61 73.718 364.18 62.9844 364.18 48.0991C364.18 32.1 375.521 20.4551 390.811 20.4551C404.178 20.4551 413.797 28.8597 412.987 39.8971H373.698C373.597 41.2134 373.496 42.6311 373.496 44.15C373.496 58.6302 380.786 67.4399 392.938 67.4399C402.76 67.4399 409.038 62.6806 411.468 53.3647L412.785 53.5672C409.848 67.0348 401.95 73.718 389.191 73.718ZM373.901 38.0744H403.266C403.57 28.8597 397.697 22.379 388.887 22.379C380.584 22.379 375.318 27.9483 373.901 38.0744Z" fill="#E00000"/>
<path d="M317.002 31.695C314.572 25.9232 312.85 23.3916 311.331 23.3916H309.812V21.7715H335.026V23.3916H330.368C325.508 23.3916 324.293 27.3408 327.027 33.7202L339.684 62.9844H340.292L352.848 33.8215C355.582 27.2395 354.367 23.3916 349.507 23.3916H343.937V21.7715H362.873V23.3916H361.354C359.835 23.3916 358.114 25.9232 355.683 31.695L337.862 73.2117H335.33L317.002 31.695Z" fill="#E00000"/>
<path d="M270.792 72.4016V70.7815H273.728C276.665 70.7815 277.677 68.3512 277.677 61.668V29.1635C277.677 25.4168 276.361 24.1004 272.311 24.1004H270.387V22.6828L283.956 20.5563H285.171V32.6063H285.778C291.854 23.4929 295.803 20.4551 300.967 20.4551C305.119 20.4551 307.651 22.5815 307.651 25.8219C307.651 28.0496 306.435 30.1761 304.208 31.5937C300.765 29.366 298.132 28.3534 294.993 28.3534C289.322 28.3534 286.183 33.0114 286.183 41.1122V61.668C286.183 68.3512 287.803 70.7815 292.056 70.7815H296.411V72.4016H270.792Z" fill="#E00000"/>
<path d="M242.144 73.718C227.563 73.718 217.133 62.9844 217.133 48.0991C217.133 32.1 228.474 20.4551 243.764 20.4551C257.131 20.4551 266.75 28.8597 265.94 39.8971H226.651C226.55 41.2134 226.449 42.6311 226.449 44.15C226.449 58.6302 233.74 67.4399 245.891 67.4399C255.713 67.4399 261.991 62.6806 264.421 53.3647L265.738 53.5672C262.801 67.0348 254.903 73.718 242.144 73.718ZM226.854 38.0744H256.219C256.523 28.8597 250.65 22.379 241.84 22.379C233.537 22.379 228.271 27.9483 226.854 38.0744Z" fill="#E00000"/>
<path d="M190.079 73.718C179.245 73.718 174.182 70.8827 172.156 70.8827C171.245 70.8827 170.941 71.389 170.941 72.5029H169.625L168.916 52.9596H170.334C170.232 63.3895 179.143 71.8953 190.079 71.8953C197.168 71.8953 201.826 67.9462 201.826 61.5668C201.826 55.3899 197.978 51.947 188.662 50.0231C175.498 47.2891 170.232 42.8336 170.232 34.7328C170.232 25.9231 177.321 20.4551 188.864 20.4551C197.573 20.4551 202.129 23.1891 204.053 23.1891C204.762 23.1891 205.167 22.6828 205.167 21.5689H206.484L207.091 39.087H205.775C205.572 29.9735 197.876 22.2778 188.864 22.2778C182.181 22.2778 177.726 25.9231 177.726 31.4925C177.726 37.163 181.675 40.4034 191.092 42.226C203.75 44.6563 209.42 49.5168 209.42 58.0227C209.42 67.6424 201.927 73.718 190.079 73.718Z" fill="#E00000"/>
<path d="M111.615 73.718C97.0333 73.718 86.6035 62.9844 86.6035 48.0991C86.6035 32.1 97.9447 20.4551 113.235 20.4551C126.601 20.4551 136.221 28.8597 135.411 39.8971H96.122C96.0207 41.2134 95.9195 42.6311 95.9195 44.15C95.9195 58.6302 103.21 67.4399 115.361 67.4399C125.184 67.4399 131.462 62.6806 133.892 53.3647L135.208 53.5672C132.272 67.0348 124.374 73.718 111.615 73.718ZM96.3245 38.0744H125.69C125.994 28.8597 120.121 22.379 111.311 22.379C103.008 22.379 97.7422 27.9483 96.3245 38.0744Z" fill="#E00000"/>
<path d="M41.213 31.695C38.884 25.9232 37.0613 23.3916 35.5424 23.3916H34.1247V21.7715H59.0348V23.3916H54.1743C49.3138 23.3916 48.1999 27.3408 50.8327 33.8215L62.9839 62.8832H63.5915L75.6415 33.8215C78.2742 27.4421 77.1604 23.3916 72.4011 23.3916H66.7306V21.7715H85.3625V23.3916H84.2486C82.7297 23.3916 81.0083 25.8219 78.578 31.695L61.1612 73.2117H58.6297L43.2382 36.4542H42.6306L27.4416 73.2117H24.91L7.18948 31.695C4.75924 25.9232 2.93655 23.3916 1.51891 23.3916H0V21.7715H25.3151V23.3916H20.4546C15.5941 23.3916 14.379 27.2395 17.113 33.7202L29.2642 62.8832H29.8718L42.023 33.5177L41.213 31.695Z" fill="#E00000"/>
<path d="M977.404 73.718C967.582 73.718 961.102 69.6676 961.102 63.6932C961.102 60.2504 963.228 58.0227 966.367 58.0227C968.392 58.0227 970.215 58.934 971.329 60.4529C969.911 62.2756 969.304 63.997 969.304 65.7184C969.304 69.4651 972.848 71.7941 978.417 71.7941C984.493 71.7941 988.442 68.655 988.442 63.4907C988.442 52.4533 969.202 48.5042 969.202 34.834C969.202 26.5307 976.088 20.4551 985.91 20.4551C994.821 20.4551 1001 24.303 1001 29.771C1001 33.1126 998.872 35.5429 995.834 35.5429C994.011 35.5429 992.29 34.6315 990.973 33.0114C992.492 30.8849 992.999 29.771 992.999 28.2521C992.999 24.6067 989.86 22.379 984.695 22.379C979.328 22.379 975.683 25.5181 975.683 30.3786C975.683 41.6185 995.024 46.1752 995.024 59.2378C995.024 67.6424 987.632 73.718 977.404 73.718Z" fill="#E00000"/>
<path d="M933.587 73.718C922.145 73.718 914.955 66.6298 914.955 55.4911C914.955 39.2895 926.094 20.4551 943.612 20.4551C952.421 20.4551 957.788 24.5055 957.788 31.4925C957.788 41.9223 947.156 47.4916 927.208 47.4916L924.372 47.3903C923.967 50.0231 923.765 52.5546 923.765 54.6811C923.765 63.2882 928.828 68.5537 937.232 68.5537C945.131 68.5537 950.801 63.3895 955.358 51.947L956.674 52.3521C951.409 66.731 943.814 73.718 933.587 73.718ZM924.676 45.7702L927.815 45.8714C941.89 45.8714 950.194 40.2008 950.194 30.4798C950.194 25.1131 947.662 22.2778 942.903 22.2778C932.676 22.2778 926.803 34.834 924.676 45.7702Z" fill="#E00000"/>
<path d="M894.754 73.7175C888.678 73.7175 886.653 69.2621 888.78 60.4524L901.235 8.60712C902.146 4.75923 901.235 3.54411 897.488 3.54411H895.159L895.463 2.12647L910.551 0H911.766L896.982 61.3638C895.969 65.6167 896.779 68.1482 899.311 68.1482C902.045 68.1482 904.475 65.3129 908.93 56.807L910.247 57.3133C903.665 70.2747 900.323 73.7175 894.754 73.7175Z" fill="#E00000"/>
<path d="M851.43 93.1595C845.253 93.1595 841 90.223 841 85.97C841 82.831 843.43 80.4007 846.671 80.4007C848.291 80.4007 850.113 81.1095 851.632 82.1221C850.721 84.1473 850.316 85.565 850.316 87.0839C850.316 89.7167 851.43 91.1343 853.556 91.1343C856.29 91.1343 857.708 88.8053 858.822 82.6284L869.15 25.6189H858.721L859.531 21.771H869.859L869.96 21.1634C872.391 7.99957 881.302 0 893.25 0C900.136 0 904.794 2.73403 904.794 6.58192C904.794 9.21469 902.668 11.1386 899.731 11.1386C898.01 11.1386 896.288 10.5311 895.073 9.51847C895.782 8.60713 896.389 7.29075 896.389 5.97436C896.389 3.64537 894.263 2.0252 891.023 2.0252C885.15 2.0252 881.099 5.56932 879.884 12.3538L878.163 21.771H888.592L887.782 25.6189H877.454L868.948 73.0087C866.518 86.0713 860.442 93.1595 851.43 93.1595Z" fill="#E00000"/>
<path d="M815.336 93.1595C809.159 93.1595 804.906 90.223 804.906 85.97C804.906 82.831 807.337 80.4007 810.577 80.4007C812.298 80.4007 814.02 81.1095 815.539 82.1221C814.526 84.1473 814.222 85.565 814.222 87.0839C814.222 89.7167 815.336 91.1343 817.463 91.1343C820.197 91.1343 821.614 88.8053 822.728 82.6284L833.057 25.6189H822.627L823.437 21.771H833.765L833.867 21.1634C836.196 8.10082 844.195 0 854.929 0C862.22 0 867.181 3.34159 867.181 8.30335C867.181 11.7462 864.751 14.2777 861.511 14.2777C859.789 14.2777 858.068 13.6701 856.65 12.5563C857.663 10.9361 858.27 8.80965 858.27 7.08822C858.27 3.94915 856.144 2.0252 852.802 2.0252C848.144 2.0252 845.005 5.67058 843.79 12.3538L842.069 21.771H854.524L853.714 25.6189H841.36L832.854 73.0087C830.424 86.1725 824.348 93.1595 815.336 93.1595Z" fill="#E00000"/>
<path d="M778.991 73.718C771.092 73.718 766.029 69.1613 766.029 61.8705C766.029 53.2634 772.004 49.1117 786.99 46.9853L799.344 45.1626L801.167 38.4794C803.698 28.8597 799.648 22.4803 791.243 22.4803C785.066 22.4803 781.117 25.6194 781.117 30.6824C781.117 33.3151 782.332 35.8466 784.661 37.7706C783.142 40.3021 780.915 41.7197 778.282 41.7197C774.839 41.7197 772.611 39.2895 772.611 35.4416C772.611 27.2395 782.028 20.4551 793.673 20.4551C806.128 20.4551 812.305 27.9483 809.166 39.3908L803.192 61.3642C801.977 65.7184 802.787 68.1487 805.318 68.1487C808.154 68.1487 810.483 65.3134 814.938 56.8075L816.254 57.3138C809.571 70.3764 806.533 73.718 801.268 73.718C795.699 73.718 794.483 69.4651 797.217 59.4403H796.002C791.648 69.1613 786.281 73.718 778.991 73.718ZM774.535 60.2504C774.535 65.6172 777.472 68.5537 782.636 68.5537C790.028 68.5537 794.787 62.2756 798.635 47.9979L798.939 46.9853L789.218 48.4029C778.889 49.9218 774.535 53.3647 774.535 60.2504Z" fill="#E00000"/>
<path d="M702.058 73.718C705.399 39.9983 704.488 26.5307 698.615 26.5307C696.185 26.5307 694.666 28.7584 691.932 35.4416L690.615 34.9353C695.071 23.6954 697.703 20.4551 702.361 20.4551C711.374 20.4551 713.5 31.695 710.766 63.0857H711.779C718.563 55.7949 724.335 47.6941 727.98 40.5046L727.575 21.7715H735.372L736.385 65.5159H737.397C749.954 55.2886 758.257 43.6437 758.257 36.353C758.257 31.695 754.511 27.7458 749.954 27.7458C750.561 22.8853 752.688 20.4551 756.434 20.4551C760.789 20.4551 763.32 23.6954 763.32 29.1635C763.32 41.821 750.966 58.529 730.411 73.718H728.79L728.183 46.0739H727.271C721.702 55.3899 713.5 64.9084 703.678 73.718H702.058Z" fill="#E00000"/>
<path d="M646.342 73.7175C640.266 73.7175 638.241 68.857 640.874 60.3512L647.051 39.7953C649.785 31.0869 647.658 26.1252 641.38 26.1252C632.672 26.1252 625.584 40.0991 617.787 72.4011H609.787L623.356 8.60712C624.166 4.86049 623.255 3.54411 619.407 3.54411H617.078L617.382 2.12647L632.469 0H633.685L628.52 22.6823L623.66 42.6306H624.875C631.254 27.3403 637.836 20.4546 645.836 20.4546C655.354 20.4546 658.797 27.9478 655.05 40.4029L648.772 61.06C647.456 65.4142 648.266 68.1482 650.899 68.1482C653.734 68.1482 656.063 65.3129 660.519 56.807L661.835 57.3133C655.253 70.2747 651.911 73.7175 646.342 73.7175Z" fill="#E00000"/>
<path d="M580.867 73.718C571.045 73.718 564.564 69.6676 564.564 63.6932C564.564 60.2504 566.691 58.0227 569.83 58.0227C571.855 58.0227 573.678 58.934 574.792 60.4529C573.374 62.2756 572.767 63.997 572.767 65.7184C572.767 69.4651 576.311 71.7941 581.88 71.7941C587.956 71.7941 591.905 68.655 591.905 63.4907C591.905 52.4533 572.665 48.5042 572.665 34.834C572.665 26.5307 579.551 20.4551 589.373 20.4551C598.284 20.4551 604.461 24.303 604.461 29.771C604.461 33.1126 602.335 35.5429 599.297 35.5429C597.474 35.5429 595.753 34.6315 594.436 33.0114C595.955 30.8849 596.461 29.771 596.461 28.2521C596.461 24.6067 593.322 22.379 588.158 22.379C582.791 22.379 579.146 25.5181 579.146 30.3786C579.146 41.6185 598.487 46.1752 598.487 59.2378C598.487 67.6424 591.095 73.718 580.867 73.718Z" fill="#E00000"/>
<path d="M537.05 73.718C525.607 73.718 518.418 66.6298 518.418 55.4911C518.418 39.2895 529.557 20.4551 547.075 20.4551C555.884 20.4551 561.251 24.5055 561.251 31.4925C561.251 41.9223 550.619 47.4916 530.67 47.4916L527.835 47.3903C527.43 50.0231 527.228 52.5546 527.228 54.6811C527.228 63.2882 532.291 68.5537 540.695 68.5537C548.594 68.5537 554.264 63.3895 558.821 51.947L560.137 52.3521C554.872 66.731 547.277 73.718 537.05 73.718ZM528.139 45.7702L531.278 45.8714C545.353 45.8714 553.657 40.2008 553.657 30.4798C553.657 25.1131 551.125 22.2778 546.366 22.2778C536.139 22.2778 530.265 34.834 528.139 45.7702Z" fill="#E00000"/>
<path d="M489.748 33.1126C490.862 28.6572 490.052 26.0244 487.52 26.0244C484.786 26.0244 482.457 28.8597 477.901 37.3656L476.686 36.8593C483.267 23.7967 486.305 20.4551 491.773 20.4551C498.355 20.4551 498.862 25.8219 493.9 43.4412H495.115C501.596 26.9357 506.659 20.4551 512.43 20.4551C516.076 20.4551 518.709 22.7841 518.709 25.9231C518.709 28.5559 516.683 30.8849 513.241 32.1C511.317 29.5685 509.595 28.4546 507.367 28.4546C502.001 28.4546 496.229 41.416 488.027 72.4016H479.825L489.748 33.1126Z" fill="#E00000"/>
<path d="M437.785 93.1595C431.608 93.1595 427.355 90.223 427.355 85.97C427.355 82.831 429.786 80.4007 433.026 80.4007C434.747 80.4007 436.469 81.1095 437.988 82.1221C436.975 84.1473 436.671 85.565 436.671 87.0839C436.671 89.7167 437.785 91.1343 439.912 91.1343C442.646 91.1343 444.063 88.8053 445.177 82.6284L455.506 25.6189H445.076L445.886 21.771H456.215L456.316 21.1634C458.645 8.10082 466.644 0 477.378 0C484.669 0 489.631 3.34159 489.631 8.30335C489.631 11.7462 487.2 14.2777 483.96 14.2777C482.239 14.2777 480.517 13.6701 479.099 12.5563C480.112 10.9361 480.72 8.80965 480.72 7.08822C480.72 3.94915 478.593 2.0252 475.252 2.0252C470.594 2.0252 467.455 5.67058 466.239 12.3538L464.518 21.771H476.973L476.163 25.6189H463.809L455.303 73.0087C452.873 86.1725 446.797 93.1595 437.785 93.1595Z" fill="#E00000"/>
<path d="M658.248 185.56C653.792 185.56 650.653 182.826 650.653 179.181C650.653 175.839 653.185 173.308 657.235 172.903C658.653 175.839 661.387 177.865 664.02 177.865C666.349 177.865 668.374 175.839 669.994 171.586L671.715 166.929L651.261 123.893C648.527 118.121 646.907 115.792 645.286 115.792H643.768V114.172H669.386V115.792H664.627C659.868 115.792 658.552 119.741 661.488 126.019L675.563 155.79H676.171L687.613 126.323C690.246 119.741 688.828 115.792 683.867 115.792H677.994V114.172H697.031V115.792H695.714C694.195 115.792 692.575 118.324 690.347 124.197L672.019 171.485C668.171 181.206 664.02 185.56 658.248 185.56Z" fill="#E00000"/>
<path d="M611.081 165.815C602.272 165.815 596.5 160.954 596.5 153.461C596.5 146.373 601.361 142.727 614.423 139.791L630.321 136.247V131.589C630.321 121.159 625.359 115.488 615.841 115.488C609.664 115.488 606.424 117.817 606.424 122.07C606.424 125.108 608.145 127.639 611.385 129.462C610.474 132.601 607.942 134.525 604.803 134.525C601.158 134.525 598.525 131.589 598.525 127.437C598.525 119.032 608.044 112.855 621.005 112.855C632.549 112.855 638.827 119.336 638.827 131.184V154.068C638.827 160.752 639.839 163.182 642.776 163.182H645.713V164.802H631.03L630.422 153.258H629.815C625.865 161.46 619.182 165.815 611.081 165.815ZM605.006 151.436C605.006 157.207 608.449 160.448 614.727 160.448C623.942 160.448 630.321 153.765 630.321 144.246V137.968L617.157 140.905C608.347 142.93 605.006 145.765 605.006 151.436Z" fill="#E00000"/>
<path d="M555.449 166.118C542.488 166.118 533.779 156.093 533.779 141.107C533.779 125.006 543.905 114.171 558.892 114.171C564.259 114.171 569.322 115.488 574.688 118.323V101.008C574.688 97.2609 573.372 95.9445 569.322 95.9445H567.398V94.5269L581.979 92.4004H583.194V154.068C583.194 160.751 584.207 163.181 587.143 163.181H589.979V164.802H575.296L574.688 153.764H574.081C569.524 162.169 563.55 166.118 555.449 166.118ZM559.702 160.245C569.018 160.245 574.688 153.764 574.688 143.233V128.449C572.866 121.057 566.284 115.994 558.588 115.994C548.867 115.994 542.893 123.892 542.893 136.955C542.893 151.84 548.968 160.245 559.702 160.245Z" fill="#E00000"/>
<path d="M466.111 185.56C461.656 185.56 458.517 182.826 458.517 179.181C458.517 175.839 461.048 173.308 465.099 172.903C466.516 175.839 469.25 177.865 471.883 177.865C474.212 177.865 476.237 175.839 477.857 171.586L479.579 166.929L459.124 123.893C456.39 118.121 454.77 115.792 453.15 115.792H451.631V114.172H477.25V115.792H472.49C467.731 115.792 466.415 119.741 469.351 126.019L483.427 155.79H484.034L495.477 126.323C498.109 119.741 496.692 115.792 491.73 115.792H485.857V114.172H504.894V115.792H503.577C502.059 115.792 500.438 118.324 498.211 124.197L479.882 171.485C476.035 181.206 471.883 185.56 466.111 185.56Z" fill="#E00000"/>
<path d="M412.102 164.802V163.182H415.039C417.975 163.182 418.988 160.752 418.988 154.068V121.564C418.988 117.817 417.672 116.501 413.621 116.501H411.697V115.083L425.266 112.957H426.481V125.007H427.089C433.164 115.893 437.114 112.855 442.278 112.855C446.43 112.855 448.961 114.982 448.961 118.222C448.961 120.45 447.746 122.576 445.518 123.994C442.075 121.766 439.443 120.754 436.304 120.754C430.633 120.754 427.494 125.412 427.494 133.513V154.068C427.494 160.752 429.114 163.182 433.367 163.182H437.721V164.802H412.102Z" fill="#E00000"/>
<path d="M383.455 166.118C368.873 166.118 358.443 155.385 358.443 140.5C358.443 124.5 369.785 112.855 385.075 112.855C398.441 112.855 408.061 121.26 407.251 132.297H367.962C367.861 133.614 367.759 135.031 367.759 136.55C367.759 151.031 375.05 159.84 387.201 159.84C397.024 159.84 403.302 155.081 405.732 145.765L407.048 145.968C404.112 159.435 396.213 166.118 383.455 166.118ZM368.164 130.475H397.53C397.834 121.26 391.961 114.779 383.151 114.779C374.848 114.779 369.582 120.349 368.164 130.475Z" fill="#E00000"/>
<path d="M311.268 124.095C308.837 118.324 307.116 115.792 305.597 115.792H304.078V114.172H329.292V115.792H324.634C319.773 115.792 318.558 119.741 321.292 126.121L333.95 155.385H334.557L347.114 126.222C349.848 119.64 348.633 115.792 343.772 115.792H338.203V114.172H357.139V115.792H355.62C354.101 115.792 352.379 118.324 349.949 124.095L332.127 165.612H329.596L311.268 124.095Z" fill="#E00000"/>
<path d="M279.031 166.118C264.449 166.118 254.02 155.385 254.02 140.5C254.02 124.5 265.361 112.855 280.651 112.855C294.017 112.855 303.637 121.26 302.827 132.297H263.538C263.437 133.614 263.335 135.031 263.335 136.55C263.335 151.031 270.626 159.84 282.777 159.84C292.6 159.84 298.878 155.081 301.308 145.765L302.624 145.968C299.688 159.435 291.79 166.118 279.031 166.118ZM263.741 130.475H293.106C293.41 121.26 287.537 114.779 278.727 114.779C270.424 114.779 265.158 120.349 263.741 130.475Z" fill="#E00000"/>
</g>
<defs>
<clipPath id="clip0_2477_653">
<rect width="1001" height="185.56" fill="white"/>
</clipPath>
</defs>
</svg>
