<svg width="179" height="180" viewBox="0 0 179 180" fill="none" xmlns="http://www.w3.org/2000/svg">
<g id="ball_2" filter="url(#filter0_d_340_1241)">
<circle id="Ellipse 54" cx="89.5291" cy="89.8443" r="65.4313" transform="rotate(-5.71218 89.5291 89.8443)" fill="#DADADA"/>
<path id="Vector" d="M51.1846 42.0016C51.6956 39.5287 53.6983 38.3304 55.5144 36.9779C56.696 36.0996 58.0328 35.372 59.0592 34.3429C60.5552 32.8343 61.804 29.8446 62.4778 34.8754C62.7676 36.9816 66.5257 36.858 68.0101 34.8199C70.496 31.4002 74.0168 29.1284 77.3768 26.7275C78.289 26.0708 79.8327 25.5441 80.9315 26.3714C82.0323 27.2085 81.291 28.4217 80.9421 29.5095C80.5723 30.6427 81.0259 31.7521 81.4104 32.8252C81.4133 33.0291 81.3751 33.2317 81.2915 33.4134C78.7481 34.5235 79.1162 36.756 79.1943 38.8771C79.1994 39.0908 79.1396 39.2878 79.0266 39.4758C78.4596 39.5978 77.8926 39.7199 77.3277 39.8517C77.5152 38.0622 77.7245 36.2782 77.9002 34.481C77.9687 33.8013 77.9736 33.0638 77.3202 32.6419C76.6073 32.1816 76.0162 32.6668 75.497 33.1059C74.7182 33.7646 73.5419 34.3349 73.301 35.1642C72.5386 37.7526 70.7998 38.7509 68.3556 39.1338C67.7432 39.235 66.856 39.7226 66.6965 40.2172C65.5899 43.6776 61.8551 44.8601 60.2439 47.8767C58.6689 50.8242 55.4355 51.152 52.7313 51.9898C51.0618 52.5027 49.6166 51.5863 50.6543 49.1841C51.3373 47.605 52.1551 46.1298 53.0757 44.7042C54.6637 42.2449 53.5883 41.6683 51.1812 42.0331L51.1846 42.0016Z" fill="#AFAFAF"/>
<path id="Vector_2" d="M58.9025 109.458C59.4871 109.269 60.1565 109.054 60.6448 109.495C62.1262 110.841 62.1118 113.119 63.8493 114.476C64.5365 115.012 63.507 116.607 62.944 117.443C62.1038 118.696 62.1673 121.07 59.688 120.69C57.3183 120.331 56.4904 118.952 56.3315 116.543C56.0927 112.842 56.832 110.144 58.9052 109.466L58.9025 109.458Z" fill="#FEFEFE"/>
<path id="Vector_3" d="M48.6118 113.428C49.9983 113.29 51.3674 113.765 52.0237 115.135C52.4897 116.116 51.8564 117.227 50.8699 117.62C49.4114 118.202 48.3189 117.657 47.9242 116.025C47.6971 115.088 47.0205 114.062 48.6091 113.42L48.6118 113.428Z" fill="#FEFEFE"/>
<path id="Vector 273" d="M104.597 52.6009C101.08 39.4389 89.3052 30.9587 83.6937 27.7048C79.4502 24.9147 78.9722 32.9461 76.9539 42.5667C74.9356 52.1872 75.8085 52.5768 72.1971 79.6442C68.5858 106.712 69.9923 135.065 76.4023 145.512C82.8123 155.959 88.9621 154.27 91.8895 151.355C94.8169 148.439 102.831 111.751 104.141 103.393C105.451 95.036 109.133 69.5807 104.597 52.6009Z" fill="url(#paint0_linear_340_1241)"/>
<path id="Vector_4" d="M79.9693 106.387C82.3149 105.975 84.262 106.609 86.3153 107.926C88.9248 109.595 91.1829 111.911 94.6656 112.266C96.1289 112.412 96.7524 114.405 95.7567 116.195C94.6788 118.125 92.835 117.448 92.0178 116.693C89.8152 114.681 87.3509 113.688 84.4979 113.074C81.1629 112.36 80.6181 109.306 79.8095 106.596L79.9651 106.368L79.9693 106.387Z" fill="url(#paint1_radial_340_1241)"/>
<circle id="Ellipse 55" cx="89.529" cy="89.8443" r="65.4313" fill="url(#paint2_radial_340_1241)"/>
<path id="Vector 274" d="M107.992 54.3579C105.375 41.5515 92.4317 29.6349 85.3148 26.8682C86.2499 26.7747 98.119 24.6631 113.679 32.7922C134.777 43.8144 134.611 66.2263 134.565 70.4521C134.519 74.6779 134.484 75.5021 132.743 74.5038C131.001 73.5054 127.31 79.9719 124.094 81.8179C120.878 83.6639 120.785 89.7704 117.663 92.5451C114.54 95.3198 111.907 103.282 108.657 105.952C106.056 108.088 106.871 102.591 107.223 99.4679C107.784 90.2269 110.804 68.1189 107.992 54.3579Z" fill="url(#paint3_linear_340_1241)"/>
<path id="Vector 275" d="M37.5723 84.9552C38.9577 72.1443 46.7817 49.2492 51.9429 40.2461C51.7628 38.4455 43.7205 44.6071 34.8619 57.8592C24.7147 73.0391 22.3494 102.79 34.792 121.732C47.2347 140.674 49.8539 139.185 45.0468 130.791C39.8364 121.694 35.6065 103.133 37.5723 84.9552Z" fill="#771A1A"/>
<path id="Subtract" d="M106.146 152.234C105.056 152.557 104.439 151.059 105.373 150.411C125.828 136.213 139.163 109.901 138.3 80.1822C137.875 65.5632 134.069 51.9668 127.782 40.3783C127.261 39.4189 128.385 38.4107 129.226 39.1064C140.961 48.8135 149.38 62.6387 152.057 78.8451C157.495 111.768 137.338 143.005 106.146 152.234Z" fill="url(#paint4_linear_340_1241)"/>
</g>
<defs>
<filter id="filter0_d_340_1241" x="0.0927734" y="0.408081" width="178.872" height="178.872" filterUnits="userSpaceOnUse" color-interpolation-filters="sRGB">
<feFlood flood-opacity="0" result="BackgroundImageFix"/>
<feColorMatrix in="SourceAlpha" type="matrix" values="0 0 0 0 0 0 0 0 0 0 0 0 0 0 0 0 0 0 127 0" result="hardAlpha"/>
<feOffset/>
<feGaussianBlur stdDeviation="12"/>
<feComposite in2="hardAlpha" operator="out"/>
<feColorMatrix type="matrix" values="0 0 0 0 0 0 0 0 0 0 0 0 0 0 0 0 0 0 0.45 0"/>
<feBlend mode="normal" in2="BackgroundImageFix" result="effect1_dropShadow_340_1241"/>
<feBlend mode="normal" in="SourceGraphic" in2="effect1_dropShadow_340_1241" result="shape"/>
</filter>
<linearGradient id="paint0_linear_340_1241" x1="82.018" y1="27.1484" x2="94.5889" y2="152.822" gradientUnits="userSpaceOnUse">
<stop stop-color="#771A1A"/>
<stop offset="0.625" stop-color="#BB2424"/>
<stop offset="1" stop-color="#3C1D1D"/>
</linearGradient>
<radialGradient id="paint1_radial_340_1241" cx="0" cy="0" r="1" gradientUnits="userSpaceOnUse" gradientTransform="translate(88.3037 111.633) rotate(111.409) scale(8.88542 16.8384)">
<stop stop-color="#FEFEFE"/>
<stop offset="1" stop-color="#FEFEFE" stop-opacity="0"/>
</radialGradient>
<radialGradient id="paint2_radial_340_1241" cx="0" cy="0" r="1" gradientUnits="userSpaceOnUse" gradientTransform="translate(60.021 55.434) rotate(73.5351) scale(104.111)">
<stop stop-color="white" stop-opacity="0.5"/>
<stop offset="0.552083" stop-color="#D9D9D9" stop-opacity="0"/>
<stop offset="0.8125" stop-opacity="0.09"/>
</radialGradient>
<linearGradient id="paint3_linear_340_1241" x1="107.702" y1="24.6052" x2="115.806" y2="105.623" gradientUnits="userSpaceOnUse">
<stop stop-color="#938D8B"/>
<stop offset="1" stop-color="#938D8B" stop-opacity="0.3"/>
</linearGradient>
<linearGradient id="paint4_linear_340_1241" x1="121.114" y1="36.3577" x2="128.52" y2="151.896" gradientUnits="userSpaceOnUse">
<stop stop-color="#771A1A"/>
<stop offset="0.619792" stop-color="#991616"/>
<stop offset="0.895833" stop-color="#652E2E"/>
</linearGradient>
</defs>
</svg>
