<svg width="149" height="254" viewBox="0 0 149 254" fill="none" xmlns="http://www.w3.org/2000/svg">
<g id="candy" filter="url(#filter0_d_340_960)">
<path id="Union" fill-rule="evenodd" clip-rule="evenodd" d="M121.059 55.7307C123.572 61.797 124.865 68.2988 124.865 74.8649V214.865C124.865 216.835 124.477 218.785 123.723 220.605C122.97 222.425 121.865 224.079 120.472 225.471C119.079 226.864 117.425 227.969 115.605 228.723C113.786 229.477 111.835 229.865 109.865 229.865C107.895 229.865 105.945 229.477 104.125 228.723C102.305 227.969 100.651 226.864 99.2587 225.471C97.8657 224.079 96.7609 222.425 96.0071 220.605C95.2532 218.785 94.8652 216.835 94.8652 214.865V74.8649C94.8652 72.2384 94.3479 69.6377 93.3428 67.2112C92.3378 64.7847 90.8645 62.5799 89.0073 60.7227C87.1501 58.8655 84.9454 57.3924 82.5189 56.3873C80.0924 55.3822 77.4917 54.8649 74.8652 54.8649C72.2388 54.8649 69.6381 55.3822 67.2115 56.3873C64.785 57.3924 62.5803 58.8655 60.7231 60.7227C58.866 62.5799 57.3927 64.7847 56.3877 67.2112C55.3826 69.6377 54.8652 72.2384 54.8652 74.8649C54.8652 76.8347 54.4773 78.7852 53.7234 80.6051C52.9696 82.425 51.8647 84.0786 50.4718 85.4715C49.079 86.8643 47.4254 87.9692 45.6055 88.7231C43.7856 89.4769 41.8351 89.8649 39.8652 89.8649C37.8954 89.8649 35.9449 89.4769 34.125 88.7231C32.3051 87.9692 30.6515 86.8643 29.2586 85.4715C27.8658 84.0786 26.7609 82.425 26.007 80.6051C25.2532 78.7852 24.8652 76.8347 24.8652 74.8649C24.8652 68.2988 26.1585 61.797 28.6713 55.7307C31.184 49.6644 34.8669 44.1525 39.5099 39.5095C44.1528 34.8666 49.6648 31.1837 55.7311 28.6709C61.7974 26.1581 68.2992 24.8649 74.8652 24.8649C81.4313 24.8649 87.9331 26.1581 93.9994 28.6709C100.066 31.1837 105.578 34.8666 110.221 39.5095C114.864 44.1525 118.547 49.6644 121.059 55.7307Z" fill="white"/>
<g id="Mask group">
<mask id="mask0_340_960" style="mask-type:alpha" maskUnits="userSpaceOnUse" x="24" y="24" width="101" height="206">
<path id="Union_2" fill-rule="evenodd" clip-rule="evenodd" d="M121.059 55.7307C123.572 61.797 124.865 68.2988 124.865 74.8649V214.865C124.865 216.835 124.477 218.785 123.723 220.605C122.97 222.425 121.865 224.079 120.472 225.471C119.079 226.864 117.425 227.969 115.605 228.723C113.786 229.477 111.835 229.865 109.865 229.865C107.895 229.865 105.945 229.477 104.125 228.723C102.305 227.969 100.651 226.864 99.2587 225.471C97.8657 224.079 96.7609 222.425 96.0071 220.605C95.2532 218.785 94.8652 216.835 94.8652 214.865V74.8649C94.8652 72.2384 94.3479 69.6377 93.3428 67.2112C92.3378 64.7847 90.8645 62.5799 89.0073 60.7227C87.1501 58.8655 84.9454 57.3924 82.5189 56.3873C80.0924 55.3822 77.4917 54.8649 74.8652 54.8649C72.2388 54.8649 69.6381 55.3822 67.2115 56.3873C64.785 57.3924 62.5803 58.8655 60.7231 60.7227C58.866 62.5799 57.3927 64.7847 56.3877 67.2112C55.3826 69.6377 54.8652 72.2384 54.8652 74.8649C54.8652 76.8347 54.4773 78.7852 53.7234 80.6051C52.9696 82.425 51.8647 84.0786 50.4718 85.4715C49.079 86.8643 47.4254 87.9692 45.6055 88.7231C43.7856 89.4769 41.8351 89.8649 39.8652 89.8649C37.8954 89.8649 35.9449 89.4769 34.125 88.7231C32.3051 87.9692 30.6515 86.8643 29.2586 85.4715C27.8658 84.0786 26.7609 82.425 26.007 80.6051C25.2532 78.7852 24.8652 76.8347 24.8652 74.8649C24.8652 68.2988 26.1585 61.797 28.6713 55.7307C31.184 49.6644 34.8669 44.1525 39.5099 39.5095C44.1528 34.8666 49.6648 31.1837 55.7311 28.6709C61.7974 26.1581 68.2992 24.8649 74.8652 24.8649C81.4313 24.8649 87.9331 26.1581 93.9994 28.6709C100.066 31.1837 105.578 34.8666 110.221 39.5095C114.864 44.1525 118.547 49.6644 121.059 55.7307Z" fill="#D9D9D9"/>
</mask>
<g mask="url(#mask0_340_960)">
<g id="Mask group_2">
<g id="Group 25" filter="url(#filter1_f_340_960)">
<path id="Rectangle 95" d="M94.8662 111.865L124.866 79.1149V94.1149L94.8662 126.865V111.865Z" fill="url(#paint0_linear_340_960)"/>
<mask id="mask1_340_960" style="mask-type:alpha" maskUnits="userSpaceOnUse" x="94" y="50" width="31" height="49">
<path id="Rectangle 100" d="M94.8662 83.6188L124.866 50.8688V65.8688L94.8662 98.6188V83.6188Z" fill="url(#paint1_linear_340_960)"/>
</mask>
<g mask="url(#mask1_340_960)">
<g id="Group 24">
<rect id="Rectangle 100_2" width="88.4469" height="2.18991" transform="matrix(0.588831 -0.64248 0.646044 0.591884 79.4287 100.69)" fill="#F64F59"/>
<rect id="Rectangle 101" width="88.4469" height="2.18991" transform="matrix(0.588831 -0.64248 0.646044 0.591884 82.3779 103.393)" fill="#F64F59"/>
<rect id="Rectangle 102" width="88.4469" height="2.18991" transform="matrix(0.588831 -0.64248 0.646044 0.591884 85.3271 106.095)" fill="#F64F59"/>
</g>
</g>
</g>
<g id="Group 28" filter="url(#filter2_f_340_960)">
<path id="Rectangle 95_2" d="M88.6438 64.4193L111.217 29.315L113.422 44.5989L90.8489 79.7031L88.6438 64.4193Z" fill="url(#paint2_linear_340_960)"/>
<mask id="mask2_340_960" style="mask-type:alpha" maskUnits="userSpaceOnUse" x="76" y="14" width="18" height="57">
<path id="Rectangle 100_3" d="M76.637 57.0157L86.1843 14.7605L93.3213 28.5643L83.7739 70.8194L76.637 57.0157Z" fill="url(#paint3_linear_340_960)"/>
</mask>
<g mask="url(#mask2_340_960)">
<g id="Group 24_2">
<rect id="Rectangle 100_4" width="84.4518" height="1.51018" transform="matrix(0.26575 -0.876123 0.966565 0.248559 68.9141 79.5742)" fill="#F64F59"/>
<rect id="Rectangle 101_2" width="84.4518" height="1.51018" transform="matrix(0.26575 -0.876123 0.966565 0.248559 72.7471 80.7163)" fill="#F64F59"/>
<rect id="Rectangle 102_2" width="84.4518" height="1.51018" transform="matrix(0.26575 -0.876123 0.966565 0.248559 76.5811 81.8584)" fill="#F64F59"/>
</g>
</g>
</g>
<g id="Group 29" filter="url(#filter3_f_340_960)">
<path id="Rectangle 95_3" d="M62.7237 61.0446L55.702 17.2374L67.517 24.6087L74.5387 68.4159L62.7237 61.0446Z" fill="url(#paint4_linear_340_960)"/>
<path id="Rectangle 101_3" d="M53.8336 79.1101L12.9413 68.1096L27.6066 61.6143L68.4988 72.6149L53.8336 79.1101Z" fill="url(#paint5_linear_340_960)"/>
<mask id="mask3_340_960" style="mask-type:alpha" maskUnits="userSpaceOnUse" x="27" y="37" width="42" height="31">
<path id="Rectangle 100_5" d="M54.6448 67.4347L27.8053 38.4343L41.9605 37.83L68.7999 66.8303L54.6448 67.4347Z" fill="url(#paint6_linear_340_960)"/>
</mask>
<g mask="url(#mask3_340_960)">
<g id="Group 24_3">
<rect id="Rectangle 100_6" width="94.7404" height="2.4996" transform="matrix(-0.569322 -0.574306 0.682666 -0.66722 72.4268 84.2708)" fill="#F64F59"/>
<rect id="Rectangle 101_4" width="94.7404" height="2.4996" transform="matrix(-0.569322 -0.574306 0.682666 -0.66722 75.2666 81.454)" fill="#F64F59"/>
<rect id="Rectangle 102_3" width="94.7404" height="2.4996" transform="matrix(-0.569322 -0.574306 0.682666 -0.66722 78.1064 78.6371)" fill="#F64F59"/>
</g>
</g>
</g>
<g id="Group 26" filter="url(#filter4_f_340_960)">
<path id="Rectangle 98" d="M94.8662 227.865L124.866 195.115V210.115L94.8662 242.865V227.865Z" fill="url(#paint7_linear_340_960)"/>
<mask id="mask4_340_960" style="mask-type:alpha" maskUnits="userSpaceOnUse" x="94" y="165" width="31" height="49">
<path id="Rectangle 99" d="M94.8662 198.615L124.866 165.865V180.865L94.8662 213.615V198.615Z" fill="url(#paint8_linear_340_960)"/>
</mask>
<g mask="url(#mask4_340_960)">
<g id="Group 23">
<rect id="Rectangle 100_7" width="88.4469" height="2.18991" transform="matrix(0.588831 -0.64248 0.646044 0.591884 79.4287 215.686)" fill="#F64F59"/>
<rect id="Rectangle 101_5" width="88.4469" height="2.18991" transform="matrix(0.588831 -0.64248 0.646044 0.591884 82.3779 218.389)" fill="#F64F59"/>
<rect id="Rectangle 102_4" width="88.4469" height="2.18991" transform="matrix(0.588831 -0.64248 0.646044 0.591884 85.3271 221.091)" fill="#F64F59"/>
</g>
</g>
</g>
<g id="Group 27" filter="url(#filter5_f_340_960)">
<path id="Rectangle 93" d="M94.8662 170.365L124.866 137.615V152.615L94.8662 185.365V170.365Z" fill="url(#paint9_linear_340_960)"/>
<mask id="mask5_340_960" style="mask-type:alpha" maskUnits="userSpaceOnUse" x="94" y="108" width="31" height="49">
<path id="Rectangle 100_8" d="M94.8662 141.119L124.866 108.369V123.369L94.8662 156.119V141.119Z" fill="url(#paint10_linear_340_960)"/>
</mask>
<g mask="url(#mask5_340_960)">
<g id="Group 24_4">
<rect id="Rectangle 100_9" width="88.4469" height="2.18991" transform="matrix(0.588831 -0.64248 0.646044 0.591884 79.4287 158.19)" fill="#F64F59"/>
<rect id="Rectangle 101_6" width="88.4469" height="2.18991" transform="matrix(0.588831 -0.64248 0.646044 0.591884 82.3779 160.893)" fill="#F64F59"/>
<rect id="Rectangle 102_5" width="88.4469" height="2.18991" transform="matrix(0.588831 -0.64248 0.646044 0.591884 85.3271 163.595)" fill="#F64F59"/>
</g>
</g>
</g>
</g>
</g>
</g>
</g>
<defs>
<filter id="filter0_d_340_960" x="0.865234" y="0.864868" width="148" height="253" filterUnits="userSpaceOnUse" color-interpolation-filters="sRGB">
<feFlood flood-opacity="0" result="BackgroundImageFix"/>
<feColorMatrix in="SourceAlpha" type="matrix" values="0 0 0 0 0 0 0 0 0 0 0 0 0 0 0 0 0 0 127 0" result="hardAlpha"/>
<feOffset/>
<feGaussianBlur stdDeviation="12"/>
<feComposite in2="hardAlpha" operator="out"/>
<feColorMatrix type="matrix" values="0 0 0 0 0 0 0 0 0 0 0 0 0 0 0 0 0 0 0.45 0"/>
<feBlend mode="normal" in2="BackgroundImageFix" result="effect1_dropShadow_340_960"/>
<feBlend mode="normal" in="SourceGraphic" in2="effect1_dropShadow_340_960" result="shape"/>
</filter>
<filter id="filter1_f_340_960" x="93.3662" y="49.3688" width="33" height="78.9961" filterUnits="userSpaceOnUse" color-interpolation-filters="sRGB">
<feFlood flood-opacity="0" result="BackgroundImageFix"/>
<feBlend mode="normal" in="SourceGraphic" in2="BackgroundImageFix" result="shape"/>
<feGaussianBlur stdDeviation="0.75" result="effect1_foregroundBlur_340_960"/>
</filter>
<filter id="filter2_f_340_960" x="75.1367" y="13.2605" width="39.7852" height="67.9426" filterUnits="userSpaceOnUse" color-interpolation-filters="sRGB">
<feFlood flood-opacity="0" result="BackgroundImageFix"/>
<feBlend mode="normal" in="SourceGraphic" in2="BackgroundImageFix" result="shape"/>
<feGaussianBlur stdDeviation="0.75" result="effect1_foregroundBlur_340_960"/>
</filter>
<filter id="filter3_f_340_960" x="11.4414" y="15.7374" width="64.5977" height="64.8727" filterUnits="userSpaceOnUse" color-interpolation-filters="sRGB">
<feFlood flood-opacity="0" result="BackgroundImageFix"/>
<feBlend mode="normal" in="SourceGraphic" in2="BackgroundImageFix" result="shape"/>
<feGaussianBlur stdDeviation="0.75" result="effect1_foregroundBlur_340_960"/>
</filter>
<filter id="filter4_f_340_960" x="93.3662" y="164.365" width="33" height="80" filterUnits="userSpaceOnUse" color-interpolation-filters="sRGB">
<feFlood flood-opacity="0" result="BackgroundImageFix"/>
<feBlend mode="normal" in="SourceGraphic" in2="BackgroundImageFix" result="shape"/>
<feGaussianBlur stdDeviation="0.75" result="effect1_foregroundBlur_340_960"/>
</filter>
<filter id="filter5_f_340_960" x="93.3662" y="106.869" width="33" height="79.996" filterUnits="userSpaceOnUse" color-interpolation-filters="sRGB">
<feFlood flood-opacity="0" result="BackgroundImageFix"/>
<feBlend mode="normal" in="SourceGraphic" in2="BackgroundImageFix" result="shape"/>
<feGaussianBlur stdDeviation="0.75" result="effect1_foregroundBlur_340_960"/>
</filter>
<linearGradient id="paint0_linear_340_960" x1="124.866" y1="112.615" x2="94.8662" y2="112.615" gradientUnits="userSpaceOnUse">
<stop stop-color="#F64F59"/>
<stop offset="0.34375" stop-color="#F64F59" stop-opacity="0.67"/>
<stop offset="0.458333" stop-color="#F64F59" stop-opacity="0.5"/>
<stop offset="0.536458" stop-color="#F64F59" stop-opacity="0.5"/>
<stop offset="0.666667" stop-color="#F64F59" stop-opacity="0.67"/>
<stop offset="1" stop-color="#F64F59"/>
</linearGradient>
<linearGradient id="paint1_linear_340_960" x1="124.866" y1="84.3688" x2="94.8662" y2="84.3688" gradientUnits="userSpaceOnUse">
<stop stop-color="#F64F59"/>
<stop offset="0.34375" stop-color="#F64F59" stop-opacity="0.67"/>
<stop offset="0.458333" stop-color="#F64F59" stop-opacity="0.5"/>
<stop offset="0.536458" stop-color="#F64F59" stop-opacity="0.5"/>
<stop offset="0.666667" stop-color="#F64F59" stop-opacity="0.67"/>
<stop offset="1" stop-color="#F64F59"/>
</linearGradient>
<linearGradient id="paint2_linear_340_960" x1="110.909" y1="41.051" x2="90.0661" y2="59.5858" gradientUnits="userSpaceOnUse">
<stop stop-color="#F64F59"/>
<stop offset="0.34375" stop-color="#F64F59" stop-opacity="0.67"/>
<stop offset="0.458333" stop-color="#F64F59" stop-opacity="0.5"/>
<stop offset="0.536458" stop-color="#F64F59" stop-opacity="0.5"/>
<stop offset="0.666667" stop-color="#F64F59" stop-opacity="0.67"/>
<stop offset="1" stop-color="#F64F59"/>
</linearGradient>
<linearGradient id="paint3_linear_340_960" x1="83.8205" y1="25.7887" x2="78.8188" y2="55.4701" gradientUnits="userSpaceOnUse">
<stop stop-color="#F64F59"/>
<stop offset="0.34375" stop-color="#F64F59" stop-opacity="0.67"/>
<stop offset="0.458333" stop-color="#F64F59" stop-opacity="0.5"/>
<stop offset="0.536458" stop-color="#F64F59" stop-opacity="0.5"/>
<stop offset="0.666667" stop-color="#F64F59" stop-opacity="0.67"/>
<stop offset="1" stop-color="#F64F59"/>
</linearGradient>
<linearGradient id="paint4_linear_340_960" x1="58.7114" y1="28.7224" x2="68.7124" y2="54.6228" gradientUnits="userSpaceOnUse">
<stop stop-color="#F64F59"/>
<stop offset="0.34375" stop-color="#F64F59" stop-opacity="0.67"/>
<stop offset="0.458333" stop-color="#F64F59" stop-opacity="0.5"/>
<stop offset="0.536458" stop-color="#F64F59" stop-opacity="0.5"/>
<stop offset="0.666667" stop-color="#F64F59" stop-opacity="0.67"/>
<stop offset="1" stop-color="#F64F59"/>
</linearGradient>
<linearGradient id="paint5_linear_340_960" x1="25.617" y1="71.5915" x2="55.0515" y2="74.6203" gradientUnits="userSpaceOnUse">
<stop stop-color="#F64F59"/>
<stop offset="0.34375" stop-color="#F64F59" stop-opacity="0.67"/>
<stop offset="0.458333" stop-color="#F64F59" stop-opacity="0.5"/>
<stop offset="0.536458" stop-color="#F64F59" stop-opacity="0.5"/>
<stop offset="0.666667" stop-color="#F64F59" stop-opacity="0.67"/>
<stop offset="1" stop-color="#F64F59"/>
</linearGradient>
<linearGradient id="paint6_linear_340_960" x1="32.5024" y1="51.0899" x2="57.9414" y2="62.2855" gradientUnits="userSpaceOnUse">
<stop stop-color="#F64F59"/>
<stop offset="0.34375" stop-color="#F64F59" stop-opacity="0.67"/>
<stop offset="0.458333" stop-color="#F64F59" stop-opacity="0.5"/>
<stop offset="0.536458" stop-color="#F64F59" stop-opacity="0.5"/>
<stop offset="0.666667" stop-color="#F64F59" stop-opacity="0.67"/>
<stop offset="1" stop-color="#F64F59"/>
</linearGradient>
<linearGradient id="paint7_linear_340_960" x1="124.866" y1="228.615" x2="94.8662" y2="228.615" gradientUnits="userSpaceOnUse">
<stop stop-color="#F64F59"/>
<stop offset="0.34375" stop-color="#F64F59" stop-opacity="0.67"/>
<stop offset="0.458333" stop-color="#F64F59" stop-opacity="0.5"/>
<stop offset="0.536458" stop-color="#F64F59" stop-opacity="0.5"/>
<stop offset="0.666667" stop-color="#F64F59" stop-opacity="0.67"/>
<stop offset="1" stop-color="#F64F59"/>
</linearGradient>
<linearGradient id="paint8_linear_340_960" x1="124.866" y1="199.365" x2="94.8662" y2="199.365" gradientUnits="userSpaceOnUse">
<stop stop-color="#F64F59"/>
<stop offset="0.34375" stop-color="#F64F59" stop-opacity="0.67"/>
<stop offset="0.458333" stop-color="#F64F59" stop-opacity="0.5"/>
<stop offset="0.536458" stop-color="#F64F59" stop-opacity="0.5"/>
<stop offset="0.666667" stop-color="#F64F59" stop-opacity="0.67"/>
<stop offset="1" stop-color="#F64F59"/>
</linearGradient>
<linearGradient id="paint9_linear_340_960" x1="124.866" y1="171.115" x2="94.8662" y2="171.115" gradientUnits="userSpaceOnUse">
<stop stop-color="#F64F59"/>
<stop offset="0.34375" stop-color="#F64F59" stop-opacity="0.67"/>
<stop offset="0.458333" stop-color="#F64F59" stop-opacity="0.5"/>
<stop offset="0.536458" stop-color="#F64F59" stop-opacity="0.5"/>
<stop offset="0.666667" stop-color="#F64F59" stop-opacity="0.67"/>
<stop offset="1" stop-color="#F64F59"/>
</linearGradient>
<linearGradient id="paint10_linear_340_960" x1="124.866" y1="141.869" x2="94.8662" y2="141.869" gradientUnits="userSpaceOnUse">
<stop stop-color="#F64F59"/>
<stop offset="0.34375" stop-color="#F64F59" stop-opacity="0.67"/>
<stop offset="0.458333" stop-color="#F64F59" stop-opacity="0.5"/>
<stop offset="0.536458" stop-color="#F64F59" stop-opacity="0.5"/>
<stop offset="0.666667" stop-color="#F64F59" stop-opacity="0.67"/>
<stop offset="1" stop-color="#F64F59"/>
</linearGradient>
</defs>
</svg>
