<svg width="272" height="282" viewBox="0 0 272 282" fill="none" xmlns="http://www.w3.org/2000/svg">
<g id="poinsettia_2" filter="url(#filter0_d_340_1063)">
<path id="Vector 245" d="M134.589 223.639C115.685 230.979 102.738 248.956 98.6266 257.027C100.052 252.948 101.306 236.66 94.9185 204.145C88.5311 171.63 127.009 157.314 147.046 154.22C150.77 174.302 153.492 216.299 134.589 223.639Z" fill="url(#paint0_linear_340_1063)"/>
<path id="Vector 244" d="M215.827 124.101C198.66 99.7286 167.224 119.649 153.651 132.656C154.866 150.744 165.45 185.626 198.072 180.449C230.693 175.273 244.936 173.795 247.98 173.703C237.002 172.341 237.286 154.567 215.827 124.101Z" fill="url(#paint1_linear_340_1063)"/>
<path id="Vector 240" d="M79.1556 179.803C84.8966 154.637 119.82 150.765 136.565 151.975C141.827 188.273 95.7006 216.303 71.9795 225.781C80.3517 220.336 71.9795 211.262 79.1556 179.803Z" fill="url(#paint2_linear_340_1063)"/>
<path id="Vector 239" d="M62.6419 138.856C49.6925 128.64 31.905 120.14 24.63 117.167C31.8272 117.583 54.0259 116.917 85.2432 110.924C116.46 104.932 132.824 127.133 137.104 138.983C145.773 133.451 158.18 125.722 138.453 139.061C113.795 155.736 78.8286 151.626 62.6419 138.856Z" fill="url(#paint3_linear_340_1063)"/>
<path id="Vector 241" d="M189.009 95.4777C176.896 110.799 153.276 127.397 142.979 133.781C147.219 117.023 160.343 86.867 171.445 80.5156C182.953 73.9322 194.056 62.3615 197.488 54.7807C199.709 61.9625 201.122 80.1565 189.009 95.4777Z" fill="url(#paint4_linear_340_1063)"/>
<path id="Vector 237" d="M111.259 75.5218C127.467 56.1919 131.916 33.6403 132.115 24.7807C133.902 30.0159 141.053 47.4934 155.353 75.5218C169.654 103.55 147.408 132.706 134.498 143.781C119.999 129.082 95.0518 94.8518 111.259 75.5218Z" fill="url(#paint5_linear_340_1063)"/>
<path id="Vector 271" d="M154.601 95.2345C159.724 83.1691 158.526 54.1311 156.756 39.1469C156.375 61.0669 147.816 67.3557 139.625 86.3239C133.073 101.498 136.317 125.896 138.758 136.197C141.551 126.255 150.41 105.106 154.601 95.2345Z" fill="#EC444F"/>
<path id="Vector 270" d="M86.5303 54.3046C86.5479 54.3733 86.5657 54.4431 86.5836 54.514C88.7521 62.7845 97.8297 68.5803 116.408 89.7006C131.135 106.443 131.708 128.618 130.102 138.115C131.325 138.947 130.83 138.855 130.015 138.607C130.045 138.447 130.074 138.283 130.102 138.115C129.056 137.404 126.755 136.019 122.324 133.48C103.554 122.725 93.075 89.8266 91.7396 81.9903C90.6047 75.3309 88.133 60.6587 86.5836 54.514C86.5653 54.4444 86.5475 54.3746 86.5303 54.3046Z" fill="url(#paint6_linear_340_1063)"/>
<path id="Vector 238" d="M136.979 136.868C125.59 179.543 62.2337 184.877 31.9795 182.21C36.132 182.399 45.149 179.462 47.9964 166.207C51.5558 149.638 78.2507 122.643 101.386 131.533C119.895 138.646 132.827 138.053 136.979 136.868Z" fill="url(#paint7_linear_340_1063)"/>
<g id="Ellipse 12" filter="url(#filter1_d_340_1063)">
<circle cx="134.979" cy="132.781" r="6" fill="#E6F0A7"/>
</g>
<g id="Ellipse 13" filter="url(#filter2_d_340_1063)">
<circle cx="127.979" cy="143.781" r="5" fill="#E6F0A7"/>
</g>
<g id="Group 20">
<path id="Vector 243" d="M176.045 112.305C156.762 117.735 140.405 135.273 134.637 143.363C150.002 143.829 201.791 115.903 225.765 101.881C217.227 103.094 195.328 106.876 176.045 112.305Z" fill="#DD364A"/>
<path id="Vector 242" d="M196.258 121.468C170.614 138.343 144.054 143.497 133.979 143.965C144.553 138.127 166.484 125.801 169.615 123.203C173.528 119.956 174.985 123.702 180.355 124.202C185.726 124.701 182.534 120.191 185.85 116.888C189.167 113.585 194.579 120.107 199.908 114.584C204.17 110.166 218.919 104.315 225.76 101.941C226.611 101.419 221.902 104.592 196.258 121.468Z" fill="url(#paint8_linear_340_1063)"/>
</g>
<path id="Vector 236" d="M127.102 178.986C122.575 153.584 135.118 140.498 141.956 137.13C158.932 127.748 182.979 140.016 189.345 150.12C194.438 158.202 209.261 160.697 211.979 167.44C210.801 165.515 205.614 162.821 194.297 167.44C182.979 172.058 196.654 210.258 204.906 228.781C188.638 207.853 153.272 208.574 144.784 201.358C137.994 195.584 138.573 212.356 124.979 208.574C127.573 209.296 131.629 204.389 127.102 178.986Z" fill="url(#paint9_linear_340_1063)"/>
</g>
<defs>
<filter id="filter0_d_340_1063" x="0.629883" y="0.780701" width="271.35" height="280.247" filterUnits="userSpaceOnUse" color-interpolation-filters="sRGB">
<feFlood flood-opacity="0" result="BackgroundImageFix"/>
<feColorMatrix in="SourceAlpha" type="matrix" values="0 0 0 0 0 0 0 0 0 0 0 0 0 0 0 0 0 0 127 0" result="hardAlpha"/>
<feOffset/>
<feGaussianBlur stdDeviation="12"/>
<feComposite in2="hardAlpha" operator="out"/>
<feColorMatrix type="matrix" values="0 0 0 0 0 0 0 0 0 0 0 0 0 0 0 0 0 0 0.45 0"/>
<feBlend mode="normal" in2="BackgroundImageFix" result="effect1_dropShadow_340_1063"/>
<feBlend mode="normal" in="SourceGraphic" in2="effect1_dropShadow_340_1063" result="shape"/>
</filter>
<filter id="filter1_d_340_1063" x="124.979" y="126.781" width="20" height="20" filterUnits="userSpaceOnUse" color-interpolation-filters="sRGB">
<feFlood flood-opacity="0" result="BackgroundImageFix"/>
<feColorMatrix in="SourceAlpha" type="matrix" values="0 0 0 0 0 0 0 0 0 0 0 0 0 0 0 0 0 0 127 0" result="hardAlpha"/>
<feOffset dy="4"/>
<feGaussianBlur stdDeviation="2"/>
<feComposite in2="hardAlpha" operator="out"/>
<feColorMatrix type="matrix" values="0 0 0 0 0 0 0 0 0 0 0 0 0 0 0 0 0 0 0.25 0"/>
<feBlend mode="normal" in2="BackgroundImageFix" result="effect1_dropShadow_340_1063"/>
<feBlend mode="normal" in="SourceGraphic" in2="effect1_dropShadow_340_1063" result="shape"/>
</filter>
<filter id="filter2_d_340_1063" x="118.979" y="138.781" width="18" height="18" filterUnits="userSpaceOnUse" color-interpolation-filters="sRGB">
<feFlood flood-opacity="0" result="BackgroundImageFix"/>
<feColorMatrix in="SourceAlpha" type="matrix" values="0 0 0 0 0 0 0 0 0 0 0 0 0 0 0 0 0 0 127 0" result="hardAlpha"/>
<feOffset dy="4"/>
<feGaussianBlur stdDeviation="2"/>
<feComposite in2="hardAlpha" operator="out"/>
<feColorMatrix type="matrix" values="0 0 0 0 0 0 0 0 0 0 0 0 0 0 0 0 0 0 0.25 0"/>
<feBlend mode="normal" in2="BackgroundImageFix" result="effect1_dropShadow_340_1063"/>
<feBlend mode="normal" in="SourceGraphic" in2="effect1_dropShadow_340_1063" result="shape"/>
</filter>
<linearGradient id="paint0_linear_340_1063" x1="111.101" y1="199.467" x2="101.708" y2="262.707" gradientUnits="userSpaceOnUse">
<stop stop-color="#405141"/>
<stop offset="1" stop-color="#E6EA9F"/>
</linearGradient>
<linearGradient id="paint1_linear_340_1063" x1="180.636" y1="137.404" x2="240.425" y2="171.515" gradientUnits="userSpaceOnUse">
<stop stop-color="#405241"/>
<stop offset="1" stop-color="#A9B880"/>
</linearGradient>
<linearGradient id="paint2_linear_340_1063" x1="91.9795" y1="206.281" x2="125.979" y2="151.781" gradientUnits="userSpaceOnUse">
<stop stop-color="#B13F54"/>
<stop offset="1" stop-color="#9A0C1D"/>
</linearGradient>
<linearGradient id="paint3_linear_340_1063" x1="87.6839" y1="109.387" x2="116.979" y2="137.281" gradientUnits="userSpaceOnUse">
<stop stop-color="#B13F54"/>
<stop offset="1" stop-color="#9A0C1D"/>
</linearGradient>
<linearGradient id="paint4_linear_340_1063" x1="191.979" y1="71.2807" x2="170.979" y2="133.781" gradientUnits="userSpaceOnUse">
<stop stop-color="#B13F54"/>
<stop offset="1" stop-color="#9D1223"/>
</linearGradient>
<linearGradient id="paint5_linear_340_1063" x1="132.979" y1="134.781" x2="136.979" y2="45.7807" gradientUnits="userSpaceOnUse">
<stop offset="0.453125" stop-color="#DD364A"/>
<stop offset="1" stop-color="#F99399"/>
</linearGradient>
<linearGradient id="paint6_linear_340_1063" x1="116.414" y1="105.327" x2="86.5303" y2="63.6709" gradientUnits="userSpaceOnUse">
<stop offset="0.270833" stop-color="#F14253"/>
<stop offset="1" stop-color="#F79EA6"/>
</linearGradient>
<linearGradient id="paint7_linear_340_1063" x1="52.4795" y1="144.281" x2="106.979" y2="171.868" gradientUnits="userSpaceOnUse">
<stop stop-color="#B13F54"/>
<stop offset="0.479167" stop-color="#DD364A"/>
<stop offset="1" stop-color="#DD364A"/>
</linearGradient>
<linearGradient id="paint8_linear_340_1063" x1="159.382" y1="134.376" x2="201.536" y2="101.097" gradientUnits="userSpaceOnUse">
<stop stop-color="#803341"/>
<stop offset="1" stop-color="#E31A3F"/>
</linearGradient>
<linearGradient id="paint9_linear_340_1063" x1="135.479" y1="144.781" x2="189.979" y2="215.281" gradientUnits="userSpaceOnUse">
<stop stop-color="#EB414B"/>
<stop offset="1" stop-color="#F6697A"/>
</linearGradient>
</defs>
</svg>
