{
  "asset": {
    "version": "2.0",
    "generator": "THREE.GLTFExporter"
  },
  "scenes": [
    {
      "nodes": [
        0
      ]
    }
  ],
  "scene": 0,
  "nodes": [
    {
      "children": [
        6
      ],
      "matrix": [
        0.01,
        0,
        0,
        0,
        0,
        0.01,
        0,
        0,
        0,
        0,
        0.01,
        0,
        0,
        0,
        0,
        1
      ]
    },
    {
      "matrix": [
        2.220446049250313e-16,
        1.2325951644078244e-32,
        1,
        0,
        0,
        1,
        -1.232595164407833e-32,
        0,
        -1,
        2.7369110631343938e-48,
        2.220446049250313e-16,
        0,
        0,
        60,
        8.758115402030107e-47,
        1
      ],
      "name": "Cone",
      "mesh": 0
    },
    {
      "matrix": [
        2.220446049250313e-16,
        1.2325951644078244e-32,
        1,
        0,
        0,
        1,
        -1.232595164407833e-32,
        0,
        -1,
        2.7369110631343938e-48,
        2.220446049250313e-16,
        0,
        0,
        -15,
        -2.1895288505075267e-47,
        1
      ],
      "name": "Cylinder",
      "mesh": 1
    },
    {
      "name": "Group",
      "children": [
        1,
        2
      ]
    },
    {
      "matrix": [
        0.9999882857485568,
        -2.4689675171083586e-8,
        0.004840285700452644,
        0,
        0.0014103543800461026,
        0.9566093823589967,
        -0.2913700404696087,
        0,
        -0.004630255520519434,
        0.2913734538058299,
        0.9565981764309801,
        0,
        65.46861349000983,
        699.5391793685133,
        2241.258512721724,
        1
      ],
      "camera": 0
    },
    {
      "matrix": [
        1,
        0,
        0,
        0,
        0,
        1,
        0,
        0,
        0,
        0,
        1,
        0,
        0,
        1,
        0,
        1
      ],
      "name": "Default Ambient Light"
    },
    {
      "name": "Scene 1",
      "children": [
        3,
        4,
        5
      ]
    }
  ],
  "bufferViews": [
    {
      "buffer": 0,
      "byteOffset": 0,
      "byteLength": 12276,
      "target": 34962,
      "byteStride": 12
    },
    {
      "buffer": 0,
      "byteOffset": 12276,
      "byteLength": 12276,
      "target": 34962,
      "byteStride": 12
    },
    {
      "buffer": 0,
      "byteOffset": 24552,
      "byteLength": 8184,
      "target": 34962,
      "byteStride": 8
    },
    {
      "buffer": 0,
      "byteOffset": 32736,
      "byteLength": 11328,
      "target": 34963
    },
    {
      "buffer": 0,
      "byteOffset": 44064,
      "byteLength": 18720,
      "target": 34962,
      "byteStride": 12
    },
    {
      "buffer": 0,
      "byteOffset": 62784,
      "byteLength": 18720,
      "target": 34962,
      "byteStride": 12
    },
    {
      "buffer": 0,
      "byteOffset": 81504,
      "byteLength": 12480,
      "target": 34962,
      "byteStride": 8
    },
    {
      "buffer": 0,
      "byteOffset": 93984,
      "byteLength": 17280,
      "target": 34963
    }
  ],
  "buffers": [
    {
      "byteLength": 111264,
      "uri": "data:application/octet-stream;base64,"
    }
  ],
  "accessors": [
    {
      "bufferView": 0,
      "componentType": 5126,
      "count": 1023,
      "max": [
        27.710708618164062,
        30,
        27.710708618164062
      ],
      "min": [
        -27.710708618164062,
        -30,
        -27.710708618164062
      ],
      "type": "VEC3"
    },
    {
      "bufferView": 1,
      "componentType": 5126,
      "count": 1023,
      "max": [
        0.9978733658790588,
        1,
        0.9978733658790588
      ],
      "min": [
        -0.9978733658790588,
        -1,
        -0.9978733658790588
      ],
      "type": "VEC3"
    },
    {
      "bufferView": 2,
      "componentType": 5126,
      "count": 1023,
      "max": [
        1,
        1
      ],
      "min": [
        0,
        0
      ],
      "type": "VEC2"
    },
    {
      "bufferView": 3,
      "componentType": 5123,
      "count": 5664,
      "max": [
        1021
      ],
      "min": [
        0
      ],
      "type": "SCALAR"
    },
    {
      "bufferView": 4,
      "componentType": 5126,
      "count": 1560,
      "max": [
        8,
        75,
        8
      ],
      "min": [
        -8,
        -75,
        -8
      ],
      "type": "VEC3"
    },
    {
      "bufferView": 5,
      "componentType": 5126,
      "count": 1560,
      "max": [
        1,
        1,
        1
      ],
      "min": [
        -1,
        -1,
        -1
      ],
      "type": "VEC3"
    },
    {
      "bufferView": 6,
      "componentType": 5126,
      "count": 1560,
      "max": [
        1,
        1
      ],
      "min": [
        0,
        0
      ],
      "type": "VEC2"
    },
    {
      "bufferView": 7,
      "componentType": 5123,
      "count": 8640,
      "max": [
        1558
      ],
      "min": [
        0
      ],
      "type": "SCALAR"
    }
  ],
  "materials": [
    {
      "pbrMetallicRoughness": {
        "baseColorFactor": [
          0.08865558627723595,
          0.08865558627723595,
          0.10461648408208657,
          1
        ],
        "metallicFactor": 0,
        "roughnessFactor": 0.9056426648260791
      },
      "doubleSided": false
    },
    {
      "pbrMetallicRoughness": {
        "baseColorFactor": [
          0.08865558627723595,
          0.08865558627723595,
          0.10461648408208657,
          1
        ],
        "metallicFactor": 0,
        "roughnessFactor": 0.9056426648260791
      },
      "doubleSided": false
    }
  ],
  "meshes": [
    {
      "primitives": [
        {
          "mode": 4,
          "attributes": {
            "POSITION": 0,
            "NORMAL": 1,
            "TEXCOORD_0": 2
          },
          "extras": {
            "parameters": {
              "width": 60,
              "radialSegments": 32,
              "heightSegments": 8,
              "openEnded": false,
              "thetaStart": 0,
              "thetaLength": 360,
              "cornerRadiusTop": 2,
              "cornerRadiusBottom": 4,
              "cornerSegments": 8,
              "depth": 60,
              "height": 60,
              "type": "ConeGeometry"
            },
            "type": "ConeGeometry"
          },
          "indices": 3,
          "material": 0
        }
      ]
    },
    {
      "primitives": [
        {
          "mode": 4,
          "attributes": {
            "POSITION": 4,
            "NORMAL": 5,
            "TEXCOORD_0": 6
          },
          "extras": {
            "parameters": {
              "width": 16,
              "radialSegments": 64,
              "heightSegments": 1,
              "openEnded": false,
              "thetaStart": 0,
              "thetaLength": 360,
              "cornerRadius": 2,
              "cornerSegments": 8,
              "hollow": 0,
              "depth": 16,
              "height": 150,
              "radiusTop": 8,
              "radiusBottom": 8,
              "type": "CylinderGeometry"
            },
            "type": "CylinderGeometry"
          },
          "indices": 7,
          "material": 1
        }
      ]
    }
  ],
  "cameras": [
    {
      "type": "perspective",
      "perspective": {
        "aspectRatio": 1.9285714285714286,
        "yfov": 0.7853981633974483,
        "zfar": 100000,
        "znear": 70
      }
    }
  ]
}