{
  "asset": {
    "version": "2.0",
    "generator": "THREE.GLTFExporter"
  },
  "scenes": [
    {
      "nodes": [
        0
      ]
    }
  ],
  "scene": 0,
  "nodes": [
    {
      "children": [
        12
      ],
      "matrix": [
        0.01,
        0,
        0,
        0,
        0,
        0.01,
        0,
        0,
        0,
        0,
        0.01,
        0,
        0,
        0,
        0,
        1
      ]
    },
    {
      "matrix": [
        0.20841574888718126,
        0.9265702536319481,
        0.3130981326999932,
        0,
        -0.9393268142404743,
        0.10045560903671852,
        0.327984461006773,
        0,
        0.2724481816137467,
        -0.36245859859781127,
        0.8912888155013918,
        0,
        9.580896968461495,
        -11.82211763656812,
        29.7308205398776,
        1
      ],
      "name": "rightcheek",
      "mesh": 0
    },
    {
      "matrix": [
        0.2084157488871813,
        -0.926570253631948,
        -0.31309813269999326,
        0,
        0.9393268142404744,
        0.10045560903671838,
        0.3279844610067733,
        0,
        -0.27244818161374657,
        -0.36245859859781115,
        0.8912888155013918,
        0,
        -10.79698388582221,
        -11.793946674562116,
        29.82279786078763,
        1.0000000000000002
      ],
      "name": "leftcheek",
      "mesh": 1
    },
    {
      "matrix": [
        -4.005959713718491e-16,
        0.9205048534524402,
        0.39073112848927377,
        0,
        -1,
        -4.446175537214617e-16,
        -7.243528512136086e-17,
        0,
        1.9660993536537924e-16,
        -0.3907311284892737,
        0.9205048534524403,
        0,
        -0.6291312274111085,
        -11.058196436457521,
        31.579985779367476,
        1
      ],
      "name": "mouth",
      "mesh": 2
    },
    {
      "matrix": [
        2.220446049250313e-16,
        -1,
        0,
        0,
        1,
        2.220446049250313e-16,
        0,
        0,
        0,
        0,
        1,
        0,
        -0.44646802097287175,
        -8.676935037102794,
        33.516570632590174,
        1
      ],
      "name": "nose",
      "mesh": 3
    },
    {
      "matrix": [
        0.9510565162951535,
        0,
        -0.30901699437494745,
        0,
        0,
        1,
        0,
        0,
        0.30901699437494745,
        0,
        0.9510565162951535,
        0,
        10.072389963880681,
        -1.2354912757868988,
        0,
        1
      ],
      "name": "righteye",
      "mesh": 4
    },
    {
      "matrix": [
        0.9510565162951535,
        0,
        0.30901699437494745,
        0,
        0,
        1,
        0,
        0,
        -0.30901699437494745,
        0,
        0.9510565162951535,
        0,
        -9.925935154883348,
        -1.235491275786444,
        0,
        1
      ],
      "name": "lefteye",
      "mesh": 5
    },
    {
      "matrix": [
        1,
        0,
        0,
        0,
        0,
        1,
        0,
        0,
        0,
        0,
        1,
        0,
        -0.6805614979635379,
        1.2354912757859893,
        31.867751778394677,
        1
      ],
      "name": "eyes",
      "children": [
        5,
        6
      ]
    },
    {
      "matrix": [
        1,
        0,
        0,
        0,
        0,
        1,
        0,
        0,
        0,
        0,
        1,
        0,
        5.684341886080802e-14,
        -4.547473508864641e-13,
        -1.4834293674098262,
        1
      ],
      "name": "face",
      "mesh": 6
    },
    {
      "matrix": [
        1,
        0,
        0,
        0,
        0,
        0.9942564814466149,
        -0.10702359133105825,
        0,
        0,
        0.10702359133105825,
        0.9942564814466149,
        0,
        0,
        -4.547473508864641e-13,
        -4.547473508864641e-13,
        1
      ],
      "name": "character",
      "children": [
        1,
        2,
        3,
        4,
        7,
        8
      ]
    },
    {
      "matrix": [
        0.9994984425083564,
        -1.9916264346053758e-8,
        -0.03166801893660931,
        0,
        -0.010349491083731255,
        0.9450891371646711,
        -0.32664875760921736,
        0,
        0.029929107198137565,
        0.3268126723573262,
        0.944615120421532,
        0,
        30.582949385981372,
        242.9451942743542,
        772.9432706468276,
        1
      ],
      "camera": 0
    },
    {
      "matrix": [
        1,
        0,
        0,
        0,
        0,
        1,
        0,
        0,
        0,
        0,
        1,
        0,
        0,
        1,
        0,
        1
      ],
      "name": "Default Ambient Light"
    },
    {
      "name": "Scene 1",
      "children": [
        9,
        10,
        11
      ]
    }
  ],
  "bufferViews": [
    {
      "buffer": 0,
      "byteOffset": 0,
      "byteLength": 50700,
      "target": 34962,
      "byteStride": 12
    },
    {
      "buffer": 0,
      "byteOffset": 50700,
      "byteLength": 50700,
      "target": 34962,
      "byteStride": 12
    },
    {
      "buffer": 0,
      "byteOffset": 101400,
      "byteLength": 33800,
      "target": 34962,
      "byteStride": 8
    },
    {
      "buffer": 0,
      "byteOffset": 135200,
      "byteLength": 48384,
      "target": 34963
    },
    {
      "buffer": 0,
      "byteOffset": 183584,
      "byteLength": 50700,
      "target": 34962,
      "byteStride": 12
    },
    {
      "buffer": 0,
      "byteOffset": 234284,
      "byteLength": 50700,
      "target": 34962,
      "byteStride": 12
    },
    {
      "buffer": 0,
      "byteOffset": 284984,
      "byteLength": 33800,
      "target": 34962,
      "byteStride": 8
    },
    {
      "buffer": 0,
      "byteOffset": 318784,
      "byteLength": 48384,
      "target": 34963
    },
    {
      "buffer": 0,
      "byteOffset": 367168,
      "byteLength": 6336,
      "target": 34962,
      "byteStride": 12
    },
    {
      "buffer": 0,
      "byteOffset": 373504,
      "byteLength": 6336,
      "target": 34962,
      "byteStride": 12
    },
    {
      "buffer": 0,
      "byteOffset": 379840,
      "byteLength": 4224,
      "target": 34962,
      "byteStride": 8
    },
    {
      "buffer": 0,
      "byteOffset": 384064,
      "byteLength": 6192,
      "target": 34963
    },
    {
      "buffer": 0,
      "byteOffset": 390256,
      "byteLength": 50700,
      "target": 34962,
      "byteStride": 12
    },
    {
      "buffer": 0,
      "byteOffset": 440956,
      "byteLength": 50700,
      "target": 34962,
      "byteStride": 12
    },
    {
      "buffer": 0,
      "byteOffset": 491656,
      "byteLength": 33800,
      "target": 34962,
      "byteStride": 8
    },
    {
      "buffer": 0,
      "byteOffset": 525456,
      "byteLength": 48384,
      "target": 34963
    },
    {
      "buffer": 0,
      "byteOffset": 573840,
      "byteLength": 11808,
      "target": 34962,
      "byteStride": 12
    },
    {
      "buffer": 0,
      "byteOffset": 585648,
      "byteLength": 11808,
      "target": 34962,
      "byteStride": 12
    },
    {
      "buffer": 0,
      "byteOffset": 597456,
      "byteLength": 11808,
      "target": 34962,
      "byteStride": 12
    },
    {
      "buffer": 0,
      "byteOffset": 609264,
      "byteLength": 11808,
      "target": 34962,
      "byteStride": 12
    },
    {
      "buffer": 0,
      "byteOffset": 621072,
      "byteLength": 50700,
      "target": 34962,
      "byteStride": 12
    },
    {
      "buffer": 0,
      "byteOffset": 671772,
      "byteLength": 50700,
      "target": 34962,
      "byteStride": 12
    },
    {
      "buffer": 0,
      "byteOffset": 722472,
      "byteLength": 33800,
      "target": 34962,
      "byteStride": 8
    },
    {
      "buffer": 0,
      "byteOffset": 756272,
      "byteLength": 48384,
      "target": 34963
    }
  ],
  "buffers": [
    {
      "byteLength": 804656,
      "uri": "data:application/octet-stream;base64,"
    }
  ],
  "accessors": [
    {
      "bufferView": 0,
      "componentType": 5126,
      "count": 4225,
      "max": [
        4.5,
        5.5,
        1.0049999952316284
      ],
      "min": [
        -4.5,
        -5.5,
        -1.0049999952316284
      ],
      "type": "VEC3"
    },
    {
      "bufferView": 1,
      "componentType": 5126,
      "count": 4225,
      "max": [
        1,
        1,
        1
      ],
      "min": [
        -1,
        -1,
        -1
      ],
      "type": "VEC3"
    },
    {
      "bufferView": 2,
      "componentType": 5126,
      "count": 4225,
      "max": [
        1.0078125,
        1
      ],
      "min": [
        -0.0078125,
        0
      ],
      "type": "VEC2"
    },
    {
      "bufferView": 3,
      "componentType": 5123,
      "count": 24192,
      "max": [
        4224
      ],
      "min": [
        0
      ],
      "type": "SCALAR"
    },
    {
      "bufferView": 4,
      "componentType": 5126,
      "count": 4225,
      "max": [
        4.5,
        5.5,
        1.0049999952316284
      ],
      "min": [
        -4.5,
        -5.5,
        -1.0049999952316284
      ],
      "type": "VEC3"
    },
    {
      "bufferView": 5,
      "componentType": 5126,
      "count": 4225,
      "max": [
        1,
        1,
        1
      ],
      "min": [
        -1,
        -1,
        -1
      ],
      "type": "VEC3"
    },
    {
      "bufferView": 6,
      "componentType": 5126,
      "count": 4225,
      "max": [
        1.0078125,
        1
      ],
      "min": [
        -0.0078125,
        0
      ],
      "type": "VEC2"
    },
    {
      "bufferView": 7,
      "componentType": 5123,
      "count": 24192,
      "max": [
        4224
      ],
      "min": [
        0
      ],
      "type": "SCALAR"
    },
    {
      "bufferView": 8,
      "componentType": 5126,
      "count": 528,
      "max": [
        0,
        10,
        1
      ],
      "min": [
        -8,
        -10,
        0
      ],
      "type": "VEC3"
    },
    {
      "bufferView": 9,
      "componentType": 5126,
      "count": 528,
      "max": [
        1,
        0.9994994401931763,
        1
      ],
      "min": [
        -0.9997949004173279,
        -0.9994994401931763,
        -1
      ],
      "type": "VEC3"
    },
    {
      "bufferView": 10,
      "componentType": 5126,
      "count": 528,
      "max": [
        1,
        1
      ],
      "min": [
        0,
        0
      ],
      "type": "VEC2"
    },
    {
      "bufferView": 11,
      "componentType": 5125,
      "count": 1548,
      "max": [
        527
      ],
      "min": [
        0
      ],
      "type": "SCALAR"
    },
    {
      "bufferView": 12,
      "componentType": 5126,
      "count": 4225,
      "max": [
        2,
        3,
        2
      ],
      "min": [
        -2,
        -3,
        -2
      ],
      "type": "VEC3"
    },
    {
      "bufferView": 13,
      "componentType": 5126,
      "count": 4225,
      "max": [
        1,
        1,
        1
      ],
      "min": [
        -1,
        -1,
        -1
      ],
      "type": "VEC3"
    },
    {
      "bufferView": 14,
      "componentType": 5126,
      "count": 4225,
      "max": [
        1.0078125,
        1
      ],
      "min": [
        -0.0078125,
        0
      ],
      "type": "VEC2"
    },
    {
      "bufferView": 15,
      "componentType": 5123,
      "count": 24192,
      "max": [
        4224
      ],
      "min": [
        0
      ],
      "type": "SCALAR"
    },
    {
      "bufferView": 16,
      "componentType": 5126,
      "count": 984,
      "max": [
        4.84600830078125,
        10,
        1
      ],
      "min": [
        -5,
        -7.529017448425293,
        -1
      ],
      "type": "VEC3"
    },
    {
      "bufferView": 17,
      "componentType": 5126,
      "count": 984,
      "max": [
        0.9918367862701416,
        1,
        1
      ],
      "min": [
        -1,
        -1,
        -1
      ],
      "type": "VEC3"
    },
    {
      "bufferView": 18,
      "componentType": 5126,
      "count": 984,
      "max": [
        4.84600830078125,
        10,
        1
      ],
      "min": [
        -5,
        -7.529017448425293,
        -1
      ],
      "type": "VEC3"
    },
    {
      "bufferView": 19,
      "componentType": 5126,
      "count": 984,
      "max": [
        0.9918367862701416,
        1,
        1
      ],
      "min": [
        -1,
        -1,
        -1
      ],
      "type": "VEC3"
    },
    {
      "bufferView": 20,
      "componentType": 5126,
      "count": 4225,
      "max": [
        35,
        35,
        35
      ],
      "min": [
        -35,
        -35,
        -35
      ],
      "type": "VEC3"
    },
    {
      "bufferView": 21,
      "componentType": 5126,
      "count": 4225,
      "max": [
        1,
        1,
        1
      ],
      "min": [
        -1,
        -1,
        -1
      ],
      "type": "VEC3"
    },
    {
      "bufferView": 22,
      "componentType": 5126,
      "count": 4225,
      "max": [
        1.0078125,
        1
      ],
      "min": [
        -0.0078125,
        0
      ],
      "type": "VEC2"
    },
    {
      "bufferView": 23,
      "componentType": 5123,
      "count": 24192,
      "max": [
        4224
      ],
      "min": [
        0
      ],
      "type": "SCALAR"
    }
  ],
  "materials": [
    {
      "pbrMetallicRoughness": {
        "baseColorFactor": [
          0.25618455634009174,
          0.25618455634009174,
          0.25618455634009174,
          1
        ],
        "metallicFactor": 0,
        "roughnessFactor": 0.995
      },
      "doubleSided": false
    },
    {
      "pbrMetallicRoughness": {
        "baseColorFactor": [
          0.25618455634009174,
          0.25618455634009174,
          0.25618455634009174,
          1
        ],
        "metallicFactor": 0,
        "roughnessFactor": 0.995
      },
      "doubleSided": false
    },
    {
      "pbrMetallicRoughness": {
        "baseColorFactor": [
          0,
          0,
          0,
          1
        ],
        "metallicFactor": 0,
        "roughnessFactor": 0.995
      },
      "doubleSided": false
    },
    {
      "pbrMetallicRoughness": {
        "baseColorFactor": [
          0.08865558627723595,
          0.08865558627723595,
          0.10461648408208657,
          1
        ],
        "metallicFactor": 0,
        "roughnessFactor": 0.9056426648260791
      },
      "doubleSided": false
    },
    {
      "pbrMetallicRoughness": {
        "baseColorFactor": [
          0,
          0,
          0,
          1
        ],
        "metallicFactor": 0,
        "roughnessFactor": 0.995
      },
      "doubleSided": false
    },
    {
      "pbrMetallicRoughness": {
        "baseColorFactor": [
          0,
          0,
          0,
          1
        ],
        "metallicFactor": 0,
        "roughnessFactor": 0.995
      },
      "doubleSided": false
    },
    {
      "pbrMetallicRoughness": {
        "baseColorFactor": [
          0.5119793532050906,
          0.5119793532050906,
          0.5119793532050906,
          1
        ],
        "metallicFactor": 0,
        "roughnessFactor": 0.995
      },
      "doubleSided": false
    }
  ],
  "meshes": [
    {
      "primitives": [
        {
          "mode": 4,
          "attributes": {
            "POSITION": 0,
            "NORMAL": 1,
            "TEXCOORD_0": 2
          },
          "extras": {
            "parameters": {
              "width": 9,
              "widthSegments": 64,
              "heightSegments": 64,
              "phiStart": 0,
              "phiLength": 6.283185307179586,
              "thetaStart": 0,
              "thetaLength": 180,
              "height": 11,
              "depth": 2.01,
              "type": "SphereGeometry"
            },
            "type": "SphereGeometry"
          },
          "indices": 3,
          "material": 0
        }
      ]
    },
    {
      "primitives": [
        {
          "mode": 4,
          "attributes": {
            "POSITION": 4,
            "NORMAL": 5,
            "TEXCOORD_0": 6
          },
          "extras": {
            "parameters": {
              "width": 9,
              "widthSegments": 64,
              "heightSegments": 64,
              "phiStart": 0,
              "phiLength": 6.283185307179586,
              "thetaStart": 0,
              "thetaLength": 180,
              "height": 11,
              "depth": 2.01,
              "type": "SphereGeometry"
            },
            "type": "SphereGeometry"
          },
          "indices": 7,
          "material": 1
        }
      ]
    },
    {
      "primitives": [
        {
          "mode": 4,
          "attributes": {
            "POSITION": 8,
            "NORMAL": 9,
            "TEXCOORD_0": 10
          },
          "extras": {
            "shape": {
              "points": [
                0,
                10,
                0,
                10,
                -4.415320195952,
                10,
                0,
                -8,
                1.2246467991473533e-15,
                -8,
                5.5191502449400005,
                -8,
                -5.519150244939999,
                0,
                -2.204364238465236e-15,
                -10,
                -4.4153201959520025,
                -9.999999999999998,
                -2.204364238465236e-15,
                -10,
                0,
                -1.9839278146187122e-15,
                -9,
                -1.9839278146187122e-15,
                -9,
                -3.9737881763568024,
                -8.999999999999998,
                0,
                -7.2,
                1.102182119232618e-15,
                -7.2,
                -4.967235220445999,
                -7.2,
                4.967235220446001,
                0,
                0,
                9,
                -3.9737881763568,
                9,
                0,
                9,
                0
              ],
              "shapeHoles": [],
              "isClosed": true,
              "roundness": 0
            },
            "parameters": {
              "width": 16,
              "depth": 1,
              "spikes": 64,
              "angle": 180,
              "innerRadius": 90,
              "extrudeBevelSize": 0,
              "extrudeBevelSegments": 1,
              "height": 20,
              "type": "EllipseGeometry"
            },
            "type": "EllipseGeometry"
          },
          "indices": 11,
          "material": 2
        }
      ]
    },
    {
      "primitives": [
        {
          "mode": 4,
          "attributes": {
            "POSITION": 12,
            "NORMAL": 13,
            "TEXCOORD_0": 14
          },
          "extras": {
            "parameters": {
              "width": 4,
              "widthSegments": 64,
              "heightSegments": 64,
              "phiStart": 0,
              "phiLength": 6.283185307179586,
              "thetaStart": 0,
              "thetaLength": 180,
              "height": 6,
              "depth": 4,
              "type": "SphereGeometry"
            },
            "type": "SphereGeometry"
          },
          "indices": 15,
          "material": 3
        }
      ]
    },
    {
      "primitives": [
        {
          "mode": 4,
          "attributes": {
            "POSITION": 16,
            "NORMAL": 17
          },
          "extras": {
            "parameters": {
              "width": 9.84600830078125,
              "height": 17.52901840209961,
              "depth": 2
            }
          },
          "material": 4
        }
      ]
    },
    {
      "primitives": [
        {
          "mode": 4,
          "attributes": {
            "POSITION": 18,
            "NORMAL": 19
          },
          "extras": {
            "parameters": {
              "width": 9.84600830078125,
              "height": 17.52901840209961,
              "depth": 2
            }
          },
          "material": 5
        }
      ]
    },
    {
      "primitives": [
        {
          "mode": 4,
          "attributes": {
            "POSITION": 20,
            "NORMAL": 21,
            "TEXCOORD_0": 22
          },
          "extras": {
            "parameters": {
              "width": 70,
              "widthSegments": 64,
              "heightSegments": 64,
              "phiStart": 0,
              "phiLength": 6.283185307179586,
              "thetaStart": 0,
              "thetaLength": 180,
              "height": 70,
              "depth": 70,
              "type": "SphereGeometry"
            },
            "type": "SphereGeometry"
          },
          "indices": 23,
          "material": 6
        }
      ]
    }
  ],
  "cameras": [
    {
      "type": "perspective",
      "perspective": {
        "aspectRatio": 1.0534629404617255,
        "yfov": 0.7853981633974483,
        "zfar": 100000,
        "znear": 70
      }
    }
  ]
}