<?xml version="1.0" encoding="UTF-8"?>
<svg id="_레이어_1" data-name=" 레이어 1" xmlns="http://www.w3.org/2000/svg" viewBox="0 0 855 405">
  <defs>
    <style>
      .cls-1 {
        fill: none;
      }

      .cls-1, .cls-2 {
        stroke-width: 0px;
      }
    </style>
  </defs>
  <rect class="cls-1" width="855" height="405"/>
  <g>
    <path class="cls-2" d="m244,219.19h-33.42v5.66h33.42v-5.66Zm-32.27,4.51v-3.37h31.13v3.37h-31.13Z"/>
    <path class="cls-2" d="m244,227.58h-33.42v5.66h33.42v-5.66Zm-32.27,4.51v-3.37h31.13v3.37h-31.13Z"/>
    <path class="cls-2" d="m244,235.97h-33.42v5.66h33.42v-5.66Zm-32.27,4.51v-3.37h31.13v3.37h-31.13Z"/>
    <path class="cls-2" d="m218.12,277.13h5.66v-33.42h-5.66v33.42Zm4.51-32.28v31.13h-3.37v-31.13h3.37Z"/>
    <path class="cls-2" d="m226.52,277.13h5.66v-15.45h-5.66v15.45Zm4.51-14.31v13.16h-3.37v-13.16h3.37Z"/>
    <path class="cls-2" d="m226.52,259.16h5.66v-15.45h-5.66v15.45Zm4.51-14.31v13.16h-3.37v-13.16h3.37Z"/>
    <path class="cls-2" d="m234.91,277.13h5.66v-33.42h-5.66v33.42Zm4.51-32.28v31.13h-3.37v-31.13h3.37Z"/>
    <path class="cls-2" d="m254.47,248.95h5.66v-33.42h-5.66v33.42Zm4.51-32.28v31.13h-3.37v-31.13h3.37Z"/>
    <path class="cls-2" d="m268.52,215.53h-5.66v15.45h5.66v-15.45Zm-4.52,14.3v-13.16h3.37v13.16h-3.37Z"/>
    <path class="cls-2" d="m268.52,233.5h-5.66v15.45h5.66v-15.45Zm-4.52,14.3v-13.16h3.37v13.16h-3.37Z"/>
    <path class="cls-2" d="m251.74,215.53h-5.66v15.45h5.66v-15.45Zm-4.52,14.3v-13.16h3.37v13.16h-3.37Z"/>
    <path class="cls-2" d="m251.74,233.5h-5.66v15.45h5.66v-15.45Zm-4.52,14.3v-13.16h3.37v13.16h-3.37Z"/>
    <path class="cls-2" d="m242.65,256.69h15.45v-5.66h-15.45v5.66Zm14.3-4.52v3.37h-13.16v-3.37h13.16Z"/>
    <path class="cls-2" d="m260.61,251.03v5.66h15.45v-5.66h-15.45Zm1.14,4.51v-3.37h13.16v3.37h-13.16Z"/>
    <path class="cls-2" d="m242.65,265.08h15.45v-5.66h-15.45v5.66Zm14.3-4.52v3.37h-13.16v-3.37h13.16Z"/>
    <path class="cls-2" d="m260.61,265.08h15.45v-5.66h-15.45v5.66Zm14.3-4.52v3.37h-13.16v-3.37h13.16Z"/>
    <path class="cls-2" d="m242.65,273.47h15.45v-5.66h-15.45v5.66Zm14.3-4.52v3.37h-13.16v-3.37h13.16Z"/>
    <path class="cls-2" d="m260.61,273.47h15.45v-5.66h-15.45v5.66Zm14.3-4.52v3.37h-13.16v-3.37h13.16Z"/>
  </g>
</svg>