{"asset":{"version":"2.0","generator":"THREE.GLTFExporter"},"scenes":[{"nodes":[0]}],"scene":0,"nodes":[{"children":[18],"matrix":[0.01, 0, 0, 0, 0, 0.01, 0, 0, 0, 0, 0.01, 0, 0, 0, 0, 1]},{"matrix":[1, 0, 0, 0, 0, 1, 0, 0, 0, 0, 1, 0, 349.9999990463257,-89.22762481586847, -71.53, 1],"name":"Text 4","mesh":0},{"matrix":[1, 0, 0, 0, 0, 1, 0, 0, 0, 0, 1, 0, -99.99999904632568, -100,-71.53389298474144, 1],"name":"Text 3","mesh":1},{"matrix":[1, 0, 0, 0, 0, 1, 0, 0, 0, 0, 1, 0, -199.99999904632568, 0,-71.53389298474144, 1],"name":"Text 2","mesh":2},{"matrix":[1, 0, 0, 0, 0, 1, 0, 0, 0, 0, 1, 0, -99.99999904632568, 100,-71.53389298474144, 1],"name":"Text","mesh":3},{"matrix":[1, 0, 0, 0, 0, 1, 0, 0, 0, 0, 1, 0, -8.242295734817162e-13,-4.161319468116744, 86, 1],"name":"Text X","children":[1, 2, 3, 4]},{"matrix":[1, 0, -5.551115123125783e-17, 0, 0, 1, 0, 0, 5.551115123125783e-17, 0,1, 0, 2.6756374893466273e-14, 0, 250, 1],"name":"Cube 9","mesh":4},{"matrix":[2.220446049250313e-16, 0, -1, 0, 0, 1, 0, 0, 1, 0,2.220446049250313e-16, 0, -250, -100, -5.684341886080802e-14, 1],"name":"Clone 321","children":[6]},{"matrix":[1, 0, -5.551115123125783e-17, 0, 0, 1, 0, 0, 5.551115123125783e-17, 0,1, 0, 1.3211653993039363e-14, 0, 150, 1],"name":"Cube 9","mesh":5},{"matrix":[2.220446049250313e-16, 0, -1, 0, 0, 1, 0, 0, 1, 0,2.220446049250313e-16, 0, -250, 0, -5.684341886080802e-14, 1],"name":"Clone 332","children":[8]},{"matrix":[1, 0, -5.551115123125783e-17, 0, 0, 1, 0, 0, 5.551115123125783e-17, 0,1, 0, 2.6756374893466273e-14, 0, 250, 1],"name":"Cube 9","mesh":6},{"matrix":[2.220446049250313e-16, 0, -1, 0, 0, 1, 0, 0, 1, 0,2.220446049250313e-16, 0, -250, 100, -5.684341886080802e-14, 1],"name":"Clone 343","children":[10]},{"matrix":[1, 0, 0, 0, 0, 1, 0, 0, 0, 0, 1, 0, -100.00000000000094,4.161319468116744, -36, 1],"name":"Group","children":[7, 9, 11]},{"matrix":[1, 0, -5.551115123125783e-17, 0, 0, 1, 0, 0, 5.551115123125783e-17, 0,1, 0, 0, 0, 0, 1],"name":"Cube 9","mesh":7},{"matrix":[2.220446049250313e-16, 0, -1, 0, 0, 1, 0, 0, 1, 0,2.220446049250313e-16, 0, 350.0000000000009, -95.83868053188326,-35.99999999999801, 1],"name":"Clone","children":[13]},{"name":"Group 2","children":[5, 12, 14]},{"matrix":[0.9780998998507131, -1.3877787807814457e-17, -0.20813597937892642, 0,-0.11044869982145471, 0.847587005946765, -0.5190350200689245, 0,0.17641335159158184, 0.5306564494568956, 0.8290247656312966, 0,790.3855484973739, 1886.1961736509502, 2949.0096805998883, 1],"camera":0},{"matrix":[1, 0, 0, 0, 0, 1, 0, 0, 0, 0, 1, 0, 0, 1, 0, 1],"name":"Default Ambient Light"},{"name":"Scene 1","children":[15, 16, 17]}],"bufferViews":[{"buffer":0,"byteOffset":0,"byteLength":108,"target":34962,"byteStride":12},{"buffer":0,"byteOffset":108,"byteLength":108,"target":34962,"byteStride":12},{"buffer":0,"byteOffset":216,"byteLength":72,"target":34962,"byteStride":8},{"buffer":0,"byteOffset":288,"byteLength":44,"target":34963},{"buffer":0,"byteOffset":332,"byteLength":12204,"target":34962,"byteStride":12},{"buffer":0,"byteOffset":12536,"byteLength":12204,"target":34962,"byteStride":12},{"buffer":0,"byteOffset":24740,"byteLength":8136,"target":34962,"byteStride":8},{"buffer":0,"byteOffset":32876,"byteLength":6032,"target":34963},{"buffer":0,"byteOffset":38908,"byteLength":744,"target":34962,"byteStride":12},{"buffer":0,"byteOffset":39652,"byteLength":744,"target":34962,"byteStride":12},{"buffer":0,"byteOffset":40396,"byteLength":496,"target":34962,"byteStride":8},{"buffer":0,"byteOffset":40892,"byteLength":312,"target":34963},{"buffer":0,"byteOffset":41204,"byteLength":8076,"target":34962,"byteStride":12},{"buffer":0,"byteOffset":49280,"byteLength":8076,"target":34962,"byteStride":12},{"buffer":0,"byteOffset":57356,"byteLength":5384,"target":34962,"byteStride":8},{"buffer":0,"byteOffset":62740,"byteLength":3956,"target":34963},{"buffer":0,"byteOffset":66696,"byteLength":288,"target":34962,"byteStride":12},{"buffer":0,"byteOffset":66984,"byteLength":288,"target":34962,"byteStride":12},{"buffer":0,"byteOffset":67272,"byteLength":192,"target":34962,"byteStride":8},{"buffer":0,"byteOffset":67464,"byteLength":72,"target":34963},{"buffer":0,"byteOffset":67536,"byteLength":288,"target":34962,"byteStride":12},{"buffer":0,"byteOffset":67824,"byteLength":288,"target":34962,"byteStride":12},{"buffer":0,"byteOffset":68112,"byteLength":192,"target":34962,"byteStride":8},{"buffer":0,"byteOffset":68304,"byteLength":72,"target":34963},{"buffer":0,"byteOffset":68376,"byteLength":288,"target":34962,"byteStride":12},{"buffer":0,"byteOffset":68664,"byteLength":288,"target":34962,"byteStride":12},{"buffer":0,"byteOffset":68952,"byteLength":192,"target":34962,"byteStride":8},{"buffer":0,"byteOffset":69144,"byteLength":72,"target":34963},{"buffer":0,"byteOffset":69216,"byteLength":288,"target":34962,"byteStride":12},{"buffer":0,"byteOffset":69504,"byteLength":288,"target":34962,"byteStride":12},{"buffer":0,"byteOffset":69792,"byteLength":192,"target":34962,"byteStride":8},{"buffer":0,"byteOffset":69984,"byteLength":72,"target":34963}],"buffers":[{"byteLength":70056,"uri":"data:application/octet-stream;base64,"}],"accessors":[{"bufferView":0,"componentType":5126,"count":9,"max":[26.800003051757812, 26.549999237060547, 0],"min":[-26.799999237060547, -31.5, 0],"type":"VEC3"},{"bufferView":1,"componentType":5126,"count":9,"max":[0, 0, 1],"min":[0, 0, 1],"type":"VEC3"},{"bufferView":2,"componentType":5126,"count":9,"max":[1, 1],"min":[0, 0],"type":"VEC2"},{"bufferView":3,"componentType":5123,"count":21,"max":[8],"min":[0],"type":"SCALAR"},{"bufferView":4,"componentType":5126,"count":1017,"max":[233.5999755859375, 37.68000030517578, 0],"min":[-252.39999389648438, -21.999923706054688, 0],"type":"VEC3"},{"bufferView":5,"componentType":5126,"count":1017,"max":[0, 0, 1],"min":[0, 0, 1],"type":"VEC3"},{"bufferView":6,"componentType":5126,"count":1017,"max":[1, 1],"min":[0, 0],"type":"VEC2"},{"bufferView":7,"componentType":5123,"count":3015,"max":[1016],"min":[0],"type":"SCALAR"},{"bufferView":8,"componentType":5126,"count":62,"max":[152.8800048828125, 36.31999969482422, 0],"min":[-154.39999389648438, -20.639999389648438, 0],"type":"VEC3"},{"bufferView":9,"componentType":5126,"count":62,"max":[0, 0, 1],"min":[0, 0, 1],"type":"VEC3"},{"bufferView":10,"componentType":5126,"count":62,"max":[1, 1],"min":[0, 0],"type":"VEC2"},{"bufferView":11,"componentType":5123,"count":156,"max":[61],"min":[0],"type":"SCALAR"},{"bufferView":12,"componentType":5126,"count":673,"max":[260, 37.68000030517578, 0],"min":[-252, -22.000076293945312, 0],"type":"VEC3"},{"bufferView":13,"componentType":5126,"count":673,"max":[0, 0, 1],"min":[0, 0, 1],"type":"VEC3"},{"bufferView":14,"componentType":5126,"count":673,"max":[1, 1],"min":[0, 0],"type":"VEC2"},{"bufferView":15,"componentType":5123,"count":1977,"max":[672],"min":[0],"type":"SCALAR"},{"bufferView":16,"componentType":5126,"count":24,"max":[50, 50, 300],"min":[-50, -50, -300],"type":"VEC3"},{"bufferView":17,"componentType":5126,"count":24,"max":[1, 1, 1],"min":[-1, -1, -1],"type":"VEC3"},{"bufferView":18,"componentType":5126,"count":24,"max":[1, 1],"min":[0, 0],"type":"VEC2"},{"bufferView":19,"componentType":5123,"count":36,"max":[23],"min":[0],"type":"SCALAR"},{"bufferView":20,"componentType":5126,"count":24,"max":[50, 50, 200],"min":[-50, -50, -200],"type":"VEC3"},{"bufferView":21,"componentType":5126,"count":24,"max":[1, 1, 1],"min":[-1, -1, -1],"type":"VEC3"},{"bufferView":22,"componentType":5126,"count":24,"max":[1, 1],"min":[0, 0],"type":"VEC2"},{"bufferView":23,"componentType":5123,"count":36,"max":[23],"min":[0],"type":"SCALAR"},{"bufferView":24,"componentType":5126,"count":24,"max":[50, 50, 300],"min":[-50, -50, -300],"type":"VEC3"},{"bufferView":25,"componentType":5126,"count":24,"max":[1, 1, 1],"min":[-1, -1, -1],"type":"VEC3"},{"bufferView":26,"componentType":5126,"count":24,"max":[1, 1],"min":[0, 0],"type":"VEC2"},{"bufferView":27,"componentType":5123,"count":36,"max":[23],"min":[0],"type":"SCALAR"},{"bufferView":28,"componentType":5126,"count":24,"max":[50, 50, 50],"min":[-50, -50, -50],"type":"VEC3"},{"bufferView":29,"componentType":5126,"count":24,"max":[1, 1, 1],"min":[-1, -1, -1],"type":"VEC3"},{"bufferView":30,"componentType":5126,"count":24,"max":[1, 1],"min":[0, 0],"type":"VEC2"},{"bufferView":31,"componentType":5123,"count":36,"max":[23],"min":[0],"type":"SCALAR"}],"materials":[{"pbrMetallicRoughness":{"baseColorFactor":[0, 0, 0, 1],"metallicFactor":0,"roughnessFactor":0.995},"doubleSided":false},{"pbrMetallicRoughness":{"baseColorFactor":[0, 0, 0, 1],"metallicFactor":0,"roughnessFactor":0.995},"doubleSided":false},{"pbrMetallicRoughness":{"baseColorFactor":[0, 0, 0, 1],"metallicFactor":0,"roughnessFactor":0.995},"doubleSided":false},{"pbrMetallicRoughness":{"baseColorFactor":[0, 0, 0, 1],"metallicFactor":0,"roughnessFactor":0.995},"doubleSided":false},{"pbrMetallicRoughness":{"baseColorFactor":[1, 1, 1, 1],"metallicFactor":0,"roughnessFactor":0.995},"doubleSided":false}],"meshes":[{"primitives":[{"mode":4,"attributes":{"POSITION":0,"NORMAL":1,"TEXCOORD_0":2},"extras":{"parameters":{"type":"TextGeometry","width":100,"height":100,"depth":0,"horizontalAlign":3,"verticalAlign":2,"fontSize":100,"lineHeight":1.2,"letterSpacing":0,"text":{"textValue":""},"textTransform":1,"font":"Encode Sans_regular","extrudeBevelSize":0,"extrudeBevelSegments":1},"type":"TextGeometry"},"indices":3,"material":0}]},{"primitives":[{"mode":4,"attributes":{"POSITION":4,"NORMAL":5,"TEXCOORD_0":6},"extras":{"parameters":{"type":"TextGeometry","width":600,"height":100,"depth":0,"horizontalAlign":1,"verticalAlign":2,"fontSize":80,"lineHeight":1.2,"letterSpacing":0,"text":{"textValue":"OVER THERE"},"textTransform":1,"font":"e71e72c6-d10c-44e5-ac4b-69f59334ef5a","extrudeBevelSize":0,"extrudeBevelSegments":1},"type":"TextGeometry"},"indices":7,"material":1}]},{"primitives":[{"mode":4,"attributes":{"POSITION":8,"NORMAL":9,"TEXCOORD_0":10},"extras":{"parameters":{"type":"TextGeometry","width":400,"height":100,"depth":0,"horizontalAlign":1,"verticalAlign":2,"fontSize":80,"lineHeight":1.2,"letterSpacing":0,"text":{"textValue":"WAFFLE"},"textTransform":1,"font":"e71e72c6-d10c-44e5-ac4b-69f59334ef5a","extrudeBevelSize":0,"extrudeBevelSegments":1},"type":"TextGeometry"},"indices":11,"material":2}]},{"primitives":[{"mode":4,"attributes":{"POSITION":12,"NORMAL":13,"TEXCOORD_0":14},"extras":{"parameters":{"type":"TextGeometry","width":600,"height":100,"depth":0,"horizontalAlign":1,"verticalAlign":2,"fontSize":80,"lineHeight":1.2,"letterSpacing":0,"text":{"textValue":"GO GET THAT"},"textTransform":1,"font":"e71e72c6-d10c-44e5-ac4b-69f59334ef5a","extrudeBevelSize":0,"extrudeBevelSegments":1},"type":"TextGeometry"},"indices":15,"material":3}]},{"primitives":[{"mode":4,"attributes":{"POSITION":16,"NORMAL":17,"TEXCOORD_0":18},"extras":{"parameters":{"width":100,"widthSegments":1,"heightSegments":1,"depthSegments":1,"cornerRadius":0,"cornerSegments":1,"height":100,"depth":600,"type":"CubeGeometry"},"type":"CubeGeometry"},"indices":19,"material":4}]},{"primitives":[{"mode":4,"attributes":{"POSITION":20,"NORMAL":21,"TEXCOORD_0":22},"extras":{"parameters":{"width":100,"widthSegments":1,"heightSegments":1,"depthSegments":1,"cornerRadius":0,"cornerSegments":1,"height":100,"depth":400,"type":"CubeGeometry"},"type":"CubeGeometry"},"indices":23,"material":4}]},{"primitives":[{"mode":4,"attributes":{"POSITION":24,"NORMAL":25,"TEXCOORD_0":26},"extras":{"parameters":{"width":100,"widthSegments":1,"heightSegments":1,"depthSegments":1,"cornerRadius":0,"cornerSegments":1,"height":100,"depth":600,"type":"CubeGeometry"},"type":"CubeGeometry"},"indices":27,"material":4}]},{"primitives":[{"mode":4,"attributes":{"POSITION":28,"NORMAL":29,"TEXCOORD_0":30},"extras":{"parameters":{"width":100,"widthSegments":1,"heightSegments":1,"depthSegments":1,"cornerRadius":0,"cornerSegments":1,"height":100,"depth":100,"type":"CubeGeometry"},"type":"CubeGeometry"},"indices":31,"material":4}]}],"cameras":[{"type":"orthographic","orthographic":{"xmag":12.8,"ymag":6.470000000000001,"zfar":100000,"znear":0}}]}