<svg width="44" height="44" viewBox="0 0 44 44" fill="none" xmlns="http://www.w3.org/2000/svg">
<path d="M21.9799 32.2949C22.5034 32.2949 22.9456 32.1142 23.3064 31.7528C23.6671 31.3913 23.8475 30.9489 23.8475 30.4254C23.8475 29.9019 23.6668 29.4598 23.3054 29.099C22.9439 28.7382 22.5015 28.5578 21.978 28.5578C21.4545 28.5578 21.0124 28.7385 20.6516 29.1C20.2908 29.4614 20.1104 29.9039 20.1104 30.4274C20.1104 30.9508 20.2911 31.393 20.6526 31.7538C21.014 32.1145 21.4565 32.2949 21.9799 32.2949ZM20.6815 25.7302H23.2623C23.2858 24.8277 23.418 24.1067 23.6589 23.5673C23.8998 23.0279 24.4845 22.3127 25.4129 21.4219C26.2191 20.6157 26.8367 19.8712 27.2656 19.1884C27.6946 18.5056 27.909 17.6993 27.909 16.7694C27.909 15.1914 27.342 13.9588 26.208 13.0715C25.0739 12.1842 23.7324 11.7406 22.1835 11.7406C20.6534 11.7406 19.3871 12.1489 18.3846 12.9657C17.3822 13.7825 16.6671 14.7444 16.2393 15.8514L18.5943 16.7962C18.8176 16.1875 19.1996 15.5946 19.7402 15.0176C20.2808 14.4406 21.0835 14.152 22.1482 14.152C23.2318 14.152 24.0327 14.4488 24.5509 15.0423C25.0692 15.6358 25.3284 16.2886 25.3284 17.0008C25.3284 17.6236 25.1509 18.1936 24.7959 18.7107C24.441 19.2278 23.9886 19.7273 23.4386 20.2091C22.2352 21.295 21.4748 22.1611 21.1575 22.8075C20.8402 23.4539 20.6815 24.4281 20.6815 25.7302ZM22.0032 39.4167C19.5943 39.4167 17.3301 38.9596 15.2105 38.0454C13.0909 37.1312 11.2471 35.8905 9.67925 34.3233C8.11132 32.7561 6.87004 30.9131 5.95543 28.7945C5.04081 26.6758 4.5835 24.4121 4.5835 22.0032C4.5835 19.5943 5.04061 17.3301 5.95483 15.2105C6.86905 13.0909 8.10976 11.2471 9.67695 9.67925C11.2442 8.11132 13.0871 6.87005 15.2058 5.95543C17.3244 5.04081 19.5882 4.5835 21.997 4.5835C24.4059 4.5835 26.6702 5.04061 28.7897 5.95483C30.9093 6.86905 32.7531 8.10976 34.321 9.67695C35.8889 11.2442 37.1302 13.0871 38.0448 15.2058C38.9594 17.3244 39.4167 19.5882 39.4167 21.997C39.4167 24.4059 38.9596 26.6702 38.0454 28.7897C37.1312 30.9093 35.8905 32.7531 34.3233 34.321C32.7561 35.8889 30.9131 37.1302 28.7945 38.0448C26.6758 38.9594 24.4121 39.4167 22.0032 39.4167ZM22.0001 36.6668C26.0946 36.6668 29.5626 35.246 32.4043 32.4043C35.246 29.5626 36.6668 26.0946 36.6668 22.0001C36.6668 17.9057 35.246 14.4376 32.4043 11.596C29.5626 8.75428 26.0946 7.33345 22.0001 7.33345C17.9057 7.33345 14.4376 8.75428 11.596 11.596C8.75428 14.4376 7.33345 17.9057 7.33345 22.0001C7.33345 26.0946 8.75428 29.5626 11.596 32.4043C14.4376 35.246 17.9057 36.6668 22.0001 36.6668Z" fill="black"/>
</svg>
